<?xml version="1.0" encoding="utf-8" standalone="no"?>
<!DOCTYPE svg PUBLIC "-//W3C//DTD SVG 1.1//EN"
  "http://www.w3.org/Graphics/SVG/1.1/DTD/svg11.dtd">
<!-- Created with matplotlib (http://matplotlib.org/) -->
<svg height="432pt" version="1.1" viewBox="0 0 576 432" width="576pt" xmlns="http://www.w3.org/2000/svg" xmlns:xlink="http://www.w3.org/1999/xlink">
 <defs>
  <style type="text/css">
*{stroke-linecap:butt;stroke-linejoin:round;stroke-miterlimit:100000;}
  </style>
 </defs>
 <g id="figure_1">
  <g id="patch_1">
   <path d="M 0 432 
L 576 432 
L 576 0 
L 0 0 
z
" style="fill:#ffffff;"/>
  </g>
  <g id="axes_1">
   <g id="line2d_1">
    <path clip-path="url(#p43a30df596)" d="M 72 164.16 
L 518.4 164.16 
" style="fill:none;stroke:#000000;stroke-linecap:square;"/>
   </g>
   <g id="line2d_2">
    <defs>
     <path d="M 0 3 
C 0.795609 3 1.55874 2.683901 2.12132 2.12132 
C 2.683901 1.55874 3 0.795609 3 0 
C 3 -0.795609 2.683901 -1.55874 2.12132 -2.12132 
C 1.55874 -2.683901 0.795609 -3 0 -3 
C -0.795609 -3 -1.55874 -2.683901 -2.12132 -2.12132 
C -2.683901 -1.55874 -3 -0.795609 -3 0 
C -3 0.795609 -2.683901 1.55874 -2.12132 2.12132 
C -1.55874 2.683901 -0.795609 3 0 3 
z
" id="ma9503e7f57" style="stroke:#000000;stroke-width:0.5;"/>
    </defs>
    <g clip-path="url(#p43a30df596)">
     <use style="fill:#008000;stroke:#000000;stroke-width:0.5;" x="72.0" xlink:href="#ma9503e7f57" y="127.872"/>
     <use style="fill:#008000;stroke:#000000;stroke-width:0.5;" x="73.86" xlink:href="#ma9503e7f57" y="127.872"/>
     <use style="fill:#008000;stroke:#000000;stroke-width:0.5;" x="75.72" xlink:href="#ma9503e7f57" y="127.872"/>
     <use style="fill:#008000;stroke:#000000;stroke-width:0.5;" x="77.58" xlink:href="#ma9503e7f57" y="115.776"/>
     <use style="fill:#008000;stroke:#000000;stroke-width:0.5;" x="79.44" xlink:href="#ma9503e7f57" y="127.872"/>
     <use style="fill:#008000;stroke:#000000;stroke-width:0.5;" x="81.3" xlink:href="#ma9503e7f57" y="103.68"/>
     <use style="fill:#008000;stroke:#000000;stroke-width:0.5;" x="83.16" xlink:href="#ma9503e7f57" y="103.68"/>
     <use style="fill:#008000;stroke:#000000;stroke-width:0.5;" x="85.02" xlink:href="#ma9503e7f57" y="91.584"/>
     <use style="fill:#008000;stroke:#000000;stroke-width:0.5;" x="86.88" xlink:href="#ma9503e7f57" y="115.776"/>
     <use style="fill:#008000;stroke:#000000;stroke-width:0.5;" x="88.74" xlink:href="#ma9503e7f57" y="103.68"/>
     <use style="fill:#008000;stroke:#000000;stroke-width:0.5;" x="90.6" xlink:href="#ma9503e7f57" y="103.68"/>
     <use style="fill:#008000;stroke:#000000;stroke-width:0.5;" x="92.46" xlink:href="#ma9503e7f57" y="103.68"/>
     <use style="fill:#008000;stroke:#000000;stroke-width:0.5;" x="94.32" xlink:href="#ma9503e7f57" y="91.584"/>
     <use style="fill:#008000;stroke:#000000;stroke-width:0.5;" x="96.18" xlink:href="#ma9503e7f57" y="79.488"/>
     <use style="fill:#008000;stroke:#000000;stroke-width:0.5;" x="98.04" xlink:href="#ma9503e7f57" y="79.488"/>
     <use style="fill:#008000;stroke:#000000;stroke-width:0.5;" x="99.9" xlink:href="#ma9503e7f57" y="91.584"/>
     <use style="fill:#008000;stroke:#000000;stroke-width:0.5;" x="101.76" xlink:href="#ma9503e7f57" y="103.68"/>
     <use style="fill:#008000;stroke:#000000;stroke-width:0.5;" x="103.62" xlink:href="#ma9503e7f57" y="103.68"/>
     <use style="fill:#008000;stroke:#000000;stroke-width:0.5;" x="105.48" xlink:href="#ma9503e7f57" y="115.776"/>
     <use style="fill:#008000;stroke:#000000;stroke-width:0.5;" x="107.34" xlink:href="#ma9503e7f57" y="103.68"/>
     <use style="fill:#008000;stroke:#000000;stroke-width:0.5;" x="109.2" xlink:href="#ma9503e7f57" y="115.776"/>
     <use style="fill:#008000;stroke:#000000;stroke-width:0.5;" x="111.06" xlink:href="#ma9503e7f57" y="115.776"/>
     <use style="fill:#008000;stroke:#000000;stroke-width:0.5;" x="112.92" xlink:href="#ma9503e7f57" y="103.68"/>
     <use style="fill:#008000;stroke:#000000;stroke-width:0.5;" x="114.78" xlink:href="#ma9503e7f57" y="91.584"/>
     <use style="fill:#008000;stroke:#000000;stroke-width:0.5;" x="116.64" xlink:href="#ma9503e7f57" y="91.584"/>
     <use style="fill:#008000;stroke:#000000;stroke-width:0.5;" x="118.5" xlink:href="#ma9503e7f57" y="91.584"/>
     <use style="fill:#008000;stroke:#000000;stroke-width:0.5;" x="120.36" xlink:href="#ma9503e7f57" y="67.392"/>
     <use style="fill:#008000;stroke:#000000;stroke-width:0.5;" x="122.22" xlink:href="#ma9503e7f57" y="91.584"/>
     <use style="fill:#008000;stroke:#000000;stroke-width:0.5;" x="124.08" xlink:href="#ma9503e7f57" y="79.488"/>
     <use style="fill:#008000;stroke:#000000;stroke-width:0.5;" x="127.8" xlink:href="#ma9503e7f57" y="79.488"/>
     <use style="fill:#008000;stroke:#000000;stroke-width:0.5;" x="129.66" xlink:href="#ma9503e7f57" y="91.584"/>
     <use style="fill:#008000;stroke:#000000;stroke-width:0.5;" x="133.38" xlink:href="#ma9503e7f57" y="79.488"/>
     <use style="fill:#008000;stroke:#000000;stroke-width:0.5;" x="135.24" xlink:href="#ma9503e7f57" y="79.488"/>
     <use style="fill:#008000;stroke:#000000;stroke-width:0.5;" x="137.1" xlink:href="#ma9503e7f57" y="91.584"/>
     <use style="fill:#008000;stroke:#000000;stroke-width:0.5;" x="138.96" xlink:href="#ma9503e7f57" y="79.488"/>
     <use style="fill:#008000;stroke:#000000;stroke-width:0.5;" x="140.82" xlink:href="#ma9503e7f57" y="79.488"/>
     <use style="fill:#008000;stroke:#000000;stroke-width:0.5;" x="142.68" xlink:href="#ma9503e7f57" y="79.488"/>
     <use style="fill:#008000;stroke:#000000;stroke-width:0.5;" x="144.54" xlink:href="#ma9503e7f57" y="79.488"/>
     <use style="fill:#008000;stroke:#000000;stroke-width:0.5;" x="146.4" xlink:href="#ma9503e7f57" y="67.392"/>
     <use style="fill:#008000;stroke:#000000;stroke-width:0.5;" x="148.26" xlink:href="#ma9503e7f57" y="79.488"/>
     <use style="fill:#008000;stroke:#000000;stroke-width:0.5;" x="150.12" xlink:href="#ma9503e7f57" y="91.584"/>
     <use style="fill:#008000;stroke:#000000;stroke-width:0.5;" x="151.98" xlink:href="#ma9503e7f57" y="79.488"/>
     <use style="fill:#008000;stroke:#000000;stroke-width:0.5;" x="153.84" xlink:href="#ma9503e7f57" y="79.488"/>
     <use style="fill:#008000;stroke:#000000;stroke-width:0.5;" x="155.7" xlink:href="#ma9503e7f57" y="67.392"/>
     <use style="fill:#008000;stroke:#000000;stroke-width:0.5;" x="157.56" xlink:href="#ma9503e7f57" y="55.296"/>
     <use style="fill:#008000;stroke:#000000;stroke-width:0.5;" x="159.42" xlink:href="#ma9503e7f57" y="67.392"/>
     <use style="fill:#008000;stroke:#000000;stroke-width:0.5;" x="161.28" xlink:href="#ma9503e7f57" y="67.392"/>
     <use style="fill:#008000;stroke:#000000;stroke-width:0.5;" x="163.14" xlink:href="#ma9503e7f57" y="91.584"/>
     <use style="fill:#008000;stroke:#000000;stroke-width:0.5;" x="165.0" xlink:href="#ma9503e7f57" y="115.776"/>
     <use style="fill:#008000;stroke:#000000;stroke-width:0.5;" x="166.86" xlink:href="#ma9503e7f57" y="91.584"/>
     <use style="fill:#008000;stroke:#000000;stroke-width:0.5;" x="168.72" xlink:href="#ma9503e7f57" y="103.68"/>
     <use style="fill:#008000;stroke:#000000;stroke-width:0.5;" x="170.58" xlink:href="#ma9503e7f57" y="103.68"/>
     <use style="fill:#008000;stroke:#000000;stroke-width:0.5;" x="172.44" xlink:href="#ma9503e7f57" y="79.488"/>
     <use style="fill:#008000;stroke:#000000;stroke-width:0.5;" x="174.3" xlink:href="#ma9503e7f57" y="67.392"/>
     <use style="fill:#008000;stroke:#000000;stroke-width:0.5;" x="176.16" xlink:href="#ma9503e7f57" y="67.392"/>
     <use style="fill:#008000;stroke:#000000;stroke-width:0.5;" x="178.02" xlink:href="#ma9503e7f57" y="67.392"/>
     <use style="fill:#008000;stroke:#000000;stroke-width:0.5;" x="179.88" xlink:href="#ma9503e7f57" y="67.392"/>
     <use style="fill:#008000;stroke:#000000;stroke-width:0.5;" x="181.74" xlink:href="#ma9503e7f57" y="55.296"/>
     <use style="fill:#008000;stroke:#000000;stroke-width:0.5;" x="183.6" xlink:href="#ma9503e7f57" y="55.296"/>
     <use style="fill:#008000;stroke:#000000;stroke-width:0.5;" x="185.46" xlink:href="#ma9503e7f57" y="79.488"/>
     <use style="fill:#008000;stroke:#000000;stroke-width:0.5;" x="187.32" xlink:href="#ma9503e7f57" y="91.584"/>
     <use style="fill:#008000;stroke:#000000;stroke-width:0.5;" x="189.18" xlink:href="#ma9503e7f57" y="79.488"/>
     <use style="fill:#008000;stroke:#000000;stroke-width:0.5;" x="191.04" xlink:href="#ma9503e7f57" y="79.488"/>
     <use style="fill:#008000;stroke:#000000;stroke-width:0.5;" x="192.9" xlink:href="#ma9503e7f57" y="79.488"/>
     <use style="fill:#008000;stroke:#000000;stroke-width:0.5;" x="194.76" xlink:href="#ma9503e7f57" y="67.392"/>
     <use style="fill:#008000;stroke:#000000;stroke-width:0.5;" x="196.62" xlink:href="#ma9503e7f57" y="91.584"/>
     <use style="fill:#008000;stroke:#000000;stroke-width:0.5;" x="198.48" xlink:href="#ma9503e7f57" y="91.584"/>
     <use style="fill:#008000;stroke:#000000;stroke-width:0.5;" x="200.34" xlink:href="#ma9503e7f57" y="115.776"/>
     <use style="fill:#008000;stroke:#000000;stroke-width:0.5;" x="202.2" xlink:href="#ma9503e7f57" y="103.68"/>
     <use style="fill:#008000;stroke:#000000;stroke-width:0.5;" x="204.06" xlink:href="#ma9503e7f57" y="115.776"/>
     <use style="fill:#008000;stroke:#000000;stroke-width:0.5;" x="205.92" xlink:href="#ma9503e7f57" y="127.872"/>
     <use style="fill:#008000;stroke:#000000;stroke-width:0.5;" x="207.78" xlink:href="#ma9503e7f57" y="127.872"/>
     <use style="fill:#008000;stroke:#000000;stroke-width:0.5;" x="209.64" xlink:href="#ma9503e7f57" y="103.68"/>
     <use style="fill:#008000;stroke:#000000;stroke-width:0.5;" x="211.5" xlink:href="#ma9503e7f57" y="115.776"/>
     <use style="fill:#008000;stroke:#000000;stroke-width:0.5;" x="213.36" xlink:href="#ma9503e7f57" y="103.68"/>
     <use style="fill:#008000;stroke:#000000;stroke-width:0.5;" x="215.22" xlink:href="#ma9503e7f57" y="127.872"/>
     <use style="fill:#008000;stroke:#000000;stroke-width:0.5;" x="217.08" xlink:href="#ma9503e7f57" y="127.872"/>
     <use style="fill:#008000;stroke:#000000;stroke-width:0.5;" x="218.94" xlink:href="#ma9503e7f57" y="127.872"/>
     <use style="fill:#008000;stroke:#000000;stroke-width:0.5;" x="220.8" xlink:href="#ma9503e7f57" y="152.064"/>
     <use style="fill:#008000;stroke:#000000;stroke-width:0.5;" x="222.66" xlink:href="#ma9503e7f57" y="152.064"/>
     <use style="fill:#008000;stroke:#000000;stroke-width:0.5;" x="224.52" xlink:href="#ma9503e7f57" y="139.968"/>
     <use style="fill:#008000;stroke:#000000;stroke-width:0.5;" x="226.38" xlink:href="#ma9503e7f57" y="115.776"/>
     <use style="fill:#008000;stroke:#000000;stroke-width:0.5;" x="228.24" xlink:href="#ma9503e7f57" y="127.872"/>
     <use style="fill:#008000;stroke:#000000;stroke-width:0.5;" x="230.1" xlink:href="#ma9503e7f57" y="127.872"/>
     <use style="fill:#008000;stroke:#000000;stroke-width:0.5;" x="231.96" xlink:href="#ma9503e7f57" y="103.68"/>
     <use style="fill:#008000;stroke:#000000;stroke-width:0.5;" x="233.82" xlink:href="#ma9503e7f57" y="139.968"/>
     <use style="fill:#008000;stroke:#000000;stroke-width:0.5;" x="235.68" xlink:href="#ma9503e7f57" y="115.776"/>
     <use style="fill:#008000;stroke:#000000;stroke-width:0.5;" x="237.54" xlink:href="#ma9503e7f57" y="115.776"/>
     <use style="fill:#008000;stroke:#000000;stroke-width:0.5;" x="239.4" xlink:href="#ma9503e7f57" y="115.776"/>
     <use style="fill:#008000;stroke:#000000;stroke-width:0.5;" x="241.26" xlink:href="#ma9503e7f57" y="127.872"/>
     <use style="fill:#008000;stroke:#000000;stroke-width:0.5;" x="243.12" xlink:href="#ma9503e7f57" y="127.872"/>
     <use style="fill:#008000;stroke:#000000;stroke-width:0.5;" x="244.98" xlink:href="#ma9503e7f57" y="103.68"/>
     <use style="fill:#008000;stroke:#000000;stroke-width:0.5;" x="246.84" xlink:href="#ma9503e7f57" y="139.968"/>
     <use style="fill:#008000;stroke:#000000;stroke-width:0.5;" x="248.7" xlink:href="#ma9503e7f57" y="115.776"/>
     <use style="fill:#008000;stroke:#000000;stroke-width:0.5;" x="250.56" xlink:href="#ma9503e7f57" y="115.776"/>
     <use style="fill:#008000;stroke:#000000;stroke-width:0.5;" x="252.42" xlink:href="#ma9503e7f57" y="127.872"/>
     <use style="fill:#008000;stroke:#000000;stroke-width:0.5;" x="254.28" xlink:href="#ma9503e7f57" y="127.872"/>
     <use style="fill:#008000;stroke:#000000;stroke-width:0.5;" x="256.14" xlink:href="#ma9503e7f57" y="127.872"/>
     <use style="fill:#008000;stroke:#000000;stroke-width:0.5;" x="258.0" xlink:href="#ma9503e7f57" y="152.064"/>
     <use style="fill:#008000;stroke:#000000;stroke-width:0.5;" x="259.86" xlink:href="#ma9503e7f57" y="164.16"/>
     <use style="fill:#008000;stroke:#000000;stroke-width:0.5;" x="261.72" xlink:href="#ma9503e7f57" y="176.256"/>
     <use style="fill:#008000;stroke:#000000;stroke-width:0.5;" x="263.58" xlink:href="#ma9503e7f57" y="139.968"/>
     <use style="fill:#008000;stroke:#000000;stroke-width:0.5;" x="265.44" xlink:href="#ma9503e7f57" y="139.968"/>
     <use style="fill:#008000;stroke:#000000;stroke-width:0.5;" x="267.3" xlink:href="#ma9503e7f57" y="152.064"/>
     <use style="fill:#008000;stroke:#000000;stroke-width:0.5;" x="269.16" xlink:href="#ma9503e7f57" y="127.872"/>
     <use style="fill:#008000;stroke:#000000;stroke-width:0.5;" x="271.02" xlink:href="#ma9503e7f57" y="127.872"/>
     <use style="fill:#008000;stroke:#000000;stroke-width:0.5;" x="272.88" xlink:href="#ma9503e7f57" y="127.872"/>
     <use style="fill:#008000;stroke:#000000;stroke-width:0.5;" x="274.74" xlink:href="#ma9503e7f57" y="139.968"/>
     <use style="fill:#008000;stroke:#000000;stroke-width:0.5;" x="276.6" xlink:href="#ma9503e7f57" y="127.872"/>
     <use style="fill:#008000;stroke:#000000;stroke-width:0.5;" x="278.46" xlink:href="#ma9503e7f57" y="139.968"/>
     <use style="fill:#008000;stroke:#000000;stroke-width:0.5;" x="280.32" xlink:href="#ma9503e7f57" y="127.872"/>
     <use style="fill:#008000;stroke:#000000;stroke-width:0.5;" x="282.18" xlink:href="#ma9503e7f57" y="127.872"/>
     <use style="fill:#008000;stroke:#000000;stroke-width:0.5;" x="284.04" xlink:href="#ma9503e7f57" y="139.968"/>
     <use style="fill:#008000;stroke:#000000;stroke-width:0.5;" x="285.9" xlink:href="#ma9503e7f57" y="139.968"/>
     <use style="fill:#008000;stroke:#000000;stroke-width:0.5;" x="287.76" xlink:href="#ma9503e7f57" y="139.968"/>
     <use style="fill:#008000;stroke:#000000;stroke-width:0.5;" x="289.62" xlink:href="#ma9503e7f57" y="139.968"/>
     <use style="fill:#008000;stroke:#000000;stroke-width:0.5;" x="291.48" xlink:href="#ma9503e7f57" y="139.968"/>
     <use style="fill:#008000;stroke:#000000;stroke-width:0.5;" x="293.34" xlink:href="#ma9503e7f57" y="152.064"/>
     <use style="fill:#008000;stroke:#000000;stroke-width:0.5;" x="295.2" xlink:href="#ma9503e7f57" y="139.968"/>
     <use style="fill:#008000;stroke:#000000;stroke-width:0.5;" x="297.06" xlink:href="#ma9503e7f57" y="139.968"/>
     <use style="fill:#008000;stroke:#000000;stroke-width:0.5;" x="298.92" xlink:href="#ma9503e7f57" y="139.968"/>
     <use style="fill:#008000;stroke:#000000;stroke-width:0.5;" x="300.78" xlink:href="#ma9503e7f57" y="139.968"/>
     <use style="fill:#008000;stroke:#000000;stroke-width:0.5;" x="302.64" xlink:href="#ma9503e7f57" y="127.872"/>
     <use style="fill:#008000;stroke:#000000;stroke-width:0.5;" x="304.5" xlink:href="#ma9503e7f57" y="127.872"/>
     <use style="fill:#008000;stroke:#000000;stroke-width:0.5;" x="306.36" xlink:href="#ma9503e7f57" y="127.872"/>
     <use style="fill:#008000;stroke:#000000;stroke-width:0.5;" x="308.22" xlink:href="#ma9503e7f57" y="139.968"/>
     <use style="fill:#008000;stroke:#000000;stroke-width:0.5;" x="311.94" xlink:href="#ma9503e7f57" y="139.968"/>
     <use style="fill:#008000;stroke:#000000;stroke-width:0.5;" x="313.8" xlink:href="#ma9503e7f57" y="127.872"/>
     <use style="fill:#008000;stroke:#000000;stroke-width:0.5;" x="315.66" xlink:href="#ma9503e7f57" y="152.064"/>
     <use style="fill:#008000;stroke:#000000;stroke-width:0.5;" x="317.52" xlink:href="#ma9503e7f57" y="127.872"/>
     <use style="fill:#008000;stroke:#000000;stroke-width:0.5;" x="324.96" xlink:href="#ma9503e7f57" y="152.064"/>
     <use style="fill:#008000;stroke:#000000;stroke-width:0.5;" x="326.82" xlink:href="#ma9503e7f57" y="127.872"/>
     <use style="fill:#008000;stroke:#000000;stroke-width:0.5;" x="328.68" xlink:href="#ma9503e7f57" y="139.968"/>
     <use style="fill:#008000;stroke:#000000;stroke-width:0.5;" x="330.54" xlink:href="#ma9503e7f57" y="139.968"/>
     <use style="fill:#008000;stroke:#000000;stroke-width:0.5;" x="332.4" xlink:href="#ma9503e7f57" y="115.776"/>
     <use style="fill:#008000;stroke:#000000;stroke-width:0.5;" x="334.26" xlink:href="#ma9503e7f57" y="79.488"/>
     <use style="fill:#008000;stroke:#000000;stroke-width:0.5;" x="336.12" xlink:href="#ma9503e7f57" y="91.584"/>
     <use style="fill:#008000;stroke:#000000;stroke-width:0.5;" x="337.98" xlink:href="#ma9503e7f57" y="115.776"/>
     <use style="fill:#008000;stroke:#000000;stroke-width:0.5;" x="339.84" xlink:href="#ma9503e7f57" y="103.68"/>
     <use style="fill:#008000;stroke:#000000;stroke-width:0.5;" x="341.7" xlink:href="#ma9503e7f57" y="91.584"/>
     <use style="fill:#008000;stroke:#000000;stroke-width:0.5;" x="343.56" xlink:href="#ma9503e7f57" y="91.584"/>
     <use style="fill:#008000;stroke:#000000;stroke-width:0.5;" x="345.42" xlink:href="#ma9503e7f57" y="115.776"/>
     <use style="fill:#008000;stroke:#000000;stroke-width:0.5;" x="347.28" xlink:href="#ma9503e7f57" y="127.872"/>
     <use style="fill:#008000;stroke:#000000;stroke-width:0.5;" x="349.14" xlink:href="#ma9503e7f57" y="115.776"/>
     <use style="fill:#008000;stroke:#000000;stroke-width:0.5;" x="351.0" xlink:href="#ma9503e7f57" y="139.968"/>
     <use style="fill:#008000;stroke:#000000;stroke-width:0.5;" x="352.86" xlink:href="#ma9503e7f57" y="127.872"/>
     <use style="fill:#008000;stroke:#000000;stroke-width:0.5;" x="354.72" xlink:href="#ma9503e7f57" y="115.776"/>
     <use style="fill:#008000;stroke:#000000;stroke-width:0.5;" x="356.58" xlink:href="#ma9503e7f57" y="127.872"/>
     <use style="fill:#008000;stroke:#000000;stroke-width:0.5;" x="358.44" xlink:href="#ma9503e7f57" y="139.968"/>
     <use style="fill:#008000;stroke:#000000;stroke-width:0.5;" x="360.3" xlink:href="#ma9503e7f57" y="127.872"/>
     <use style="fill:#008000;stroke:#000000;stroke-width:0.5;" x="362.16" xlink:href="#ma9503e7f57" y="115.776"/>
     <use style="fill:#008000;stroke:#000000;stroke-width:0.5;" x="364.02" xlink:href="#ma9503e7f57" y="127.872"/>
     <use style="fill:#008000;stroke:#000000;stroke-width:0.5;" x="365.88" xlink:href="#ma9503e7f57" y="115.776"/>
     <use style="fill:#008000;stroke:#000000;stroke-width:0.5;" x="367.74" xlink:href="#ma9503e7f57" y="127.872"/>
     <use style="fill:#008000;stroke:#000000;stroke-width:0.5;" x="373.32" xlink:href="#ma9503e7f57" y="127.872"/>
     <use style="fill:#008000;stroke:#000000;stroke-width:0.5;" x="375.18" xlink:href="#ma9503e7f57" y="127.872"/>
     <use style="fill:#008000;stroke:#000000;stroke-width:0.5;" x="377.04" xlink:href="#ma9503e7f57" y="115.776"/>
     <use style="fill:#008000;stroke:#000000;stroke-width:0.5;" x="378.9" xlink:href="#ma9503e7f57" y="115.776"/>
     <use style="fill:#008000;stroke:#000000;stroke-width:0.5;" x="380.76" xlink:href="#ma9503e7f57" y="127.872"/>
     <use style="fill:#008000;stroke:#000000;stroke-width:0.5;" x="382.62" xlink:href="#ma9503e7f57" y="127.872"/>
     <use style="fill:#008000;stroke:#000000;stroke-width:0.5;" x="384.48" xlink:href="#ma9503e7f57" y="139.968"/>
     <use style="fill:#008000;stroke:#000000;stroke-width:0.5;" x="386.34" xlink:href="#ma9503e7f57" y="139.968"/>
     <use style="fill:#008000;stroke:#000000;stroke-width:0.5;" x="388.2" xlink:href="#ma9503e7f57" y="127.872"/>
     <use style="fill:#008000;stroke:#000000;stroke-width:0.5;" x="390.06" xlink:href="#ma9503e7f57" y="127.872"/>
     <use style="fill:#008000;stroke:#000000;stroke-width:0.5;" x="391.92" xlink:href="#ma9503e7f57" y="115.776"/>
     <use style="fill:#008000;stroke:#000000;stroke-width:0.5;" x="393.78" xlink:href="#ma9503e7f57" y="115.776"/>
     <use style="fill:#008000;stroke:#000000;stroke-width:0.5;" x="395.64" xlink:href="#ma9503e7f57" y="127.872"/>
     <use style="fill:#008000;stroke:#000000;stroke-width:0.5;" x="397.5" xlink:href="#ma9503e7f57" y="127.872"/>
     <use style="fill:#008000;stroke:#000000;stroke-width:0.5;" x="399.36" xlink:href="#ma9503e7f57" y="152.064"/>
     <use style="fill:#008000;stroke:#000000;stroke-width:0.5;" x="401.22" xlink:href="#ma9503e7f57" y="127.872"/>
     <use style="fill:#008000;stroke:#000000;stroke-width:0.5;" x="403.08" xlink:href="#ma9503e7f57" y="115.776"/>
     <use style="fill:#008000;stroke:#000000;stroke-width:0.5;" x="404.94" xlink:href="#ma9503e7f57" y="139.968"/>
     <use style="fill:#008000;stroke:#000000;stroke-width:0.5;" x="406.8" xlink:href="#ma9503e7f57" y="127.872"/>
     <use style="fill:#008000;stroke:#000000;stroke-width:0.5;" x="408.66" xlink:href="#ma9503e7f57" y="127.872"/>
     <use style="fill:#008000;stroke:#000000;stroke-width:0.5;" x="410.52" xlink:href="#ma9503e7f57" y="139.968"/>
     <use style="fill:#008000;stroke:#000000;stroke-width:0.5;" x="412.38" xlink:href="#ma9503e7f57" y="152.064"/>
     <use style="fill:#008000;stroke:#000000;stroke-width:0.5;" x="414.24" xlink:href="#ma9503e7f57" y="127.872"/>
     <use style="fill:#008000;stroke:#000000;stroke-width:0.5;" x="416.1" xlink:href="#ma9503e7f57" y="139.968"/>
     <use style="fill:#008000;stroke:#000000;stroke-width:0.5;" x="417.96" xlink:href="#ma9503e7f57" y="139.968"/>
     <use style="fill:#008000;stroke:#000000;stroke-width:0.5;" x="419.82" xlink:href="#ma9503e7f57" y="139.968"/>
     <use style="fill:#008000;stroke:#000000;stroke-width:0.5;" x="421.68" xlink:href="#ma9503e7f57" y="139.968"/>
     <use style="fill:#008000;stroke:#000000;stroke-width:0.5;" x="425.4" xlink:href="#ma9503e7f57" y="115.776"/>
     <use style="fill:#008000;stroke:#000000;stroke-width:0.5;" x="427.26" xlink:href="#ma9503e7f57" y="115.776"/>
     <use style="fill:#008000;stroke:#000000;stroke-width:0.5;" x="429.12" xlink:href="#ma9503e7f57" y="91.584"/>
     <use style="fill:#008000;stroke:#000000;stroke-width:0.5;" x="430.98" xlink:href="#ma9503e7f57" y="79.488"/>
     <use style="fill:#008000;stroke:#000000;stroke-width:0.5;" x="432.84" xlink:href="#ma9503e7f57" y="115.776"/>
     <use style="fill:#008000;stroke:#000000;stroke-width:0.5;" x="434.7" xlink:href="#ma9503e7f57" y="103.68"/>
     <use style="fill:#008000;stroke:#000000;stroke-width:0.5;" x="436.56" xlink:href="#ma9503e7f57" y="127.872"/>
     <use style="fill:#008000;stroke:#000000;stroke-width:0.5;" x="438.42" xlink:href="#ma9503e7f57" y="127.872"/>
     <use style="fill:#008000;stroke:#000000;stroke-width:0.5;" x="440.28" xlink:href="#ma9503e7f57" y="152.064"/>
     <use style="fill:#008000;stroke:#000000;stroke-width:0.5;" x="442.14" xlink:href="#ma9503e7f57" y="139.968"/>
     <use style="fill:#008000;stroke:#000000;stroke-width:0.5;" x="444.0" xlink:href="#ma9503e7f57" y="139.968"/>
     <use style="fill:#008000;stroke:#000000;stroke-width:0.5;" x="445.86" xlink:href="#ma9503e7f57" y="139.968"/>
     <use style="fill:#008000;stroke:#000000;stroke-width:0.5;" x="447.72" xlink:href="#ma9503e7f57" y="127.872"/>
     <use style="fill:#008000;stroke:#000000;stroke-width:0.5;" x="449.58" xlink:href="#ma9503e7f57" y="115.776"/>
     <use style="fill:#008000;stroke:#000000;stroke-width:0.5;" x="451.44" xlink:href="#ma9503e7f57" y="127.872"/>
     <use style="fill:#008000;stroke:#000000;stroke-width:0.5;" x="453.3" xlink:href="#ma9503e7f57" y="127.872"/>
     <use style="fill:#008000;stroke:#000000;stroke-width:0.5;" x="455.16" xlink:href="#ma9503e7f57" y="103.68"/>
     <use style="fill:#008000;stroke:#000000;stroke-width:0.5;" x="457.02" xlink:href="#ma9503e7f57" y="103.68"/>
     <use style="fill:#008000;stroke:#000000;stroke-width:0.5;" x="458.88" xlink:href="#ma9503e7f57" y="115.776"/>
     <use style="fill:#008000;stroke:#000000;stroke-width:0.5;" x="460.74" xlink:href="#ma9503e7f57" y="103.68"/>
     <use style="fill:#008000;stroke:#000000;stroke-width:0.5;" x="462.6" xlink:href="#ma9503e7f57" y="115.776"/>
     <use style="fill:#008000;stroke:#000000;stroke-width:0.5;" x="464.46" xlink:href="#ma9503e7f57" y="115.776"/>
     <use style="fill:#008000;stroke:#000000;stroke-width:0.5;" x="466.32" xlink:href="#ma9503e7f57" y="127.872"/>
     <use style="fill:#008000;stroke:#000000;stroke-width:0.5;" x="468.18" xlink:href="#ma9503e7f57" y="115.776"/>
     <use style="fill:#008000;stroke:#000000;stroke-width:0.5;" x="470.04" xlink:href="#ma9503e7f57" y="115.776"/>
     <use style="fill:#008000;stroke:#000000;stroke-width:0.5;" x="471.9" xlink:href="#ma9503e7f57" y="139.968"/>
     <use style="fill:#008000;stroke:#000000;stroke-width:0.5;" x="473.76" xlink:href="#ma9503e7f57" y="139.968"/>
     <use style="fill:#008000;stroke:#000000;stroke-width:0.5;" x="477.48" xlink:href="#ma9503e7f57" y="127.872"/>
     <use style="fill:#008000;stroke:#000000;stroke-width:0.5;" x="479.34" xlink:href="#ma9503e7f57" y="127.872"/>
     <use style="fill:#008000;stroke:#000000;stroke-width:0.5;" x="481.2" xlink:href="#ma9503e7f57" y="127.872"/>
     <use style="fill:#008000;stroke:#000000;stroke-width:0.5;" x="483.06" xlink:href="#ma9503e7f57" y="139.968"/>
     <use style="fill:#008000;stroke:#000000;stroke-width:0.5;" x="484.92" xlink:href="#ma9503e7f57" y="188.352"/>
     <use style="fill:#008000;stroke:#000000;stroke-width:0.5;" x="486.78" xlink:href="#ma9503e7f57" y="248.832"/>
     <use style="fill:#008000;stroke:#000000;stroke-width:0.5;" x="488.64" xlink:href="#ma9503e7f57" y="273.024"/>
     <use style="fill:#008000;stroke:#000000;stroke-width:0.5;" x="490.5" xlink:href="#ma9503e7f57" y="273.024"/>
     <use style="fill:#008000;stroke:#000000;stroke-width:0.5;" x="492.36" xlink:href="#ma9503e7f57" y="248.832"/>
     <use style="fill:#008000;stroke:#000000;stroke-width:0.5;" x="494.22" xlink:href="#ma9503e7f57" y="248.832"/>
     <use style="fill:#008000;stroke:#000000;stroke-width:0.5;" x="496.08" xlink:href="#ma9503e7f57" y="260.928"/>
     <use style="fill:#008000;stroke:#000000;stroke-width:0.5;" x="497.94" xlink:href="#ma9503e7f57" y="248.832"/>
     <use style="fill:#008000;stroke:#000000;stroke-width:0.5;" x="499.8" xlink:href="#ma9503e7f57" y="273.024"/>
     <use style="fill:#008000;stroke:#000000;stroke-width:0.5;" x="501.66" xlink:href="#ma9503e7f57" y="260.928"/>
     <use style="fill:#008000;stroke:#000000;stroke-width:0.5;" x="503.52" xlink:href="#ma9503e7f57" y="260.928"/>
     <use style="fill:#008000;stroke:#000000;stroke-width:0.5;" x="505.38" xlink:href="#ma9503e7f57" y="273.024"/>
     <use style="fill:#008000;stroke:#000000;stroke-width:0.5;" x="507.24" xlink:href="#ma9503e7f57" y="273.024"/>
     <use style="fill:#008000;stroke:#000000;stroke-width:0.5;" x="509.1" xlink:href="#ma9503e7f57" y="260.928"/>
     <use style="fill:#008000;stroke:#000000;stroke-width:0.5;" x="510.96" xlink:href="#ma9503e7f57" y="285.12"/>
     <use style="fill:#008000;stroke:#000000;stroke-width:0.5;" x="512.82" xlink:href="#ma9503e7f57" y="297.216"/>
     <use style="fill:#008000;stroke:#000000;stroke-width:0.5;" x="514.68" xlink:href="#ma9503e7f57" y="285.12"/>
     <use style="fill:#008000;stroke:#000000;stroke-width:0.5;" x="518.4" xlink:href="#ma9503e7f57" y="285.12"/>
    </g>
   </g>
   <g id="matplotlib.axis_1">
    <g id="xtick_1">
     <g id="line2d_3">
      <path clip-path="url(#p43a30df596)" d="M 108.934286 345.6 
L 108.934286 43.2 
" style="fill:none;stroke:#000000;stroke-dasharray:1.000000,3.000000;stroke-dashoffset:0.0;stroke-width:0.5;"/>
     </g>
     <g id="line2d_4">
      <defs>
       <path d="M 0 0 
L 0 -4 
" id="m255fdec70d" style="stroke:#000000;stroke-width:0.5;"/>
      </defs>
      <g>
       <use style="stroke:#000000;stroke-width:0.5;" x="108.934285714" xlink:href="#m255fdec70d" y="345.6"/>
      </g>
     </g>
     <g id="line2d_5">
      <defs>
       <path d="M 0 0 
L 0 4 
" id="m9d8ead79d8" style="stroke:#000000;stroke-width:0.5;"/>
      </defs>
      <g>
       <use style="stroke:#000000;stroke-width:0.5;" x="108.934285714" xlink:href="#m9d8ead79d8" y="43.2"/>
      </g>
     </g>
     <g id="text_1">
      <!-- nov 2011 -->
      <defs>
       <path d="M 39.40625 13.71875 
Q 39.40625 10.6875 38.25 8 
Q 37.109375 5.328125 35.109375 3.3125 
Q 33.109375 1.3125 30.421875 0.15625 
Q 27.734375 -0.984375 24.703125 -0.984375 
L 20.703125 -0.984375 
Q 17.671875 -0.984375 14.984375 0.15625 
Q 12.3125 1.3125 10.296875 3.3125 
Q 8.296875 5.328125 7.140625 8 
Q 6 10.6875 6 13.71875 
L 6 36.28125 
Q 6 39.3125 7.140625 41.984375 
Q 8.296875 44.671875 10.296875 46.671875 
Q 12.3125 48.6875 14.984375 49.828125 
Q 17.671875 50.984375 20.703125 50.984375 
L 24.703125 50.984375 
Q 27.734375 50.984375 30.421875 49.828125 
Q 33.109375 48.6875 35.109375 46.671875 
Q 37.109375 44.671875 38.25 41.984375 
Q 39.40625 39.3125 39.40625 36.28125 
L 39.40625 13.71875 
z
M 33.40625 36.625 
Q 33.40625 38.421875 32.71875 40.015625 
Q 32.03125 41.609375 30.859375 42.78125 
Q 29.6875 43.953125 28.09375 44.625 
Q 26.515625 45.3125 24.703125 45.3125 
L 20.703125 45.3125 
Q 18.890625 45.3125 17.296875 44.625 
Q 15.71875 43.953125 14.546875 42.78125 
Q 13.375 41.609375 12.6875 40.015625 
Q 12.015625 38.421875 12.015625 36.625 
L 12.015625 13.375 
Q 12.015625 11.578125 12.6875 9.984375 
Q 13.375 8.40625 14.546875 7.234375 
Q 15.71875 6.0625 17.296875 5.375 
Q 18.890625 4.6875 20.703125 4.6875 
L 24.703125 4.6875 
Q 26.515625 4.6875 28.09375 5.375 
Q 29.6875 6.0625 30.859375 7.234375 
Q 32.03125 8.40625 32.71875 9.984375 
Q 33.40625 11.578125 33.40625 13.375 
z
" id="Abel-Regular-6f"/>
       <path d="M 44.390625 16.21875 
Q 44.390625 12.640625 43.046875 9.515625 
Q 41.703125 6.390625 39.359375 4.046875 
Q 37.015625 1.703125 33.890625 0.359375 
Q 30.765625 -0.984375 27.203125 -0.984375 
L 24.21875 -0.984375 
Q 20.65625 -0.984375 17.5 0.359375 
Q 14.359375 1.703125 12.015625 4.046875 
Q 9.671875 6.390625 8.328125 9.515625 
Q 6.984375 12.640625 6.984375 16.21875 
L 6.984375 53.8125 
Q 6.984375 57.375 8.328125 60.5 
Q 9.671875 63.625 12.015625 65.96875 
Q 14.359375 68.3125 17.5 69.65625 
Q 20.65625 71 24.21875 71 
L 27.203125 71 
Q 30.765625 71 33.890625 69.65625 
Q 37.015625 68.3125 39.359375 65.96875 
Q 41.703125 63.625 43.046875 60.5 
Q 44.390625 57.375 44.390625 53.8125 
L 44.390625 16.21875 
z
M 38.09375 53.8125 
Q 38.09375 56.15625 37.203125 58.171875 
Q 36.328125 60.203125 34.8125 61.71875 
Q 33.296875 63.234375 31.265625 64.109375 
Q 29.25 64.984375 26.90625 64.984375 
L 24.515625 64.984375 
Q 22.171875 64.984375 20.140625 64.109375 
Q 18.109375 63.234375 16.578125 61.71875 
Q 15.046875 60.203125 14.15625 58.171875 
Q 13.28125 56.15625 13.28125 53.8125 
L 13.28125 16.21875 
Q 13.28125 13.875 14.15625 11.84375 
Q 15.046875 9.8125 16.578125 8.265625 
Q 18.109375 6.734375 20.140625 5.859375 
Q 22.171875 4.984375 24.515625 4.984375 
L 26.90625 4.984375 
Q 29.25 4.984375 31.265625 5.859375 
Q 33.296875 6.734375 34.8125 8.265625 
Q 36.328125 9.8125 37.203125 11.84375 
Q 38.09375 13.875 38.09375 16.21875 
z
" id="Abel-Regular-30"/>
       <path d="M 33.40625 0 
L 33.40625 36.625 
Q 33.40625 38.421875 32.71875 40.015625 
Q 32.03125 41.609375 30.859375 42.78125 
Q 29.6875 43.953125 28.09375 44.625 
Q 26.515625 45.3125 24.703125 45.3125 
L 20.703125 45.3125 
Q 18.890625 45.3125 17.296875 44.625 
Q 15.71875 43.953125 14.546875 42.78125 
Q 13.375 41.609375 12.6875 40.015625 
Q 12.015625 38.421875 12.015625 36.625 
L 12.015625 0 
L 6 0 
L 6 50 
L 8.015625 50 
L 11.28125 44.921875 
Q 13.328125 47.703125 16.421875 49.34375 
Q 19.53125 50.984375 23.1875 50.984375 
L 24.703125 50.984375 
Q 27.734375 50.984375 30.421875 49.828125 
Q 33.109375 48.6875 35.109375 46.671875 
Q 37.109375 44.671875 38.25 41.984375 
Q 39.40625 39.3125 39.40625 36.28125 
L 39.40625 0 
z
" id="Abel-Regular-6e"/>
       <path d="M 23 64.984375 
Q 20.65625 64.984375 18.625 64.109375 
Q 16.609375 63.234375 15.09375 61.71875 
Q 13.578125 60.203125 12.6875 58.171875 
Q 11.8125 56.15625 11.8125 53.8125 
L 11.8125 50.984375 
L 5.515625 52 
L 5.515625 53.8125 
Q 5.515625 57.375 6.859375 60.5 
Q 8.203125 63.625 10.546875 65.96875 
Q 12.890625 68.3125 16.015625 69.65625 
Q 19.140625 71 22.703125 71 
L 25.6875 71 
Q 29.25 71 32.390625 69.71875 
Q 35.546875 68.453125 37.890625 66.0625 
Q 40.234375 63.671875 41.578125 60.328125 
Q 42.921875 56.984375 42.921875 52.78125 
Q 42.921875 48.640625 41.671875 44.4375 
Q 40.4375 40.234375 38.40625 36.171875 
Q 36.375 32.125 33.765625 28.3125 
Q 31.15625 24.515625 28.421875 21.140625 
Q 22.015625 13.28125 13.921875 6 
L 43.40625 6 
L 43.40625 0 
L 4 0 
L 4 4.984375 
Q 13.140625 12.5 20.3125 20.5625 
Q 23.390625 24.03125 26.3125 27.9375 
Q 29.25 31.84375 31.546875 35.96875 
Q 33.84375 40.09375 35.234375 44.359375 
Q 36.625 48.640625 36.625 52.78125 
Q 36.625 55.859375 35.6875 58.15625 
Q 34.765625 60.453125 33.203125 61.96875 
Q 31.640625 63.484375 29.609375 64.234375 
Q 27.59375 64.984375 25.390625 64.984375 
z
" id="Abel-Regular-32"/>
       <path d="M 8.015625 0 
L 8.015625 6 
L 24.703125 6 
L 24.703125 64.015625 
L 8.015625 56.984375 
L 8.015625 62.984375 
L 24.703125 70.015625 
L 31 70.015625 
L 31 6 
L 47.703125 6 
L 47.703125 0 
z
" id="Abel-Regular-31"/>
       <path id="Abel-Regular-20"/>
       <path d="M 21.6875 0 
L 18.703125 0 
L 0.984375 50 
L 6.984375 50 
L 20.015625 12.109375 
L 20.21875 9.515625 
L 20.40625 12.109375 
L 33.40625 50 
L 39.40625 50 
z
" id="Abel-Regular-76"/>
      </defs>
      <g transform="translate(70.483430534 378.382487189)rotate(-30.0)scale(0.12 -0.12)">
       <use xlink:href="#Abel-Regular-6e"/>
       <use x="45.41015625" xlink:href="#Abel-Regular-6f"/>
       <use x="90.8203125" xlink:href="#Abel-Regular-76"/>
       <use x="131.201171875" xlink:href="#Abel-Regular-20"/>
       <use x="154.19921875" xlink:href="#Abel-Regular-32"/>
       <use x="203.61328125" xlink:href="#Abel-Regular-30"/>
       <use x="255.029296875" xlink:href="#Abel-Regular-31"/>
       <use x="306.73828125" xlink:href="#Abel-Regular-31"/>
      </g>
     </g>
    </g>
    <g id="xtick_2">
     <g id="line2d_6">
      <path clip-path="url(#p43a30df596)" d="M 157.294286 345.6 
L 157.294286 43.2 
" style="fill:none;stroke:#000000;stroke-dasharray:1.000000,3.000000;stroke-dashoffset:0.0;stroke-width:0.5;"/>
     </g>
     <g id="line2d_7">
      <g>
       <use style="stroke:#000000;stroke-width:0.5;" x="157.294285714" xlink:href="#m255fdec70d" y="345.6"/>
      </g>
     </g>
     <g id="line2d_8">
      <g>
       <use style="stroke:#000000;stroke-width:0.5;" x="157.294285714" xlink:href="#m9d8ead79d8" y="43.2"/>
      </g>
     </g>
     <g id="text_2">
      <!-- may 2012 -->
      <defs>
       <path d="M 37.40625 0 
L 34.078125 4.984375 
Q 32.03125 2.296875 28.953125 0.65625 
Q 25.875 -0.984375 22.21875 -0.984375 
L 20.703125 -0.984375 
Q 17.671875 -0.984375 14.984375 0.15625 
Q 12.3125 1.3125 10.296875 3.3125 
Q 8.296875 5.328125 7.140625 8 
Q 6 10.6875 6 13.71875 
L 6 14.203125 
Q 6 17.234375 7.140625 19.921875 
Q 8.296875 22.609375 10.296875 24.609375 
Q 12.3125 26.609375 14.984375 27.75 
Q 17.671875 28.90625 20.703125 28.90625 
L 33.40625 28.90625 
L 33.40625 36.625 
Q 33.40625 38.421875 32.71875 40.015625 
Q 32.03125 41.609375 30.859375 42.78125 
Q 29.6875 43.953125 28.09375 44.625 
Q 26.515625 45.3125 24.703125 45.3125 
L 21.1875 45.3125 
Q 19.390625 45.3125 17.796875 44.625 
Q 16.21875 43.953125 15.046875 42.78125 
Q 13.875 41.609375 13.1875 40.015625 
Q 12.5 38.421875 12.5 36.625 
L 12.5 34.8125 
L 6.5 35.796875 
L 6.5 36.28125 
Q 6.5 39.3125 7.640625 41.984375 
Q 8.796875 44.671875 10.796875 46.671875 
Q 12.796875 48.6875 15.484375 49.828125 
Q 18.171875 50.984375 21.1875 50.984375 
L 24.703125 50.984375 
Q 27.734375 50.984375 30.421875 49.828125 
Q 33.109375 48.6875 35.109375 46.671875 
Q 37.109375 44.671875 38.25 41.984375 
Q 39.40625 39.3125 39.40625 36.28125 
L 39.40625 0 
z
M 33.40625 24.21875 
L 20.703125 24.21875 
Q 18.890625 24.21875 17.296875 23.53125 
Q 15.71875 22.859375 14.546875 21.65625 
Q 13.375 20.453125 12.6875 18.859375 
Q 12.015625 17.28125 12.015625 15.484375 
L 12.015625 13.375 
Q 12.015625 11.578125 12.6875 9.984375 
Q 13.375 8.40625 14.546875 7.234375 
Q 15.71875 6.0625 17.296875 5.375 
Q 18.890625 4.6875 20.703125 4.6875 
L 24.703125 4.6875 
Q 26.515625 4.6875 28.09375 5.375 
Q 29.6875 6.0625 30.859375 7.234375 
Q 32.03125 8.40625 32.71875 9.984375 
Q 33.40625 11.578125 33.40625 13.375 
z
" id="Abel-Regular-61"/>
       <path d="M 58.796875 0 
L 58.796875 36.625 
Q 58.796875 38.421875 58.109375 40.015625 
Q 57.421875 41.609375 56.25 42.78125 
Q 55.078125 43.953125 53.484375 44.625 
Q 51.90625 45.3125 50.09375 45.3125 
L 47.125 45.3125 
Q 45.3125 45.3125 43.71875 44.625 
Q 42.140625 43.953125 40.9375 42.78125 
Q 39.75 41.609375 39.0625 40.015625 
Q 38.375 38.421875 38.375 36.625 
L 38.375 0 
L 32.421875 0 
L 32.421875 36.625 
Q 32.421875 38.421875 31.734375 40.015625 
Q 31.0625 41.609375 29.859375 42.78125 
Q 28.65625 43.953125 27.0625 44.625 
Q 25.484375 45.3125 23.6875 45.3125 
L 20.703125 45.3125 
Q 18.890625 45.3125 17.296875 44.625 
Q 15.71875 43.953125 14.546875 42.78125 
Q 13.375 41.609375 12.6875 40.015625 
Q 12.015625 38.421875 12.015625 36.625 
L 12.015625 0 
L 6 0 
L 6 50 
L 8.015625 50 
L 11.28125 44.921875 
Q 13.328125 47.703125 16.421875 49.34375 
Q 19.53125 50.984375 23.1875 50.984375 
L 23.6875 50.984375 
Q 27.9375 50.984375 31.34375 48.875 
Q 34.765625 46.78125 36.625 43.3125 
Q 37.546875 45.015625 38.90625 46.4375 
Q 40.28125 47.859375 41.9375 48.859375 
Q 43.609375 49.859375 45.5625 50.421875 
Q 47.515625 50.984375 49.609375 50.984375 
L 50.09375 50.984375 
Q 53.125 50.984375 55.8125 49.828125 
Q 58.5 48.6875 60.5 46.671875 
Q 62.5 44.671875 63.640625 41.984375 
Q 64.796875 39.3125 64.796875 36.28125 
L 64.796875 0 
z
" id="Abel-Regular-6d"/>
       <path d="M 14.109375 -20.015625 
L 8.296875 -20.015625 
L 17.1875 4.296875 
L 0.984375 50 
L 6.984375 50 
L 20.015625 12.109375 
L 20.21875 9.515625 
L 20.40625 12.109375 
L 33.40625 50 
L 39.40625 50 
z
" id="Abel-Regular-79"/>
      </defs>
      <g transform="translate(116.542509289 379.81322394)rotate(-30.0)scale(0.12 -0.12)">
       <use xlink:href="#Abel-Regular-6d"/>
       <use x="70.80078125" xlink:href="#Abel-Regular-61"/>
       <use x="116.2109375" xlink:href="#Abel-Regular-79"/>
       <use x="155.615234375" xlink:href="#Abel-Regular-20"/>
       <use x="178.61328125" xlink:href="#Abel-Regular-32"/>
       <use x="228.02734375" xlink:href="#Abel-Regular-30"/>
       <use x="279.443359375" xlink:href="#Abel-Regular-31"/>
       <use x="331.15234375" xlink:href="#Abel-Regular-32"/>
      </g>
     </g>
    </g>
    <g id="xtick_3">
     <g id="line2d_9">
      <path clip-path="url(#p43a30df596)" d="M 206.185714 345.6 
L 206.185714 43.2 
" style="fill:none;stroke:#000000;stroke-dasharray:1.000000,3.000000;stroke-dashoffset:0.0;stroke-width:0.5;"/>
     </g>
     <g id="line2d_10">
      <g>
       <use style="stroke:#000000;stroke-width:0.5;" x="206.185714286" xlink:href="#m255fdec70d" y="345.6"/>
      </g>
     </g>
     <g id="line2d_11">
      <g>
       <use style="stroke:#000000;stroke-width:0.5;" x="206.185714286" xlink:href="#m9d8ead79d8" y="43.2"/>
      </g>
     </g>
     <g id="text_3">
      <!-- nov 2012 -->
      <g transform="translate(167.97193356 378.245612189)rotate(-30.0)scale(0.12 -0.12)">
       <use xlink:href="#Abel-Regular-6e"/>
       <use x="45.41015625" xlink:href="#Abel-Regular-6f"/>
       <use x="90.8203125" xlink:href="#Abel-Regular-76"/>
       <use x="131.201171875" xlink:href="#Abel-Regular-20"/>
       <use x="154.19921875" xlink:href="#Abel-Regular-32"/>
       <use x="203.61328125" xlink:href="#Abel-Regular-30"/>
       <use x="255.029296875" xlink:href="#Abel-Regular-31"/>
       <use x="306.73828125" xlink:href="#Abel-Regular-32"/>
      </g>
     </g>
    </g>
    <g id="xtick_4">
     <g id="line2d_12">
      <path clip-path="url(#p43a30df596)" d="M 254.28 345.6 
L 254.28 43.2 
" style="fill:none;stroke:#000000;stroke-dasharray:1.000000,3.000000;stroke-dashoffset:0.0;stroke-width:0.5;"/>
     </g>
     <g id="line2d_13">
      <g>
       <use style="stroke:#000000;stroke-width:0.5;" x="254.28" xlink:href="#m255fdec70d" y="345.6"/>
      </g>
     </g>
     <g id="line2d_14">
      <g>
       <use style="stroke:#000000;stroke-width:0.5;" x="254.28" xlink:href="#m9d8ead79d8" y="43.2"/>
      </g>
     </g>
     <g id="text_4">
      <!-- may 2013 -->
      <defs>
       <path d="M 44.390625 16.21875 
Q 44.390625 12.640625 43.046875 9.515625 
Q 41.703125 6.390625 39.359375 4.046875 
Q 37.015625 1.703125 33.890625 0.359375 
Q 30.765625 -0.984375 27.203125 -0.984375 
L 24.21875 -0.984375 
Q 20.65625 -0.984375 17.5 0.359375 
Q 14.359375 1.703125 12.015625 4.046875 
Q 9.671875 6.390625 8.328125 9.515625 
Q 6.984375 12.640625 6.984375 16.21875 
L 6.984375 18.015625 
L 13.28125 19 
L 13.28125 16.21875 
Q 13.28125 13.875 14.15625 11.84375 
Q 15.046875 9.8125 16.578125 8.265625 
Q 18.109375 6.734375 20.140625 5.859375 
Q 22.171875 4.984375 24.515625 4.984375 
L 26.90625 4.984375 
Q 29.25 4.984375 31.265625 5.859375 
Q 33.296875 6.734375 34.8125 8.265625 
Q 36.328125 9.8125 37.203125 11.84375 
Q 38.09375 13.875 38.09375 16.21875 
L 38.09375 22.015625 
Q 38.09375 24.359375 37.203125 26.390625 
Q 36.328125 28.421875 34.8125 29.9375 
Q 33.296875 31.453125 31.265625 32.328125 
Q 29.25 33.203125 26.90625 33.203125 
L 22.21875 33.203125 
L 22.21875 39.203125 
L 26.90625 39.203125 
Q 29.25 39.203125 31.265625 40.078125 
Q 33.296875 40.96875 34.8125 42.484375 
Q 36.328125 44 37.203125 46.015625 
Q 38.09375 48.046875 38.09375 50.390625 
L 38.09375 53.8125 
Q 38.09375 56.15625 37.203125 58.171875 
Q 36.328125 60.203125 34.8125 61.71875 
Q 33.296875 63.234375 31.265625 64.109375 
Q 29.25 64.984375 26.90625 64.984375 
L 24.515625 64.984375 
Q 22.171875 64.984375 20.140625 64.109375 
Q 18.109375 63.234375 16.578125 61.71875 
Q 15.046875 60.203125 14.15625 58.171875 
Q 13.28125 56.15625 13.28125 53.8125 
L 13.28125 50.984375 
L 6.984375 52 
L 6.984375 53.8125 
Q 6.984375 57.375 8.328125 60.5 
Q 9.671875 63.625 12.015625 65.96875 
Q 14.359375 68.3125 17.5 69.65625 
Q 20.65625 71 24.21875 71 
L 27.203125 71 
Q 30.765625 71 33.890625 69.65625 
Q 37.015625 68.3125 39.359375 65.96875 
Q 41.703125 63.625 43.046875 60.5 
Q 44.390625 57.375 44.390625 53.8125 
L 44.390625 51.421875 
Q 44.390625 48.921875 43.71875 46.65625 
Q 43.0625 44.390625 41.859375 42.4375 
Q 40.671875 40.484375 39.015625 38.890625 
Q 37.359375 37.3125 35.296875 36.1875 
Q 37.359375 35.109375 39.015625 33.515625 
Q 40.671875 31.9375 41.859375 29.984375 
Q 43.0625 28.03125 43.71875 25.75 
Q 44.390625 23.484375 44.390625 21 
L 44.390625 16.21875 
z
" id="Abel-Regular-33"/>
      </defs>
      <g transform="translate(213.320377478 379.93322394)rotate(-30.0)scale(0.12 -0.12)">
       <use xlink:href="#Abel-Regular-6d"/>
       <use x="70.80078125" xlink:href="#Abel-Regular-61"/>
       <use x="116.2109375" xlink:href="#Abel-Regular-79"/>
       <use x="155.615234375" xlink:href="#Abel-Regular-20"/>
       <use x="178.61328125" xlink:href="#Abel-Regular-32"/>
       <use x="228.02734375" xlink:href="#Abel-Regular-30"/>
       <use x="279.443359375" xlink:href="#Abel-Regular-31"/>
       <use x="331.15234375" xlink:href="#Abel-Regular-33"/>
      </g>
     </g>
    </g>
    <g id="xtick_5">
     <g id="line2d_15">
      <path clip-path="url(#p43a30df596)" d="M 303.171429 345.6 
L 303.171429 43.2 
" style="fill:none;stroke:#000000;stroke-dasharray:1.000000,3.000000;stroke-dashoffset:0.0;stroke-width:0.5;"/>
     </g>
     <g id="line2d_16">
      <g>
       <use style="stroke:#000000;stroke-width:0.5;" x="303.171428571" xlink:href="#m255fdec70d" y="345.6"/>
      </g>
     </g>
     <g id="line2d_17">
      <g>
       <use style="stroke:#000000;stroke-width:0.5;" x="303.171428571" xlink:href="#m9d8ead79d8" y="43.2"/>
      </g>
     </g>
     <g id="text_5">
      <!-- nov 2013 -->
      <g transform="translate(264.749801749 378.365612189)rotate(-30.0)scale(0.12 -0.12)">
       <use xlink:href="#Abel-Regular-6e"/>
       <use x="45.41015625" xlink:href="#Abel-Regular-6f"/>
       <use x="90.8203125" xlink:href="#Abel-Regular-76"/>
       <use x="131.201171875" xlink:href="#Abel-Regular-20"/>
       <use x="154.19921875" xlink:href="#Abel-Regular-32"/>
       <use x="203.61328125" xlink:href="#Abel-Regular-30"/>
       <use x="255.029296875" xlink:href="#Abel-Regular-31"/>
       <use x="306.73828125" xlink:href="#Abel-Regular-33"/>
      </g>
     </g>
    </g>
    <g id="xtick_6">
     <g id="line2d_18">
      <path clip-path="url(#p43a30df596)" d="M 351.265714 345.6 
L 351.265714 43.2 
" style="fill:none;stroke:#000000;stroke-dasharray:1.000000,3.000000;stroke-dashoffset:0.0;stroke-width:0.5;"/>
     </g>
     <g id="line2d_19">
      <g>
       <use style="stroke:#000000;stroke-width:0.5;" x="351.265714286" xlink:href="#m255fdec70d" y="345.6"/>
      </g>
     </g>
     <g id="line2d_20">
      <g>
       <use style="stroke:#000000;stroke-width:0.5;" x="351.265714286" xlink:href="#m9d8ead79d8" y="43.2"/>
      </g>
     </g>
     <g id="text_6">
      <!-- may 2014 -->
      <defs>
       <path d="M 37.40625 12.109375 
L 37.40625 0 
L 31.109375 0 
L 31.109375 12.109375 
L 2.984375 12.109375 
L 2.984375 15.09375 
L 34.078125 70.015625 
L 37.40625 70.015625 
L 37.40625 18.109375 
L 43.40625 18.109375 
L 43.40625 12.109375 
z
M 31.109375 52.78125 
L 11.8125 18.109375 
L 31.109375 18.109375 
z
" id="Abel-Regular-34"/>
      </defs>
      <g transform="translate(310.414886205 379.87041144)rotate(-30.0)scale(0.12 -0.12)">
       <use xlink:href="#Abel-Regular-6d"/>
       <use x="70.80078125" xlink:href="#Abel-Regular-61"/>
       <use x="116.2109375" xlink:href="#Abel-Regular-79"/>
       <use x="155.615234375" xlink:href="#Abel-Regular-20"/>
       <use x="178.61328125" xlink:href="#Abel-Regular-32"/>
       <use x="228.02734375" xlink:href="#Abel-Regular-30"/>
       <use x="279.443359375" xlink:href="#Abel-Regular-31"/>
       <use x="331.13671875" xlink:href="#Abel-Regular-34"/>
      </g>
     </g>
    </g>
    <g id="xtick_7">
     <g id="line2d_21">
      <path clip-path="url(#p43a30df596)" d="M 400.157143 345.6 
L 400.157143 43.2 
" style="fill:none;stroke:#000000;stroke-dasharray:1.000000,3.000000;stroke-dashoffset:0.0;stroke-width:0.5;"/>
     </g>
     <g id="line2d_22">
      <g>
       <use style="stroke:#000000;stroke-width:0.5;" x="400.157142857" xlink:href="#m255fdec70d" y="345.6"/>
      </g>
     </g>
     <g id="line2d_23">
      <g>
       <use style="stroke:#000000;stroke-width:0.5;" x="400.157142857" xlink:href="#m9d8ead79d8" y="43.2"/>
      </g>
     </g>
     <g id="text_7">
      <!-- nov 2014 -->
      <g transform="translate(361.844310476 378.302799689)rotate(-30.0)scale(0.12 -0.12)">
       <use xlink:href="#Abel-Regular-6e"/>
       <use x="45.41015625" xlink:href="#Abel-Regular-6f"/>
       <use x="90.8203125" xlink:href="#Abel-Regular-76"/>
       <use x="131.201171875" xlink:href="#Abel-Regular-20"/>
       <use x="154.19921875" xlink:href="#Abel-Regular-32"/>
       <use x="203.61328125" xlink:href="#Abel-Regular-30"/>
       <use x="255.029296875" xlink:href="#Abel-Regular-31"/>
       <use x="306.72265625" xlink:href="#Abel-Regular-34"/>
      </g>
     </g>
    </g>
    <g id="xtick_8">
     <g id="line2d_24">
      <path clip-path="url(#p43a30df596)" d="M 448.251429 345.6 
L 448.251429 43.2 
" style="fill:none;stroke:#000000;stroke-dasharray:1.000000,3.000000;stroke-dashoffset:0.0;stroke-width:0.5;"/>
     </g>
     <g id="line2d_25">
      <g>
       <use style="stroke:#000000;stroke-width:0.5;" x="448.251428571" xlink:href="#m255fdec70d" y="345.6"/>
      </g>
     </g>
     <g id="line2d_26">
      <g>
       <use style="stroke:#000000;stroke-width:0.5;" x="448.251428571" xlink:href="#m9d8ead79d8" y="43.2"/>
      </g>
     </g>
     <g id="text_8">
      <!-- may 2015 -->
      <defs>
       <path d="M 44.390625 16.21875 
Q 44.390625 12.640625 43.046875 9.515625 
Q 41.703125 6.390625 39.359375 4.046875 
Q 37.015625 1.703125 33.890625 0.359375 
Q 30.765625 -0.984375 27.203125 -0.984375 
L 24.21875 -0.984375 
Q 20.65625 -0.984375 17.5 0.359375 
Q 14.359375 1.703125 12.015625 4.046875 
Q 9.671875 6.390625 8.328125 9.515625 
Q 6.984375 12.640625 6.984375 16.21875 
L 6.984375 17.28125 
L 13.28125 17.28125 
L 13.28125 16.21875 
Q 13.28125 13.875 14.15625 11.84375 
Q 15.046875 9.8125 16.578125 8.265625 
Q 18.109375 6.734375 20.140625 5.859375 
Q 22.171875 4.984375 24.515625 4.984375 
L 26.90625 4.984375 
Q 29.25 4.984375 31.265625 5.859375 
Q 33.296875 6.734375 34.8125 8.265625 
Q 36.328125 9.8125 37.203125 11.84375 
Q 38.09375 13.875 38.09375 16.21875 
L 38.09375 29.78125 
Q 38.09375 32.125 37.203125 34.15625 
Q 36.328125 36.1875 34.8125 37.71875 
Q 33.296875 39.265625 31.265625 40.140625 
Q 29.25 41.015625 26.90625 41.015625 
L 24.515625 41.015625 
Q 22.171875 41.015625 20.140625 40.140625 
Q 18.109375 39.265625 16.578125 37.71875 
Q 15.046875 36.1875 14.15625 34.15625 
Q 13.28125 32.125 13.28125 29.78125 
L 6.984375 29.78125 
L 10.984375 70.015625 
L 40.921875 70.015625 
L 40.921875 64.015625 
L 16.890625 64.015625 
L 14.59375 42.484375 
Q 16.84375 44.625 19.8125 45.8125 
Q 22.796875 47.015625 26.21875 47.015625 
L 27.203125 47.015625 
Q 30.765625 47.015625 33.890625 45.671875 
Q 37.015625 44.34375 39.359375 42 
Q 41.703125 39.65625 43.046875 36.5 
Q 44.390625 33.34375 44.390625 29.78125 
L 44.390625 16.21875 
z
" id="Abel-Regular-35"/>
      </defs>
      <g transform="translate(407.29180605 379.93322394)rotate(-30.0)scale(0.12 -0.12)">
       <use xlink:href="#Abel-Regular-6d"/>
       <use x="70.80078125" xlink:href="#Abel-Regular-61"/>
       <use x="116.2109375" xlink:href="#Abel-Regular-79"/>
       <use x="155.615234375" xlink:href="#Abel-Regular-20"/>
       <use x="178.61328125" xlink:href="#Abel-Regular-32"/>
       <use x="228.02734375" xlink:href="#Abel-Regular-30"/>
       <use x="279.443359375" xlink:href="#Abel-Regular-31"/>
       <use x="331.15234375" xlink:href="#Abel-Regular-35"/>
      </g>
     </g>
    </g>
    <g id="xtick_9">
     <g id="line2d_27">
      <path clip-path="url(#p43a30df596)" d="M 497.142857 345.6 
L 497.142857 43.2 
" style="fill:none;stroke:#000000;stroke-dasharray:1.000000,3.000000;stroke-dashoffset:0.0;stroke-width:0.5;"/>
     </g>
     <g id="line2d_28">
      <g>
       <use style="stroke:#000000;stroke-width:0.5;" x="497.142857143" xlink:href="#m255fdec70d" y="345.6"/>
      </g>
     </g>
     <g id="line2d_29">
      <g>
       <use style="stroke:#000000;stroke-width:0.5;" x="497.142857143" xlink:href="#m9d8ead79d8" y="43.2"/>
      </g>
     </g>
     <g id="text_9">
      <!-- nov 2015 -->
      <g transform="translate(458.72123032 378.365612189)rotate(-30.0)scale(0.12 -0.12)">
       <use xlink:href="#Abel-Regular-6e"/>
       <use x="45.41015625" xlink:href="#Abel-Regular-6f"/>
       <use x="90.8203125" xlink:href="#Abel-Regular-76"/>
       <use x="131.201171875" xlink:href="#Abel-Regular-20"/>
       <use x="154.19921875" xlink:href="#Abel-Regular-32"/>
       <use x="203.61328125" xlink:href="#Abel-Regular-30"/>
       <use x="255.029296875" xlink:href="#Abel-Regular-31"/>
       <use x="306.73828125" xlink:href="#Abel-Regular-35"/>
      </g>
     </g>
    </g>
   </g>
   <g id="matplotlib.axis_2">
    <g id="ytick_1">
     <g id="line2d_30">
      <path clip-path="url(#p43a30df596)" d="M 72 345.6 
L 518.4 345.6 
" style="fill:none;stroke:#000000;stroke-dasharray:1.000000,3.000000;stroke-dashoffset:0.0;stroke-width:0.5;"/>
     </g>
     <g id="line2d_31">
      <defs>
       <path d="M 0 0 
L 4 0 
" id="m75d45a1ff1" style="stroke:#000000;stroke-width:0.5;"/>
      </defs>
      <g>
       <use style="stroke:#000000;stroke-width:0.5;" x="72.0" xlink:href="#m75d45a1ff1" y="345.6"/>
      </g>
     </g>
     <g id="line2d_32">
      <defs>
       <path d="M 0 0 
L -4 0 
" id="m45002e582d" style="stroke:#000000;stroke-width:0.5;"/>
      </defs>
      <g>
       <use style="stroke:#000000;stroke-width:0.5;" x="518.4" xlink:href="#m45002e582d" y="345.6"/>
      </g>
     </g>
     <g id="text_10">
      <!-- 0.015 -->
      <defs>
       <path d="M 6.984375 0 
L 6.984375 7.515625 
L 14.5 7.515625 
L 14.5 0 
z
" id="Abel-Regular-2e"/>
       <path d="M 54 38.1875 
L 54 31.890625 
L 4 31.890625 
L 4 38.1875 
z
" id="Abel-Regular-2212"/>
      </defs>
      <g transform="translate(33.75125 348.6)scale(0.12 -0.12)">
       <use xlink:href="#Abel-Regular-2212"/>
       <use x="58.0078125" xlink:href="#Abel-Regular-30"/>
       <use x="109.392578125" xlink:href="#Abel-Regular-2e"/>
       <use x="130.845703125" xlink:href="#Abel-Regular-30"/>
       <use x="182.26171875" xlink:href="#Abel-Regular-31"/>
       <use x="233.970703125" xlink:href="#Abel-Regular-35"/>
      </g>
     </g>
    </g>
    <g id="ytick_2">
     <g id="line2d_33">
      <path clip-path="url(#p43a30df596)" d="M 72 285.12 
L 518.4 285.12 
" style="fill:none;stroke:#000000;stroke-dasharray:1.000000,3.000000;stroke-dashoffset:0.0;stroke-width:0.5;"/>
     </g>
     <g id="line2d_34">
      <g>
       <use style="stroke:#000000;stroke-width:0.5;" x="72.0" xlink:href="#m75d45a1ff1" y="285.12"/>
      </g>
     </g>
     <g id="line2d_35">
      <g>
       <use style="stroke:#000000;stroke-width:0.5;" x="518.4" xlink:href="#m45002e582d" y="285.12"/>
      </g>
     </g>
     <g id="text_11">
      <!-- 0.010 -->
      <g transform="translate(33.75125 288.12)scale(0.12 -0.12)">
       <use xlink:href="#Abel-Regular-2212"/>
       <use x="58.0078125" xlink:href="#Abel-Regular-30"/>
       <use x="109.392578125" xlink:href="#Abel-Regular-2e"/>
       <use x="130.845703125" xlink:href="#Abel-Regular-30"/>
       <use x="182.26171875" xlink:href="#Abel-Regular-31"/>
       <use x="233.970703125" xlink:href="#Abel-Regular-30"/>
      </g>
     </g>
    </g>
    <g id="ytick_3">
     <g id="line2d_36">
      <path clip-path="url(#p43a30df596)" d="M 72 224.64 
L 518.4 224.64 
" style="fill:none;stroke:#000000;stroke-dasharray:1.000000,3.000000;stroke-dashoffset:0.0;stroke-width:0.5;"/>
     </g>
     <g id="line2d_37">
      <g>
       <use style="stroke:#000000;stroke-width:0.5;" x="72.0" xlink:href="#m75d45a1ff1" y="224.64"/>
      </g>
     </g>
     <g id="line2d_38">
      <g>
       <use style="stroke:#000000;stroke-width:0.5;" x="518.4" xlink:href="#m45002e582d" y="224.64"/>
      </g>
     </g>
     <g id="text_12">
      <!-- 0.005 -->
      <g transform="translate(33.786875 227.64)scale(0.12 -0.12)">
       <use xlink:href="#Abel-Regular-2212"/>
       <use x="58.0078125" xlink:href="#Abel-Regular-30"/>
       <use x="109.392578125" xlink:href="#Abel-Regular-2e"/>
       <use x="130.845703125" xlink:href="#Abel-Regular-30"/>
       <use x="182.26171875" xlink:href="#Abel-Regular-30"/>
       <use x="233.662109375" xlink:href="#Abel-Regular-35"/>
      </g>
     </g>
    </g>
    <g id="ytick_4">
     <g id="line2d_39">
      <path clip-path="url(#p43a30df596)" d="M 72 164.16 
L 518.4 164.16 
" style="fill:none;stroke:#000000;stroke-dasharray:1.000000,3.000000;stroke-dashoffset:0.0;stroke-width:0.5;"/>
     </g>
     <g id="line2d_40">
      <g>
       <use style="stroke:#000000;stroke-width:0.5;" x="72.0" xlink:href="#m75d45a1ff1" y="164.16"/>
      </g>
     </g>
     <g id="line2d_41">
      <g>
       <use style="stroke:#000000;stroke-width:0.5;" x="518.4" xlink:href="#m45002e582d" y="164.16"/>
      </g>
     </g>
     <g id="text_13">
      <!-- 0.000 -->
      <g transform="translate(40.746875 167.16)scale(0.12 -0.12)">
       <use xlink:href="#Abel-Regular-30"/>
       <use x="51.384765625" xlink:href="#Abel-Regular-2e"/>
       <use x="72.837890625" xlink:href="#Abel-Regular-30"/>
       <use x="124.25390625" xlink:href="#Abel-Regular-30"/>
       <use x="175.669921875" xlink:href="#Abel-Regular-30"/>
      </g>
     </g>
    </g>
    <g id="ytick_5">
     <g id="line2d_42">
      <path clip-path="url(#p43a30df596)" d="M 72 103.68 
L 518.4 103.68 
" style="fill:none;stroke:#000000;stroke-dasharray:1.000000,3.000000;stroke-dashoffset:0.0;stroke-width:0.5;"/>
     </g>
     <g id="line2d_43">
      <g>
       <use style="stroke:#000000;stroke-width:0.5;" x="72.0" xlink:href="#m75d45a1ff1" y="103.68"/>
      </g>
     </g>
     <g id="line2d_44">
      <g>
       <use style="stroke:#000000;stroke-width:0.5;" x="518.4" xlink:href="#m45002e582d" y="103.68"/>
      </g>
     </g>
     <g id="text_14">
      <!-- 0.005 -->
      <g transform="translate(40.74875 106.68)scale(0.12 -0.12)">
       <use xlink:href="#Abel-Regular-30"/>
       <use x="51.384765625" xlink:href="#Abel-Regular-2e"/>
       <use x="72.837890625" xlink:href="#Abel-Regular-30"/>
       <use x="124.25390625" xlink:href="#Abel-Regular-30"/>
       <use x="175.654296875" xlink:href="#Abel-Regular-35"/>
      </g>
     </g>
    </g>
    <g id="ytick_6">
     <g id="line2d_45">
      <path clip-path="url(#p43a30df596)" d="M 72 43.2 
L 518.4 43.2 
" style="fill:none;stroke:#000000;stroke-dasharray:1.000000,3.000000;stroke-dashoffset:0.0;stroke-width:0.5;"/>
     </g>
     <g id="line2d_46">
      <g>
       <use style="stroke:#000000;stroke-width:0.5;" x="72.0" xlink:href="#m75d45a1ff1" y="43.2"/>
      </g>
     </g>
     <g id="line2d_47">
      <g>
       <use style="stroke:#000000;stroke-width:0.5;" x="518.4" xlink:href="#m45002e582d" y="43.2"/>
      </g>
     </g>
     <g id="text_15">
      <!-- 0.010 -->
      <g transform="translate(40.713125 46.2)scale(0.12 -0.12)">
       <use xlink:href="#Abel-Regular-30"/>
       <use x="51.384765625" xlink:href="#Abel-Regular-2e"/>
       <use x="72.837890625" xlink:href="#Abel-Regular-30"/>
       <use x="124.25390625" xlink:href="#Abel-Regular-31"/>
       <use x="175.962890625" xlink:href="#Abel-Regular-30"/>
      </g>
     </g>
    </g>
   </g>
   <g id="text_16">
    <!-- ALUM: Componente ESTE [m] -->
    <defs>
     <path d="M 46.390625 16.21875 
Q 46.390625 12.640625 44.9375 9.515625 
Q 43.5 6.390625 41.078125 4.046875 
Q 38.671875 1.703125 35.46875 0.359375 
Q 32.28125 -0.984375 28.71875 -0.984375 
L 23.6875 -0.984375 
Q 20.125 -0.984375 16.921875 0.359375 
Q 13.71875 1.703125 11.296875 4.046875 
Q 8.890625 6.390625 7.4375 9.515625 
Q 6 12.640625 6 16.21875 
L 6 19 
L 12.3125 20.015625 
L 12.3125 16.21875 
Q 12.3125 13.875 13.25 11.84375 
Q 14.203125 9.8125 15.8125 8.265625 
Q 17.4375 6.734375 19.5625 5.859375 
Q 21.6875 4.984375 24.03125 4.984375 
L 28.421875 4.984375 
Q 30.765625 4.984375 32.859375 5.859375 
Q 34.96875 6.734375 36.578125 8.265625 
Q 38.1875 9.8125 39.140625 11.84375 
Q 40.09375 13.875 40.09375 16.21875 
L 40.09375 18.3125 
Q 40.09375 21.921875 38.671875 24.3125 
Q 37.25 26.703125 34.90625 28.390625 
Q 32.5625 30.078125 29.609375 31.25 
Q 26.65625 32.421875 23.53125 33.59375 
Q 20.40625 34.765625 17.453125 36.171875 
Q 14.5 37.59375 12.15625 39.71875 
Q 9.8125 41.84375 8.390625 44.921875 
Q 6.984375 48 6.984375 52.484375 
L 6.984375 53.8125 
Q 6.984375 57.375 8.328125 60.5 
Q 9.671875 63.625 12.015625 65.96875 
Q 14.359375 68.3125 17.5 69.65625 
Q 20.65625 71 24.21875 71 
L 28.71875 71 
Q 32.28125 71 35.40625 69.65625 
Q 38.53125 68.3125 40.875 65.96875 
Q 43.21875 63.625 44.5625 60.5 
Q 45.90625 57.375 45.90625 53.8125 
L 45.90625 52 
L 39.59375 50.984375 
L 39.59375 53.8125 
Q 39.59375 56.15625 38.71875 58.171875 
Q 37.84375 60.203125 36.328125 61.71875 
Q 34.8125 63.234375 32.78125 64.109375 
Q 30.765625 64.984375 28.421875 64.984375 
L 24.515625 64.984375 
Q 22.171875 64.984375 20.140625 64.109375 
Q 18.109375 63.234375 16.578125 61.71875 
Q 15.046875 60.203125 14.15625 58.171875 
Q 13.28125 56.15625 13.28125 53.8125 
L 13.28125 52.484375 
Q 13.28125 49.125 14.6875 46.828125 
Q 16.109375 44.53125 18.453125 42.890625 
Q 20.796875 41.265625 23.75 40.0625 
Q 26.703125 38.875 29.828125 37.625 
Q 32.953125 36.375 35.90625 34.890625 
Q 38.875 33.40625 41.21875 31.21875 
Q 43.5625 29.046875 44.96875 25.921875 
Q 46.390625 22.796875 46.390625 18.3125 
z
" id="Abel-Regular-53"/>
     <path d="M 34.28125 16.3125 
L 12.109375 16.3125 
L 7.515625 0 
L 0.984375 0 
L 21.484375 70.015625 
L 24.8125 70.015625 
L 45.40625 0 
L 38.921875 0 
z
M 13.8125 22.3125 
L 32.625 22.3125 
L 23.390625 54.59375 
L 23.1875 57.171875 
L 23 54.59375 
z
" id="Abel-Regular-41"/>
     <path d="M 25.875 -20.015625 
L 8.015625 -20.015625 
L 8.015625 78.421875 
L 25.875 78.421875 
L 25.875 73 
L 14.015625 73 
L 14.015625 -14.59375 
L 25.875 -14.59375 
z
" id="Abel-Regular-5b"/>
     <path d="M 25 64.015625 
L 25 0 
L 18.703125 0 
L 18.703125 64.015625 
L 2 64.015625 
L 2 70.015625 
L 41.703125 70.015625 
L 41.703125 64.015625 
z
" id="Abel-Regular-54"/>
     <path d="M 39.40625 13.71875 
Q 39.40625 10.6875 38.25 8 
Q 37.109375 5.328125 35.109375 3.3125 
Q 33.109375 1.3125 30.421875 0.15625 
Q 27.734375 -0.984375 24.703125 -0.984375 
L 20.703125 -0.984375 
Q 17.671875 -0.984375 14.984375 0.15625 
Q 12.3125 1.3125 10.296875 3.3125 
Q 8.296875 5.328125 7.140625 8 
Q 6 10.6875 6 13.71875 
L 6 36.28125 
Q 6 39.3125 7.140625 41.984375 
Q 8.296875 44.671875 10.296875 46.671875 
Q 12.3125 48.6875 14.984375 49.828125 
Q 17.671875 50.984375 20.703125 50.984375 
L 24.703125 50.984375 
Q 27.734375 50.984375 30.421875 49.828125 
Q 33.109375 48.6875 35.109375 46.671875 
Q 37.109375 44.671875 38.25 41.984375 
Q 39.40625 39.3125 39.40625 36.28125 
L 39.40625 24.515625 
L 12.015625 24.515625 
L 12.015625 13.375 
Q 12.015625 11.578125 12.6875 9.984375 
Q 13.375 8.40625 14.546875 7.234375 
Q 15.71875 6.0625 17.296875 5.375 
Q 18.890625 4.6875 20.703125 4.6875 
L 24.703125 4.6875 
Q 26.515625 4.6875 28.09375 5.375 
Q 29.6875 6.0625 30.859375 7.234375 
Q 32.03125 8.40625 32.71875 9.984375 
Q 33.40625 11.578125 33.40625 13.375 
L 33.40625 16.703125 
L 39.40625 15.71875 
L 39.40625 13.71875 
z
M 33.40625 36.625 
Q 33.40625 38.421875 32.71875 40.015625 
Q 32.03125 41.609375 30.859375 42.78125 
Q 29.6875 43.953125 28.09375 44.625 
Q 26.515625 45.3125 24.703125 45.3125 
L 20.703125 45.3125 
Q 18.890625 45.3125 17.296875 44.625 
Q 15.71875 43.953125 14.546875 42.78125 
Q 13.375 41.609375 12.6875 40.015625 
Q 12.015625 38.421875 12.015625 36.625 
L 12.015625 29.203125 
L 33.40625 29.203125 
z
" id="Abel-Regular-65"/>
     <path d="M 46.390625 16.21875 
Q 46.390625 12.640625 45.046875 9.515625 
Q 43.703125 6.390625 41.359375 4.046875 
Q 39.015625 1.703125 35.890625 0.359375 
Q 32.765625 -0.984375 29.203125 -0.984375 
L 24.21875 -0.984375 
Q 20.65625 -0.984375 17.5 0.359375 
Q 14.359375 1.703125 12.015625 4.046875 
Q 9.671875 6.390625 8.328125 9.515625 
Q 6.984375 12.640625 6.984375 16.21875 
L 6.984375 53.8125 
Q 6.984375 57.375 8.328125 60.5 
Q 9.671875 63.625 12.015625 65.96875 
Q 14.359375 68.3125 17.5 69.65625 
Q 20.65625 71 24.21875 71 
L 29.203125 71 
Q 32.765625 71 35.890625 69.65625 
Q 39.015625 68.3125 41.359375 65.96875 
Q 43.703125 63.625 45.046875 60.5 
Q 46.390625 57.375 46.390625 53.8125 
L 46.390625 50.984375 
L 40.09375 50 
L 40.09375 53.8125 
Q 40.09375 56.15625 39.203125 58.171875 
Q 38.328125 60.203125 36.8125 61.71875 
Q 35.296875 63.234375 33.265625 64.109375 
Q 31.25 64.984375 28.90625 64.984375 
L 24.515625 64.984375 
Q 22.171875 64.984375 20.140625 64.109375 
Q 18.109375 63.234375 16.578125 61.71875 
Q 15.046875 60.203125 14.15625 58.171875 
Q 13.28125 56.15625 13.28125 53.8125 
L 13.28125 16.21875 
Q 13.28125 13.875 14.15625 11.84375 
Q 15.046875 9.8125 16.578125 8.265625 
Q 18.109375 6.734375 20.140625 5.859375 
Q 22.171875 4.984375 24.515625 4.984375 
L 28.90625 4.984375 
Q 31.25 4.984375 33.265625 5.859375 
Q 35.296875 6.734375 36.8125 8.265625 
Q 38.328125 9.8125 39.203125 11.84375 
Q 40.09375 13.875 40.09375 16.21875 
L 40.09375 20.015625 
L 46.390625 19 
L 46.390625 16.21875 
z
" id="Abel-Regular-43"/>
     <path d="M 8.015625 0 
L 8.015625 70.015625 
L 47.40625 70.015625 
L 47.40625 64.015625 
L 14.3125 64.015625 
L 14.3125 37.984375 
L 41.109375 37.984375 
L 41.109375 31.984375 
L 14.3125 31.984375 
L 14.3125 6 
L 47.40625 6 
L 47.40625 0 
z
" id="Abel-Regular-45"/>
     <path d="M 6.984375 42.484375 
L 6.984375 50 
L 14.5 50 
L 14.5 42.484375 
z
M 6.984375 0 
L 6.984375 7.515625 
L 14.5 7.515625 
L 14.5 0 
z
" id="Abel-Regular-3a"/>
     <path d="M 6.984375 0 
L 6.984375 70.015625 
L 13.28125 70.015625 
L 13.28125 6 
L 40.09375 6 
L 40.09375 0 
z
" id="Abel-Regular-4c"/>
     <path d="M 4.984375 -14.59375 
L 16.890625 -14.59375 
L 16.890625 73 
L 4.984375 73 
L 4.984375 78.421875 
L 22.90625 78.421875 
L 22.90625 -20.015625 
L 4.984375 -20.015625 
z
" id="Abel-Regular-5d"/>
     <path d="M 39.40625 13.71875 
Q 39.40625 10.6875 38.25 8 
Q 37.109375 5.328125 35.109375 3.3125 
Q 33.109375 1.3125 30.421875 0.15625 
Q 27.734375 -0.984375 24.703125 -0.984375 
L 23.1875 -0.984375 
Q 19.828125 -0.984375 16.9375 0.390625 
Q 14.0625 1.765625 12.015625 4.203125 
L 12.015625 -20.015625 
L 6 -20.015625 
L 6 50 
L 8.015625 50 
L 11.28125 44.921875 
Q 13.328125 47.703125 16.421875 49.34375 
Q 19.53125 50.984375 23.1875 50.984375 
L 24.703125 50.984375 
Q 27.734375 50.984375 30.421875 49.828125 
Q 33.109375 48.6875 35.109375 46.671875 
Q 37.109375 44.671875 38.25 41.984375 
Q 39.40625 39.3125 39.40625 36.28125 
L 39.40625 13.71875 
z
M 33.40625 36.625 
Q 33.40625 38.421875 32.71875 40.015625 
Q 32.03125 41.609375 30.859375 42.78125 
Q 29.6875 43.953125 28.09375 44.625 
Q 26.515625 45.3125 24.703125 45.3125 
L 20.703125 45.3125 
Q 18.890625 45.3125 17.296875 44.625 
Q 15.71875 43.953125 14.546875 42.78125 
Q 13.375 41.609375 12.6875 40.015625 
Q 12.015625 38.421875 12.015625 36.625 
L 12.015625 13.375 
Q 12.015625 11.578125 12.6875 9.984375 
Q 13.375 8.40625 14.546875 7.234375 
Q 15.71875 6.0625 17.296875 5.375 
Q 18.890625 4.6875 20.703125 4.6875 
L 24.703125 4.6875 
Q 26.515625 4.6875 28.09375 5.375 
Q 29.6875 6.0625 30.859375 7.234375 
Q 32.03125 8.40625 32.71875 9.984375 
Q 33.40625 11.578125 33.40625 13.375 
z
" id="Abel-Regular-70"/>
     <path d="M 24.21875 0 
Q 21.484375 0 19.0625 1.015625 
Q 16.65625 2.046875 14.875 3.859375 
Q 13.09375 5.671875 12.03125 8.0625 
Q 10.984375 10.453125 10.984375 13.1875 
L 10.984375 44.28125 
L 2 44.28125 
L 2 50 
L 10.984375 50 
L 10.984375 62.015625 
L 17 62.984375 
L 17 50 
L 29.6875 50 
L 29.6875 44.28125 
L 17 44.28125 
L 17 12.890625 
Q 17 11.375 17.546875 10.078125 
Q 18.109375 8.796875 19.078125 7.8125 
Q 20.0625 6.84375 21.375 6.28125 
Q 22.703125 5.71875 24.21875 5.71875 
L 29.6875 5.71875 
L 29.6875 0 
z
" id="Abel-Regular-74"/>
     <path d="M 51.125 0 
L 51.125 48 
L 50.6875 45.015625 
L 34.421875 0 
L 31.109375 0 
L 14.703125 45.015625 
L 14.3125 48 
L 14.3125 0 
L 8.015625 0 
L 8.015625 70.015625 
L 11.28125 70.015625 
L 32.515625 12.59375 
L 32.71875 10.015625 
L 32.90625 12.59375 
L 54.109375 70.015625 
L 57.421875 70.015625 
L 57.421875 0 
z
" id="Abel-Regular-4d"/>
     <path d="M 46.390625 16.21875 
Q 46.390625 12.640625 45.046875 9.515625 
Q 43.703125 6.390625 41.359375 4.046875 
Q 39.015625 1.703125 35.890625 0.359375 
Q 32.765625 -0.984375 29.203125 -0.984375 
L 24.21875 -0.984375 
Q 20.65625 -0.984375 17.5 0.359375 
Q 14.359375 1.703125 12.015625 4.046875 
Q 9.671875 6.390625 8.328125 9.515625 
Q 6.984375 12.640625 6.984375 16.21875 
L 6.984375 70.015625 
L 13.28125 70.015625 
L 13.28125 16.21875 
Q 13.28125 13.875 14.15625 11.84375 
Q 15.046875 9.8125 16.578125 8.265625 
Q 18.109375 6.734375 20.140625 5.859375 
Q 22.171875 4.984375 24.515625 4.984375 
L 28.90625 4.984375 
Q 31.25 4.984375 33.265625 5.859375 
Q 35.296875 6.734375 36.8125 8.265625 
Q 38.328125 9.8125 39.203125 11.84375 
Q 40.09375 13.875 40.09375 16.21875 
L 40.09375 70.015625 
L 46.390625 70.015625 
L 46.390625 16.21875 
z
" id="Abel-Regular-55"/>
    </defs>
    <g transform="translate(215.670375 38.2)scale(0.144 -0.144)">
     <use xlink:href="#Abel-Regular-41"/>
     <use x="46.38671875" xlink:href="#Abel-Regular-4c"/>
     <use x="88.4765625" xlink:href="#Abel-Regular-55"/>
     <use x="141.89453125" xlink:href="#Abel-Regular-4d"/>
     <use x="207.275390625" xlink:href="#Abel-Regular-3a"/>
     <use x="228.759765625" xlink:href="#Abel-Regular-20"/>
     <use x="251.7578125" xlink:href="#Abel-Regular-43"/>
     <use x="304.150390625" xlink:href="#Abel-Regular-6f"/>
     <use x="349.560546875" xlink:href="#Abel-Regular-6d"/>
     <use x="420.361328125" xlink:href="#Abel-Regular-70"/>
     <use x="465.771484375" xlink:href="#Abel-Regular-6f"/>
     <use x="511.181640625" xlink:href="#Abel-Regular-6e"/>
     <use x="556.591796875" xlink:href="#Abel-Regular-65"/>
     <use x="602.001953125" xlink:href="#Abel-Regular-6e"/>
     <use x="647.412109375" xlink:href="#Abel-Regular-74"/>
     <use x="682.12890625" xlink:href="#Abel-Regular-65"/>
     <use x="727.5390625" xlink:href="#Abel-Regular-20"/>
     <use x="750.537109375" xlink:href="#Abel-Regular-45"/>
     <use x="801.953125" xlink:href="#Abel-Regular-53"/>
     <use x="853.857421875" xlink:href="#Abel-Regular-54"/>
     <use x="897.55859375" xlink:href="#Abel-Regular-45"/>
     <use x="948.974609375" xlink:href="#Abel-Regular-20"/>
     <use x="971.97265625" xlink:href="#Abel-Regular-5b"/>
     <use x="1002.880859375" xlink:href="#Abel-Regular-6d"/>
     <use x="1073.681640625" xlink:href="#Abel-Regular-5d"/>
    </g>
   </g>
  </g>
 </g>
 <defs>
  <clipPath id="p43a30df596">
   <rect height="302.4" width="446.4" x="72.0" y="43.2"/>
  </clipPath>
 </defs>
</svg>
