<?xml version="1.0" encoding="utf-8" standalone="no"?>
<!DOCTYPE svg PUBLIC "-//W3C//DTD SVG 1.1//EN"
  "http://www.w3.org/Graphics/SVG/1.1/DTD/svg11.dtd">
<!-- Created with matplotlib (http://matplotlib.org/) -->
<svg height="432pt" version="1.1" viewBox="0 0 576 432" width="576pt" xmlns="http://www.w3.org/2000/svg" xmlns:xlink="http://www.w3.org/1999/xlink">
 <defs>
  <style type="text/css">
*{stroke-linecap:butt;stroke-linejoin:round;stroke-miterlimit:100000;}
  </style>
 </defs>
 <g id="figure_1">
  <g id="patch_1">
   <path d="M 0 432 
L 576 432 
L 576 0 
L 0 0 
z
" style="fill:#ffffff;"/>
  </g>
  <g id="axes_1">
   <g id="line2d_1">
    <path clip-path="url(#p6eaff704d2)" d="M 72 76.8 
L 518.4 76.8 
" style="fill:none;stroke:#000000;stroke-linecap:square;"/>
   </g>
   <g id="line2d_2">
    <defs>
     <path d="M 0 3 
C 0.795609 3 1.55874 2.683901 2.12132 2.12132 
C 2.683901 1.55874 3 0.795609 3 0 
C 3 -0.795609 2.683901 -1.55874 2.12132 -2.12132 
C 1.55874 -2.683901 0.795609 -3 0 -3 
C -0.795609 -3 -1.55874 -2.683901 -2.12132 -2.12132 
C -2.683901 -1.55874 -3 -0.795609 -3 0 
C -3 0.795609 -2.683901 1.55874 -2.12132 2.12132 
C -1.55874 2.683901 -0.795609 3 0 3 
z
" id="m8210bf5269" style="stroke:#000000;stroke-width:0.5;"/>
    </defs>
    <g clip-path="url(#p6eaff704d2)">
     <use style="fill:#008000;stroke:#000000;stroke-width:0.5;" x="72.0" xlink:href="#m8210bf5269" y="312.0"/>
     <use style="fill:#008000;stroke:#000000;stroke-width:0.5;" x="73.5942857143" xlink:href="#m8210bf5269" y="312.0"/>
     <use style="fill:#008000;stroke:#000000;stroke-width:0.5;" x="75.1885714286" xlink:href="#m8210bf5269" y="345.6"/>
     <use style="fill:#008000;stroke:#000000;stroke-width:0.5;" x="76.7828571429" xlink:href="#m8210bf5269" y="244.8"/>
     <use style="fill:#008000;stroke:#000000;stroke-width:0.5;" x="78.3771428571" xlink:href="#m8210bf5269" y="211.2"/>
     <use style="fill:#008000;stroke:#000000;stroke-width:0.5;" x="79.9714285714" xlink:href="#m8210bf5269" y="244.8"/>
     <use style="fill:#008000;stroke:#000000;stroke-width:0.5;" x="81.5657142857" xlink:href="#m8210bf5269" y="244.8"/>
     <use style="fill:#008000;stroke:#000000;stroke-width:0.5;" x="83.16" xlink:href="#m8210bf5269" y="211.2"/>
     <use style="fill:#008000;stroke:#000000;stroke-width:0.5;" x="84.7542857143" xlink:href="#m8210bf5269" y="244.8"/>
     <use style="fill:#008000;stroke:#000000;stroke-width:0.5;" x="86.3485714286" xlink:href="#m8210bf5269" y="177.6"/>
     <use style="fill:#008000;stroke:#000000;stroke-width:0.5;" x="87.9428571429" xlink:href="#m8210bf5269" y="244.8"/>
     <use style="fill:#008000;stroke:#000000;stroke-width:0.5;" x="89.5371428572" xlink:href="#m8210bf5269" y="244.8"/>
     <use style="fill:#008000;stroke:#000000;stroke-width:0.5;" x="91.1314285714" xlink:href="#m8210bf5269" y="312.0"/>
     <use style="fill:#008000;stroke:#000000;stroke-width:0.5;" x="92.7257142857" xlink:href="#m8210bf5269" y="211.2"/>
     <use style="fill:#008000;stroke:#000000;stroke-width:0.5;" x="94.32" xlink:href="#m8210bf5269" y="244.8"/>
     <use style="fill:#008000;stroke:#000000;stroke-width:0.5;" x="95.9142857143" xlink:href="#m8210bf5269" y="211.2"/>
     <use style="fill:#008000;stroke:#000000;stroke-width:0.5;" x="97.5085714286" xlink:href="#m8210bf5269" y="244.8"/>
     <use style="fill:#008000;stroke:#000000;stroke-width:0.5;" x="99.1028571429" xlink:href="#m8210bf5269" y="278.4"/>
     <use style="fill:#008000;stroke:#000000;stroke-width:0.5;" x="100.697142857" xlink:href="#m8210bf5269" y="312.0"/>
     <use style="fill:#008000;stroke:#000000;stroke-width:0.5;" x="102.291428571" xlink:href="#m8210bf5269" y="244.8"/>
     <use style="fill:#008000;stroke:#000000;stroke-width:0.5;" x="103.885714286" xlink:href="#m8210bf5269" y="278.4"/>
     <use style="fill:#008000;stroke:#000000;stroke-width:0.5;" x="105.48" xlink:href="#m8210bf5269" y="312.0"/>
     <use style="fill:#008000;stroke:#000000;stroke-width:0.5;" x="107.074285714" xlink:href="#m8210bf5269" y="278.4"/>
     <use style="fill:#008000;stroke:#000000;stroke-width:0.5;" x="108.668571429" xlink:href="#m8210bf5269" y="244.8"/>
     <use style="fill:#008000;stroke:#000000;stroke-width:0.5;" x="154.902857143" xlink:href="#m8210bf5269" y="244.8"/>
     <use style="fill:#008000;stroke:#000000;stroke-width:0.5;" x="156.497142857" xlink:href="#m8210bf5269" y="278.4"/>
     <use style="fill:#008000;stroke:#000000;stroke-width:0.5;" x="158.091428571" xlink:href="#m8210bf5269" y="211.2"/>
     <use style="fill:#008000;stroke:#000000;stroke-width:0.5;" x="159.685714286" xlink:href="#m8210bf5269" y="177.6"/>
     <use style="fill:#008000;stroke:#000000;stroke-width:0.5;" x="161.28" xlink:href="#m8210bf5269" y="278.4"/>
     <use style="fill:#008000;stroke:#000000;stroke-width:0.5;" x="162.874285714" xlink:href="#m8210bf5269" y="312.0"/>
     <use style="fill:#008000;stroke:#000000;stroke-width:0.5;" x="164.468571429" xlink:href="#m8210bf5269" y="211.2"/>
     <use style="fill:#008000;stroke:#000000;stroke-width:0.5;" x="166.062857143" xlink:href="#m8210bf5269" y="144.0"/>
     <use style="fill:#008000;stroke:#000000;stroke-width:0.5;" x="167.657142857" xlink:href="#m8210bf5269" y="76.8"/>
     <use style="fill:#008000;stroke:#000000;stroke-width:0.5;" x="169.251428571" xlink:href="#m8210bf5269" y="110.4"/>
     <use style="fill:#008000;stroke:#000000;stroke-width:0.5;" x="170.845714286" xlink:href="#m8210bf5269" y="144.0"/>
     <use style="fill:#008000;stroke:#000000;stroke-width:0.5;" x="172.44" xlink:href="#m8210bf5269" y="211.2"/>
     <use style="fill:#008000;stroke:#000000;stroke-width:0.5;" x="174.034285714" xlink:href="#m8210bf5269" y="144.0"/>
     <use style="fill:#008000;stroke:#000000;stroke-width:0.5;" x="175.628571429" xlink:href="#m8210bf5269" y="177.6"/>
     <use style="fill:#008000;stroke:#000000;stroke-width:0.5;" x="177.222857143" xlink:href="#m8210bf5269" y="110.4"/>
     <use style="fill:#008000;stroke:#000000;stroke-width:0.5;" x="178.817142857" xlink:href="#m8210bf5269" y="177.6"/>
     <use style="fill:#008000;stroke:#000000;stroke-width:0.5;" x="180.411428571" xlink:href="#m8210bf5269" y="177.6"/>
     <use style="fill:#008000;stroke:#000000;stroke-width:0.5;" x="182.005714286" xlink:href="#m8210bf5269" y="244.8"/>
     <use style="fill:#008000;stroke:#000000;stroke-width:0.5;" x="183.6" xlink:href="#m8210bf5269" y="144.0"/>
     <use style="fill:#008000;stroke:#000000;stroke-width:0.5;" x="185.194285714" xlink:href="#m8210bf5269" y="244.8"/>
     <use style="fill:#008000;stroke:#000000;stroke-width:0.5;" x="186.788571429" xlink:href="#m8210bf5269" y="244.8"/>
     <use style="fill:#008000;stroke:#000000;stroke-width:0.5;" x="188.382857143" xlink:href="#m8210bf5269" y="244.8"/>
     <use style="fill:#008000;stroke:#000000;stroke-width:0.5;" x="189.977142857" xlink:href="#m8210bf5269" y="244.8"/>
     <use style="fill:#008000;stroke:#000000;stroke-width:0.5;" x="191.571428571" xlink:href="#m8210bf5269" y="211.2"/>
     <use style="fill:#008000;stroke:#000000;stroke-width:0.5;" x="193.165714286" xlink:href="#m8210bf5269" y="244.8"/>
     <use style="fill:#008000;stroke:#000000;stroke-width:0.5;" x="194.76" xlink:href="#m8210bf5269" y="278.4"/>
     <use style="fill:#008000;stroke:#000000;stroke-width:0.5;" x="196.354285714" xlink:href="#m8210bf5269" y="244.8"/>
     <use style="fill:#008000;stroke:#000000;stroke-width:0.5;" x="197.948571429" xlink:href="#m8210bf5269" y="244.8"/>
     <use style="fill:#008000;stroke:#000000;stroke-width:0.5;" x="199.542857143" xlink:href="#m8210bf5269" y="312.0"/>
     <use style="fill:#008000;stroke:#000000;stroke-width:0.5;" x="201.137142857" xlink:href="#m8210bf5269" y="278.4"/>
     <use style="fill:#008000;stroke:#000000;stroke-width:0.5;" x="202.731428571" xlink:href="#m8210bf5269" y="244.8"/>
     <use style="fill:#008000;stroke:#000000;stroke-width:0.5;" x="204.325714286" xlink:href="#m8210bf5269" y="177.6"/>
     <use style="fill:#008000;stroke:#000000;stroke-width:0.5;" x="205.92" xlink:href="#m8210bf5269" y="211.2"/>
     <use style="fill:#008000;stroke:#000000;stroke-width:0.5;" x="207.514285714" xlink:href="#m8210bf5269" y="211.2"/>
     <use style="fill:#008000;stroke:#000000;stroke-width:0.5;" x="209.108571429" xlink:href="#m8210bf5269" y="211.2"/>
     <use style="fill:#008000;stroke:#000000;stroke-width:0.5;" x="210.702857143" xlink:href="#m8210bf5269" y="211.2"/>
     <use style="fill:#008000;stroke:#000000;stroke-width:0.5;" x="212.297142857" xlink:href="#m8210bf5269" y="244.8"/>
     <use style="fill:#008000;stroke:#000000;stroke-width:0.5;" x="213.891428571" xlink:href="#m8210bf5269" y="177.6"/>
     <use style="fill:#008000;stroke:#000000;stroke-width:0.5;" x="215.485714286" xlink:href="#m8210bf5269" y="144.0"/>
     <use style="fill:#008000;stroke:#000000;stroke-width:0.5;" x="217.08" xlink:href="#m8210bf5269" y="211.2"/>
     <use style="fill:#008000;stroke:#000000;stroke-width:0.5;" x="218.674285714" xlink:href="#m8210bf5269" y="211.2"/>
     <use style="fill:#008000;stroke:#000000;stroke-width:0.5;" x="220.268571429" xlink:href="#m8210bf5269" y="177.6"/>
     <use style="fill:#008000;stroke:#000000;stroke-width:0.5;" x="221.862857143" xlink:href="#m8210bf5269" y="177.6"/>
     <use style="fill:#008000;stroke:#000000;stroke-width:0.5;" x="223.457142857" xlink:href="#m8210bf5269" y="177.6"/>
     <use style="fill:#008000;stroke:#000000;stroke-width:0.5;" x="225.051428571" xlink:href="#m8210bf5269" y="144.0"/>
     <use style="fill:#008000;stroke:#000000;stroke-width:0.5;" x="226.645714286" xlink:href="#m8210bf5269" y="177.6"/>
     <use style="fill:#008000;stroke:#000000;stroke-width:0.5;" x="228.24" xlink:href="#m8210bf5269" y="144.0"/>
     <use style="fill:#008000;stroke:#000000;stroke-width:0.5;" x="229.834285714" xlink:href="#m8210bf5269" y="144.0"/>
     <use style="fill:#008000;stroke:#000000;stroke-width:0.5;" x="231.428571429" xlink:href="#m8210bf5269" y="244.8"/>
     <use style="fill:#008000;stroke:#000000;stroke-width:0.5;" x="233.022857143" xlink:href="#m8210bf5269" y="278.4"/>
     <use style="fill:#008000;stroke:#000000;stroke-width:0.5;" x="234.617142857" xlink:href="#m8210bf5269" y="244.8"/>
     <use style="fill:#008000;stroke:#000000;stroke-width:0.5;" x="236.211428571" xlink:href="#m8210bf5269" y="177.6"/>
     <use style="fill:#008000;stroke:#000000;stroke-width:0.5;" x="237.805714286" xlink:href="#m8210bf5269" y="177.6"/>
     <use style="fill:#008000;stroke:#000000;stroke-width:0.5;" x="239.4" xlink:href="#m8210bf5269" y="244.8"/>
     <use style="fill:#008000;stroke:#000000;stroke-width:0.5;" x="240.994285714" xlink:href="#m8210bf5269" y="177.6"/>
     <use style="fill:#008000;stroke:#000000;stroke-width:0.5;" x="242.588571429" xlink:href="#m8210bf5269" y="144.0"/>
     <use style="fill:#008000;stroke:#000000;stroke-width:0.5;" x="244.182857143" xlink:href="#m8210bf5269" y="144.0"/>
     <use style="fill:#008000;stroke:#000000;stroke-width:0.5;" x="245.777142857" xlink:href="#m8210bf5269" y="144.0"/>
     <use style="fill:#008000;stroke:#000000;stroke-width:0.5;" x="247.371428571" xlink:href="#m8210bf5269" y="110.4"/>
     <use style="fill:#008000;stroke:#000000;stroke-width:0.5;" x="248.965714286" xlink:href="#m8210bf5269" y="110.4"/>
     <use style="fill:#008000;stroke:#000000;stroke-width:0.5;" x="250.56" xlink:href="#m8210bf5269" y="144.0"/>
     <use style="fill:#008000;stroke:#000000;stroke-width:0.5;" x="252.154285714" xlink:href="#m8210bf5269" y="110.4"/>
     <use style="fill:#008000;stroke:#000000;stroke-width:0.5;" x="253.748571429" xlink:href="#m8210bf5269" y="110.4"/>
     <use style="fill:#008000;stroke:#000000;stroke-width:0.5;" x="255.342857143" xlink:href="#m8210bf5269" y="144.0"/>
     <use style="fill:#008000;stroke:#000000;stroke-width:0.5;" x="256.937142857" xlink:href="#m8210bf5269" y="110.4"/>
     <use style="fill:#008000;stroke:#000000;stroke-width:0.5;" x="258.531428571" xlink:href="#m8210bf5269" y="110.4"/>
     <use style="fill:#008000;stroke:#000000;stroke-width:0.5;" x="260.125714286" xlink:href="#m8210bf5269" y="144.0"/>
     <use style="fill:#008000;stroke:#000000;stroke-width:0.5;" x="261.72" xlink:href="#m8210bf5269" y="177.6"/>
     <use style="fill:#008000;stroke:#000000;stroke-width:0.5;" x="263.314285714" xlink:href="#m8210bf5269" y="144.0"/>
     <use style="fill:#008000;stroke:#000000;stroke-width:0.5;" x="264.908571429" xlink:href="#m8210bf5269" y="110.4"/>
     <use style="fill:#008000;stroke:#000000;stroke-width:0.5;" x="266.502857143" xlink:href="#m8210bf5269" y="177.6"/>
     <use style="fill:#008000;stroke:#000000;stroke-width:0.5;" x="268.097142857" xlink:href="#m8210bf5269" y="76.8"/>
     <use style="fill:#008000;stroke:#000000;stroke-width:0.5;" x="269.691428571" xlink:href="#m8210bf5269" y="110.4"/>
     <use style="fill:#008000;stroke:#000000;stroke-width:0.5;" x="271.285714286" xlink:href="#m8210bf5269" y="211.2"/>
     <use style="fill:#008000;stroke:#000000;stroke-width:0.5;" x="272.88" xlink:href="#m8210bf5269" y="177.6"/>
     <use style="fill:#008000;stroke:#000000;stroke-width:0.5;" x="274.474285714" xlink:href="#m8210bf5269" y="211.2"/>
     <use style="fill:#008000;stroke:#000000;stroke-width:0.5;" x="277.662857143" xlink:href="#m8210bf5269" y="211.2"/>
     <use style="fill:#008000;stroke:#000000;stroke-width:0.5;" x="279.257142857" xlink:href="#m8210bf5269" y="211.2"/>
     <use style="fill:#008000;stroke:#000000;stroke-width:0.5;" x="280.851428571" xlink:href="#m8210bf5269" y="244.8"/>
     <use style="fill:#008000;stroke:#000000;stroke-width:0.5;" x="282.445714286" xlink:href="#m8210bf5269" y="177.6"/>
     <use style="fill:#008000;stroke:#000000;stroke-width:0.5;" x="284.04" xlink:href="#m8210bf5269" y="244.8"/>
     <use style="fill:#008000;stroke:#000000;stroke-width:0.5;" x="285.634285714" xlink:href="#m8210bf5269" y="244.8"/>
     <use style="fill:#008000;stroke:#000000;stroke-width:0.5;" x="287.228571429" xlink:href="#m8210bf5269" y="177.6"/>
     <use style="fill:#008000;stroke:#000000;stroke-width:0.5;" x="288.822857143" xlink:href="#m8210bf5269" y="211.2"/>
     <use style="fill:#008000;stroke:#000000;stroke-width:0.5;" x="290.417142857" xlink:href="#m8210bf5269" y="211.2"/>
     <use style="fill:#008000;stroke:#000000;stroke-width:0.5;" x="292.011428571" xlink:href="#m8210bf5269" y="211.2"/>
     <use style="fill:#008000;stroke:#000000;stroke-width:0.5;" x="293.605714286" xlink:href="#m8210bf5269" y="244.8"/>
     <use style="fill:#008000;stroke:#000000;stroke-width:0.5;" x="295.2" xlink:href="#m8210bf5269" y="211.2"/>
     <use style="fill:#008000;stroke:#000000;stroke-width:0.5;" x="296.794285714" xlink:href="#m8210bf5269" y="177.6"/>
     <use style="fill:#008000;stroke:#000000;stroke-width:0.5;" x="298.388571429" xlink:href="#m8210bf5269" y="177.6"/>
     <use style="fill:#008000;stroke:#000000;stroke-width:0.5;" x="299.982857143" xlink:href="#m8210bf5269" y="211.2"/>
     <use style="fill:#008000;stroke:#000000;stroke-width:0.5;" x="301.577142857" xlink:href="#m8210bf5269" y="211.2"/>
     <use style="fill:#008000;stroke:#000000;stroke-width:0.5;" x="303.171428571" xlink:href="#m8210bf5269" y="211.2"/>
     <use style="fill:#008000;stroke:#000000;stroke-width:0.5;" x="304.765714286" xlink:href="#m8210bf5269" y="211.2"/>
     <use style="fill:#008000;stroke:#000000;stroke-width:0.5;" x="306.36" xlink:href="#m8210bf5269" y="211.2"/>
     <use style="fill:#008000;stroke:#000000;stroke-width:0.5;" x="307.954285714" xlink:href="#m8210bf5269" y="211.2"/>
     <use style="fill:#008000;stroke:#000000;stroke-width:0.5;" x="309.548571429" xlink:href="#m8210bf5269" y="211.2"/>
     <use style="fill:#008000;stroke:#000000;stroke-width:0.5;" x="311.142857143" xlink:href="#m8210bf5269" y="244.8"/>
     <use style="fill:#008000;stroke:#000000;stroke-width:0.5;" x="312.737142857" xlink:href="#m8210bf5269" y="211.2"/>
     <use style="fill:#008000;stroke:#000000;stroke-width:0.5;" x="314.331428571" xlink:href="#m8210bf5269" y="211.2"/>
     <use style="fill:#008000;stroke:#000000;stroke-width:0.5;" x="315.925714286" xlink:href="#m8210bf5269" y="211.2"/>
     <use style="fill:#008000;stroke:#000000;stroke-width:0.5;" x="317.52" xlink:href="#m8210bf5269" y="177.6"/>
     <use style="fill:#008000;stroke:#000000;stroke-width:0.5;" x="319.114285714" xlink:href="#m8210bf5269" y="144.0"/>
     <use style="fill:#008000;stroke:#000000;stroke-width:0.5;" x="320.708571429" xlink:href="#m8210bf5269" y="177.6"/>
     <use style="fill:#008000;stroke:#000000;stroke-width:0.5;" x="322.302857143" xlink:href="#m8210bf5269" y="177.6"/>
     <use style="fill:#008000;stroke:#000000;stroke-width:0.5;" x="323.897142857" xlink:href="#m8210bf5269" y="144.0"/>
     <use style="fill:#008000;stroke:#000000;stroke-width:0.5;" x="325.491428571" xlink:href="#m8210bf5269" y="76.8"/>
     <use style="fill:#008000;stroke:#000000;stroke-width:0.5;" x="327.085714286" xlink:href="#m8210bf5269" y="144.0"/>
     <use style="fill:#008000;stroke:#000000;stroke-width:0.5;" x="328.68" xlink:href="#m8210bf5269" y="144.0"/>
     <use style="fill:#008000;stroke:#000000;stroke-width:0.5;" x="330.274285714" xlink:href="#m8210bf5269" y="177.6"/>
     <use style="fill:#008000;stroke:#000000;stroke-width:0.5;" x="331.868571429" xlink:href="#m8210bf5269" y="177.6"/>
     <use style="fill:#008000;stroke:#000000;stroke-width:0.5;" x="333.462857143" xlink:href="#m8210bf5269" y="110.4"/>
     <use style="fill:#008000;stroke:#000000;stroke-width:0.5;" x="335.057142857" xlink:href="#m8210bf5269" y="144.0"/>
     <use style="fill:#008000;stroke:#000000;stroke-width:0.5;" x="336.651428571" xlink:href="#m8210bf5269" y="144.0"/>
     <use style="fill:#008000;stroke:#000000;stroke-width:0.5;" x="338.245714286" xlink:href="#m8210bf5269" y="144.0"/>
     <use style="fill:#008000;stroke:#000000;stroke-width:0.5;" x="339.84" xlink:href="#m8210bf5269" y="144.0"/>
     <use style="fill:#008000;stroke:#000000;stroke-width:0.5;" x="341.434285714" xlink:href="#m8210bf5269" y="110.4"/>
     <use style="fill:#008000;stroke:#000000;stroke-width:0.5;" x="343.028571429" xlink:href="#m8210bf5269" y="177.6"/>
     <use style="fill:#008000;stroke:#000000;stroke-width:0.5;" x="344.622857143" xlink:href="#m8210bf5269" y="144.0"/>
     <use style="fill:#008000;stroke:#000000;stroke-width:0.5;" x="346.217142857" xlink:href="#m8210bf5269" y="144.0"/>
     <use style="fill:#008000;stroke:#000000;stroke-width:0.5;" x="347.811428571" xlink:href="#m8210bf5269" y="177.6"/>
     <use style="fill:#008000;stroke:#000000;stroke-width:0.5;" x="349.405714286" xlink:href="#m8210bf5269" y="177.6"/>
     <use style="fill:#008000;stroke:#000000;stroke-width:0.5;" x="351.0" xlink:href="#m8210bf5269" y="177.6"/>
     <use style="fill:#008000;stroke:#000000;stroke-width:0.5;" x="352.594285714" xlink:href="#m8210bf5269" y="244.8"/>
     <use style="fill:#008000;stroke:#000000;stroke-width:0.5;" x="354.188571429" xlink:href="#m8210bf5269" y="211.2"/>
     <use style="fill:#008000;stroke:#000000;stroke-width:0.5;" x="355.782857143" xlink:href="#m8210bf5269" y="211.2"/>
     <use style="fill:#008000;stroke:#000000;stroke-width:0.5;" x="357.377142857" xlink:href="#m8210bf5269" y="211.2"/>
     <use style="fill:#008000;stroke:#000000;stroke-width:0.5;" x="358.971428571" xlink:href="#m8210bf5269" y="144.0"/>
     <use style="fill:#008000;stroke:#000000;stroke-width:0.5;" x="360.565714286" xlink:href="#m8210bf5269" y="211.2"/>
     <use style="fill:#008000;stroke:#000000;stroke-width:0.5;" x="362.16" xlink:href="#m8210bf5269" y="177.6"/>
     <use style="fill:#008000;stroke:#000000;stroke-width:0.5;" x="363.754285714" xlink:href="#m8210bf5269" y="211.2"/>
     <use style="fill:#008000;stroke:#000000;stroke-width:0.5;" x="365.348571429" xlink:href="#m8210bf5269" y="177.6"/>
     <use style="fill:#008000;stroke:#000000;stroke-width:0.5;" x="366.942857143" xlink:href="#m8210bf5269" y="312.0"/>
     <use style="fill:#008000;stroke:#000000;stroke-width:0.5;" x="368.537142857" xlink:href="#m8210bf5269" y="278.4"/>
     <use style="fill:#008000;stroke:#000000;stroke-width:0.5;" x="370.131428571" xlink:href="#m8210bf5269" y="211.2"/>
     <use style="fill:#008000;stroke:#000000;stroke-width:0.5;" x="371.725714286" xlink:href="#m8210bf5269" y="312.0"/>
     <use style="fill:#008000;stroke:#000000;stroke-width:0.5;" x="374.914285714" xlink:href="#m8210bf5269" y="144.0"/>
     <use style="fill:#008000;stroke:#000000;stroke-width:0.5;" x="376.508571429" xlink:href="#m8210bf5269" y="177.6"/>
     <use style="fill:#008000;stroke:#000000;stroke-width:0.5;" x="378.102857143" xlink:href="#m8210bf5269" y="110.4"/>
     <use style="fill:#008000;stroke:#000000;stroke-width:0.5;" x="379.697142857" xlink:href="#m8210bf5269" y="43.2"/>
     <use style="fill:#008000;stroke:#000000;stroke-width:0.5;" x="381.291428571" xlink:href="#m8210bf5269" y="144.0"/>
     <use style="fill:#008000;stroke:#000000;stroke-width:0.5;" x="382.885714286" xlink:href="#m8210bf5269" y="76.8"/>
     <use style="fill:#008000;stroke:#000000;stroke-width:0.5;" x="384.48" xlink:href="#m8210bf5269" y="110.4"/>
     <use style="fill:#008000;stroke:#000000;stroke-width:0.5;" x="386.074285714" xlink:href="#m8210bf5269" y="144.0"/>
     <use style="fill:#008000;stroke:#000000;stroke-width:0.5;" x="387.668571429" xlink:href="#m8210bf5269" y="177.6"/>
     <use style="fill:#008000;stroke:#000000;stroke-width:0.5;" x="389.262857143" xlink:href="#m8210bf5269" y="211.2"/>
     <use style="fill:#008000;stroke:#000000;stroke-width:0.5;" x="390.857142857" xlink:href="#m8210bf5269" y="177.6"/>
     <use style="fill:#008000;stroke:#000000;stroke-width:0.5;" x="392.451428571" xlink:href="#m8210bf5269" y="244.8"/>
     <use style="fill:#008000;stroke:#000000;stroke-width:0.5;" x="394.045714286" xlink:href="#m8210bf5269" y="177.6"/>
     <use style="fill:#008000;stroke:#000000;stroke-width:0.5;" x="395.64" xlink:href="#m8210bf5269" y="211.2"/>
     <use style="fill:#008000;stroke:#000000;stroke-width:0.5;" x="397.234285714" xlink:href="#m8210bf5269" y="144.0"/>
     <use style="fill:#008000;stroke:#000000;stroke-width:0.5;" x="398.828571429" xlink:href="#m8210bf5269" y="144.0"/>
     <use style="fill:#008000;stroke:#000000;stroke-width:0.5;" x="400.422857143" xlink:href="#m8210bf5269" y="76.8"/>
     <use style="fill:#008000;stroke:#000000;stroke-width:0.5;" x="402.017142857" xlink:href="#m8210bf5269" y="76.8"/>
     <use style="fill:#008000;stroke:#000000;stroke-width:0.5;" x="403.611428571" xlink:href="#m8210bf5269" y="76.8"/>
     <use style="fill:#008000;stroke:#000000;stroke-width:0.5;" x="405.205714286" xlink:href="#m8210bf5269" y="76.8"/>
     <use style="fill:#008000;stroke:#000000;stroke-width:0.5;" x="406.8" xlink:href="#m8210bf5269" y="110.4"/>
     <use style="fill:#008000;stroke:#000000;stroke-width:0.5;" x="408.394285714" xlink:href="#m8210bf5269" y="110.4"/>
     <use style="fill:#008000;stroke:#000000;stroke-width:0.5;" x="409.988571429" xlink:href="#m8210bf5269" y="110.4"/>
     <use style="fill:#008000;stroke:#000000;stroke-width:0.5;" x="411.582857143" xlink:href="#m8210bf5269" y="76.8"/>
     <use style="fill:#008000;stroke:#000000;stroke-width:0.5;" x="413.177142857" xlink:href="#m8210bf5269" y="76.8"/>
     <use style="fill:#008000;stroke:#000000;stroke-width:0.5;" x="414.771428571" xlink:href="#m8210bf5269" y="177.6"/>
     <use style="fill:#008000;stroke:#000000;stroke-width:0.5;" x="416.365714286" xlink:href="#m8210bf5269" y="43.2"/>
     <use style="fill:#008000;stroke:#000000;stroke-width:0.5;" x="419.554285714" xlink:href="#m8210bf5269" y="110.4"/>
     <use style="fill:#008000;stroke:#000000;stroke-width:0.5;" x="421.148571429" xlink:href="#m8210bf5269" y="110.4"/>
     <use style="fill:#008000;stroke:#000000;stroke-width:0.5;" x="422.742857143" xlink:href="#m8210bf5269" y="110.4"/>
     <use style="fill:#008000;stroke:#000000;stroke-width:0.5;" x="424.337142857" xlink:href="#m8210bf5269" y="144.0"/>
     <use style="fill:#008000;stroke:#000000;stroke-width:0.5;" x="425.931428571" xlink:href="#m8210bf5269" y="76.8"/>
     <use style="fill:#008000;stroke:#000000;stroke-width:0.5;" x="427.525714286" xlink:href="#m8210bf5269" y="144.0"/>
     <use style="fill:#008000;stroke:#000000;stroke-width:0.5;" x="429.12" xlink:href="#m8210bf5269" y="211.2"/>
     <use style="fill:#008000;stroke:#000000;stroke-width:0.5;" x="430.714285714" xlink:href="#m8210bf5269" y="211.2"/>
     <use style="fill:#008000;stroke:#000000;stroke-width:0.5;" x="432.308571429" xlink:href="#m8210bf5269" y="211.2"/>
     <use style="fill:#008000;stroke:#000000;stroke-width:0.5;" x="433.902857143" xlink:href="#m8210bf5269" y="177.6"/>
     <use style="fill:#008000;stroke:#000000;stroke-width:0.5;" x="435.497142857" xlink:href="#m8210bf5269" y="177.6"/>
     <use style="fill:#008000;stroke:#000000;stroke-width:0.5;" x="437.091428571" xlink:href="#m8210bf5269" y="177.6"/>
     <use style="fill:#008000;stroke:#000000;stroke-width:0.5;" x="438.685714286" xlink:href="#m8210bf5269" y="177.6"/>
     <use style="fill:#008000;stroke:#000000;stroke-width:0.5;" x="440.28" xlink:href="#m8210bf5269" y="211.2"/>
     <use style="fill:#008000;stroke:#000000;stroke-width:0.5;" x="441.874285714" xlink:href="#m8210bf5269" y="211.2"/>
     <use style="fill:#008000;stroke:#000000;stroke-width:0.5;" x="443.468571429" xlink:href="#m8210bf5269" y="177.6"/>
     <use style="fill:#008000;stroke:#000000;stroke-width:0.5;" x="445.062857143" xlink:href="#m8210bf5269" y="211.2"/>
     <use style="fill:#008000;stroke:#000000;stroke-width:0.5;" x="446.657142857" xlink:href="#m8210bf5269" y="177.6"/>
     <use style="fill:#008000;stroke:#000000;stroke-width:0.5;" x="448.251428571" xlink:href="#m8210bf5269" y="244.8"/>
     <use style="fill:#008000;stroke:#000000;stroke-width:0.5;" x="449.845714286" xlink:href="#m8210bf5269" y="244.8"/>
     <use style="fill:#008000;stroke:#000000;stroke-width:0.5;" x="451.44" xlink:href="#m8210bf5269" y="244.8"/>
     <use style="fill:#008000;stroke:#000000;stroke-width:0.5;" x="454.628571429" xlink:href="#m8210bf5269" y="211.2"/>
     <use style="fill:#008000;stroke:#000000;stroke-width:0.5;" x="457.817142857" xlink:href="#m8210bf5269" y="177.6"/>
     <use style="fill:#008000;stroke:#000000;stroke-width:0.5;" x="459.411428571" xlink:href="#m8210bf5269" y="110.4"/>
     <use style="fill:#008000;stroke:#000000;stroke-width:0.5;" x="461.005714286" xlink:href="#m8210bf5269" y="177.6"/>
     <use style="fill:#008000;stroke:#000000;stroke-width:0.5;" x="462.6" xlink:href="#m8210bf5269" y="144.0"/>
     <use style="fill:#008000;stroke:#000000;stroke-width:0.5;" x="464.194285714" xlink:href="#m8210bf5269" y="144.0"/>
     <use style="fill:#008000;stroke:#000000;stroke-width:0.5;" x="464.194285714" xlink:href="#m8210bf5269" y="144.0"/>
     <use style="fill:#008000;stroke:#000000;stroke-width:0.5;" x="467.382857143" xlink:href="#m8210bf5269" y="144.0"/>
     <use style="fill:#008000;stroke:#000000;stroke-width:0.5;" x="470.571428571" xlink:href="#m8210bf5269" y="177.6"/>
     <use style="fill:#008000;stroke:#000000;stroke-width:0.5;" x="472.165714286" xlink:href="#m8210bf5269" y="211.2"/>
     <use style="fill:#008000;stroke:#000000;stroke-width:0.5;" x="473.76" xlink:href="#m8210bf5269" y="177.6"/>
     <use style="fill:#008000;stroke:#000000;stroke-width:0.5;" x="475.354285714" xlink:href="#m8210bf5269" y="144.0"/>
     <use style="fill:#008000;stroke:#000000;stroke-width:0.5;" x="476.948571429" xlink:href="#m8210bf5269" y="144.0"/>
     <use style="fill:#008000;stroke:#000000;stroke-width:0.5;" x="478.542857143" xlink:href="#m8210bf5269" y="144.0"/>
     <use style="fill:#008000;stroke:#000000;stroke-width:0.5;" x="484.92" xlink:href="#m8210bf5269" y="177.6"/>
     <use style="fill:#008000;stroke:#000000;stroke-width:0.5;" x="486.514285714" xlink:href="#m8210bf5269" y="177.6"/>
     <use style="fill:#008000;stroke:#000000;stroke-width:0.5;" x="489.702857143" xlink:href="#m8210bf5269" y="211.2"/>
     <use style="fill:#008000;stroke:#000000;stroke-width:0.5;" x="491.297142857" xlink:href="#m8210bf5269" y="211.2"/>
     <use style="fill:#008000;stroke:#000000;stroke-width:0.5;" x="492.891428571" xlink:href="#m8210bf5269" y="177.6"/>
     <use style="fill:#008000;stroke:#000000;stroke-width:0.5;" x="494.485714286" xlink:href="#m8210bf5269" y="211.2"/>
     <use style="fill:#008000;stroke:#000000;stroke-width:0.5;" x="496.08" xlink:href="#m8210bf5269" y="177.6"/>
     <use style="fill:#008000;stroke:#000000;stroke-width:0.5;" x="497.674285714" xlink:href="#m8210bf5269" y="211.2"/>
     <use style="fill:#008000;stroke:#000000;stroke-width:0.5;" x="499.268571429" xlink:href="#m8210bf5269" y="144.0"/>
     <use style="fill:#008000;stroke:#000000;stroke-width:0.5;" x="500.862857143" xlink:href="#m8210bf5269" y="177.6"/>
     <use style="fill:#008000;stroke:#000000;stroke-width:0.5;" x="502.457142857" xlink:href="#m8210bf5269" y="144.0"/>
     <use style="fill:#008000;stroke:#000000;stroke-width:0.5;" x="504.051428571" xlink:href="#m8210bf5269" y="110.4"/>
     <use style="fill:#008000;stroke:#000000;stroke-width:0.5;" x="505.645714286" xlink:href="#m8210bf5269" y="144.0"/>
     <use style="fill:#008000;stroke:#000000;stroke-width:0.5;" x="507.24" xlink:href="#m8210bf5269" y="177.6"/>
     <use style="fill:#008000;stroke:#000000;stroke-width:0.5;" x="508.834285714" xlink:href="#m8210bf5269" y="244.8"/>
     <use style="fill:#008000;stroke:#000000;stroke-width:0.5;" x="510.428571429" xlink:href="#m8210bf5269" y="244.8"/>
     <use style="fill:#008000;stroke:#000000;stroke-width:0.5;" x="512.022857143" xlink:href="#m8210bf5269" y="211.2"/>
     <use style="fill:#008000;stroke:#000000;stroke-width:0.5;" x="513.617142857" xlink:href="#m8210bf5269" y="177.6"/>
     <use style="fill:#008000;stroke:#000000;stroke-width:0.5;" x="515.211428571" xlink:href="#m8210bf5269" y="144.0"/>
     <use style="fill:#008000;stroke:#000000;stroke-width:0.5;" x="516.805714286" xlink:href="#m8210bf5269" y="110.4"/>
     <use style="fill:#008000;stroke:#000000;stroke-width:0.5;" x="518.4" xlink:href="#m8210bf5269" y="76.8"/>
    </g>
   </g>
   <g id="matplotlib.axis_1">
    <g id="xtick_1">
     <g id="line2d_3">
      <path clip-path="url(#p6eaff704d2)" d="M 117.55102 345.6 
L 117.55102 43.2 
" style="fill:none;stroke:#000000;stroke-dasharray:1.000000,3.000000;stroke-dashoffset:0.0;stroke-width:0.5;"/>
     </g>
     <g id="line2d_4">
      <defs>
       <path d="M 0 0 
L 0 -4 
" id="mcaa8415f24" style="stroke:#000000;stroke-width:0.5;"/>
      </defs>
      <g>
       <use style="stroke:#000000;stroke-width:0.5;" x="117.551020408" xlink:href="#mcaa8415f24" y="345.6"/>
      </g>
     </g>
     <g id="line2d_5">
      <defs>
       <path d="M 0 0 
L 0 4 
" id="m0198d20bbd" style="stroke:#000000;stroke-width:0.5;"/>
      </defs>
      <g>
       <use style="stroke:#000000;stroke-width:0.5;" x="117.551020408" xlink:href="#m0198d20bbd" y="43.2"/>
      </g>
     </g>
     <g id="text_1">
      <!-- 2012 -->
      <defs>
       <path d="M 44.390625 16.21875 
Q 44.390625 12.640625 43.046875 9.515625 
Q 41.703125 6.390625 39.359375 4.046875 
Q 37.015625 1.703125 33.890625 0.359375 
Q 30.765625 -0.984375 27.203125 -0.984375 
L 24.21875 -0.984375 
Q 20.65625 -0.984375 17.5 0.359375 
Q 14.359375 1.703125 12.015625 4.046875 
Q 9.671875 6.390625 8.328125 9.515625 
Q 6.984375 12.640625 6.984375 16.21875 
L 6.984375 53.8125 
Q 6.984375 57.375 8.328125 60.5 
Q 9.671875 63.625 12.015625 65.96875 
Q 14.359375 68.3125 17.5 69.65625 
Q 20.65625 71 24.21875 71 
L 27.203125 71 
Q 30.765625 71 33.890625 69.65625 
Q 37.015625 68.3125 39.359375 65.96875 
Q 41.703125 63.625 43.046875 60.5 
Q 44.390625 57.375 44.390625 53.8125 
L 44.390625 16.21875 
z
M 38.09375 53.8125 
Q 38.09375 56.15625 37.203125 58.171875 
Q 36.328125 60.203125 34.8125 61.71875 
Q 33.296875 63.234375 31.265625 64.109375 
Q 29.25 64.984375 26.90625 64.984375 
L 24.515625 64.984375 
Q 22.171875 64.984375 20.140625 64.109375 
Q 18.109375 63.234375 16.578125 61.71875 
Q 15.046875 60.203125 14.15625 58.171875 
Q 13.28125 56.15625 13.28125 53.8125 
L 13.28125 16.21875 
Q 13.28125 13.875 14.15625 11.84375 
Q 15.046875 9.8125 16.578125 8.265625 
Q 18.109375 6.734375 20.140625 5.859375 
Q 22.171875 4.984375 24.515625 4.984375 
L 26.90625 4.984375 
Q 29.25 4.984375 31.265625 5.859375 
Q 33.296875 6.734375 34.8125 8.265625 
Q 36.328125 9.8125 37.203125 11.84375 
Q 38.09375 13.875 38.09375 16.21875 
z
" id="Abel-Regular-30"/>
       <path d="M 23 64.984375 
Q 20.65625 64.984375 18.625 64.109375 
Q 16.609375 63.234375 15.09375 61.71875 
Q 13.578125 60.203125 12.6875 58.171875 
Q 11.8125 56.15625 11.8125 53.8125 
L 11.8125 50.984375 
L 5.515625 52 
L 5.515625 53.8125 
Q 5.515625 57.375 6.859375 60.5 
Q 8.203125 63.625 10.546875 65.96875 
Q 12.890625 68.3125 16.015625 69.65625 
Q 19.140625 71 22.703125 71 
L 25.6875 71 
Q 29.25 71 32.390625 69.71875 
Q 35.546875 68.453125 37.890625 66.0625 
Q 40.234375 63.671875 41.578125 60.328125 
Q 42.921875 56.984375 42.921875 52.78125 
Q 42.921875 48.640625 41.671875 44.4375 
Q 40.4375 40.234375 38.40625 36.171875 
Q 36.375 32.125 33.765625 28.3125 
Q 31.15625 24.515625 28.421875 21.140625 
Q 22.015625 13.28125 13.921875 6 
L 43.40625 6 
L 43.40625 0 
L 4 0 
L 4 4.984375 
Q 13.140625 12.5 20.3125 20.5625 
Q 23.390625 24.03125 26.3125 27.9375 
Q 29.25 31.84375 31.546875 35.96875 
Q 33.84375 40.09375 35.234375 44.359375 
Q 36.625 48.640625 36.625 52.78125 
Q 36.625 55.859375 35.6875 58.15625 
Q 34.765625 60.453125 33.203125 61.96875 
Q 31.640625 63.484375 29.609375 64.234375 
Q 27.59375 64.984375 25.390625 64.984375 
z
" id="Abel-Regular-32"/>
       <path d="M 8.015625 0 
L 8.015625 6 
L 24.703125 6 
L 24.703125 64.015625 
L 8.015625 56.984375 
L 8.015625 62.984375 
L 24.703125 70.015625 
L 31 70.015625 
L 31 6 
L 47.703125 6 
L 47.703125 0 
z
" id="Abel-Regular-31"/>
      </defs>
      <g transform="translate(95.3608747157 368.994362189)rotate(-30.0)scale(0.12 -0.12)">
       <use xlink:href="#Abel-Regular-32"/>
       <use x="49.4140625" xlink:href="#Abel-Regular-30"/>
       <use x="100.830078125" xlink:href="#Abel-Regular-31"/>
       <use x="152.5390625" xlink:href="#Abel-Regular-32"/>
      </g>
     </g>
    </g>
    <g id="xtick_2">
     <g id="line2d_6">
      <path clip-path="url(#p6eaff704d2)" d="M 200.909388 345.6 
L 200.909388 43.2 
" style="fill:none;stroke:#000000;stroke-dasharray:1.000000,3.000000;stroke-dashoffset:0.0;stroke-width:0.5;"/>
     </g>
     <g id="line2d_7">
      <g>
       <use style="stroke:#000000;stroke-width:0.5;" x="200.909387755" xlink:href="#mcaa8415f24" y="345.6"/>
      </g>
     </g>
     <g id="line2d_8">
      <g>
       <use style="stroke:#000000;stroke-width:0.5;" x="200.909387755" xlink:href="#m0198d20bbd" y="43.2"/>
      </g>
     </g>
     <g id="text_2">
      <!-- 2013 -->
      <defs>
       <path d="M 44.390625 16.21875 
Q 44.390625 12.640625 43.046875 9.515625 
Q 41.703125 6.390625 39.359375 4.046875 
Q 37.015625 1.703125 33.890625 0.359375 
Q 30.765625 -0.984375 27.203125 -0.984375 
L 24.21875 -0.984375 
Q 20.65625 -0.984375 17.5 0.359375 
Q 14.359375 1.703125 12.015625 4.046875 
Q 9.671875 6.390625 8.328125 9.515625 
Q 6.984375 12.640625 6.984375 16.21875 
L 6.984375 18.015625 
L 13.28125 19 
L 13.28125 16.21875 
Q 13.28125 13.875 14.15625 11.84375 
Q 15.046875 9.8125 16.578125 8.265625 
Q 18.109375 6.734375 20.140625 5.859375 
Q 22.171875 4.984375 24.515625 4.984375 
L 26.90625 4.984375 
Q 29.25 4.984375 31.265625 5.859375 
Q 33.296875 6.734375 34.8125 8.265625 
Q 36.328125 9.8125 37.203125 11.84375 
Q 38.09375 13.875 38.09375 16.21875 
L 38.09375 22.015625 
Q 38.09375 24.359375 37.203125 26.390625 
Q 36.328125 28.421875 34.8125 29.9375 
Q 33.296875 31.453125 31.265625 32.328125 
Q 29.25 33.203125 26.90625 33.203125 
L 22.21875 33.203125 
L 22.21875 39.203125 
L 26.90625 39.203125 
Q 29.25 39.203125 31.265625 40.078125 
Q 33.296875 40.96875 34.8125 42.484375 
Q 36.328125 44 37.203125 46.015625 
Q 38.09375 48.046875 38.09375 50.390625 
L 38.09375 53.8125 
Q 38.09375 56.15625 37.203125 58.171875 
Q 36.328125 60.203125 34.8125 61.71875 
Q 33.296875 63.234375 31.265625 64.109375 
Q 29.25 64.984375 26.90625 64.984375 
L 24.515625 64.984375 
Q 22.171875 64.984375 20.140625 64.109375 
Q 18.109375 63.234375 16.578125 61.71875 
Q 15.046875 60.203125 14.15625 58.171875 
Q 13.28125 56.15625 13.28125 53.8125 
L 13.28125 50.984375 
L 6.984375 52 
L 6.984375 53.8125 
Q 6.984375 57.375 8.328125 60.5 
Q 9.671875 63.625 12.015625 65.96875 
Q 14.359375 68.3125 17.5 69.65625 
Q 20.65625 71 24.21875 71 
L 27.203125 71 
Q 30.765625 71 33.890625 69.65625 
Q 37.015625 68.3125 39.359375 65.96875 
Q 41.703125 63.625 43.046875 60.5 
Q 44.390625 57.375 44.390625 53.8125 
L 44.390625 51.421875 
Q 44.390625 48.921875 43.71875 46.65625 
Q 43.0625 44.390625 41.859375 42.4375 
Q 40.671875 40.484375 39.015625 38.890625 
Q 37.359375 37.3125 35.296875 36.1875 
Q 37.359375 35.109375 39.015625 33.515625 
Q 40.671875 31.9375 41.859375 29.984375 
Q 43.0625 28.03125 43.71875 25.75 
Q 44.390625 23.484375 44.390625 21 
L 44.390625 16.21875 
z
" id="Abel-Regular-33"/>
      </defs>
      <g transform="translate(178.511395966 369.114362189)rotate(-30.0)scale(0.12 -0.12)">
       <use xlink:href="#Abel-Regular-32"/>
       <use x="49.4140625" xlink:href="#Abel-Regular-30"/>
       <use x="100.830078125" xlink:href="#Abel-Regular-31"/>
       <use x="152.5390625" xlink:href="#Abel-Regular-33"/>
      </g>
     </g>
    </g>
    <g id="xtick_3">
     <g id="line2d_9">
      <path clip-path="url(#p6eaff704d2)" d="M 284.04 345.6 
L 284.04 43.2 
" style="fill:none;stroke:#000000;stroke-dasharray:1.000000,3.000000;stroke-dashoffset:0.0;stroke-width:0.5;"/>
     </g>
     <g id="line2d_10">
      <g>
       <use style="stroke:#000000;stroke-width:0.5;" x="284.04" xlink:href="#mcaa8415f24" y="345.6"/>
      </g>
     </g>
     <g id="line2d_11">
      <g>
       <use style="stroke:#000000;stroke-width:0.5;" x="284.04" xlink:href="#m0198d20bbd" y="43.2"/>
      </g>
     </g>
     <g id="text_3">
      <!-- 2014 -->
      <defs>
       <path d="M 37.40625 12.109375 
L 37.40625 0 
L 31.109375 0 
L 31.109375 12.109375 
L 2.984375 12.109375 
L 2.984375 15.09375 
L 34.078125 70.015625 
L 37.40625 70.015625 
L 37.40625 18.109375 
L 43.40625 18.109375 
L 43.40625 12.109375 
z
M 31.109375 52.78125 
L 11.8125 18.109375 
L 31.109375 18.109375 
z
" id="Abel-Regular-34"/>
      </defs>
      <g transform="translate(261.750802652 369.051549689)rotate(-30.0)scale(0.12 -0.12)">
       <use xlink:href="#Abel-Regular-32"/>
       <use x="49.4140625" xlink:href="#Abel-Regular-30"/>
       <use x="100.830078125" xlink:href="#Abel-Regular-31"/>
       <use x="152.5234375" xlink:href="#Abel-Regular-34"/>
      </g>
     </g>
    </g>
    <g id="xtick_4">
     <g id="line2d_12">
      <path clip-path="url(#p6eaff704d2)" d="M 367.170612 345.6 
L 367.170612 43.2 
" style="fill:none;stroke:#000000;stroke-dasharray:1.000000,3.000000;stroke-dashoffset:0.0;stroke-width:0.5;"/>
     </g>
     <g id="line2d_13">
      <g>
       <use style="stroke:#000000;stroke-width:0.5;" x="367.170612245" xlink:href="#mcaa8415f24" y="345.6"/>
      </g>
     </g>
     <g id="line2d_14">
      <g>
       <use style="stroke:#000000;stroke-width:0.5;" x="367.170612245" xlink:href="#m0198d20bbd" y="43.2"/>
      </g>
     </g>
     <g id="text_4">
      <!-- 2015 -->
      <defs>
       <path d="M 44.390625 16.21875 
Q 44.390625 12.640625 43.046875 9.515625 
Q 41.703125 6.390625 39.359375 4.046875 
Q 37.015625 1.703125 33.890625 0.359375 
Q 30.765625 -0.984375 27.203125 -0.984375 
L 24.21875 -0.984375 
Q 20.65625 -0.984375 17.5 0.359375 
Q 14.359375 1.703125 12.015625 4.046875 
Q 9.671875 6.390625 8.328125 9.515625 
Q 6.984375 12.640625 6.984375 16.21875 
L 6.984375 17.28125 
L 13.28125 17.28125 
L 13.28125 16.21875 
Q 13.28125 13.875 14.15625 11.84375 
Q 15.046875 9.8125 16.578125 8.265625 
Q 18.109375 6.734375 20.140625 5.859375 
Q 22.171875 4.984375 24.515625 4.984375 
L 26.90625 4.984375 
Q 29.25 4.984375 31.265625 5.859375 
Q 33.296875 6.734375 34.8125 8.265625 
Q 36.328125 9.8125 37.203125 11.84375 
Q 38.09375 13.875 38.09375 16.21875 
L 38.09375 29.78125 
Q 38.09375 32.125 37.203125 34.15625 
Q 36.328125 36.1875 34.8125 37.71875 
Q 33.296875 39.265625 31.265625 40.140625 
Q 29.25 41.015625 26.90625 41.015625 
L 24.515625 41.015625 
Q 22.171875 41.015625 20.140625 40.140625 
Q 18.109375 39.265625 16.578125 37.71875 
Q 15.046875 36.1875 14.15625 34.15625 
Q 13.28125 32.125 13.28125 29.78125 
L 6.984375 29.78125 
L 10.984375 70.015625 
L 40.921875 70.015625 
L 40.921875 64.015625 
L 16.890625 64.015625 
L 14.59375 42.484375 
Q 16.84375 44.625 19.8125 45.8125 
Q 22.796875 47.015625 26.21875 47.015625 
L 27.203125 47.015625 
Q 30.765625 47.015625 33.890625 45.671875 
Q 37.015625 44.34375 39.359375 42 
Q 41.703125 39.65625 43.046875 36.5 
Q 44.390625 33.34375 44.390625 29.78125 
L 44.390625 16.21875 
z
" id="Abel-Regular-35"/>
      </defs>
      <g transform="translate(344.772620456 369.114362189)rotate(-30.0)scale(0.12 -0.12)">
       <use xlink:href="#Abel-Regular-32"/>
       <use x="49.4140625" xlink:href="#Abel-Regular-30"/>
       <use x="100.830078125" xlink:href="#Abel-Regular-31"/>
       <use x="152.5390625" xlink:href="#Abel-Regular-35"/>
      </g>
     </g>
    </g>
    <g id="xtick_5">
     <g id="line2d_15">
      <path clip-path="url(#p6eaff704d2)" d="M 450.301224 345.6 
L 450.301224 43.2 
" style="fill:none;stroke:#000000;stroke-dasharray:1.000000,3.000000;stroke-dashoffset:0.0;stroke-width:0.5;"/>
     </g>
     <g id="line2d_16">
      <g>
       <use style="stroke:#000000;stroke-width:0.5;" x="450.30122449" xlink:href="#mcaa8415f24" y="345.6"/>
      </g>
     </g>
     <g id="line2d_17">
      <g>
       <use style="stroke:#000000;stroke-width:0.5;" x="450.30122449" xlink:href="#m0198d20bbd" y="43.2"/>
      </g>
     </g>
     <g id="text_5">
      <!-- 2016 -->
      <defs>
       <path d="M 45.40625 16.21875 
Q 45.40625 12.640625 44.0625 9.515625 
Q 42.71875 6.390625 40.375 4.046875 
Q 38.03125 1.703125 34.90625 0.359375 
Q 31.78125 -0.984375 28.21875 -0.984375 
L 25.203125 -0.984375 
Q 21.625 -0.984375 18.5 0.359375 
Q 15.375 1.703125 13.03125 4.046875 
Q 10.6875 6.390625 9.34375 9.515625 
Q 8.015625 12.640625 8.015625 16.21875 
L 8.015625 53.8125 
Q 8.015625 57.375 9.34375 60.5 
Q 10.6875 63.625 13.03125 65.96875 
Q 15.375 68.3125 18.5 69.65625 
Q 21.625 71 25.203125 71 
L 28.21875 71 
Q 31.78125 71 34.90625 69.65625 
Q 38.03125 68.3125 40.375 65.96875 
Q 42.71875 63.625 44.0625 60.5 
Q 45.40625 57.375 45.40625 53.8125 
L 45.40625 52 
L 39.109375 50.984375 
L 39.109375 53.8125 
Q 39.109375 56.15625 38.234375 58.171875 
Q 37.359375 60.203125 35.8125 61.71875 
Q 34.28125 63.234375 32.25 64.109375 
Q 30.21875 64.984375 27.875 64.984375 
L 25.484375 64.984375 
Q 23.140625 64.984375 21.109375 64.109375 
Q 19.09375 63.234375 17.578125 61.71875 
Q 16.0625 60.203125 15.1875 58.171875 
Q 14.3125 56.15625 14.3125 53.8125 
L 14.3125 36.375 
Q 16.703125 39.015625 20.046875 40.59375 
Q 23.390625 42.1875 27.203125 42.1875 
L 28.21875 42.1875 
Q 31.78125 42.1875 34.90625 40.84375 
Q 38.03125 39.5 40.375 37.15625 
Q 42.71875 34.8125 44.0625 31.6875 
Q 45.40625 28.5625 45.40625 25 
L 45.40625 16.21875 
z
M 39.109375 25 
Q 39.109375 27.34375 38.234375 29.359375 
Q 37.359375 31.390625 35.8125 32.90625 
Q 34.28125 34.421875 32.25 35.296875 
Q 30.21875 36.1875 27.875 36.1875 
L 25.484375 36.1875 
Q 23.140625 36.1875 21.109375 35.296875 
Q 19.09375 34.421875 17.578125 32.90625 
Q 16.0625 31.390625 15.1875 29.359375 
Q 14.3125 27.34375 14.3125 25 
L 14.3125 16.21875 
Q 14.3125 13.875 15.1875 11.84375 
Q 16.0625 9.8125 17.578125 8.265625 
Q 19.09375 6.734375 21.109375 5.859375 
Q 23.140625 4.984375 25.484375 4.984375 
L 27.875 4.984375 
Q 30.21875 4.984375 32.25 5.859375 
Q 34.28125 6.734375 35.8125 8.265625 
Q 37.359375 9.8125 38.234375 11.84375 
Q 39.109375 13.875 39.109375 16.21875 
z
" id="Abel-Regular-36"/>
      </defs>
      <g transform="translate(427.904856498 369.113424689)rotate(-30.0)scale(0.12 -0.12)">
       <use xlink:href="#Abel-Regular-32"/>
       <use x="49.4140625" xlink:href="#Abel-Regular-30"/>
       <use x="100.830078125" xlink:href="#Abel-Regular-31"/>
       <use x="152.5234375" xlink:href="#Abel-Regular-36"/>
      </g>
     </g>
    </g>
   </g>
   <g id="matplotlib.axis_2">
    <g id="ytick_1">
     <g id="line2d_18">
      <path clip-path="url(#p6eaff704d2)" d="M 72 345.6 
L 518.4 345.6 
" style="fill:none;stroke:#000000;stroke-dasharray:1.000000,3.000000;stroke-dashoffset:0.0;stroke-width:0.5;"/>
     </g>
     <g id="line2d_19">
      <defs>
       <path d="M 0 0 
L 4 0 
" id="mec46fe026b" style="stroke:#000000;stroke-width:0.5;"/>
      </defs>
      <g>
       <use style="stroke:#000000;stroke-width:0.5;" x="72.0" xlink:href="#mec46fe026b" y="345.6"/>
      </g>
     </g>
     <g id="line2d_20">
      <defs>
       <path d="M 0 0 
L -4 0 
" id="m00b16da2ee" style="stroke:#000000;stroke-width:0.5;"/>
      </defs>
      <g>
       <use style="stroke:#000000;stroke-width:0.5;" x="518.4" xlink:href="#m00b16da2ee" y="345.6"/>
      </g>
     </g>
     <g id="text_6">
      <!-- −0.008 -->
      <defs>
       <path d="M 44.390625 16.21875 
Q 44.390625 12.640625 43.046875 9.515625 
Q 41.703125 6.390625 39.359375 4.046875 
Q 37.015625 1.703125 33.890625 0.359375 
Q 30.765625 -0.984375 27.203125 -0.984375 
L 24.21875 -0.984375 
Q 20.65625 -0.984375 17.5 0.359375 
Q 14.359375 1.703125 12.015625 4.046875 
Q 9.671875 6.390625 8.328125 9.515625 
Q 6.984375 12.640625 6.984375 16.21875 
L 6.984375 22.015625 
Q 6.984375 26.46875 9.0625 30.15625 
Q 11.140625 33.84375 14.5 36.1875 
Q 11.140625 38.53125 9.0625 42.234375 
Q 6.984375 45.953125 6.984375 50.390625 
L 6.984375 53.8125 
Q 6.984375 57.375 8.328125 60.5 
Q 9.671875 63.625 12.015625 65.96875 
Q 14.359375 68.3125 17.5 69.65625 
Q 20.65625 71 24.21875 71 
L 27.203125 71 
Q 30.765625 71 33.890625 69.65625 
Q 37.015625 68.3125 39.359375 65.96875 
Q 41.703125 63.625 43.046875 60.5 
Q 44.390625 57.375 44.390625 53.8125 
L 44.390625 50.390625 
Q 44.390625 45.953125 42.328125 42.234375 
Q 40.28125 38.53125 36.921875 36.1875 
Q 40.28125 33.84375 42.328125 30.15625 
Q 44.390625 26.46875 44.390625 22.015625 
L 44.390625 16.21875 
z
M 38.09375 53.8125 
Q 38.09375 56.15625 37.203125 58.171875 
Q 36.328125 60.203125 34.8125 61.71875 
Q 33.296875 63.234375 31.265625 64.109375 
Q 29.25 64.984375 26.90625 64.984375 
L 24.515625 64.984375 
Q 22.171875 64.984375 20.140625 64.109375 
Q 18.109375 63.234375 16.578125 61.71875 
Q 15.046875 60.203125 14.15625 58.171875 
Q 13.28125 56.15625 13.28125 53.8125 
L 13.28125 50.390625 
Q 13.28125 48.046875 14.15625 46.015625 
Q 15.046875 44 16.578125 42.484375 
Q 18.109375 40.96875 20.140625 40.078125 
Q 22.171875 39.203125 24.515625 39.203125 
L 26.90625 39.203125 
Q 29.25 39.203125 31.265625 40.078125 
Q 33.296875 40.96875 34.8125 42.484375 
Q 36.328125 44 37.203125 46.015625 
Q 38.09375 48.046875 38.09375 50.390625 
z
M 38.09375 22.015625 
Q 38.09375 24.359375 37.203125 26.390625 
Q 36.328125 28.421875 34.8125 29.9375 
Q 33.296875 31.453125 31.265625 32.328125 
Q 29.25 33.203125 26.90625 33.203125 
L 24.515625 33.203125 
Q 22.171875 33.203125 20.140625 32.328125 
Q 18.109375 31.453125 16.578125 29.9375 
Q 15.046875 28.421875 14.15625 26.390625 
Q 13.28125 24.359375 13.28125 22.015625 
L 13.28125 16.21875 
Q 13.28125 13.875 14.15625 11.84375 
Q 15.046875 9.8125 16.578125 8.265625 
Q 18.109375 6.734375 20.140625 5.859375 
Q 22.171875 4.984375 24.515625 4.984375 
L 26.90625 4.984375 
Q 29.25 4.984375 31.265625 5.859375 
Q 33.296875 6.734375 34.8125 8.265625 
Q 36.328125 9.8125 37.203125 11.84375 
Q 38.09375 13.875 38.09375 16.21875 
z
" id="Abel-Regular-38"/>
       <path d="M 6.984375 0 
L 6.984375 7.515625 
L 14.5 7.515625 
L 14.5 0 
z
" id="Abel-Regular-2e"/>
       <path d="M 54 38.1875 
L 54 31.890625 
L 4 31.890625 
L 4 38.1875 
z
" id="Abel-Regular-2212"/>
      </defs>
      <g transform="translate(33.786875 348.6)scale(0.12 -0.12)">
       <use xlink:href="#Abel-Regular-2212"/>
       <use x="58.0078125" xlink:href="#Abel-Regular-30"/>
       <use x="109.392578125" xlink:href="#Abel-Regular-2e"/>
       <use x="130.845703125" xlink:href="#Abel-Regular-30"/>
       <use x="182.26171875" xlink:href="#Abel-Regular-30"/>
       <use x="233.662109375" xlink:href="#Abel-Regular-38"/>
      </g>
     </g>
    </g>
    <g id="ytick_2">
     <g id="line2d_21">
      <path clip-path="url(#p6eaff704d2)" d="M 72 312 
L 518.4 312 
" style="fill:none;stroke:#000000;stroke-dasharray:1.000000,3.000000;stroke-dashoffset:0.0;stroke-width:0.5;"/>
     </g>
     <g id="line2d_22">
      <g>
       <use style="stroke:#000000;stroke-width:0.5;" x="72.0" xlink:href="#mec46fe026b" y="312.0"/>
      </g>
     </g>
     <g id="line2d_23">
      <g>
       <use style="stroke:#000000;stroke-width:0.5;" x="518.4" xlink:href="#m00b16da2ee" y="312.0"/>
      </g>
     </g>
     <g id="text_7">
      <!-- −0.007 -->
      <defs>
       <path d="M 19 0 
L 12.40625 0 
L 38.625 64.015625 
L 14.3125 64.015625 
L 14.3125 54.6875 
L 8.015625 54.6875 
L 8.015625 70.015625 
L 46.390625 70.015625 
L 46.390625 67 
z
" id="Abel-Regular-37"/>
      </defs>
      <g transform="translate(33.78875 315.0)scale(0.12 -0.12)">
       <use xlink:href="#Abel-Regular-2212"/>
       <use x="58.0078125" xlink:href="#Abel-Regular-30"/>
       <use x="109.392578125" xlink:href="#Abel-Regular-2e"/>
       <use x="130.845703125" xlink:href="#Abel-Regular-30"/>
       <use x="182.26171875" xlink:href="#Abel-Regular-30"/>
       <use x="233.646484375" xlink:href="#Abel-Regular-37"/>
      </g>
     </g>
    </g>
    <g id="ytick_3">
     <g id="line2d_24">
      <path clip-path="url(#p6eaff704d2)" d="M 72 278.4 
L 518.4 278.4 
" style="fill:none;stroke:#000000;stroke-dasharray:1.000000,3.000000;stroke-dashoffset:0.0;stroke-width:0.5;"/>
     </g>
     <g id="line2d_25">
      <g>
       <use style="stroke:#000000;stroke-width:0.5;" x="72.0" xlink:href="#mec46fe026b" y="278.4"/>
      </g>
     </g>
     <g id="line2d_26">
      <g>
       <use style="stroke:#000000;stroke-width:0.5;" x="518.4" xlink:href="#m00b16da2ee" y="278.4"/>
      </g>
     </g>
     <g id="text_8">
      <!-- −0.006 -->
      <g transform="translate(33.78875 281.4)scale(0.12 -0.12)">
       <use xlink:href="#Abel-Regular-2212"/>
       <use x="58.0078125" xlink:href="#Abel-Regular-30"/>
       <use x="109.392578125" xlink:href="#Abel-Regular-2e"/>
       <use x="130.845703125" xlink:href="#Abel-Regular-30"/>
       <use x="182.26171875" xlink:href="#Abel-Regular-30"/>
       <use x="233.646484375" xlink:href="#Abel-Regular-36"/>
      </g>
     </g>
    </g>
    <g id="ytick_4">
     <g id="line2d_27">
      <path clip-path="url(#p6eaff704d2)" d="M 72 244.8 
L 518.4 244.8 
" style="fill:none;stroke:#000000;stroke-dasharray:1.000000,3.000000;stroke-dashoffset:0.0;stroke-width:0.5;"/>
     </g>
     <g id="line2d_28">
      <g>
       <use style="stroke:#000000;stroke-width:0.5;" x="72.0" xlink:href="#mec46fe026b" y="244.8"/>
      </g>
     </g>
     <g id="line2d_29">
      <g>
       <use style="stroke:#000000;stroke-width:0.5;" x="518.4" xlink:href="#m00b16da2ee" y="244.8"/>
      </g>
     </g>
     <g id="text_9">
      <!-- −0.005 -->
      <g transform="translate(33.786875 247.8)scale(0.12 -0.12)">
       <use xlink:href="#Abel-Regular-2212"/>
       <use x="58.0078125" xlink:href="#Abel-Regular-30"/>
       <use x="109.392578125" xlink:href="#Abel-Regular-2e"/>
       <use x="130.845703125" xlink:href="#Abel-Regular-30"/>
       <use x="182.26171875" xlink:href="#Abel-Regular-30"/>
       <use x="233.662109375" xlink:href="#Abel-Regular-35"/>
      </g>
     </g>
    </g>
    <g id="ytick_5">
     <g id="line2d_30">
      <path clip-path="url(#p6eaff704d2)" d="M 72 211.2 
L 518.4 211.2 
" style="fill:none;stroke:#000000;stroke-dasharray:1.000000,3.000000;stroke-dashoffset:0.0;stroke-width:0.5;"/>
     </g>
     <g id="line2d_31">
      <g>
       <use style="stroke:#000000;stroke-width:0.5;" x="72.0" xlink:href="#mec46fe026b" y="211.2"/>
      </g>
     </g>
     <g id="line2d_32">
      <g>
       <use style="stroke:#000000;stroke-width:0.5;" x="518.4" xlink:href="#m00b16da2ee" y="211.2"/>
      </g>
     </g>
     <g id="text_10">
      <!-- −0.004 -->
      <g transform="translate(33.90875 214.2)scale(0.12 -0.12)">
       <use xlink:href="#Abel-Regular-2212"/>
       <use x="58.0078125" xlink:href="#Abel-Regular-30"/>
       <use x="109.392578125" xlink:href="#Abel-Regular-2e"/>
       <use x="130.845703125" xlink:href="#Abel-Regular-30"/>
       <use x="182.26171875" xlink:href="#Abel-Regular-30"/>
       <use x="233.677734375" xlink:href="#Abel-Regular-34"/>
      </g>
     </g>
    </g>
    <g id="ytick_6">
     <g id="line2d_33">
      <path clip-path="url(#p6eaff704d2)" d="M 72 177.6 
L 518.4 177.6 
" style="fill:none;stroke:#000000;stroke-dasharray:1.000000,3.000000;stroke-dashoffset:0.0;stroke-width:0.5;"/>
     </g>
     <g id="line2d_34">
      <g>
       <use style="stroke:#000000;stroke-width:0.5;" x="72.0" xlink:href="#mec46fe026b" y="177.6"/>
      </g>
     </g>
     <g id="line2d_35">
      <g>
       <use style="stroke:#000000;stroke-width:0.5;" x="518.4" xlink:href="#m00b16da2ee" y="177.6"/>
      </g>
     </g>
     <g id="text_11">
      <!-- −0.003 -->
      <g transform="translate(33.785 180.6)scale(0.12 -0.12)">
       <use xlink:href="#Abel-Regular-2212"/>
       <use x="58.0078125" xlink:href="#Abel-Regular-30"/>
       <use x="109.392578125" xlink:href="#Abel-Regular-2e"/>
       <use x="130.845703125" xlink:href="#Abel-Regular-30"/>
       <use x="182.26171875" xlink:href="#Abel-Regular-30"/>
       <use x="233.677734375" xlink:href="#Abel-Regular-33"/>
      </g>
     </g>
    </g>
    <g id="ytick_7">
     <g id="line2d_36">
      <path clip-path="url(#p6eaff704d2)" d="M 72 144 
L 518.4 144 
" style="fill:none;stroke:#000000;stroke-dasharray:1.000000,3.000000;stroke-dashoffset:0.0;stroke-width:0.5;"/>
     </g>
     <g id="line2d_37">
      <g>
       <use style="stroke:#000000;stroke-width:0.5;" x="72.0" xlink:href="#mec46fe026b" y="144.0"/>
      </g>
     </g>
     <g id="line2d_38">
      <g>
       <use style="stroke:#000000;stroke-width:0.5;" x="518.4" xlink:href="#m00b16da2ee" y="144.0"/>
      </g>
     </g>
     <g id="text_12">
      <!-- −0.002 -->
      <g transform="translate(34.025 147.0)scale(0.12 -0.12)">
       <use xlink:href="#Abel-Regular-2212"/>
       <use x="58.0078125" xlink:href="#Abel-Regular-30"/>
       <use x="109.392578125" xlink:href="#Abel-Regular-2e"/>
       <use x="130.845703125" xlink:href="#Abel-Regular-30"/>
       <use x="182.26171875" xlink:href="#Abel-Regular-30"/>
       <use x="233.677734375" xlink:href="#Abel-Regular-32"/>
      </g>
     </g>
    </g>
    <g id="ytick_8">
     <g id="line2d_39">
      <path clip-path="url(#p6eaff704d2)" d="M 72 110.4 
L 518.4 110.4 
" style="fill:none;stroke:#000000;stroke-dasharray:1.000000,3.000000;stroke-dashoffset:0.0;stroke-width:0.5;"/>
     </g>
     <g id="line2d_40">
      <g>
       <use style="stroke:#000000;stroke-width:0.5;" x="72.0" xlink:href="#mec46fe026b" y="110.4"/>
      </g>
     </g>
     <g id="line2d_41">
      <g>
       <use style="stroke:#000000;stroke-width:0.5;" x="518.4" xlink:href="#m00b16da2ee" y="110.4"/>
      </g>
     </g>
     <g id="text_13">
      <!-- −0.001 -->
      <g transform="translate(33.75125 113.4)scale(0.12 -0.12)">
       <use xlink:href="#Abel-Regular-2212"/>
       <use x="58.0078125" xlink:href="#Abel-Regular-30"/>
       <use x="109.392578125" xlink:href="#Abel-Regular-2e"/>
       <use x="130.845703125" xlink:href="#Abel-Regular-30"/>
       <use x="182.26171875" xlink:href="#Abel-Regular-30"/>
       <use x="233.677734375" xlink:href="#Abel-Regular-31"/>
      </g>
     </g>
    </g>
    <g id="ytick_9">
     <g id="line2d_42">
      <path clip-path="url(#p6eaff704d2)" d="M 72 76.8 
L 518.4 76.8 
" style="fill:none;stroke:#000000;stroke-dasharray:1.000000,3.000000;stroke-dashoffset:0.0;stroke-width:0.5;"/>
     </g>
     <g id="line2d_43">
      <g>
       <use style="stroke:#000000;stroke-width:0.5;" x="72.0" xlink:href="#mec46fe026b" y="76.8"/>
      </g>
     </g>
     <g id="line2d_44">
      <g>
       <use style="stroke:#000000;stroke-width:0.5;" x="518.4" xlink:href="#m00b16da2ee" y="76.8"/>
      </g>
     </g>
     <g id="text_14">
      <!-- 0.000 -->
      <g transform="translate(40.746875 79.8)scale(0.12 -0.12)">
       <use xlink:href="#Abel-Regular-30"/>
       <use x="51.384765625" xlink:href="#Abel-Regular-2e"/>
       <use x="72.837890625" xlink:href="#Abel-Regular-30"/>
       <use x="124.25390625" xlink:href="#Abel-Regular-30"/>
       <use x="175.669921875" xlink:href="#Abel-Regular-30"/>
      </g>
     </g>
    </g>
    <g id="ytick_10">
     <g id="line2d_45">
      <path clip-path="url(#p6eaff704d2)" d="M 72 43.2 
L 518.4 43.2 
" style="fill:none;stroke:#000000;stroke-dasharray:1.000000,3.000000;stroke-dashoffset:0.0;stroke-width:0.5;"/>
     </g>
     <g id="line2d_46">
      <g>
       <use style="stroke:#000000;stroke-width:0.5;" x="72.0" xlink:href="#mec46fe026b" y="43.2"/>
      </g>
     </g>
     <g id="line2d_47">
      <g>
       <use style="stroke:#000000;stroke-width:0.5;" x="518.4" xlink:href="#m00b16da2ee" y="43.2"/>
      </g>
     </g>
     <g id="text_15">
      <!-- 0.001 -->
      <g transform="translate(40.713125 46.2)scale(0.12 -0.12)">
       <use xlink:href="#Abel-Regular-30"/>
       <use x="51.384765625" xlink:href="#Abel-Regular-2e"/>
       <use x="72.837890625" xlink:href="#Abel-Regular-30"/>
       <use x="124.25390625" xlink:href="#Abel-Regular-30"/>
       <use x="175.669921875" xlink:href="#Abel-Regular-31"/>
      </g>
     </g>
    </g>
   </g>
   <g id="text_16">
    <!-- EBYP: Componente ESTE [m] -->
    <defs>
     <path d="M 26.421875 33.5 
L 26.421875 0 
L 20.125 0 
L 20.125 33.40625 
L 2 70.015625 
L 8.796875 70.015625 
L 23.1875 40.921875 
L 37.59375 70.015625 
L 44.390625 70.015625 
z
" id="Abel-Regular-59"/>
     <path d="M 25.875 -20.015625 
L 8.015625 -20.015625 
L 8.015625 78.421875 
L 25.875 78.421875 
L 25.875 73 
L 14.015625 73 
L 14.015625 -14.59375 
L 25.875 -14.59375 
z
" id="Abel-Regular-5b"/>
     <path d="M 4.984375 -14.59375 
L 16.890625 -14.59375 
L 16.890625 73 
L 4.984375 73 
L 4.984375 78.421875 
L 22.90625 78.421875 
L 22.90625 -20.015625 
L 4.984375 -20.015625 
z
" id="Abel-Regular-5d"/>
     <path d="M 25 64.015625 
L 25 0 
L 18.703125 0 
L 18.703125 64.015625 
L 2 64.015625 
L 2 70.015625 
L 41.703125 70.015625 
L 41.703125 64.015625 
z
" id="Abel-Regular-54"/>
     <path d="M 47.40625 44.09375 
Q 47.40625 40.53125 46.0625 37.40625 
Q 44.734375 34.28125 42.390625 31.9375 
Q 40.046875 29.59375 36.890625 28.25 
Q 33.734375 26.90625 30.171875 26.90625 
L 14.3125 26.90625 
L 14.3125 0 
L 8.015625 0 
L 8.015625 70.015625 
L 30.171875 70.015625 
Q 33.734375 70.015625 36.890625 68.671875 
Q 40.046875 67.328125 42.390625 64.984375 
Q 44.734375 62.640625 46.0625 59.484375 
Q 47.40625 56.34375 47.40625 52.78125 
L 47.40625 44.09375 
z
M 41.109375 52.78125 
Q 41.109375 55.125 40.234375 57.15625 
Q 39.359375 59.1875 37.8125 60.71875 
Q 36.28125 62.25 34.25 63.125 
Q 32.234375 64.015625 29.890625 64.015625 
L 14.3125 64.015625 
L 14.3125 32.90625 
L 29.890625 32.90625 
Q 32.234375 32.90625 34.25 33.78125 
Q 36.28125 34.671875 37.8125 36.1875 
Q 39.359375 37.703125 40.234375 39.71875 
Q 41.109375 41.75 41.109375 44.09375 
z
" id="Abel-Regular-50"/>
     <path id="Abel-Regular-20"/>
     <path d="M 6.984375 42.484375 
L 6.984375 50 
L 14.5 50 
L 14.5 42.484375 
z
M 6.984375 0 
L 6.984375 7.515625 
L 14.5 7.515625 
L 14.5 0 
z
" id="Abel-Regular-3a"/>
     <path d="M 58.796875 0 
L 58.796875 36.625 
Q 58.796875 38.421875 58.109375 40.015625 
Q 57.421875 41.609375 56.25 42.78125 
Q 55.078125 43.953125 53.484375 44.625 
Q 51.90625 45.3125 50.09375 45.3125 
L 47.125 45.3125 
Q 45.3125 45.3125 43.71875 44.625 
Q 42.140625 43.953125 40.9375 42.78125 
Q 39.75 41.609375 39.0625 40.015625 
Q 38.375 38.421875 38.375 36.625 
L 38.375 0 
L 32.421875 0 
L 32.421875 36.625 
Q 32.421875 38.421875 31.734375 40.015625 
Q 31.0625 41.609375 29.859375 42.78125 
Q 28.65625 43.953125 27.0625 44.625 
Q 25.484375 45.3125 23.6875 45.3125 
L 20.703125 45.3125 
Q 18.890625 45.3125 17.296875 44.625 
Q 15.71875 43.953125 14.546875 42.78125 
Q 13.375 41.609375 12.6875 40.015625 
Q 12.015625 38.421875 12.015625 36.625 
L 12.015625 0 
L 6 0 
L 6 50 
L 8.015625 50 
L 11.28125 44.921875 
Q 13.328125 47.703125 16.421875 49.34375 
Q 19.53125 50.984375 23.1875 50.984375 
L 23.6875 50.984375 
Q 27.9375 50.984375 31.34375 48.875 
Q 34.765625 46.78125 36.625 43.3125 
Q 37.546875 45.015625 38.90625 46.4375 
Q 40.28125 47.859375 41.9375 48.859375 
Q 43.609375 49.859375 45.5625 50.421875 
Q 47.515625 50.984375 49.609375 50.984375 
L 50.09375 50.984375 
Q 53.125 50.984375 55.8125 49.828125 
Q 58.5 48.6875 60.5 46.671875 
Q 62.5 44.671875 63.640625 41.984375 
Q 64.796875 39.3125 64.796875 36.28125 
L 64.796875 0 
z
" id="Abel-Regular-6d"/>
     <path d="M 46.390625 16.21875 
Q 46.390625 12.640625 45.046875 9.515625 
Q 43.703125 6.390625 41.359375 4.046875 
Q 39.015625 1.703125 35.890625 0.359375 
Q 32.765625 -0.984375 29.203125 -0.984375 
L 24.21875 -0.984375 
Q 20.65625 -0.984375 17.5 0.359375 
Q 14.359375 1.703125 12.015625 4.046875 
Q 9.671875 6.390625 8.328125 9.515625 
Q 6.984375 12.640625 6.984375 16.21875 
L 6.984375 53.8125 
Q 6.984375 57.375 8.328125 60.5 
Q 9.671875 63.625 12.015625 65.96875 
Q 14.359375 68.3125 17.5 69.65625 
Q 20.65625 71 24.21875 71 
L 29.203125 71 
Q 32.765625 71 35.890625 69.65625 
Q 39.015625 68.3125 41.359375 65.96875 
Q 43.703125 63.625 45.046875 60.5 
Q 46.390625 57.375 46.390625 53.8125 
L 46.390625 50.984375 
L 40.09375 50 
L 40.09375 53.8125 
Q 40.09375 56.15625 39.203125 58.171875 
Q 38.328125 60.203125 36.8125 61.71875 
Q 35.296875 63.234375 33.265625 64.109375 
Q 31.25 64.984375 28.90625 64.984375 
L 24.515625 64.984375 
Q 22.171875 64.984375 20.140625 64.109375 
Q 18.109375 63.234375 16.578125 61.71875 
Q 15.046875 60.203125 14.15625 58.171875 
Q 13.28125 56.15625 13.28125 53.8125 
L 13.28125 16.21875 
Q 13.28125 13.875 14.15625 11.84375 
Q 15.046875 9.8125 16.578125 8.265625 
Q 18.109375 6.734375 20.140625 5.859375 
Q 22.171875 4.984375 24.515625 4.984375 
L 28.90625 4.984375 
Q 31.25 4.984375 33.265625 5.859375 
Q 35.296875 6.734375 36.8125 8.265625 
Q 38.328125 9.8125 39.203125 11.84375 
Q 40.09375 13.875 40.09375 16.21875 
L 40.09375 20.015625 
L 46.390625 19 
L 46.390625 16.21875 
z
" id="Abel-Regular-43"/>
     <path d="M 46.390625 16.21875 
Q 46.390625 12.640625 44.9375 9.515625 
Q 43.5 6.390625 41.078125 4.046875 
Q 38.671875 1.703125 35.46875 0.359375 
Q 32.28125 -0.984375 28.71875 -0.984375 
L 23.6875 -0.984375 
Q 20.125 -0.984375 16.921875 0.359375 
Q 13.71875 1.703125 11.296875 4.046875 
Q 8.890625 6.390625 7.4375 9.515625 
Q 6 12.640625 6 16.21875 
L 6 19 
L 12.3125 20.015625 
L 12.3125 16.21875 
Q 12.3125 13.875 13.25 11.84375 
Q 14.203125 9.8125 15.8125 8.265625 
Q 17.4375 6.734375 19.5625 5.859375 
Q 21.6875 4.984375 24.03125 4.984375 
L 28.421875 4.984375 
Q 30.765625 4.984375 32.859375 5.859375 
Q 34.96875 6.734375 36.578125 8.265625 
Q 38.1875 9.8125 39.140625 11.84375 
Q 40.09375 13.875 40.09375 16.21875 
L 40.09375 18.3125 
Q 40.09375 21.921875 38.671875 24.3125 
Q 37.25 26.703125 34.90625 28.390625 
Q 32.5625 30.078125 29.609375 31.25 
Q 26.65625 32.421875 23.53125 33.59375 
Q 20.40625 34.765625 17.453125 36.171875 
Q 14.5 37.59375 12.15625 39.71875 
Q 9.8125 41.84375 8.390625 44.921875 
Q 6.984375 48 6.984375 52.484375 
L 6.984375 53.8125 
Q 6.984375 57.375 8.328125 60.5 
Q 9.671875 63.625 12.015625 65.96875 
Q 14.359375 68.3125 17.5 69.65625 
Q 20.65625 71 24.21875 71 
L 28.71875 71 
Q 32.28125 71 35.40625 69.65625 
Q 38.53125 68.3125 40.875 65.96875 
Q 43.21875 63.625 44.5625 60.5 
Q 45.90625 57.375 45.90625 53.8125 
L 45.90625 52 
L 39.59375 50.984375 
L 39.59375 53.8125 
Q 39.59375 56.15625 38.71875 58.171875 
Q 37.84375 60.203125 36.328125 61.71875 
Q 34.8125 63.234375 32.78125 64.109375 
Q 30.765625 64.984375 28.421875 64.984375 
L 24.515625 64.984375 
Q 22.171875 64.984375 20.140625 64.109375 
Q 18.109375 63.234375 16.578125 61.71875 
Q 15.046875 60.203125 14.15625 58.171875 
Q 13.28125 56.15625 13.28125 53.8125 
L 13.28125 52.484375 
Q 13.28125 49.125 14.6875 46.828125 
Q 16.109375 44.53125 18.453125 42.890625 
Q 20.796875 41.265625 23.75 40.0625 
Q 26.703125 38.875 29.828125 37.625 
Q 32.953125 36.375 35.90625 34.890625 
Q 38.875 33.40625 41.21875 31.21875 
Q 43.5625 29.046875 44.96875 25.921875 
Q 46.390625 22.796875 46.390625 18.3125 
z
" id="Abel-Regular-53"/>
     <path d="M 39.40625 13.71875 
Q 39.40625 10.6875 38.25 8 
Q 37.109375 5.328125 35.109375 3.3125 
Q 33.109375 1.3125 30.421875 0.15625 
Q 27.734375 -0.984375 24.703125 -0.984375 
L 20.703125 -0.984375 
Q 17.671875 -0.984375 14.984375 0.15625 
Q 12.3125 1.3125 10.296875 3.3125 
Q 8.296875 5.328125 7.140625 8 
Q 6 10.6875 6 13.71875 
L 6 36.28125 
Q 6 39.3125 7.140625 41.984375 
Q 8.296875 44.671875 10.296875 46.671875 
Q 12.3125 48.6875 14.984375 49.828125 
Q 17.671875 50.984375 20.703125 50.984375 
L 24.703125 50.984375 
Q 27.734375 50.984375 30.421875 49.828125 
Q 33.109375 48.6875 35.109375 46.671875 
Q 37.109375 44.671875 38.25 41.984375 
Q 39.40625 39.3125 39.40625 36.28125 
L 39.40625 13.71875 
z
M 33.40625 36.625 
Q 33.40625 38.421875 32.71875 40.015625 
Q 32.03125 41.609375 30.859375 42.78125 
Q 29.6875 43.953125 28.09375 44.625 
Q 26.515625 45.3125 24.703125 45.3125 
L 20.703125 45.3125 
Q 18.890625 45.3125 17.296875 44.625 
Q 15.71875 43.953125 14.546875 42.78125 
Q 13.375 41.609375 12.6875 40.015625 
Q 12.015625 38.421875 12.015625 36.625 
L 12.015625 13.375 
Q 12.015625 11.578125 12.6875 9.984375 
Q 13.375 8.40625 14.546875 7.234375 
Q 15.71875 6.0625 17.296875 5.375 
Q 18.890625 4.6875 20.703125 4.6875 
L 24.703125 4.6875 
Q 26.515625 4.6875 28.09375 5.375 
Q 29.6875 6.0625 30.859375 7.234375 
Q 32.03125 8.40625 32.71875 9.984375 
Q 33.40625 11.578125 33.40625 13.375 
z
" id="Abel-Regular-6f"/>
     <path d="M 39.40625 13.71875 
Q 39.40625 10.6875 38.25 8 
Q 37.109375 5.328125 35.109375 3.3125 
Q 33.109375 1.3125 30.421875 0.15625 
Q 27.734375 -0.984375 24.703125 -0.984375 
L 23.1875 -0.984375 
Q 19.828125 -0.984375 16.9375 0.390625 
Q 14.0625 1.765625 12.015625 4.203125 
L 12.015625 -20.015625 
L 6 -20.015625 
L 6 50 
L 8.015625 50 
L 11.28125 44.921875 
Q 13.328125 47.703125 16.421875 49.34375 
Q 19.53125 50.984375 23.1875 50.984375 
L 24.703125 50.984375 
Q 27.734375 50.984375 30.421875 49.828125 
Q 33.109375 48.6875 35.109375 46.671875 
Q 37.109375 44.671875 38.25 41.984375 
Q 39.40625 39.3125 39.40625 36.28125 
L 39.40625 13.71875 
z
M 33.40625 36.625 
Q 33.40625 38.421875 32.71875 40.015625 
Q 32.03125 41.609375 30.859375 42.78125 
Q 29.6875 43.953125 28.09375 44.625 
Q 26.515625 45.3125 24.703125 45.3125 
L 20.703125 45.3125 
Q 18.890625 45.3125 17.296875 44.625 
Q 15.71875 43.953125 14.546875 42.78125 
Q 13.375 41.609375 12.6875 40.015625 
Q 12.015625 38.421875 12.015625 36.625 
L 12.015625 13.375 
Q 12.015625 11.578125 12.6875 9.984375 
Q 13.375 8.40625 14.546875 7.234375 
Q 15.71875 6.0625 17.296875 5.375 
Q 18.890625 4.6875 20.703125 4.6875 
L 24.703125 4.6875 
Q 26.515625 4.6875 28.09375 5.375 
Q 29.6875 6.0625 30.859375 7.234375 
Q 32.03125 8.40625 32.71875 9.984375 
Q 33.40625 11.578125 33.40625 13.375 
z
" id="Abel-Regular-70"/>
     <path d="M 8.015625 0 
L 8.015625 70.015625 
L 47.40625 70.015625 
L 47.40625 64.015625 
L 14.3125 64.015625 
L 14.3125 37.984375 
L 41.109375 37.984375 
L 41.109375 31.984375 
L 14.3125 31.984375 
L 14.3125 6 
L 47.40625 6 
L 47.40625 0 
z
" id="Abel-Regular-45"/>
     <path d="M 33.40625 0 
L 33.40625 36.625 
Q 33.40625 38.421875 32.71875 40.015625 
Q 32.03125 41.609375 30.859375 42.78125 
Q 29.6875 43.953125 28.09375 44.625 
Q 26.515625 45.3125 24.703125 45.3125 
L 20.703125 45.3125 
Q 18.890625 45.3125 17.296875 44.625 
Q 15.71875 43.953125 14.546875 42.78125 
Q 13.375 41.609375 12.6875 40.015625 
Q 12.015625 38.421875 12.015625 36.625 
L 12.015625 0 
L 6 0 
L 6 50 
L 8.015625 50 
L 11.28125 44.921875 
Q 13.328125 47.703125 16.421875 49.34375 
Q 19.53125 50.984375 23.1875 50.984375 
L 24.703125 50.984375 
Q 27.734375 50.984375 30.421875 49.828125 
Q 33.109375 48.6875 35.109375 46.671875 
Q 37.109375 44.671875 38.25 41.984375 
Q 39.40625 39.3125 39.40625 36.28125 
L 39.40625 0 
z
" id="Abel-Regular-6e"/>
     <path d="M 39.40625 13.71875 
Q 39.40625 10.6875 38.25 8 
Q 37.109375 5.328125 35.109375 3.3125 
Q 33.109375 1.3125 30.421875 0.15625 
Q 27.734375 -0.984375 24.703125 -0.984375 
L 20.703125 -0.984375 
Q 17.671875 -0.984375 14.984375 0.15625 
Q 12.3125 1.3125 10.296875 3.3125 
Q 8.296875 5.328125 7.140625 8 
Q 6 10.6875 6 13.71875 
L 6 36.28125 
Q 6 39.3125 7.140625 41.984375 
Q 8.296875 44.671875 10.296875 46.671875 
Q 12.3125 48.6875 14.984375 49.828125 
Q 17.671875 50.984375 20.703125 50.984375 
L 24.703125 50.984375 
Q 27.734375 50.984375 30.421875 49.828125 
Q 33.109375 48.6875 35.109375 46.671875 
Q 37.109375 44.671875 38.25 41.984375 
Q 39.40625 39.3125 39.40625 36.28125 
L 39.40625 24.515625 
L 12.015625 24.515625 
L 12.015625 13.375 
Q 12.015625 11.578125 12.6875 9.984375 
Q 13.375 8.40625 14.546875 7.234375 
Q 15.71875 6.0625 17.296875 5.375 
Q 18.890625 4.6875 20.703125 4.6875 
L 24.703125 4.6875 
Q 26.515625 4.6875 28.09375 5.375 
Q 29.6875 6.0625 30.859375 7.234375 
Q 32.03125 8.40625 32.71875 9.984375 
Q 33.40625 11.578125 33.40625 13.375 
L 33.40625 16.703125 
L 39.40625 15.71875 
L 39.40625 13.71875 
z
M 33.40625 36.625 
Q 33.40625 38.421875 32.71875 40.015625 
Q 32.03125 41.609375 30.859375 42.78125 
Q 29.6875 43.953125 28.09375 44.625 
Q 26.515625 45.3125 24.703125 45.3125 
L 20.703125 45.3125 
Q 18.890625 45.3125 17.296875 44.625 
Q 15.71875 43.953125 14.546875 42.78125 
Q 13.375 41.609375 12.6875 40.015625 
Q 12.015625 38.421875 12.015625 36.625 
L 12.015625 29.203125 
L 33.40625 29.203125 
z
" id="Abel-Regular-65"/>
     <path d="M 47.40625 17.1875 
Q 47.40625 13.625 46.0625 10.5 
Q 44.734375 7.375 42.390625 5.03125 
Q 40.046875 2.6875 36.890625 1.34375 
Q 33.734375 0 30.171875 0 
L 8.015625 0 
L 8.015625 70.015625 
L 30.171875 70.015625 
Q 33.734375 70.015625 36.890625 68.671875 
Q 40.046875 67.328125 42.390625 64.984375 
Q 44.734375 62.640625 46.0625 59.484375 
Q 47.40625 56.34375 47.40625 52.78125 
L 47.40625 52.09375 
Q 47.40625 49.609375 46.75 47.328125 
Q 46.09375 45.0625 44.875 43.109375 
Q 43.65625 41.15625 41.984375 39.5625 
Q 40.328125 37.984375 38.28125 36.921875 
Q 40.328125 35.84375 41.984375 34.25 
Q 43.65625 32.671875 44.875 30.6875 
Q 46.09375 28.71875 46.75 26.4375 
Q 47.40625 24.171875 47.40625 21.6875 
L 47.40625 17.1875 
z
M 41.109375 22.703125 
Q 41.109375 25.046875 40.234375 27.078125 
Q 39.359375 29.109375 37.8125 30.609375 
Q 36.28125 32.125 34.25 33 
Q 32.234375 33.890625 29.890625 33.890625 
L 14.3125 33.890625 
L 14.3125 6 
L 29.890625 6 
Q 32.234375 6 34.25 6.875 
Q 36.28125 7.765625 37.8125 9.28125 
Q 39.359375 10.796875 40.234375 12.8125 
Q 41.109375 14.84375 41.109375 17.1875 
z
M 41.109375 52.78125 
Q 41.109375 55.125 40.234375 57.15625 
Q 39.359375 59.1875 37.8125 60.71875 
Q 36.28125 62.25 34.25 63.125 
Q 32.234375 64.015625 29.890625 64.015625 
L 14.3125 64.015625 
L 14.3125 39.890625 
L 29.890625 39.890625 
Q 32.234375 39.890625 34.25 40.765625 
Q 36.28125 41.65625 37.8125 43.1875 
Q 39.359375 44.734375 40.234375 46.75 
Q 41.109375 48.78125 41.109375 51.125 
z
" id="Abel-Regular-42"/>
     <path d="M 24.21875 0 
Q 21.484375 0 19.0625 1.015625 
Q 16.65625 2.046875 14.875 3.859375 
Q 13.09375 5.671875 12.03125 8.0625 
Q 10.984375 10.453125 10.984375 13.1875 
L 10.984375 44.28125 
L 2 44.28125 
L 2 50 
L 10.984375 50 
L 10.984375 62.015625 
L 17 62.984375 
L 17 50 
L 29.6875 50 
L 29.6875 44.28125 
L 17 44.28125 
L 17 12.890625 
Q 17 11.375 17.546875 10.078125 
Q 18.109375 8.796875 19.078125 7.8125 
Q 20.0625 6.84375 21.375 6.28125 
Q 22.703125 5.71875 24.21875 5.71875 
L 29.6875 5.71875 
L 29.6875 0 
z
" id="Abel-Regular-74"/>
    </defs>
    <g transform="translate(216.147375 38.2)scale(0.144 -0.144)">
     <use xlink:href="#Abel-Regular-45"/>
     <use x="51.416015625" xlink:href="#Abel-Regular-42"/>
     <use x="102.83203125" xlink:href="#Abel-Regular-59"/>
     <use x="149.21875" xlink:href="#Abel-Regular-50"/>
     <use x="200.634765625" xlink:href="#Abel-Regular-3a"/>
     <use x="222.119140625" xlink:href="#Abel-Regular-20"/>
     <use x="245.1171875" xlink:href="#Abel-Regular-43"/>
     <use x="297.509765625" xlink:href="#Abel-Regular-6f"/>
     <use x="342.919921875" xlink:href="#Abel-Regular-6d"/>
     <use x="413.720703125" xlink:href="#Abel-Regular-70"/>
     <use x="459.130859375" xlink:href="#Abel-Regular-6f"/>
     <use x="504.541015625" xlink:href="#Abel-Regular-6e"/>
     <use x="549.951171875" xlink:href="#Abel-Regular-65"/>
     <use x="595.361328125" xlink:href="#Abel-Regular-6e"/>
     <use x="640.771484375" xlink:href="#Abel-Regular-74"/>
     <use x="675.48828125" xlink:href="#Abel-Regular-65"/>
     <use x="720.8984375" xlink:href="#Abel-Regular-20"/>
     <use x="743.896484375" xlink:href="#Abel-Regular-45"/>
     <use x="795.3125" xlink:href="#Abel-Regular-53"/>
     <use x="847.216796875" xlink:href="#Abel-Regular-54"/>
     <use x="890.91796875" xlink:href="#Abel-Regular-45"/>
     <use x="942.333984375" xlink:href="#Abel-Regular-20"/>
     <use x="965.33203125" xlink:href="#Abel-Regular-5b"/>
     <use x="996.240234375" xlink:href="#Abel-Regular-6d"/>
     <use x="1067.041015625" xlink:href="#Abel-Regular-5d"/>
    </g>
   </g>
  </g>
 </g>
 <defs>
  <clipPath id="p6eaff704d2">
   <rect height="302.4" width="446.4" x="72.0" y="43.2"/>
  </clipPath>
 </defs>
</svg>
