<?xml version="1.0" encoding="utf-8" standalone="no"?>
<!DOCTYPE svg PUBLIC "-//W3C//DTD SVG 1.1//EN"
  "http://www.w3.org/Graphics/SVG/1.1/DTD/svg11.dtd">
<!-- Created with matplotlib (http://matplotlib.org/) -->
<svg height="432pt" version="1.1" viewBox="0 0 576 432" width="576pt" xmlns="http://www.w3.org/2000/svg" xmlns:xlink="http://www.w3.org/1999/xlink">
 <defs>
  <style type="text/css">
*{stroke-linecap:butt;stroke-linejoin:round;stroke-miterlimit:100000;}
  </style>
 </defs>
 <g id="figure_1">
  <g id="patch_1">
   <path d="M 0 432 
L 576 432 
L 576 0 
L 0 0 
z
" style="fill:#ffffff;"/>
  </g>
  <g id="axes_1">
   <g id="PathCollection_1">
    <defs>
     <path d="M 0 3.535534 
C 0.937635 3.535534 1.836992 3.163008 2.5 2.5 
C 3.163008 1.836992 3.535534 0.937635 3.535534 0 
C 3.535534 -0.937635 3.163008 -1.836992 2.5 -2.5 
C 1.836992 -3.163008 0.937635 -3.535534 0 -3.535534 
C -0.937635 -3.535534 -1.836992 -3.163008 -2.5 -2.5 
C -3.163008 -1.836992 -3.535534 -0.937635 -3.535534 0 
C -3.535534 0.937635 -3.163008 1.836992 -2.5 2.5 
C -1.836992 3.163008 -0.937635 3.535534 0 3.535534 
z
" id="m1735f25c16" style="stroke:#0000ff;"/>
    </defs>
    <g clip-path="url(#ped3b9811e3)">
     <use style="fill:#0000ff;stroke:#0000ff;" x="295.2" xlink:href="#m1735f25c16" y="245.76"/>
     <use style="fill:#0000ff;stroke:#0000ff;" x="295.2" xlink:href="#m1735f25c16" y="230.88"/>
     <use style="fill:#0000ff;stroke:#0000ff;" x="324.96" xlink:href="#m1735f25c16" y="245.76"/>
     <use style="fill:#0000ff;stroke:#0000ff;" x="324.96" xlink:href="#m1735f25c16" y="216.0"/>
     <use style="fill:#0000ff;stroke:#0000ff;" x="295.2" xlink:href="#m1735f25c16" y="230.88"/>
     <use style="fill:#0000ff;stroke:#0000ff;" x="310.08" xlink:href="#m1735f25c16" y="216.0"/>
     <use style="fill:#0000ff;stroke:#0000ff;" x="295.2" xlink:href="#m1735f25c16" y="201.12"/>
     <use style="fill:#0000ff;stroke:#0000ff;" x="280.32" xlink:href="#m1735f25c16" y="186.24"/>
     <use style="fill:#0000ff;stroke:#0000ff;" x="280.32" xlink:href="#m1735f25c16" y="216.0"/>
     <use style="fill:#0000ff;stroke:#0000ff;" x="265.44" xlink:href="#m1735f25c16" y="201.12"/>
     <use style="fill:#0000ff;stroke:#0000ff;" x="280.32" xlink:href="#m1735f25c16" y="201.12"/>
     <use style="fill:#0000ff;stroke:#0000ff;" x="280.32" xlink:href="#m1735f25c16" y="186.24"/>
     <use style="fill:#0000ff;stroke:#0000ff;" x="250.56" xlink:href="#m1735f25c16" y="201.12"/>
     <use style="fill:#0000ff;stroke:#0000ff;" x="250.56" xlink:href="#m1735f25c16" y="171.36"/>
     <use style="fill:#0000ff;stroke:#0000ff;" x="265.44" xlink:href="#m1735f25c16" y="171.36"/>
     <use style="fill:#0000ff;stroke:#0000ff;" x="250.56" xlink:href="#m1735f25c16" y="171.36"/>
     <use style="fill:#0000ff;stroke:#0000ff;" x="265.44" xlink:href="#m1735f25c16" y="186.24"/>
     <use style="fill:#0000ff;stroke:#0000ff;" x="250.56" xlink:href="#m1735f25c16" y="201.12"/>
     <use style="fill:#0000ff;stroke:#0000ff;" x="235.68" xlink:href="#m1735f25c16" y="186.24"/>
     <use style="fill:#0000ff;stroke:#0000ff;" x="250.56" xlink:href="#m1735f25c16" y="201.12"/>
     <use style="fill:#0000ff;stroke:#0000ff;" x="250.56" xlink:href="#m1735f25c16" y="201.12"/>
     <use style="fill:#0000ff;stroke:#0000ff;" x="250.56" xlink:href="#m1735f25c16" y="216.0"/>
     <use style="fill:#0000ff;stroke:#0000ff;" x="235.68" xlink:href="#m1735f25c16" y="201.12"/>
     <use style="fill:#0000ff;stroke:#0000ff;" x="235.68" xlink:href="#m1735f25c16" y="171.36"/>
     <use style="fill:#0000ff;stroke:#0000ff;" x="235.68" xlink:href="#m1735f25c16" y="201.12"/>
     <use style="fill:#0000ff;stroke:#0000ff;" x="265.44" xlink:href="#m1735f25c16" y="171.36"/>
     <use style="fill:#0000ff;stroke:#0000ff;" x="280.32" xlink:href="#m1735f25c16" y="186.24"/>
     <use style="fill:#0000ff;stroke:#0000ff;" x="250.56" xlink:href="#m1735f25c16" y="171.36"/>
     <use style="fill:#0000ff;stroke:#0000ff;" x="235.68" xlink:href="#m1735f25c16" y="171.36"/>
     <use style="fill:#0000ff;stroke:#0000ff;" x="235.68" xlink:href="#m1735f25c16" y="201.12"/>
     <use style="fill:#0000ff;stroke:#0000ff;" x="280.32" xlink:href="#m1735f25c16" y="216.0"/>
     <use style="fill:#0000ff;stroke:#0000ff;" x="265.44" xlink:href="#m1735f25c16" y="230.88"/>
     <use style="fill:#0000ff;stroke:#0000ff;" x="295.2" xlink:href="#m1735f25c16" y="201.12"/>
     <use style="fill:#0000ff;stroke:#0000ff;" x="250.56" xlink:href="#m1735f25c16" y="216.0"/>
     <use style="fill:#0000ff;stroke:#0000ff;" x="280.32" xlink:href="#m1735f25c16" y="186.24"/>
     <use style="fill:#0000ff;stroke:#0000ff;" x="265.44" xlink:href="#m1735f25c16" y="186.24"/>
     <use style="fill:#0000ff;stroke:#0000ff;" x="295.2" xlink:href="#m1735f25c16" y="230.88"/>
     <use style="fill:#0000ff;stroke:#0000ff;" x="280.32" xlink:href="#m1735f25c16" y="201.12"/>
     <use style="fill:#0000ff;stroke:#0000ff;" x="280.32" xlink:href="#m1735f25c16" y="186.24"/>
     <use style="fill:#0000ff;stroke:#0000ff;" x="265.44" xlink:href="#m1735f25c16" y="171.36"/>
     <use style="fill:#0000ff;stroke:#0000ff;" x="265.44" xlink:href="#m1735f25c16" y="186.24"/>
     <use style="fill:#0000ff;stroke:#0000ff;" x="250.56" xlink:href="#m1735f25c16" y="201.12"/>
     <use style="fill:#0000ff;stroke:#0000ff;" x="265.44" xlink:href="#m1735f25c16" y="186.24"/>
     <use style="fill:#0000ff;stroke:#0000ff;" x="250.56" xlink:href="#m1735f25c16" y="201.12"/>
     <use style="fill:#0000ff;stroke:#0000ff;" x="265.44" xlink:href="#m1735f25c16" y="201.12"/>
     <use style="fill:#0000ff;stroke:#0000ff;" x="280.32" xlink:href="#m1735f25c16" y="216.0"/>
     <use style="fill:#0000ff;stroke:#0000ff;" x="265.44" xlink:href="#m1735f25c16" y="201.12"/>
     <use style="fill:#0000ff;stroke:#0000ff;" x="250.56" xlink:href="#m1735f25c16" y="216.0"/>
     <use style="fill:#0000ff;stroke:#0000ff;" x="250.56" xlink:href="#m1735f25c16" y="245.76"/>
     <use style="fill:#0000ff;stroke:#0000ff;" x="265.44" xlink:href="#m1735f25c16" y="260.64"/>
     <use style="fill:#0000ff;stroke:#0000ff;" x="265.44" xlink:href="#m1735f25c16" y="245.76"/>
     <use style="fill:#0000ff;stroke:#0000ff;" x="250.56" xlink:href="#m1735f25c16" y="275.52"/>
     <use style="fill:#0000ff;stroke:#0000ff;" x="265.44" xlink:href="#m1735f25c16" y="245.76"/>
     <use style="fill:#0000ff;stroke:#0000ff;" x="250.56" xlink:href="#m1735f25c16" y="230.88"/>
     <use style="fill:#0000ff;stroke:#0000ff;" x="235.68" xlink:href="#m1735f25c16" y="216.0"/>
     <use style="fill:#0000ff;stroke:#0000ff;" x="250.56" xlink:href="#m1735f25c16" y="216.0"/>
     <use style="fill:#0000ff;stroke:#0000ff;" x="280.32" xlink:href="#m1735f25c16" y="216.0"/>
     <use style="fill:#0000ff;stroke:#0000ff;" x="235.68" xlink:href="#m1735f25c16" y="216.0"/>
     <use style="fill:#0000ff;stroke:#0000ff;" x="250.56" xlink:href="#m1735f25c16" y="216.0"/>
     <use style="fill:#0000ff;stroke:#0000ff;" x="250.56" xlink:href="#m1735f25c16" y="186.24"/>
     <use style="fill:#0000ff;stroke:#0000ff;" x="250.56" xlink:href="#m1735f25c16" y="216.0"/>
     <use style="fill:#0000ff;stroke:#0000ff;" x="235.68" xlink:href="#m1735f25c16" y="201.12"/>
     <use style="fill:#0000ff;stroke:#0000ff;" x="220.8" xlink:href="#m1735f25c16" y="201.12"/>
     <use style="fill:#0000ff;stroke:#0000ff;" x="220.8" xlink:href="#m1735f25c16" y="216.0"/>
     <use style="fill:#0000ff;stroke:#0000ff;" x="220.8" xlink:href="#m1735f25c16" y="201.12"/>
     <use style="fill:#0000ff;stroke:#0000ff;" x="205.92" xlink:href="#m1735f25c16" y="186.24"/>
     <use style="fill:#0000ff;stroke:#0000ff;" x="235.68" xlink:href="#m1735f25c16" y="230.88"/>
     <use style="fill:#0000ff;stroke:#0000ff;" x="191.04" xlink:href="#m1735f25c16" y="216.0"/>
     <use style="fill:#0000ff;stroke:#0000ff;" x="205.92" xlink:href="#m1735f25c16" y="230.88"/>
     <use style="fill:#0000ff;stroke:#0000ff;" x="191.04" xlink:href="#m1735f25c16" y="216.0"/>
     <use style="fill:#0000ff;stroke:#0000ff;" x="205.92" xlink:href="#m1735f25c16" y="245.76"/>
     <use style="fill:#0000ff;stroke:#0000ff;" x="205.92" xlink:href="#m1735f25c16" y="245.76"/>
     <use style="fill:#0000ff;stroke:#0000ff;" x="191.04" xlink:href="#m1735f25c16" y="230.88"/>
     <use style="fill:#0000ff;stroke:#0000ff;" x="235.68" xlink:href="#m1735f25c16" y="245.76"/>
     <use style="fill:#0000ff;stroke:#0000ff;" x="235.68" xlink:href="#m1735f25c16" y="216.0"/>
     <use style="fill:#0000ff;stroke:#0000ff;" x="250.56" xlink:href="#m1735f25c16" y="201.12"/>
     <use style="fill:#0000ff;stroke:#0000ff;" x="235.68" xlink:href="#m1735f25c16" y="245.76"/>
     <use style="fill:#0000ff;stroke:#0000ff;" x="220.8" xlink:href="#m1735f25c16" y="245.76"/>
     <use style="fill:#0000ff;stroke:#0000ff;" x="250.56" xlink:href="#m1735f25c16" y="230.88"/>
     <use style="fill:#0000ff;stroke:#0000ff;" x="250.56" xlink:href="#m1735f25c16" y="230.88"/>
     <use style="fill:#0000ff;stroke:#0000ff;" x="205.92" xlink:href="#m1735f25c16" y="245.76"/>
     <use style="fill:#0000ff;stroke:#0000ff;" x="250.56" xlink:href="#m1735f25c16" y="216.0"/>
     <use style="fill:#0000ff;stroke:#0000ff;" x="250.56" xlink:href="#m1735f25c16" y="201.12"/>
     <use style="fill:#0000ff;stroke:#0000ff;" x="250.56" xlink:href="#m1735f25c16" y="216.0"/>
     <use style="fill:#0000ff;stroke:#0000ff;" x="235.68" xlink:href="#m1735f25c16" y="201.12"/>
     <use style="fill:#0000ff;stroke:#0000ff;" x="235.68" xlink:href="#m1735f25c16" y="201.12"/>
     <use style="fill:#0000ff;stroke:#0000ff;" x="250.56" xlink:href="#m1735f25c16" y="201.12"/>
     <use style="fill:#0000ff;stroke:#0000ff;" x="295.2" xlink:href="#m1735f25c16" y="216.0"/>
     <use style="fill:#0000ff;stroke:#0000ff;" x="280.32" xlink:href="#m1735f25c16" y="201.12"/>
     <use style="fill:#0000ff;stroke:#0000ff;" x="235.68" xlink:href="#m1735f25c16" y="186.24"/>
     <use style="fill:#0000ff;stroke:#0000ff;" x="220.8" xlink:href="#m1735f25c16" y="201.12"/>
     <use style="fill:#0000ff;stroke:#0000ff;" x="250.56" xlink:href="#m1735f25c16" y="201.12"/>
     <use style="fill:#0000ff;stroke:#0000ff;" x="235.68" xlink:href="#m1735f25c16" y="201.12"/>
     <use style="fill:#0000ff;stroke:#0000ff;" x="250.56" xlink:href="#m1735f25c16" y="186.24"/>
     <use style="fill:#0000ff;stroke:#0000ff;" x="220.8" xlink:href="#m1735f25c16" y="186.24"/>
     <use style="fill:#0000ff;stroke:#0000ff;" x="176.16" xlink:href="#m1735f25c16" y="171.36"/>
     <use style="fill:#0000ff;stroke:#0000ff;" x="146.4" xlink:href="#m1735f25c16" y="171.36"/>
     <use style="fill:#0000ff;stroke:#0000ff;" x="146.4" xlink:href="#m1735f25c16" y="171.36"/>
     <use style="fill:#0000ff;stroke:#0000ff;" x="191.04" xlink:href="#m1735f25c16" y="201.12"/>
     <use style="fill:#0000ff;stroke:#0000ff;" x="220.8" xlink:href="#m1735f25c16" y="230.88"/>
     <use style="fill:#0000ff;stroke:#0000ff;" x="205.92" xlink:href="#m1735f25c16" y="230.88"/>
     <use style="fill:#0000ff;stroke:#0000ff;" x="235.68" xlink:href="#m1735f25c16" y="201.12"/>
     <use style="fill:#0000ff;stroke:#0000ff;" x="205.92" xlink:href="#m1735f25c16" y="201.12"/>
     <use style="fill:#0000ff;stroke:#0000ff;" x="235.68" xlink:href="#m1735f25c16" y="230.88"/>
     <use style="fill:#0000ff;stroke:#0000ff;" x="235.68" xlink:href="#m1735f25c16" y="201.12"/>
     <use style="fill:#0000ff;stroke:#0000ff;" x="205.92" xlink:href="#m1735f25c16" y="201.12"/>
     <use style="fill:#0000ff;stroke:#0000ff;" x="220.8" xlink:href="#m1735f25c16" y="201.12"/>
     <use style="fill:#0000ff;stroke:#0000ff;" x="220.8" xlink:href="#m1735f25c16" y="186.24"/>
     <use style="fill:#0000ff;stroke:#0000ff;" x="265.44" xlink:href="#m1735f25c16" y="186.24"/>
     <use style="fill:#0000ff;stroke:#0000ff;" x="235.68" xlink:href="#m1735f25c16" y="171.36"/>
     <use style="fill:#0000ff;stroke:#0000ff;" x="235.68" xlink:href="#m1735f25c16" y="156.48"/>
     <use style="fill:#0000ff;stroke:#0000ff;" x="220.8" xlink:href="#m1735f25c16" y="156.48"/>
     <use style="fill:#0000ff;stroke:#0000ff;" x="176.16" xlink:href="#m1735f25c16" y="171.36"/>
     <use style="fill:#0000ff;stroke:#0000ff;" x="220.8" xlink:href="#m1735f25c16" y="171.36"/>
     <use style="fill:#0000ff;stroke:#0000ff;" x="191.04" xlink:href="#m1735f25c16" y="171.36"/>
     <use style="fill:#0000ff;stroke:#0000ff;" x="161.28" xlink:href="#m1735f25c16" y="171.36"/>
     <use style="fill:#0000ff;stroke:#0000ff;" x="205.92" xlink:href="#m1735f25c16" y="171.36"/>
     <use style="fill:#0000ff;stroke:#0000ff;" x="191.04" xlink:href="#m1735f25c16" y="201.12"/>
     <use style="fill:#0000ff;stroke:#0000ff;" x="191.04" xlink:href="#m1735f25c16" y="201.12"/>
     <use style="fill:#0000ff;stroke:#0000ff;" x="176.16" xlink:href="#m1735f25c16" y="171.36"/>
     <use style="fill:#0000ff;stroke:#0000ff;" x="161.28" xlink:href="#m1735f25c16" y="171.36"/>
     <use style="fill:#0000ff;stroke:#0000ff;" x="161.28" xlink:href="#m1735f25c16" y="171.36"/>
     <use style="fill:#0000ff;stroke:#0000ff;" x="191.04" xlink:href="#m1735f25c16" y="171.36"/>
     <use style="fill:#0000ff;stroke:#0000ff;" x="235.68" xlink:href="#m1735f25c16" y="186.24"/>
     <use style="fill:#0000ff;stroke:#0000ff;" x="205.92" xlink:href="#m1735f25c16" y="201.12"/>
     <use style="fill:#0000ff;stroke:#0000ff;" x="220.8" xlink:href="#m1735f25c16" y="186.24"/>
     <use style="fill:#0000ff;stroke:#0000ff;" x="220.8" xlink:href="#m1735f25c16" y="186.24"/>
     <use style="fill:#0000ff;stroke:#0000ff;" x="250.56" xlink:href="#m1735f25c16" y="186.24"/>
     <use style="fill:#0000ff;stroke:#0000ff;" x="220.8" xlink:href="#m1735f25c16" y="171.36"/>
     <use style="fill:#0000ff;stroke:#0000ff;" x="205.92" xlink:href="#m1735f25c16" y="141.6"/>
     <use style="fill:#0000ff;stroke:#0000ff;" x="235.68" xlink:href="#m1735f25c16" y="186.24"/>
     <use style="fill:#0000ff;stroke:#0000ff;" x="250.56" xlink:href="#m1735f25c16" y="201.12"/>
     <use style="fill:#0000ff;stroke:#0000ff;" x="235.68" xlink:href="#m1735f25c16" y="186.24"/>
     <use style="fill:#0000ff;stroke:#0000ff;" x="220.8" xlink:href="#m1735f25c16" y="186.24"/>
     <use style="fill:#0000ff;stroke:#0000ff;" x="265.44" xlink:href="#m1735f25c16" y="201.12"/>
     <use style="fill:#0000ff;stroke:#0000ff;" x="265.44" xlink:href="#m1735f25c16" y="201.12"/>
     <use style="fill:#0000ff;stroke:#0000ff;" x="265.44" xlink:href="#m1735f25c16" y="186.24"/>
     <use style="fill:#0000ff;stroke:#0000ff;" x="265.44" xlink:href="#m1735f25c16" y="171.36"/>
     <use style="fill:#0000ff;stroke:#0000ff;" x="280.32" xlink:href="#m1735f25c16" y="156.48"/>
     <use style="fill:#0000ff;stroke:#0000ff;" x="280.32" xlink:href="#m1735f25c16" y="156.48"/>
     <use style="fill:#0000ff;stroke:#0000ff;" x="250.56" xlink:href="#m1735f25c16" y="186.24"/>
     <use style="fill:#0000ff;stroke:#0000ff;" x="220.8" xlink:href="#m1735f25c16" y="171.36"/>
     <use style="fill:#0000ff;stroke:#0000ff;" x="250.56" xlink:href="#m1735f25c16" y="186.24"/>
     <use style="fill:#0000ff;stroke:#0000ff;" x="235.68" xlink:href="#m1735f25c16" y="171.36"/>
     <use style="fill:#0000ff;stroke:#0000ff;" x="220.8" xlink:href="#m1735f25c16" y="186.24"/>
     <use style="fill:#0000ff;stroke:#0000ff;" x="235.68" xlink:href="#m1735f25c16" y="186.24"/>
     <use style="fill:#0000ff;stroke:#0000ff;" x="220.8" xlink:href="#m1735f25c16" y="186.24"/>
     <use style="fill:#0000ff;stroke:#0000ff;" x="250.56" xlink:href="#m1735f25c16" y="201.12"/>
     <use style="fill:#0000ff;stroke:#0000ff;" x="265.44" xlink:href="#m1735f25c16" y="186.24"/>
     <use style="fill:#0000ff;stroke:#0000ff;" x="265.44" xlink:href="#m1735f25c16" y="186.24"/>
     <use style="fill:#0000ff;stroke:#0000ff;" x="280.32" xlink:href="#m1735f25c16" y="201.12"/>
     <use style="fill:#0000ff;stroke:#0000ff;" x="295.2" xlink:href="#m1735f25c16" y="201.12"/>
     <use style="fill:#0000ff;stroke:#0000ff;" x="280.32" xlink:href="#m1735f25c16" y="186.24"/>
     <use style="fill:#0000ff;stroke:#0000ff;" x="265.44" xlink:href="#m1735f25c16" y="186.24"/>
     <use style="fill:#0000ff;stroke:#0000ff;" x="250.56" xlink:href="#m1735f25c16" y="186.24"/>
     <use style="fill:#0000ff;stroke:#0000ff;" x="250.56" xlink:href="#m1735f25c16" y="171.36"/>
     <use style="fill:#0000ff;stroke:#0000ff;" x="235.68" xlink:href="#m1735f25c16" y="171.36"/>
     <use style="fill:#0000ff;stroke:#0000ff;" x="250.56" xlink:href="#m1735f25c16" y="171.36"/>
     <use style="fill:#0000ff;stroke:#0000ff;" x="235.68" xlink:href="#m1735f25c16" y="171.36"/>
     <use style="fill:#0000ff;stroke:#0000ff;" x="205.92" xlink:href="#m1735f25c16" y="171.36"/>
     <use style="fill:#0000ff;stroke:#0000ff;" x="220.8" xlink:href="#m1735f25c16" y="171.36"/>
     <use style="fill:#0000ff;stroke:#0000ff;" x="205.92" xlink:href="#m1735f25c16" y="141.6"/>
     <use style="fill:#0000ff;stroke:#0000ff;" x="205.92" xlink:href="#m1735f25c16" y="156.48"/>
     <use style="fill:#0000ff;stroke:#0000ff;" x="176.16" xlink:href="#m1735f25c16" y="156.48"/>
     <use style="fill:#0000ff;stroke:#0000ff;" x="220.8" xlink:href="#m1735f25c16" y="171.36"/>
     <use style="fill:#0000ff;stroke:#0000ff;" x="205.92" xlink:href="#m1735f25c16" y="171.36"/>
     <use style="fill:#0000ff;stroke:#0000ff;" x="191.04" xlink:href="#m1735f25c16" y="171.36"/>
     <use style="fill:#0000ff;stroke:#0000ff;" x="205.92" xlink:href="#m1735f25c16" y="186.24"/>
     <use style="fill:#0000ff;stroke:#0000ff;" x="220.8" xlink:href="#m1735f25c16" y="171.36"/>
     <use style="fill:#0000ff;stroke:#0000ff;" x="235.68" xlink:href="#m1735f25c16" y="171.36"/>
     <use style="fill:#0000ff;stroke:#0000ff;" x="235.68" xlink:href="#m1735f25c16" y="171.36"/>
     <use style="fill:#0000ff;stroke:#0000ff;" x="220.8" xlink:href="#m1735f25c16" y="171.36"/>
     <use style="fill:#0000ff;stroke:#0000ff;" x="205.92" xlink:href="#m1735f25c16" y="186.24"/>
     <use style="fill:#0000ff;stroke:#0000ff;" x="191.04" xlink:href="#m1735f25c16" y="171.36"/>
     <use style="fill:#0000ff;stroke:#0000ff;" x="235.68" xlink:href="#m1735f25c16" y="201.12"/>
     <use style="fill:#0000ff;stroke:#0000ff;" x="235.68" xlink:href="#m1735f25c16" y="171.36"/>
     <use style="fill:#0000ff;stroke:#0000ff;" x="235.68" xlink:href="#m1735f25c16" y="171.36"/>
     <use style="fill:#0000ff;stroke:#0000ff;" x="250.56" xlink:href="#m1735f25c16" y="171.36"/>
     <use style="fill:#0000ff;stroke:#0000ff;" x="250.56" xlink:href="#m1735f25c16" y="186.24"/>
     <use style="fill:#0000ff;stroke:#0000ff;" x="250.56" xlink:href="#m1735f25c16" y="171.36"/>
     <use style="fill:#0000ff;stroke:#0000ff;" x="235.68" xlink:href="#m1735f25c16" y="186.24"/>
     <use style="fill:#0000ff;stroke:#0000ff;" x="250.56" xlink:href="#m1735f25c16" y="201.12"/>
     <use style="fill:#0000ff;stroke:#0000ff;" x="235.68" xlink:href="#m1735f25c16" y="216.0"/>
     <use style="fill:#0000ff;stroke:#0000ff;" x="250.56" xlink:href="#m1735f25c16" y="201.12"/>
     <use style="fill:#0000ff;stroke:#0000ff;" x="250.56" xlink:href="#m1735f25c16" y="171.36"/>
     <use style="fill:#0000ff;stroke:#0000ff;" x="265.44" xlink:href="#m1735f25c16" y="186.24"/>
     <use style="fill:#0000ff;stroke:#0000ff;" x="235.68" xlink:href="#m1735f25c16" y="141.6"/>
     <use style="fill:#0000ff;stroke:#0000ff;" x="235.68" xlink:href="#m1735f25c16" y="126.72"/>
     <use style="fill:#0000ff;stroke:#0000ff;" x="265.44" xlink:href="#m1735f25c16" y="111.84"/>
     <use style="fill:#0000ff;stroke:#0000ff;" x="280.32" xlink:href="#m1735f25c16" y="96.96"/>
     <use style="fill:#0000ff;stroke:#0000ff;" x="280.32" xlink:href="#m1735f25c16" y="126.72"/>
     <use style="fill:#0000ff;stroke:#0000ff;" x="235.68" xlink:href="#m1735f25c16" y="126.72"/>
     <use style="fill:#0000ff;stroke:#0000ff;" x="235.68" xlink:href="#m1735f25c16" y="141.6"/>
     <use style="fill:#0000ff;stroke:#0000ff;" x="250.56" xlink:href="#m1735f25c16" y="156.48"/>
     <use style="fill:#0000ff;stroke:#0000ff;" x="235.68" xlink:href="#m1735f25c16" y="171.36"/>
     <use style="fill:#0000ff;stroke:#0000ff;" x="220.8" xlink:href="#m1735f25c16" y="171.36"/>
     <use style="fill:#0000ff;stroke:#0000ff;" x="220.8" xlink:href="#m1735f25c16" y="171.36"/>
     <use style="fill:#0000ff;stroke:#0000ff;" x="250.56" xlink:href="#m1735f25c16" y="171.36"/>
     <use style="fill:#0000ff;stroke:#0000ff;" x="265.44" xlink:href="#m1735f25c16" y="156.48"/>
     <use style="fill:#0000ff;stroke:#0000ff;" x="295.2" xlink:href="#m1735f25c16" y="171.36"/>
     <use style="fill:#0000ff;stroke:#0000ff;" x="295.2" xlink:href="#m1735f25c16" y="171.36"/>
     <use style="fill:#0000ff;stroke:#0000ff;" x="265.44" xlink:href="#m1735f25c16" y="156.48"/>
     <use style="fill:#0000ff;stroke:#0000ff;" x="280.32" xlink:href="#m1735f25c16" y="141.6"/>
     <use style="fill:#0000ff;stroke:#0000ff;" x="280.32" xlink:href="#m1735f25c16" y="126.72"/>
     <use style="fill:#0000ff;stroke:#0000ff;" x="265.44" xlink:href="#m1735f25c16" y="141.6"/>
     <use style="fill:#0000ff;stroke:#0000ff;" x="295.2" xlink:href="#m1735f25c16" y="156.48"/>
     <use style="fill:#0000ff;stroke:#0000ff;" x="265.44" xlink:href="#m1735f25c16" y="171.36"/>
     <use style="fill:#0000ff;stroke:#0000ff;" x="280.32" xlink:href="#m1735f25c16" y="171.36"/>
     <use style="fill:#0000ff;stroke:#0000ff;" x="280.32" xlink:href="#m1735f25c16" y="171.36"/>
     <use style="fill:#0000ff;stroke:#0000ff;" x="280.32" xlink:href="#m1735f25c16" y="171.36"/>
     <use style="fill:#0000ff;stroke:#0000ff;" x="280.32" xlink:href="#m1735f25c16" y="171.36"/>
     <use style="fill:#0000ff;stroke:#0000ff;" x="250.56" xlink:href="#m1735f25c16" y="171.36"/>
     <use style="fill:#0000ff;stroke:#0000ff;" x="235.68" xlink:href="#m1735f25c16" y="156.48"/>
     <use style="fill:#0000ff;stroke:#0000ff;" x="265.44" xlink:href="#m1735f25c16" y="156.48"/>
     <use style="fill:#0000ff;stroke:#0000ff;" x="250.56" xlink:href="#m1735f25c16" y="141.6"/>
     <use style="fill:#0000ff;stroke:#0000ff;" x="250.56" xlink:href="#m1735f25c16" y="141.6"/>
     <use style="fill:#0000ff;stroke:#0000ff;" x="265.44" xlink:href="#m1735f25c16" y="171.36"/>
     <use style="fill:#0000ff;stroke:#0000ff;" x="235.68" xlink:href="#m1735f25c16" y="186.24"/>
     <use style="fill:#0000ff;stroke:#0000ff;" x="250.56" xlink:href="#m1735f25c16" y="230.88"/>
     <use style="fill:#0000ff;stroke:#0000ff;" x="265.44" xlink:href="#m1735f25c16" y="245.76"/>
     <use style="fill:#0000ff;stroke:#0000ff;" x="265.44" xlink:href="#m1735f25c16" y="260.64"/>
     <use style="fill:#0000ff;stroke:#0000ff;" x="265.44" xlink:href="#m1735f25c16" y="245.76"/>
     <use style="fill:#0000ff;stroke:#0000ff;" x="265.44" xlink:href="#m1735f25c16" y="245.76"/>
     <use style="fill:#0000ff;stroke:#0000ff;" x="265.44" xlink:href="#m1735f25c16" y="245.76"/>
     <use style="fill:#0000ff;stroke:#0000ff;" x="280.32" xlink:href="#m1735f25c16" y="245.76"/>
     <use style="fill:#0000ff;stroke:#0000ff;" x="250.56" xlink:href="#m1735f25c16" y="230.88"/>
     <use style="fill:#0000ff;stroke:#0000ff;" x="250.56" xlink:href="#m1735f25c16" y="230.88"/>
     <use style="fill:#0000ff;stroke:#0000ff;" x="265.44" xlink:href="#m1735f25c16" y="245.76"/>
     <use style="fill:#0000ff;stroke:#0000ff;" x="265.44" xlink:href="#m1735f25c16" y="230.88"/>
     <use style="fill:#0000ff;stroke:#0000ff;" x="250.56" xlink:href="#m1735f25c16" y="230.88"/>
     <use style="fill:#0000ff;stroke:#0000ff;" x="265.44" xlink:href="#m1735f25c16" y="216.0"/>
     <use style="fill:#0000ff;stroke:#0000ff;" x="280.32" xlink:href="#m1735f25c16" y="245.76"/>
     <use style="fill:#0000ff;stroke:#0000ff;" x="280.32" xlink:href="#m1735f25c16" y="216.0"/>
     <use style="fill:#0000ff;stroke:#0000ff;" x="295.2" xlink:href="#m1735f25c16" y="216.0"/>
     <use style="fill:#0000ff;stroke:#0000ff;" x="310.08" xlink:href="#m1735f25c16" y="201.12"/>
     <use style="fill:#0000ff;stroke:#0000ff;" x="280.32" xlink:href="#m1735f25c16" y="186.24"/>
     <use style="fill:#0000ff;stroke:#0000ff;" x="280.32" xlink:href="#m1735f25c16" y="171.36"/>
     <use style="fill:#0000ff;stroke:#0000ff;" x="265.44" xlink:href="#m1735f25c16" y="156.48"/>
     <use style="fill:#0000ff;stroke:#0000ff;" x="280.32" xlink:href="#m1735f25c16" y="171.36"/>
     <use style="fill:#0000ff;stroke:#0000ff;" x="310.08" xlink:href="#m1735f25c16" y="201.12"/>
     <use style="fill:#0000ff;stroke:#0000ff;" x="310.08" xlink:href="#m1735f25c16" y="201.12"/>
     <use style="fill:#0000ff;stroke:#0000ff;" x="295.2" xlink:href="#m1735f25c16" y="216.0"/>
     <use style="fill:#0000ff;stroke:#0000ff;" x="295.2" xlink:href="#m1735f25c16" y="216.0"/>
     <use style="fill:#0000ff;stroke:#0000ff;" x="295.2" xlink:href="#m1735f25c16" y="216.0"/>
     <use style="fill:#0000ff;stroke:#0000ff;" x="339.84" xlink:href="#m1735f25c16" y="201.12"/>
     <use style="fill:#0000ff;stroke:#0000ff;" x="324.96" xlink:href="#m1735f25c16" y="186.24"/>
     <use style="fill:#0000ff;stroke:#0000ff;" x="384.48" xlink:href="#m1735f25c16" y="201.12"/>
     <use style="fill:#0000ff;stroke:#0000ff;" x="354.72" xlink:href="#m1735f25c16" y="201.12"/>
     <use style="fill:#0000ff;stroke:#0000ff;" x="339.84" xlink:href="#m1735f25c16" y="230.88"/>
     <use style="fill:#0000ff;stroke:#0000ff;" x="339.84" xlink:href="#m1735f25c16" y="216.0"/>
     <use style="fill:#0000ff;stroke:#0000ff;" x="310.08" xlink:href="#m1735f25c16" y="245.76"/>
     <use style="fill:#0000ff;stroke:#0000ff;" x="339.84" xlink:href="#m1735f25c16" y="260.64"/>
     <use style="fill:#0000ff;stroke:#0000ff;" x="339.84" xlink:href="#m1735f25c16" y="245.76"/>
     <use style="fill:#0000ff;stroke:#0000ff;" x="310.08" xlink:href="#m1735f25c16" y="275.52"/>
     <use style="fill:#0000ff;stroke:#0000ff;" x="324.96" xlink:href="#m1735f25c16" y="290.4"/>
     <use style="fill:#0000ff;stroke:#0000ff;" x="339.84" xlink:href="#m1735f25c16" y="275.52"/>
     <use style="fill:#0000ff;stroke:#0000ff;" x="324.96" xlink:href="#m1735f25c16" y="260.64"/>
     <use style="fill:#0000ff;stroke:#0000ff;" x="339.84" xlink:href="#m1735f25c16" y="275.52"/>
     <use style="fill:#0000ff;stroke:#0000ff;" x="354.72" xlink:href="#m1735f25c16" y="290.4"/>
     <use style="fill:#0000ff;stroke:#0000ff;" x="324.96" xlink:href="#m1735f25c16" y="290.4"/>
     <use style="fill:#0000ff;stroke:#0000ff;" x="324.96" xlink:href="#m1735f25c16" y="275.52"/>
     <use style="fill:#0000ff;stroke:#0000ff;" x="310.08" xlink:href="#m1735f25c16" y="260.64"/>
     <use style="fill:#0000ff;stroke:#0000ff;" x="280.32" xlink:href="#m1735f25c16" y="245.76"/>
     <use style="fill:#0000ff;stroke:#0000ff;" x="265.44" xlink:href="#m1735f25c16" y="245.76"/>
     <use style="fill:#0000ff;stroke:#0000ff;" x="280.32" xlink:href="#m1735f25c16" y="275.52"/>
     <use style="fill:#0000ff;stroke:#0000ff;" x="265.44" xlink:href="#m1735f25c16" y="275.52"/>
     <use style="fill:#0000ff;stroke:#0000ff;" x="250.56" xlink:href="#m1735f25c16" y="290.4"/>
     <use style="fill:#0000ff;stroke:#0000ff;" x="265.44" xlink:href="#m1735f25c16" y="290.4"/>
     <use style="fill:#0000ff;stroke:#0000ff;" x="265.44" xlink:href="#m1735f25c16" y="290.4"/>
     <use style="fill:#0000ff;stroke:#0000ff;" x="280.32" xlink:href="#m1735f25c16" y="275.52"/>
     <use style="fill:#0000ff;stroke:#0000ff;" x="265.44" xlink:href="#m1735f25c16" y="275.52"/>
     <use style="fill:#0000ff;stroke:#0000ff;" x="265.44" xlink:href="#m1735f25c16" y="260.64"/>
     <use style="fill:#0000ff;stroke:#0000ff;" x="265.44" xlink:href="#m1735f25c16" y="245.76"/>
    </g>
   </g>
   <g id="patch_2">
    <path clip-path="url(#ped3b9811e3)" d="M 295.2 333.328393 
C 340.257433 333.328393 383.475495 320.965934 415.335911 298.963703 
C 447.196327 276.961472 465.097835 247.115854 465.097835 216 
C 465.097835 184.884146 447.196327 155.038528 415.335911 133.036297 
C 383.475495 111.034066 340.257433 98.671607 295.2 98.671607 
C 250.142567 98.671607 206.924505 111.034066 175.064089 133.036297 
C 143.203673 155.038528 125.302165 184.884146 125.302165 216 
C 125.302165 247.115854 143.203673 276.961472 175.064089 298.963703 
C 206.924505 320.965934 250.142567 333.328393 295.2 333.328393 
z
" style="fill:#ff0000;opacity:0.1;stroke:#ff0000;stroke-linejoin:miter;"/>
   </g>
   <g id="line2d_1">
    <path clip-path="url(#ped3b9811e3)" d="M 465.097835 216 
L 125.302165 216 
" style="fill:none;stroke:#000000;stroke-linecap:square;"/>
   </g>
   <g id="line2d_2">
    <path clip-path="url(#ped3b9811e3)" d="M 295.2 333.328393 
L 295.2 98.671607 
" style="fill:none;stroke:#000000;stroke-linecap:square;"/>
   </g>
   <g id="matplotlib.axis_1">
    <g id="xtick_1">
     <g id="line2d_3">
      <path clip-path="url(#ped3b9811e3)" d="M 72 364.8 
L 72 67.2 
" style="fill:none;stroke:#000000;stroke-dasharray:1.000000,3.000000;stroke-dashoffset:0.0;stroke-width:0.5;"/>
     </g>
     <g id="line2d_4">
      <defs>
       <path d="M 0 0 
L 0 -4 
" id="mbd774c4c04" style="stroke:#000000;stroke-width:0.5;"/>
      </defs>
      <g>
       <use style="stroke:#000000;stroke-width:0.5;" x="72.0" xlink:href="#mbd774c4c04" y="364.8"/>
      </g>
     </g>
     <g id="line2d_5">
      <defs>
       <path d="M 0 0 
L 0 4 
" id="m79e579e8e0" style="stroke:#000000;stroke-width:0.5;"/>
      </defs>
      <g>
       <use style="stroke:#000000;stroke-width:0.5;" x="72.0" xlink:href="#m79e579e8e0" y="67.2"/>
      </g>
     </g>
     <g id="text_1">
      <!-- −0.015 -->
      <defs>
       <path d="M 44.390625 16.21875 
Q 44.390625 12.640625 43.046875 9.515625 
Q 41.703125 6.390625 39.359375 4.046875 
Q 37.015625 1.703125 33.890625 0.359375 
Q 30.765625 -0.984375 27.203125 -0.984375 
L 24.21875 -0.984375 
Q 20.65625 -0.984375 17.5 0.359375 
Q 14.359375 1.703125 12.015625 4.046875 
Q 9.671875 6.390625 8.328125 9.515625 
Q 6.984375 12.640625 6.984375 16.21875 
L 6.984375 53.8125 
Q 6.984375 57.375 8.328125 60.5 
Q 9.671875 63.625 12.015625 65.96875 
Q 14.359375 68.3125 17.5 69.65625 
Q 20.65625 71 24.21875 71 
L 27.203125 71 
Q 30.765625 71 33.890625 69.65625 
Q 37.015625 68.3125 39.359375 65.96875 
Q 41.703125 63.625 43.046875 60.5 
Q 44.390625 57.375 44.390625 53.8125 
L 44.390625 16.21875 
z
M 38.09375 53.8125 
Q 38.09375 56.15625 37.203125 58.171875 
Q 36.328125 60.203125 34.8125 61.71875 
Q 33.296875 63.234375 31.265625 64.109375 
Q 29.25 64.984375 26.90625 64.984375 
L 24.515625 64.984375 
Q 22.171875 64.984375 20.140625 64.109375 
Q 18.109375 63.234375 16.578125 61.71875 
Q 15.046875 60.203125 14.15625 58.171875 
Q 13.28125 56.15625 13.28125 53.8125 
L 13.28125 16.21875 
Q 13.28125 13.875 14.15625 11.84375 
Q 15.046875 9.8125 16.578125 8.265625 
Q 18.109375 6.734375 20.140625 5.859375 
Q 22.171875 4.984375 24.515625 4.984375 
L 26.90625 4.984375 
Q 29.25 4.984375 31.265625 5.859375 
Q 33.296875 6.734375 34.8125 8.265625 
Q 36.328125 9.8125 37.203125 11.84375 
Q 38.09375 13.875 38.09375 16.21875 
z
" id="Abel-Regular-30"/>
       <path d="M 44.390625 16.21875 
Q 44.390625 12.640625 43.046875 9.515625 
Q 41.703125 6.390625 39.359375 4.046875 
Q 37.015625 1.703125 33.890625 0.359375 
Q 30.765625 -0.984375 27.203125 -0.984375 
L 24.21875 -0.984375 
Q 20.65625 -0.984375 17.5 0.359375 
Q 14.359375 1.703125 12.015625 4.046875 
Q 9.671875 6.390625 8.328125 9.515625 
Q 6.984375 12.640625 6.984375 16.21875 
L 6.984375 17.28125 
L 13.28125 17.28125 
L 13.28125 16.21875 
Q 13.28125 13.875 14.15625 11.84375 
Q 15.046875 9.8125 16.578125 8.265625 
Q 18.109375 6.734375 20.140625 5.859375 
Q 22.171875 4.984375 24.515625 4.984375 
L 26.90625 4.984375 
Q 29.25 4.984375 31.265625 5.859375 
Q 33.296875 6.734375 34.8125 8.265625 
Q 36.328125 9.8125 37.203125 11.84375 
Q 38.09375 13.875 38.09375 16.21875 
L 38.09375 29.78125 
Q 38.09375 32.125 37.203125 34.15625 
Q 36.328125 36.1875 34.8125 37.71875 
Q 33.296875 39.265625 31.265625 40.140625 
Q 29.25 41.015625 26.90625 41.015625 
L 24.515625 41.015625 
Q 22.171875 41.015625 20.140625 40.140625 
Q 18.109375 39.265625 16.578125 37.71875 
Q 15.046875 36.1875 14.15625 34.15625 
Q 13.28125 32.125 13.28125 29.78125 
L 6.984375 29.78125 
L 10.984375 70.015625 
L 40.921875 70.015625 
L 40.921875 64.015625 
L 16.890625 64.015625 
L 14.59375 42.484375 
Q 16.84375 44.625 19.8125 45.8125 
Q 22.796875 47.015625 26.21875 47.015625 
L 27.203125 47.015625 
Q 30.765625 47.015625 33.890625 45.671875 
Q 37.015625 44.34375 39.359375 42 
Q 41.703125 39.65625 43.046875 36.5 
Q 44.390625 33.34375 44.390625 29.78125 
L 44.390625 16.21875 
z
" id="Abel-Regular-35"/>
       <path d="M 8.015625 0 
L 8.015625 6 
L 24.703125 6 
L 24.703125 64.015625 
L 8.015625 56.984375 
L 8.015625 62.984375 
L 24.703125 70.015625 
L 31 70.015625 
L 31 6 
L 47.703125 6 
L 47.703125 0 
z
" id="Abel-Regular-31"/>
       <path d="M 54 38.1875 
L 54 31.890625 
L 4 31.890625 
L 4 38.1875 
z
" id="Abel-Regular-2212"/>
       <path d="M 6.984375 0 
L 6.984375 7.515625 
L 14.5 7.515625 
L 14.5 0 
z
" id="Abel-Regular-2e"/>
      </defs>
      <g transform="translate(54.875625 377.201875)scale(0.12 -0.12)">
       <use xlink:href="#Abel-Regular-2212"/>
       <use x="58.0078125" xlink:href="#Abel-Regular-30"/>
       <use x="109.392578125" xlink:href="#Abel-Regular-2e"/>
       <use x="130.845703125" xlink:href="#Abel-Regular-30"/>
       <use x="182.26171875" xlink:href="#Abel-Regular-31"/>
       <use x="233.970703125" xlink:href="#Abel-Regular-35"/>
      </g>
     </g>
    </g>
    <g id="xtick_2">
     <g id="line2d_6">
      <path clip-path="url(#ped3b9811e3)" d="M 146.4 364.8 
L 146.4 67.2 
" style="fill:none;stroke:#000000;stroke-dasharray:1.000000,3.000000;stroke-dashoffset:0.0;stroke-width:0.5;"/>
     </g>
     <g id="line2d_7">
      <g>
       <use style="stroke:#000000;stroke-width:0.5;" x="146.4" xlink:href="#mbd774c4c04" y="364.8"/>
      </g>
     </g>
     <g id="line2d_8">
      <g>
       <use style="stroke:#000000;stroke-width:0.5;" x="146.4" xlink:href="#m79e579e8e0" y="67.2"/>
      </g>
     </g>
     <g id="text_2">
      <!-- −0.010 -->
      <g transform="translate(129.275625 377.201875)scale(0.12 -0.12)">
       <use xlink:href="#Abel-Regular-2212"/>
       <use x="58.0078125" xlink:href="#Abel-Regular-30"/>
       <use x="109.392578125" xlink:href="#Abel-Regular-2e"/>
       <use x="130.845703125" xlink:href="#Abel-Regular-30"/>
       <use x="182.26171875" xlink:href="#Abel-Regular-31"/>
       <use x="233.970703125" xlink:href="#Abel-Regular-30"/>
      </g>
     </g>
    </g>
    <g id="xtick_3">
     <g id="line2d_9">
      <path clip-path="url(#ped3b9811e3)" d="M 220.8 364.8 
L 220.8 67.2 
" style="fill:none;stroke:#000000;stroke-dasharray:1.000000,3.000000;stroke-dashoffset:0.0;stroke-width:0.5;"/>
     </g>
     <g id="line2d_10">
      <g>
       <use style="stroke:#000000;stroke-width:0.5;" x="220.8" xlink:href="#mbd774c4c04" y="364.8"/>
      </g>
     </g>
     <g id="line2d_11">
      <g>
       <use style="stroke:#000000;stroke-width:0.5;" x="220.8" xlink:href="#m79e579e8e0" y="67.2"/>
      </g>
     </g>
     <g id="text_3">
      <!-- −0.005 -->
      <g transform="translate(203.6934375 377.201875)scale(0.12 -0.12)">
       <use xlink:href="#Abel-Regular-2212"/>
       <use x="58.0078125" xlink:href="#Abel-Regular-30"/>
       <use x="109.392578125" xlink:href="#Abel-Regular-2e"/>
       <use x="130.845703125" xlink:href="#Abel-Regular-30"/>
       <use x="182.26171875" xlink:href="#Abel-Regular-30"/>
       <use x="233.662109375" xlink:href="#Abel-Regular-35"/>
      </g>
     </g>
    </g>
    <g id="xtick_4">
     <g id="line2d_12">
      <path clip-path="url(#ped3b9811e3)" d="M 295.2 364.8 
L 295.2 67.2 
" style="fill:none;stroke:#000000;stroke-dasharray:1.000000,3.000000;stroke-dashoffset:0.0;stroke-width:0.5;"/>
     </g>
     <g id="line2d_13">
      <g>
       <use style="stroke:#000000;stroke-width:0.5;" x="295.2" xlink:href="#mbd774c4c04" y="364.8"/>
      </g>
     </g>
     <g id="line2d_14">
      <g>
       <use style="stroke:#000000;stroke-width:0.5;" x="295.2" xlink:href="#m79e579e8e0" y="67.2"/>
      </g>
     </g>
     <g id="text_4">
      <!-- 0.000 -->
      <g transform="translate(281.5734375 377.201875)scale(0.12 -0.12)">
       <use xlink:href="#Abel-Regular-30"/>
       <use x="51.384765625" xlink:href="#Abel-Regular-2e"/>
       <use x="72.837890625" xlink:href="#Abel-Regular-30"/>
       <use x="124.25390625" xlink:href="#Abel-Regular-30"/>
       <use x="175.669921875" xlink:href="#Abel-Regular-30"/>
      </g>
     </g>
    </g>
    <g id="xtick_5">
     <g id="line2d_15">
      <path clip-path="url(#ped3b9811e3)" d="M 369.6 364.8 
L 369.6 67.2 
" style="fill:none;stroke:#000000;stroke-dasharray:1.000000,3.000000;stroke-dashoffset:0.0;stroke-width:0.5;"/>
     </g>
     <g id="line2d_16">
      <g>
       <use style="stroke:#000000;stroke-width:0.5;" x="369.6" xlink:href="#mbd774c4c04" y="364.8"/>
      </g>
     </g>
     <g id="line2d_17">
      <g>
       <use style="stroke:#000000;stroke-width:0.5;" x="369.6" xlink:href="#m79e579e8e0" y="67.2"/>
      </g>
     </g>
     <g id="text_5">
      <!-- 0.005 -->
      <g transform="translate(355.974375 377.201875)scale(0.12 -0.12)">
       <use xlink:href="#Abel-Regular-30"/>
       <use x="51.384765625" xlink:href="#Abel-Regular-2e"/>
       <use x="72.837890625" xlink:href="#Abel-Regular-30"/>
       <use x="124.25390625" xlink:href="#Abel-Regular-30"/>
       <use x="175.654296875" xlink:href="#Abel-Regular-35"/>
      </g>
     </g>
    </g>
    <g id="xtick_6">
     <g id="line2d_18">
      <path clip-path="url(#ped3b9811e3)" d="M 444 364.8 
L 444 67.2 
" style="fill:none;stroke:#000000;stroke-dasharray:1.000000,3.000000;stroke-dashoffset:0.0;stroke-width:0.5;"/>
     </g>
     <g id="line2d_19">
      <g>
       <use style="stroke:#000000;stroke-width:0.5;" x="444.0" xlink:href="#mbd774c4c04" y="364.8"/>
      </g>
     </g>
     <g id="line2d_20">
      <g>
       <use style="stroke:#000000;stroke-width:0.5;" x="444.0" xlink:href="#m79e579e8e0" y="67.2"/>
      </g>
     </g>
     <g id="text_6">
      <!-- 0.010 -->
      <g transform="translate(430.3565625 377.201875)scale(0.12 -0.12)">
       <use xlink:href="#Abel-Regular-30"/>
       <use x="51.384765625" xlink:href="#Abel-Regular-2e"/>
       <use x="72.837890625" xlink:href="#Abel-Regular-30"/>
       <use x="124.25390625" xlink:href="#Abel-Regular-31"/>
       <use x="175.962890625" xlink:href="#Abel-Regular-30"/>
      </g>
     </g>
    </g>
    <g id="xtick_7">
     <g id="line2d_21">
      <path clip-path="url(#ped3b9811e3)" d="M 518.4 364.8 
L 518.4 67.2 
" style="fill:none;stroke:#000000;stroke-dasharray:1.000000,3.000000;stroke-dashoffset:0.0;stroke-width:0.5;"/>
     </g>
     <g id="line2d_22">
      <g>
       <use style="stroke:#000000;stroke-width:0.5;" x="518.4" xlink:href="#mbd774c4c04" y="364.8"/>
      </g>
     </g>
     <g id="line2d_23">
      <g>
       <use style="stroke:#000000;stroke-width:0.5;" x="518.4" xlink:href="#m79e579e8e0" y="67.2"/>
      </g>
     </g>
     <g id="text_7">
      <!-- 0.015 -->
      <g transform="translate(504.7565625 377.201875)scale(0.12 -0.12)">
       <use xlink:href="#Abel-Regular-30"/>
       <use x="51.384765625" xlink:href="#Abel-Regular-2e"/>
       <use x="72.837890625" xlink:href="#Abel-Regular-30"/>
       <use x="124.25390625" xlink:href="#Abel-Regular-31"/>
       <use x="175.962890625" xlink:href="#Abel-Regular-35"/>
      </g>
     </g>
    </g>
    <g id="text_8">
     <!-- diferencia en longitud [m] -->
     <defs>
      <path d="M 39.40625 13.71875 
Q 39.40625 10.6875 38.25 8 
Q 37.109375 5.328125 35.109375 3.3125 
Q 33.109375 1.3125 30.421875 0.15625 
Q 27.734375 -0.984375 24.703125 -0.984375 
L 20.703125 -0.984375 
Q 17.671875 -0.984375 14.984375 0.15625 
Q 12.3125 1.3125 10.296875 3.3125 
Q 8.296875 5.328125 7.140625 8 
Q 6 10.6875 6 13.71875 
L 6 36.28125 
Q 6 39.3125 7.140625 41.984375 
Q 8.296875 44.671875 10.296875 46.671875 
Q 12.3125 48.6875 14.984375 49.828125 
Q 17.671875 50.984375 20.703125 50.984375 
L 24.703125 50.984375 
Q 27.734375 50.984375 30.421875 49.828125 
Q 33.109375 48.6875 35.109375 46.671875 
Q 37.109375 44.671875 38.25 41.984375 
Q 39.40625 39.3125 39.40625 36.28125 
L 39.40625 34.28125 
L 33.40625 33.296875 
L 33.40625 36.625 
Q 33.40625 38.421875 32.71875 40.015625 
Q 32.03125 41.609375 30.859375 42.78125 
Q 29.6875 43.953125 28.09375 44.625 
Q 26.515625 45.3125 24.703125 45.3125 
L 20.703125 45.3125 
Q 18.890625 45.3125 17.296875 44.625 
Q 15.71875 43.953125 14.546875 42.78125 
Q 13.375 41.609375 12.6875 40.015625 
Q 12.015625 38.421875 12.015625 36.625 
L 12.015625 13.375 
Q 12.015625 11.578125 12.6875 9.984375 
Q 13.375 8.40625 14.546875 7.234375 
Q 15.71875 6.0625 17.296875 5.375 
Q 18.890625 4.6875 20.703125 4.6875 
L 24.703125 4.6875 
Q 26.515625 4.6875 28.09375 5.375 
Q 29.6875 6.0625 30.859375 7.234375 
Q 32.03125 8.40625 32.71875 9.984375 
Q 33.40625 11.578125 33.40625 13.375 
L 33.40625 16.703125 
L 39.40625 15.71875 
L 39.40625 13.71875 
z
" id="Abel-Regular-63"/>
      <path d="M 39.890625 -6.296875 
Q 39.890625 -9.328125 38.734375 -11.859375 
Q 37.59375 -14.40625 35.59375 -16.203125 
Q 33.59375 -18.015625 30.90625 -19.015625 
Q 28.21875 -20.015625 25.203125 -20.015625 
L 22.703125 -20.015625 
Q 19.671875 -20.015625 16.984375 -19.015625 
Q 14.3125 -18.015625 12.296875 -16.203125 
Q 10.296875 -14.40625 9.15625 -11.859375 
Q 8.015625 -9.328125 8.015625 -6.296875 
L 8.015625 -6.109375 
Q 8.015625 -3.171875 9.078125 -0.734375 
Q 10.15625 1.703125 12.015625 3.515625 
Q 9.671875 4.9375 8.28125 7.34375 
Q 6.890625 9.765625 6.890625 12.703125 
Q 6.890625 15.328125 8 17.59375 
Q 9.125 19.875 11.078125 21.296875 
Q 8.734375 23.34375 7.359375 26.21875 
Q 6 29.109375 6 32.515625 
L 6 36.28125 
Q 6 39.3125 7.140625 41.984375 
Q 8.296875 44.671875 10.296875 46.671875 
Q 12.3125 48.6875 14.984375 49.828125 
Q 17.671875 50.984375 20.703125 50.984375 
L 23.1875 50.984375 
Q 26.859375 50.984375 29.953125 49.34375 
Q 33.0625 47.703125 35.109375 44.921875 
L 38.375 50 
L 40.375 50 
L 40.375 32.515625 
Q 40.375 29.5 39.234375 26.8125 
Q 38.09375 24.125 36.078125 22.125 
Q 34.078125 20.125 31.390625 18.96875 
Q 28.71875 17.828125 25.6875 17.828125 
L 17 17.828125 
Q 15.96875 17.828125 15.03125 17.40625 
Q 14.109375 17 13.40625 16.3125 
Q 12.703125 15.625 12.3125 14.671875 
Q 11.921875 13.71875 11.921875 12.703125 
Q 11.921875 11.671875 12.3125 10.734375 
Q 12.703125 9.8125 13.40625 9.109375 
Q 14.109375 8.40625 15.03125 8.015625 
Q 15.96875 7.625 17 7.625 
L 25.203125 7.625 
Q 28.21875 7.625 30.90625 6.609375 
Q 33.59375 5.609375 35.59375 3.796875 
Q 37.59375 2 38.734375 -0.53125 
Q 39.890625 -3.078125 39.890625 -6.109375 
L 39.890625 -6.296875 
z
M 34.421875 36.625 
Q 34.421875 38.421875 33.734375 40.015625 
Q 33.0625 41.609375 31.859375 42.78125 
Q 30.671875 43.953125 29.078125 44.625 
Q 27.484375 45.3125 25.6875 45.3125 
L 20.703125 45.3125 
Q 18.890625 45.3125 17.296875 44.625 
Q 15.71875 43.953125 14.546875 42.78125 
Q 13.375 41.609375 12.6875 40.015625 
Q 12.015625 38.421875 12.015625 36.625 
L 12.015625 32.171875 
Q 12.015625 30.375 12.6875 28.78125 
Q 13.375 27.203125 14.546875 26.03125 
Q 15.71875 24.859375 17.296875 24.171875 
Q 18.890625 23.484375 20.703125 23.484375 
L 25.6875 23.484375 
Q 27.484375 23.484375 29.078125 24.171875 
Q 30.671875 24.859375 31.859375 26.03125 
Q 33.0625 27.203125 33.734375 28.78125 
Q 34.421875 30.375 34.421875 32.171875 
z
M 34.1875 -5.8125 
Q 34.1875 -4 33.5 -2.5625 
Q 32.8125 -1.125 31.640625 -0.140625 
Q 30.46875 0.828125 28.875 1.359375 
Q 27.296875 1.90625 25.484375 1.90625 
L 22.40625 1.90625 
Q 20.609375 1.90625 19.015625 1.359375 
Q 17.4375 0.828125 16.265625 -0.140625 
Q 15.09375 -1.125 14.40625 -2.5625 
Q 13.71875 -4 13.71875 -5.8125 
L 13.71875 -6.59375 
Q 13.71875 -8.40625 14.40625 -9.8125 
Q 15.09375 -11.234375 16.265625 -12.234375 
Q 17.4375 -13.234375 19.015625 -13.765625 
Q 20.609375 -14.3125 22.40625 -14.3125 
L 25.484375 -14.3125 
Q 27.296875 -14.3125 28.875 -13.765625 
Q 30.46875 -13.234375 31.640625 -12.234375 
Q 32.8125 -11.234375 33.5 -9.8125 
Q 34.1875 -8.40625 34.1875 -6.59375 
z
" id="Abel-Regular-67"/>
      <path d="M 58.796875 0 
L 58.796875 36.625 
Q 58.796875 38.421875 58.109375 40.015625 
Q 57.421875 41.609375 56.25 42.78125 
Q 55.078125 43.953125 53.484375 44.625 
Q 51.90625 45.3125 50.09375 45.3125 
L 47.125 45.3125 
Q 45.3125 45.3125 43.71875 44.625 
Q 42.140625 43.953125 40.9375 42.78125 
Q 39.75 41.609375 39.0625 40.015625 
Q 38.375 38.421875 38.375 36.625 
L 38.375 0 
L 32.421875 0 
L 32.421875 36.625 
Q 32.421875 38.421875 31.734375 40.015625 
Q 31.0625 41.609375 29.859375 42.78125 
Q 28.65625 43.953125 27.0625 44.625 
Q 25.484375 45.3125 23.6875 45.3125 
L 20.703125 45.3125 
Q 18.890625 45.3125 17.296875 44.625 
Q 15.71875 43.953125 14.546875 42.78125 
Q 13.375 41.609375 12.6875 40.015625 
Q 12.015625 38.421875 12.015625 36.625 
L 12.015625 0 
L 6 0 
L 6 50 
L 8.015625 50 
L 11.28125 44.921875 
Q 13.328125 47.703125 16.421875 49.34375 
Q 19.53125 50.984375 23.1875 50.984375 
L 23.6875 50.984375 
Q 27.9375 50.984375 31.34375 48.875 
Q 34.765625 46.78125 36.625 43.3125 
Q 37.546875 45.015625 38.90625 46.4375 
Q 40.28125 47.859375 41.9375 48.859375 
Q 43.609375 49.859375 45.5625 50.421875 
Q 47.515625 50.984375 49.609375 50.984375 
L 50.09375 50.984375 
Q 53.125 50.984375 55.8125 49.828125 
Q 58.5 48.6875 60.5 46.671875 
Q 62.5 44.671875 63.640625 41.984375 
Q 64.796875 39.3125 64.796875 36.28125 
L 64.796875 0 
z
" id="Abel-Regular-6d"/>
      <path d="M 37.40625 0 
L 34.078125 4.984375 
Q 32.03125 2.296875 28.953125 0.65625 
Q 25.875 -0.984375 22.21875 -0.984375 
L 20.703125 -0.984375 
Q 17.671875 -0.984375 14.984375 0.15625 
Q 12.3125 1.3125 10.296875 3.3125 
Q 8.296875 5.328125 7.140625 8 
Q 6 10.6875 6 13.71875 
L 6 14.203125 
Q 6 17.234375 7.140625 19.921875 
Q 8.296875 22.609375 10.296875 24.609375 
Q 12.3125 26.609375 14.984375 27.75 
Q 17.671875 28.90625 20.703125 28.90625 
L 33.40625 28.90625 
L 33.40625 36.625 
Q 33.40625 38.421875 32.71875 40.015625 
Q 32.03125 41.609375 30.859375 42.78125 
Q 29.6875 43.953125 28.09375 44.625 
Q 26.515625 45.3125 24.703125 45.3125 
L 21.1875 45.3125 
Q 19.390625 45.3125 17.796875 44.625 
Q 16.21875 43.953125 15.046875 42.78125 
Q 13.875 41.609375 13.1875 40.015625 
Q 12.5 38.421875 12.5 36.625 
L 12.5 34.8125 
L 6.5 35.796875 
L 6.5 36.28125 
Q 6.5 39.3125 7.640625 41.984375 
Q 8.796875 44.671875 10.796875 46.671875 
Q 12.796875 48.6875 15.484375 49.828125 
Q 18.171875 50.984375 21.1875 50.984375 
L 24.703125 50.984375 
Q 27.734375 50.984375 30.421875 49.828125 
Q 33.109375 48.6875 35.109375 46.671875 
Q 37.109375 44.671875 38.25 41.984375 
Q 39.40625 39.3125 39.40625 36.28125 
L 39.40625 0 
z
M 33.40625 24.21875 
L 20.703125 24.21875 
Q 18.890625 24.21875 17.296875 23.53125 
Q 15.71875 22.859375 14.546875 21.65625 
Q 13.375 20.453125 12.6875 18.859375 
Q 12.015625 17.28125 12.015625 15.484375 
L 12.015625 13.375 
Q 12.015625 11.578125 12.6875 9.984375 
Q 13.375 8.40625 14.546875 7.234375 
Q 15.71875 6.0625 17.296875 5.375 
Q 18.890625 4.6875 20.703125 4.6875 
L 24.703125 4.6875 
Q 26.515625 4.6875 28.09375 5.375 
Q 29.6875 6.0625 30.859375 7.234375 
Q 32.03125 8.40625 32.71875 9.984375 
Q 33.40625 11.578125 33.40625 13.375 
z
" id="Abel-Regular-61"/>
      <path d="M 8.015625 0 
L 8.015625 70.015625 
L 14.015625 70.015625 
L 14.015625 0 
z
" id="Abel-Regular-6c"/>
      <path d="M 23.1875 64.3125 
Q 21.6875 64.3125 20.390625 63.75 
Q 19.09375 63.1875 18.109375 62.203125 
Q 17.140625 61.234375 16.578125 59.90625 
Q 16.015625 58.59375 16.015625 57.078125 
L 16.015625 50 
L 27.6875 50 
L 27.6875 44.28125 
L 16.015625 44.28125 
L 16.015625 0 
L 10.015625 0 
L 10.015625 44.28125 
L 0.984375 44.28125 
L 0.984375 50 
L 10.015625 50 
L 10.015625 56.78125 
Q 10.015625 59.515625 11.03125 61.9375 
Q 12.0625 64.359375 13.859375 66.15625 
Q 15.671875 67.96875 18.0625 68.984375 
Q 20.453125 70.015625 23.1875 70.015625 
L 28.71875 70.015625 
L 28.71875 64.3125 
z
" id="Abel-Regular-66"/>
      <path id="Abel-Regular-20"/>
      <path d="M 37.40625 0 
L 34.078125 5.078125 
Q 32.03125 2.296875 28.953125 0.65625 
Q 25.875 -0.984375 22.21875 -0.984375 
L 20.703125 -0.984375 
Q 17.671875 -0.984375 14.984375 0.15625 
Q 12.3125 1.3125 10.296875 3.3125 
Q 8.296875 5.328125 7.140625 8 
Q 6 10.6875 6 13.71875 
L 6 50 
L 12.015625 50 
L 12.015625 13.375 
Q 12.015625 11.578125 12.6875 9.984375 
Q 13.375 8.40625 14.546875 7.234375 
Q 15.71875 6.0625 17.296875 5.375 
Q 18.890625 4.6875 20.703125 4.6875 
L 24.703125 4.6875 
Q 26.515625 4.6875 28.09375 5.375 
Q 29.6875 6.0625 30.859375 7.234375 
Q 32.03125 8.40625 32.71875 9.984375 
Q 33.40625 11.578125 33.40625 13.375 
L 33.40625 50 
L 39.40625 50 
L 39.40625 0 
z
" id="Abel-Regular-75"/>
      <path d="M 37.40625 0 
L 34.078125 5.078125 
Q 32.03125 2.296875 28.953125 0.65625 
Q 25.875 -0.984375 22.21875 -0.984375 
L 20.703125 -0.984375 
Q 17.671875 -0.984375 14.984375 0.15625 
Q 12.3125 1.3125 10.296875 3.3125 
Q 8.296875 5.328125 7.140625 8 
Q 6 10.6875 6 13.71875 
L 6 36.28125 
Q 6 39.3125 7.140625 41.984375 
Q 8.296875 44.671875 10.296875 46.671875 
Q 12.3125 48.6875 14.984375 49.828125 
Q 17.671875 50.984375 20.703125 50.984375 
L 22.21875 50.984375 
Q 25.59375 50.984375 28.46875 49.609375 
Q 31.34375 48.25 33.40625 45.796875 
L 33.40625 70.015625 
L 39.40625 70.015625 
L 39.40625 0 
z
M 33.40625 36.625 
Q 33.40625 38.421875 32.71875 40.015625 
Q 32.03125 41.609375 30.859375 42.78125 
Q 29.6875 43.953125 28.09375 44.625 
Q 26.515625 45.3125 24.703125 45.3125 
L 20.703125 45.3125 
Q 18.890625 45.3125 17.296875 44.625 
Q 15.71875 43.953125 14.546875 42.78125 
Q 13.375 41.609375 12.6875 40.015625 
Q 12.015625 38.421875 12.015625 36.625 
L 12.015625 13.375 
Q 12.015625 11.578125 12.6875 9.984375 
Q 13.375 8.40625 14.546875 7.234375 
Q 15.71875 6.0625 17.296875 5.375 
Q 18.890625 4.6875 20.703125 4.6875 
L 24.703125 4.6875 
Q 26.515625 4.6875 28.09375 5.375 
Q 29.6875 6.0625 30.859375 7.234375 
Q 32.03125 8.40625 32.71875 9.984375 
Q 33.40625 11.578125 33.40625 13.375 
z
" id="Abel-Regular-64"/>
      <path d="M 20.703125 44.28125 
Q 18.890625 44.28125 17.296875 43.59375 
Q 15.71875 42.921875 14.546875 41.75 
Q 13.375 40.578125 12.6875 38.984375 
Q 12.015625 37.40625 12.015625 35.59375 
L 12.015625 0 
L 6 0 
L 6 50 
L 8.015625 50 
L 11.28125 44.921875 
Q 13.328125 47.703125 16.421875 49.34375 
Q 19.53125 50.984375 23.1875 50.984375 
L 26.703125 50.984375 
L 26.703125 44.28125 
z
" id="Abel-Regular-72"/>
      <path d="M 33.40625 0 
L 33.40625 36.625 
Q 33.40625 38.421875 32.71875 40.015625 
Q 32.03125 41.609375 30.859375 42.78125 
Q 29.6875 43.953125 28.09375 44.625 
Q 26.515625 45.3125 24.703125 45.3125 
L 20.703125 45.3125 
Q 18.890625 45.3125 17.296875 44.625 
Q 15.71875 43.953125 14.546875 42.78125 
Q 13.375 41.609375 12.6875 40.015625 
Q 12.015625 38.421875 12.015625 36.625 
L 12.015625 0 
L 6 0 
L 6 50 
L 8.015625 50 
L 11.28125 44.921875 
Q 13.328125 47.703125 16.421875 49.34375 
Q 19.53125 50.984375 23.1875 50.984375 
L 24.703125 50.984375 
Q 27.734375 50.984375 30.421875 49.828125 
Q 33.109375 48.6875 35.109375 46.671875 
Q 37.109375 44.671875 38.25 41.984375 
Q 39.40625 39.3125 39.40625 36.28125 
L 39.40625 0 
z
" id="Abel-Regular-6e"/>
      <path d="M 39.40625 13.71875 
Q 39.40625 10.6875 38.25 8 
Q 37.109375 5.328125 35.109375 3.3125 
Q 33.109375 1.3125 30.421875 0.15625 
Q 27.734375 -0.984375 24.703125 -0.984375 
L 20.703125 -0.984375 
Q 17.671875 -0.984375 14.984375 0.15625 
Q 12.3125 1.3125 10.296875 3.3125 
Q 8.296875 5.328125 7.140625 8 
Q 6 10.6875 6 13.71875 
L 6 36.28125 
Q 6 39.3125 7.140625 41.984375 
Q 8.296875 44.671875 10.296875 46.671875 
Q 12.3125 48.6875 14.984375 49.828125 
Q 17.671875 50.984375 20.703125 50.984375 
L 24.703125 50.984375 
Q 27.734375 50.984375 30.421875 49.828125 
Q 33.109375 48.6875 35.109375 46.671875 
Q 37.109375 44.671875 38.25 41.984375 
Q 39.40625 39.3125 39.40625 36.28125 
L 39.40625 13.71875 
z
M 33.40625 36.625 
Q 33.40625 38.421875 32.71875 40.015625 
Q 32.03125 41.609375 30.859375 42.78125 
Q 29.6875 43.953125 28.09375 44.625 
Q 26.515625 45.3125 24.703125 45.3125 
L 20.703125 45.3125 
Q 18.890625 45.3125 17.296875 44.625 
Q 15.71875 43.953125 14.546875 42.78125 
Q 13.375 41.609375 12.6875 40.015625 
Q 12.015625 38.421875 12.015625 36.625 
L 12.015625 13.375 
Q 12.015625 11.578125 12.6875 9.984375 
Q 13.375 8.40625 14.546875 7.234375 
Q 15.71875 6.0625 17.296875 5.375 
Q 18.890625 4.6875 20.703125 4.6875 
L 24.703125 4.6875 
Q 26.515625 4.6875 28.09375 5.375 
Q 29.6875 6.0625 30.859375 7.234375 
Q 32.03125 8.40625 32.71875 9.984375 
Q 33.40625 11.578125 33.40625 13.375 
z
" id="Abel-Regular-6f"/>
      <path d="M 4.984375 -14.59375 
L 16.890625 -14.59375 
L 16.890625 73 
L 4.984375 73 
L 4.984375 78.421875 
L 22.90625 78.421875 
L 22.90625 -20.015625 
L 4.984375 -20.015625 
z
" id="Abel-Regular-5d"/>
      <path d="M 39.40625 13.71875 
Q 39.40625 10.6875 38.25 8 
Q 37.109375 5.328125 35.109375 3.3125 
Q 33.109375 1.3125 30.421875 0.15625 
Q 27.734375 -0.984375 24.703125 -0.984375 
L 20.703125 -0.984375 
Q 17.671875 -0.984375 14.984375 0.15625 
Q 12.3125 1.3125 10.296875 3.3125 
Q 8.296875 5.328125 7.140625 8 
Q 6 10.6875 6 13.71875 
L 6 36.28125 
Q 6 39.3125 7.140625 41.984375 
Q 8.296875 44.671875 10.296875 46.671875 
Q 12.3125 48.6875 14.984375 49.828125 
Q 17.671875 50.984375 20.703125 50.984375 
L 24.703125 50.984375 
Q 27.734375 50.984375 30.421875 49.828125 
Q 33.109375 48.6875 35.109375 46.671875 
Q 37.109375 44.671875 38.25 41.984375 
Q 39.40625 39.3125 39.40625 36.28125 
L 39.40625 24.515625 
L 12.015625 24.515625 
L 12.015625 13.375 
Q 12.015625 11.578125 12.6875 9.984375 
Q 13.375 8.40625 14.546875 7.234375 
Q 15.71875 6.0625 17.296875 5.375 
Q 18.890625 4.6875 20.703125 4.6875 
L 24.703125 4.6875 
Q 26.515625 4.6875 28.09375 5.375 
Q 29.6875 6.0625 30.859375 7.234375 
Q 32.03125 8.40625 32.71875 9.984375 
Q 33.40625 11.578125 33.40625 13.375 
L 33.40625 16.703125 
L 39.40625 15.71875 
L 39.40625 13.71875 
z
M 33.40625 36.625 
Q 33.40625 38.421875 32.71875 40.015625 
Q 32.03125 41.609375 30.859375 42.78125 
Q 29.6875 43.953125 28.09375 44.625 
Q 26.515625 45.3125 24.703125 45.3125 
L 20.703125 45.3125 
Q 18.890625 45.3125 17.296875 44.625 
Q 15.71875 43.953125 14.546875 42.78125 
Q 13.375 41.609375 12.6875 40.015625 
Q 12.015625 38.421875 12.015625 36.625 
L 12.015625 29.203125 
L 33.40625 29.203125 
z
" id="Abel-Regular-65"/>
      <path d="M 7.515625 62.015625 
L 7.515625 70.015625 
L 14.5 70.015625 
L 14.5 62.015625 
z
M 8.015625 0 
L 8.015625 50 
L 14.015625 50 
L 14.015625 0 
z
" id="Abel-Regular-69"/>
      <path d="M 24.21875 0 
Q 21.484375 0 19.0625 1.015625 
Q 16.65625 2.046875 14.875 3.859375 
Q 13.09375 5.671875 12.03125 8.0625 
Q 10.984375 10.453125 10.984375 13.1875 
L 10.984375 44.28125 
L 2 44.28125 
L 2 50 
L 10.984375 50 
L 10.984375 62.015625 
L 17 62.984375 
L 17 50 
L 29.6875 50 
L 29.6875 44.28125 
L 17 44.28125 
L 17 12.890625 
Q 17 11.375 17.546875 10.078125 
Q 18.109375 8.796875 19.078125 7.8125 
Q 20.0625 6.84375 21.375 6.28125 
Q 22.703125 5.71875 24.21875 5.71875 
L 29.6875 5.71875 
L 29.6875 0 
z
" id="Abel-Regular-74"/>
      <path d="M 25.875 -20.015625 
L 8.015625 -20.015625 
L 8.015625 78.421875 
L 25.875 78.421875 
L 25.875 73 
L 14.015625 73 
L 14.015625 -14.59375 
L 25.875 -14.59375 
z
" id="Abel-Regular-5b"/>
     </defs>
     <g transform="translate(236.874375 394.014375)scale(0.12 -0.12)">
      <use xlink:href="#Abel-Regular-64"/>
      <use x="45.41015625" xlink:href="#Abel-Regular-69"/>
      <use x="67.431640625" xlink:href="#Abel-Regular-66"/>
      <use x="96.142578125" xlink:href="#Abel-Regular-65"/>
      <use x="141.552734375" xlink:href="#Abel-Regular-72"/>
      <use x="170.263671875" xlink:href="#Abel-Regular-65"/>
      <use x="215.673828125" xlink:href="#Abel-Regular-6e"/>
      <use x="261.083984375" xlink:href="#Abel-Regular-63"/>
      <use x="306.494140625" xlink:href="#Abel-Regular-69"/>
      <use x="328.515625" xlink:href="#Abel-Regular-61"/>
      <use x="373.92578125" xlink:href="#Abel-Regular-20"/>
      <use x="396.923828125" xlink:href="#Abel-Regular-65"/>
      <use x="442.333984375" xlink:href="#Abel-Regular-6e"/>
      <use x="487.744140625" xlink:href="#Abel-Regular-20"/>
      <use x="510.7421875" xlink:href="#Abel-Regular-6c"/>
      <use x="532.748046875" xlink:href="#Abel-Regular-6f"/>
      <use x="578.158203125" xlink:href="#Abel-Regular-6e"/>
      <use x="623.568359375" xlink:href="#Abel-Regular-67"/>
      <use x="668.978515625" xlink:href="#Abel-Regular-69"/>
      <use x="691.0" xlink:href="#Abel-Regular-74"/>
      <use x="725.716796875" xlink:href="#Abel-Regular-75"/>
      <use x="771.126953125" xlink:href="#Abel-Regular-64"/>
      <use x="816.537109375" xlink:href="#Abel-Regular-20"/>
      <use x="839.53515625" xlink:href="#Abel-Regular-5b"/>
      <use x="870.443359375" xlink:href="#Abel-Regular-6d"/>
      <use x="941.244140625" xlink:href="#Abel-Regular-5d"/>
     </g>
    </g>
   </g>
   <g id="matplotlib.axis_2">
    <g id="ytick_1">
     <g id="line2d_24">
      <path clip-path="url(#ped3b9811e3)" d="M 72 364.8 
L 518.4 364.8 
" style="fill:none;stroke:#000000;stroke-dasharray:1.000000,3.000000;stroke-dashoffset:0.0;stroke-width:0.5;"/>
     </g>
     <g id="line2d_25">
      <defs>
       <path d="M 0 0 
L 4 0 
" id="m36f943d9e6" style="stroke:#000000;stroke-width:0.5;"/>
      </defs>
      <g>
       <use style="stroke:#000000;stroke-width:0.5;" x="72.0" xlink:href="#m36f943d9e6" y="364.8"/>
      </g>
     </g>
     <g id="line2d_26">
      <defs>
       <path d="M 0 0 
L -4 0 
" id="mc860d329ce" style="stroke:#000000;stroke-width:0.5;"/>
      </defs>
      <g>
       <use style="stroke:#000000;stroke-width:0.5;" x="518.4" xlink:href="#mc860d329ce" y="364.8"/>
      </g>
     </g>
     <g id="text_9">
      <!-- −0.010 -->
      <g transform="translate(33.75125 367.8)scale(0.12 -0.12)">
       <use xlink:href="#Abel-Regular-2212"/>
       <use x="58.0078125" xlink:href="#Abel-Regular-30"/>
       <use x="109.392578125" xlink:href="#Abel-Regular-2e"/>
       <use x="130.845703125" xlink:href="#Abel-Regular-30"/>
       <use x="182.26171875" xlink:href="#Abel-Regular-31"/>
       <use x="233.970703125" xlink:href="#Abel-Regular-30"/>
      </g>
     </g>
    </g>
    <g id="ytick_2">
     <g id="line2d_27">
      <path clip-path="url(#ped3b9811e3)" d="M 72 290.4 
L 518.4 290.4 
" style="fill:none;stroke:#000000;stroke-dasharray:1.000000,3.000000;stroke-dashoffset:0.0;stroke-width:0.5;"/>
     </g>
     <g id="line2d_28">
      <g>
       <use style="stroke:#000000;stroke-width:0.5;" x="72.0" xlink:href="#m36f943d9e6" y="290.4"/>
      </g>
     </g>
     <g id="line2d_29">
      <g>
       <use style="stroke:#000000;stroke-width:0.5;" x="518.4" xlink:href="#mc860d329ce" y="290.4"/>
      </g>
     </g>
     <g id="text_10">
      <!-- −0.005 -->
      <g transform="translate(33.786875 293.4)scale(0.12 -0.12)">
       <use xlink:href="#Abel-Regular-2212"/>
       <use x="58.0078125" xlink:href="#Abel-Regular-30"/>
       <use x="109.392578125" xlink:href="#Abel-Regular-2e"/>
       <use x="130.845703125" xlink:href="#Abel-Regular-30"/>
       <use x="182.26171875" xlink:href="#Abel-Regular-30"/>
       <use x="233.662109375" xlink:href="#Abel-Regular-35"/>
      </g>
     </g>
    </g>
    <g id="ytick_3">
     <g id="line2d_30">
      <path clip-path="url(#ped3b9811e3)" d="M 72 216 
L 518.4 216 
" style="fill:none;stroke:#000000;stroke-dasharray:1.000000,3.000000;stroke-dashoffset:0.0;stroke-width:0.5;"/>
     </g>
     <g id="line2d_31">
      <g>
       <use style="stroke:#000000;stroke-width:0.5;" x="72.0" xlink:href="#m36f943d9e6" y="216.0"/>
      </g>
     </g>
     <g id="line2d_32">
      <g>
       <use style="stroke:#000000;stroke-width:0.5;" x="518.4" xlink:href="#mc860d329ce" y="216.0"/>
      </g>
     </g>
     <g id="text_11">
      <!-- 0.000 -->
      <g transform="translate(40.746875 219.0)scale(0.12 -0.12)">
       <use xlink:href="#Abel-Regular-30"/>
       <use x="51.384765625" xlink:href="#Abel-Regular-2e"/>
       <use x="72.837890625" xlink:href="#Abel-Regular-30"/>
       <use x="124.25390625" xlink:href="#Abel-Regular-30"/>
       <use x="175.669921875" xlink:href="#Abel-Regular-30"/>
      </g>
     </g>
    </g>
    <g id="ytick_4">
     <g id="line2d_33">
      <path clip-path="url(#ped3b9811e3)" d="M 72 141.6 
L 518.4 141.6 
" style="fill:none;stroke:#000000;stroke-dasharray:1.000000,3.000000;stroke-dashoffset:0.0;stroke-width:0.5;"/>
     </g>
     <g id="line2d_34">
      <g>
       <use style="stroke:#000000;stroke-width:0.5;" x="72.0" xlink:href="#m36f943d9e6" y="141.6"/>
      </g>
     </g>
     <g id="line2d_35">
      <g>
       <use style="stroke:#000000;stroke-width:0.5;" x="518.4" xlink:href="#mc860d329ce" y="141.6"/>
      </g>
     </g>
     <g id="text_12">
      <!-- 0.005 -->
      <g transform="translate(40.74875 144.6)scale(0.12 -0.12)">
       <use xlink:href="#Abel-Regular-30"/>
       <use x="51.384765625" xlink:href="#Abel-Regular-2e"/>
       <use x="72.837890625" xlink:href="#Abel-Regular-30"/>
       <use x="124.25390625" xlink:href="#Abel-Regular-30"/>
       <use x="175.654296875" xlink:href="#Abel-Regular-35"/>
      </g>
     </g>
    </g>
    <g id="ytick_5">
     <g id="line2d_36">
      <path clip-path="url(#ped3b9811e3)" d="M 72 67.2 
L 518.4 67.2 
" style="fill:none;stroke:#000000;stroke-dasharray:1.000000,3.000000;stroke-dashoffset:0.0;stroke-width:0.5;"/>
     </g>
     <g id="line2d_37">
      <g>
       <use style="stroke:#000000;stroke-width:0.5;" x="72.0" xlink:href="#m36f943d9e6" y="67.2"/>
      </g>
     </g>
     <g id="line2d_38">
      <g>
       <use style="stroke:#000000;stroke-width:0.5;" x="518.4" xlink:href="#mc860d329ce" y="67.2"/>
      </g>
     </g>
     <g id="text_13">
      <!-- 0.010 -->
      <g transform="translate(40.713125 70.2)scale(0.12 -0.12)">
       <use xlink:href="#Abel-Regular-30"/>
       <use x="51.384765625" xlink:href="#Abel-Regular-2e"/>
       <use x="72.837890625" xlink:href="#Abel-Regular-30"/>
       <use x="124.25390625" xlink:href="#Abel-Regular-31"/>
       <use x="175.962890625" xlink:href="#Abel-Regular-30"/>
      </g>
     </g>
    </g>
    <g id="text_14">
     <!-- diferencia en latitud [m] -->
     <g transform="translate(26.349375 270.9609375)rotate(-90.0)scale(0.12 -0.12)">
      <use xlink:href="#Abel-Regular-64"/>
      <use x="45.41015625" xlink:href="#Abel-Regular-69"/>
      <use x="67.431640625" xlink:href="#Abel-Regular-66"/>
      <use x="96.142578125" xlink:href="#Abel-Regular-65"/>
      <use x="141.552734375" xlink:href="#Abel-Regular-72"/>
      <use x="170.263671875" xlink:href="#Abel-Regular-65"/>
      <use x="215.673828125" xlink:href="#Abel-Regular-6e"/>
      <use x="261.083984375" xlink:href="#Abel-Regular-63"/>
      <use x="306.494140625" xlink:href="#Abel-Regular-69"/>
      <use x="328.515625" xlink:href="#Abel-Regular-61"/>
      <use x="373.92578125" xlink:href="#Abel-Regular-20"/>
      <use x="396.923828125" xlink:href="#Abel-Regular-65"/>
      <use x="442.333984375" xlink:href="#Abel-Regular-6e"/>
      <use x="487.744140625" xlink:href="#Abel-Regular-20"/>
      <use x="510.7421875" xlink:href="#Abel-Regular-6c"/>
      <use x="532.763671875" xlink:href="#Abel-Regular-61"/>
      <use x="578.173828125" xlink:href="#Abel-Regular-74"/>
      <use x="612.890625" xlink:href="#Abel-Regular-69"/>
      <use x="634.912109375" xlink:href="#Abel-Regular-74"/>
      <use x="669.62890625" xlink:href="#Abel-Regular-75"/>
      <use x="715.0390625" xlink:href="#Abel-Regular-64"/>
      <use x="760.44921875" xlink:href="#Abel-Regular-20"/>
      <use x="783.447265625" xlink:href="#Abel-Regular-5b"/>
      <use x="814.35546875" xlink:href="#Abel-Regular-6d"/>
      <use x="885.15625" xlink:href="#Abel-Regular-5d"/>
     </g>
    </g>
   </g>
   <g id="text_15">
    <!-- a=0.011 -->
    <defs>
     <path d="M 58.015625 47.515625 
L 58.015625 41.21875 
L 8.015625 41.21875 
L 8.015625 47.515625 
z
M 58.015625 28.90625 
L 58.015625 22.609375 
L 8.015625 22.609375 
L 8.015625 28.90625 
z
" id="Abel-Regular-3d"/>
    </defs>
    <g transform="translate(414.128484531 210.903064949)scale(0.12 -0.12)">
     <use xlink:href="#Abel-Regular-61"/>
     <use x="45.41015625" xlink:href="#Abel-Regular-3d"/>
     <use x="111.42578125" xlink:href="#Abel-Regular-30"/>
     <use x="162.810546875" xlink:href="#Abel-Regular-2e"/>
     <use x="184.263671875" xlink:href="#Abel-Regular-30"/>
     <use x="235.6796875" xlink:href="#Abel-Regular-31"/>
     <use x="287.388671875" xlink:href="#Abel-Regular-31"/>
    </g>
   </g>
   <g id="text_16">
    <!-- b=0.008 -->
    <defs>
     <path d="M 44.390625 16.21875 
Q 44.390625 12.640625 43.046875 9.515625 
Q 41.703125 6.390625 39.359375 4.046875 
Q 37.015625 1.703125 33.890625 0.359375 
Q 30.765625 -0.984375 27.203125 -0.984375 
L 24.21875 -0.984375 
Q 20.65625 -0.984375 17.5 0.359375 
Q 14.359375 1.703125 12.015625 4.046875 
Q 9.671875 6.390625 8.328125 9.515625 
Q 6.984375 12.640625 6.984375 16.21875 
L 6.984375 22.015625 
Q 6.984375 26.46875 9.0625 30.15625 
Q 11.140625 33.84375 14.5 36.1875 
Q 11.140625 38.53125 9.0625 42.234375 
Q 6.984375 45.953125 6.984375 50.390625 
L 6.984375 53.8125 
Q 6.984375 57.375 8.328125 60.5 
Q 9.671875 63.625 12.015625 65.96875 
Q 14.359375 68.3125 17.5 69.65625 
Q 20.65625 71 24.21875 71 
L 27.203125 71 
Q 30.765625 71 33.890625 69.65625 
Q 37.015625 68.3125 39.359375 65.96875 
Q 41.703125 63.625 43.046875 60.5 
Q 44.390625 57.375 44.390625 53.8125 
L 44.390625 50.390625 
Q 44.390625 45.953125 42.328125 42.234375 
Q 40.28125 38.53125 36.921875 36.1875 
Q 40.28125 33.84375 42.328125 30.15625 
Q 44.390625 26.46875 44.390625 22.015625 
L 44.390625 16.21875 
z
M 38.09375 53.8125 
Q 38.09375 56.15625 37.203125 58.171875 
Q 36.328125 60.203125 34.8125 61.71875 
Q 33.296875 63.234375 31.265625 64.109375 
Q 29.25 64.984375 26.90625 64.984375 
L 24.515625 64.984375 
Q 22.171875 64.984375 20.140625 64.109375 
Q 18.109375 63.234375 16.578125 61.71875 
Q 15.046875 60.203125 14.15625 58.171875 
Q 13.28125 56.15625 13.28125 53.8125 
L 13.28125 50.390625 
Q 13.28125 48.046875 14.15625 46.015625 
Q 15.046875 44 16.578125 42.484375 
Q 18.109375 40.96875 20.140625 40.078125 
Q 22.171875 39.203125 24.515625 39.203125 
L 26.90625 39.203125 
Q 29.25 39.203125 31.265625 40.078125 
Q 33.296875 40.96875 34.8125 42.484375 
Q 36.328125 44 37.203125 46.015625 
Q 38.09375 48.046875 38.09375 50.390625 
z
M 38.09375 22.015625 
Q 38.09375 24.359375 37.203125 26.390625 
Q 36.328125 28.421875 34.8125 29.9375 
Q 33.296875 31.453125 31.265625 32.328125 
Q 29.25 33.203125 26.90625 33.203125 
L 24.515625 33.203125 
Q 22.171875 33.203125 20.140625 32.328125 
Q 18.109375 31.453125 16.578125 29.9375 
Q 15.046875 28.421875 14.15625 26.390625 
Q 13.28125 24.359375 13.28125 22.015625 
L 13.28125 16.21875 
Q 13.28125 13.875 14.15625 11.84375 
Q 15.046875 9.8125 16.578125 8.265625 
Q 18.109375 6.734375 20.140625 5.859375 
Q 22.171875 4.984375 24.515625 4.984375 
L 26.90625 4.984375 
Q 29.25 4.984375 31.265625 5.859375 
Q 33.296875 6.734375 34.8125 8.265625 
Q 36.328125 9.8125 37.203125 11.84375 
Q 38.09375 13.875 38.09375 16.21875 
z
" id="Abel-Regular-38"/>
     <path d="M 39.40625 13.71875 
Q 39.40625 10.6875 38.25 8 
Q 37.109375 5.328125 35.109375 3.3125 
Q 33.109375 1.3125 30.421875 0.15625 
Q 27.734375 -0.984375 24.703125 -0.984375 
L 20.703125 -0.984375 
Q 17.671875 -0.984375 14.984375 0.15625 
Q 12.3125 1.3125 10.296875 3.3125 
Q 8.296875 5.328125 7.140625 8 
Q 6 10.6875 6 13.71875 
L 6 70.015625 
L 12.015625 70.015625 
L 12.015625 45.796875 
Q 14.0625 48.25 16.9375 49.609375 
Q 19.828125 50.984375 23.1875 50.984375 
L 24.703125 50.984375 
Q 27.734375 50.984375 30.421875 49.828125 
Q 33.109375 48.6875 35.109375 46.671875 
Q 37.109375 44.671875 38.25 41.984375 
Q 39.40625 39.3125 39.40625 36.28125 
L 39.40625 13.71875 
z
M 33.40625 36.625 
Q 33.40625 38.421875 32.71875 40.015625 
Q 32.03125 41.609375 30.859375 42.78125 
Q 29.6875 43.953125 28.09375 44.625 
Q 26.515625 45.3125 24.703125 45.3125 
L 20.703125 45.3125 
Q 18.890625 45.3125 17.296875 44.625 
Q 15.71875 43.953125 14.546875 42.78125 
Q 13.375 41.609375 12.6875 40.015625 
Q 12.015625 38.421875 12.015625 36.625 
L 12.015625 13.375 
Q 12.015625 11.578125 12.6875 9.984375 
Q 13.375 8.40625 14.546875 7.234375 
Q 15.71875 6.0625 17.296875 5.375 
Q 18.890625 4.6875 20.703125 4.6875 
L 24.703125 4.6875 
Q 26.515625 4.6875 28.09375 5.375 
Q 29.6875 6.0625 30.859375 7.234375 
Q 32.03125 8.40625 32.71875 9.984375 
Q 33.40625 11.578125 33.40625 13.375 
z
" id="Abel-Regular-62"/>
    </defs>
    <g transform="translate(307.121726803 148.490865581)rotate(-90.0)scale(0.12 -0.12)">
     <use xlink:href="#Abel-Regular-62"/>
     <use x="45.41015625" xlink:href="#Abel-Regular-3d"/>
     <use x="111.42578125" xlink:href="#Abel-Regular-30"/>
     <use x="162.810546875" xlink:href="#Abel-Regular-2e"/>
     <use x="184.263671875" xlink:href="#Abel-Regular-30"/>
     <use x="235.6796875" xlink:href="#Abel-Regular-30"/>
     <use x="287.080078125" xlink:href="#Abel-Regular-38"/>
    </g>
   </g>
   <g id="text_17">
    <!-- Desvíos UNRO -->
    <defs>
     <path d="M 21.6875 0 
L 18.703125 0 
L 0.984375 50 
L 6.984375 50 
L 20.015625 12.109375 
L 20.21875 9.515625 
L 20.40625 12.109375 
L 33.40625 50 
L 39.40625 50 
z
" id="Abel-Regular-76"/>
     <path d="M 46.390625 16.21875 
Q 46.390625 12.640625 45.046875 9.515625 
Q 43.703125 6.390625 41.359375 4.046875 
Q 39.015625 1.703125 35.890625 0.359375 
Q 32.765625 -0.984375 29.203125 -0.984375 
L 24.21875 -0.984375 
Q 20.65625 -0.984375 17.5 0.359375 
Q 14.359375 1.703125 12.015625 4.046875 
Q 9.671875 6.390625 8.328125 9.515625 
Q 6.984375 12.640625 6.984375 16.21875 
L 6.984375 70.015625 
L 13.28125 70.015625 
L 13.28125 16.21875 
Q 13.28125 13.875 14.15625 11.84375 
Q 15.046875 9.8125 16.578125 8.265625 
Q 18.109375 6.734375 20.140625 5.859375 
Q 22.171875 4.984375 24.515625 4.984375 
L 28.90625 4.984375 
Q 31.25 4.984375 33.265625 5.859375 
Q 35.296875 6.734375 36.8125 8.265625 
Q 38.328125 9.8125 39.203125 11.84375 
Q 40.09375 13.875 40.09375 16.21875 
L 40.09375 70.015625 
L 46.390625 70.015625 
L 46.390625 16.21875 
z
" id="Abel-Regular-55"/>
     <path d="M 8.015625 0 
L 8.015625 50 
L 14.015625 50 
L 14.015625 0 
z
M 8.5 58.015625 
L 4 58.015625 
L 12.015625 70.015625 
L 22.015625 70.015625 
z
" id="Abel-Regular-ed"/>
     <path d="M 47.40625 17.1875 
Q 47.40625 13.625 46.0625 10.5 
Q 44.734375 7.375 42.390625 5.03125 
Q 40.046875 2.6875 36.890625 1.34375 
Q 33.734375 0 30.171875 0 
L 8.015625 0 
L 8.015625 70.015625 
L 30.171875 70.015625 
Q 33.734375 70.015625 36.890625 68.671875 
Q 40.046875 67.328125 42.390625 64.984375 
Q 44.734375 62.640625 46.0625 59.484375 
Q 47.40625 56.34375 47.40625 52.78125 
L 47.40625 17.1875 
z
M 41.109375 52.78125 
Q 41.109375 55.125 40.234375 57.15625 
Q 39.359375 59.1875 37.8125 60.71875 
Q 36.28125 62.25 34.25 63.125 
Q 32.234375 64.015625 29.890625 64.015625 
L 14.3125 64.015625 
L 14.3125 6 
L 29.890625 6 
Q 32.234375 6 34.25 6.875 
Q 36.28125 7.765625 37.8125 9.28125 
Q 39.359375 10.796875 40.234375 12.8125 
Q 41.109375 14.84375 41.109375 17.1875 
z
" id="Abel-Regular-44"/>
     <path d="M 40.921875 0 
L 21.921875 29.890625 
L 13.28125 29.890625 
L 13.28125 0 
L 6.984375 0 
L 6.984375 70.015625 
L 29.203125 70.015625 
Q 32.765625 70.015625 35.890625 68.671875 
Q 39.015625 67.328125 41.359375 64.984375 
Q 43.703125 62.640625 45.046875 59.484375 
Q 46.390625 56.34375 46.390625 52.78125 
L 46.390625 47.125 
Q 46.390625 43.5625 45.046875 40.40625 
Q 43.703125 37.25 41.359375 34.90625 
Q 39.015625 32.5625 35.890625 31.21875 
Q 32.765625 29.890625 29.203125 29.890625 
L 48.1875 0 
z
M 40.09375 52.78125 
Q 40.09375 55.125 39.203125 57.15625 
Q 38.328125 59.1875 36.8125 60.71875 
Q 35.296875 62.25 33.265625 63.125 
Q 31.25 64.015625 28.90625 64.015625 
L 13.28125 64.015625 
L 13.28125 35.890625 
L 28.90625 35.890625 
Q 31.25 35.890625 33.265625 36.765625 
Q 35.296875 37.640625 36.8125 39.171875 
Q 38.328125 40.71875 39.203125 42.75 
Q 40.09375 44.78125 40.09375 47.125 
z
" id="Abel-Regular-52"/>
     <path d="M 40.375 12.703125 
Q 40.375 9.671875 39.15625 7.15625 
Q 37.9375 4.640625 35.828125 2.828125 
Q 33.734375 1.03125 30.96875 0.015625 
Q 28.21875 -0.984375 25.203125 -0.984375 
L 21.1875 -0.984375 
Q 18.171875 -0.984375 15.40625 0.15625 
Q 12.640625 1.3125 10.5625 3.3125 
Q 8.5 5.328125 7.25 8 
Q 6 10.6875 6 13.71875 
L 6 15.71875 
L 12.015625 16.703125 
L 12.015625 13.375 
Q 12.015625 11.578125 12.765625 9.984375 
Q 13.53125 8.40625 14.796875 7.234375 
Q 16.0625 6.0625 17.71875 5.375 
Q 19.390625 4.6875 21.1875 4.6875 
L 25.203125 4.6875 
Q 27 4.6875 28.65625 5.21875 
Q 30.328125 5.765625 31.609375 6.765625 
Q 32.90625 7.765625 33.65625 9.171875 
Q 34.421875 10.59375 34.421875 12.40625 
Q 34.421875 15.09375 33.25 16.796875 
Q 32.078125 18.5 30.140625 19.640625 
Q 28.21875 20.796875 25.75 21.546875 
Q 23.296875 22.3125 20.703125 23.0625 
Q 18.109375 23.828125 15.640625 24.796875 
Q 13.1875 25.78125 11.25 27.359375 
Q 9.328125 28.953125 8.15625 31.34375 
Q 6.984375 33.734375 6.984375 37.3125 
Q 6.984375 40.328125 8.15625 42.84375 
Q 9.328125 45.359375 11.328125 47.15625 
Q 13.328125 48.96875 15.984375 49.96875 
Q 18.65625 50.984375 21.6875 50.984375 
L 25.203125 50.984375 
Q 28.21875 50.984375 30.90625 49.828125 
Q 33.59375 48.6875 35.59375 46.671875 
Q 37.59375 44.671875 38.734375 41.984375 
Q 39.890625 39.3125 39.890625 36.28125 
L 39.890625 36.078125 
L 33.890625 35.109375 
L 33.890625 36.625 
Q 33.890625 38.421875 33.203125 40.015625 
Q 32.515625 41.609375 31.34375 42.78125 
Q 30.171875 43.953125 28.578125 44.625 
Q 27 45.3125 25.203125 45.3125 
L 21.6875 45.3125 
Q 19.875 45.3125 18.28125 44.765625 
Q 16.703125 44.234375 15.53125 43.234375 
Q 14.359375 42.234375 13.671875 40.8125 
Q 12.984375 39.40625 12.984375 37.59375 
Q 12.984375 35.015625 14.15625 33.375 
Q 15.328125 31.734375 17.25 30.609375 
Q 19.1875 29.5 21.65625 28.734375 
Q 24.125 27.984375 26.6875 27.171875 
Q 29.25 26.375 31.71875 25.34375 
Q 34.1875 24.3125 36.109375 22.703125 
Q 38.03125 21.09375 39.203125 18.671875 
Q 40.375 16.265625 40.375 12.703125 
" id="Abel-Regular-73"/>
     <path d="M 46.390625 16.21875 
Q 46.390625 12.640625 45.046875 9.515625 
Q 43.703125 6.390625 41.359375 4.046875 
Q 39.015625 1.703125 35.890625 0.359375 
Q 32.765625 -0.984375 29.203125 -0.984375 
L 24.21875 -0.984375 
Q 20.65625 -0.984375 17.5 0.359375 
Q 14.359375 1.703125 12.015625 4.046875 
Q 9.671875 6.390625 8.328125 9.515625 
Q 6.984375 12.640625 6.984375 16.21875 
L 6.984375 53.8125 
Q 6.984375 57.375 8.328125 60.5 
Q 9.671875 63.625 12.015625 65.96875 
Q 14.359375 68.3125 17.5 69.65625 
Q 20.65625 71 24.21875 71 
L 29.203125 71 
Q 32.765625 71 35.890625 69.65625 
Q 39.015625 68.3125 41.359375 65.96875 
Q 43.703125 63.625 45.046875 60.5 
Q 46.390625 57.375 46.390625 53.8125 
L 46.390625 16.21875 
z
M 40.09375 53.8125 
Q 40.09375 56.15625 39.203125 58.171875 
Q 38.328125 60.203125 36.8125 61.71875 
Q 35.296875 63.234375 33.265625 64.109375 
Q 31.25 64.984375 28.90625 64.984375 
L 24.515625 64.984375 
Q 22.171875 64.984375 20.140625 64.109375 
Q 18.109375 63.234375 16.578125 61.71875 
Q 15.046875 60.203125 14.15625 58.171875 
Q 13.28125 56.15625 13.28125 53.8125 
L 13.28125 16.21875 
Q 13.28125 13.875 14.15625 11.84375 
Q 15.046875 9.8125 16.578125 8.265625 
Q 18.109375 6.734375 20.140625 5.859375 
Q 22.171875 4.984375 24.515625 4.984375 
L 28.90625 4.984375 
Q 31.25 4.984375 33.265625 5.859375 
Q 35.296875 6.734375 36.8125 8.265625 
Q 38.328125 9.8125 39.203125 11.84375 
Q 40.09375 13.875 40.09375 16.21875 
z
" id="Abel-Regular-4f"/>
     <path d="M 44.09375 0 
L 14.890625 50.984375 
L 14.3125 54 
L 14.3125 0 
L 8.015625 0 
L 8.015625 70.015625 
L 11.28125 70.015625 
L 40.484375 19 
L 41.109375 16.015625 
L 41.109375 70.015625 
L 47.40625 70.015625 
L 47.40625 0 
z
" id="Abel-Regular-4e"/>
    </defs>
    <g transform="translate(256.545 62.2)scale(0.144 -0.144)">
     <use xlink:href="#Abel-Regular-44"/>
     <use x="54.39453125" xlink:href="#Abel-Regular-65"/>
     <use x="99.8046875" xlink:href="#Abel-Regular-73"/>
     <use x="145.703125" xlink:href="#Abel-Regular-76"/>
     <use x="186.083984375" xlink:href="#Abel-Regular-ed"/>
     <use x="208.10546875" xlink:href="#Abel-Regular-6f"/>
     <use x="253.515625" xlink:href="#Abel-Regular-73"/>
     <use x="299.4140625" xlink:href="#Abel-Regular-20"/>
     <use x="322.412109375" xlink:href="#Abel-Regular-55"/>
     <use x="375.830078125" xlink:href="#Abel-Regular-4e"/>
     <use x="431.25" xlink:href="#Abel-Regular-52"/>
     <use x="483.447265625" xlink:href="#Abel-Regular-4f"/>
    </g>
   </g>
  </g>
 </g>
 <defs>
  <clipPath id="ped3b9811e3">
   <rect height="297.6" width="446.4" x="72.0" y="67.2"/>
  </clipPath>
 </defs>
</svg>
