<?xml version="1.0" encoding="utf-8" standalone="no"?>
<!DOCTYPE svg PUBLIC "-//W3C//DTD SVG 1.1//EN"
  "http://www.w3.org/Graphics/SVG/1.1/DTD/svg11.dtd">
<!-- Created with matplotlib (http://matplotlib.org/) -->
<svg height="432pt" version="1.1" viewBox="0 0 576 432" width="576pt" xmlns="http://www.w3.org/2000/svg" xmlns:xlink="http://www.w3.org/1999/xlink">
 <defs>
  <style type="text/css">
*{stroke-linecap:butt;stroke-linejoin:round;stroke-miterlimit:100000;}
  </style>
 </defs>
 <g id="figure_1">
  <g id="patch_1">
   <path d="M 0 432 
L 576 432 
L 576 0 
L 0 0 
z
" style="fill:#ffffff;"/>
  </g>
  <g id="axes_1">
   <g id="line2d_1">
    <path clip-path="url(#p15bd90cbfe)" d="M 72 164.16 
L 518.4 164.16 
" style="fill:none;stroke:#000000;stroke-linecap:square;"/>
   </g>
   <g id="line2d_2">
    <defs>
     <path d="M 0 3 
C 0.795609 3 1.55874 2.683901 2.12132 2.12132 
C 2.683901 1.55874 3 0.795609 3 0 
C 3 -0.795609 2.683901 -1.55874 2.12132 -2.12132 
C 1.55874 -2.683901 0.795609 -3 0 -3 
C -0.795609 -3 -1.55874 -2.683901 -2.12132 -2.12132 
C -2.683901 -1.55874 -3 -0.795609 -3 0 
C -3 0.795609 -2.683901 1.55874 -2.12132 2.12132 
C -1.55874 2.683901 -0.795609 3 0 3 
z
" id="md0f392aaf5" style="stroke:#000000;stroke-width:0.5;"/>
    </defs>
    <g clip-path="url(#p15bd90cbfe)">
     <use style="fill:#008000;stroke:#000000;stroke-width:0.5;" x="72.0" xlink:href="#md0f392aaf5" y="139.968"/>
     <use style="fill:#008000;stroke:#000000;stroke-width:0.5;" x="75.4076335878" xlink:href="#md0f392aaf5" y="152.064"/>
     <use style="fill:#008000;stroke:#000000;stroke-width:0.5;" x="78.8152671756" xlink:href="#md0f392aaf5" y="139.968"/>
     <use style="fill:#008000;stroke:#000000;stroke-width:0.5;" x="82.2229007634" xlink:href="#md0f392aaf5" y="139.968"/>
     <use style="fill:#008000;stroke:#000000;stroke-width:0.5;" x="85.6305343512" xlink:href="#md0f392aaf5" y="127.872"/>
     <use style="fill:#008000;stroke:#000000;stroke-width:0.5;" x="89.0381679389" xlink:href="#md0f392aaf5" y="127.872"/>
     <use style="fill:#008000;stroke:#000000;stroke-width:0.5;" x="92.4458015267" xlink:href="#md0f392aaf5" y="115.776"/>
     <use style="fill:#008000;stroke:#000000;stroke-width:0.5;" x="95.8534351145" xlink:href="#md0f392aaf5" y="127.872"/>
     <use style="fill:#008000;stroke:#000000;stroke-width:0.5;" x="99.2610687023" xlink:href="#md0f392aaf5" y="127.872"/>
     <use style="fill:#008000;stroke:#000000;stroke-width:0.5;" x="102.66870229" xlink:href="#md0f392aaf5" y="127.872"/>
     <use style="fill:#008000;stroke:#000000;stroke-width:0.5;" x="106.076335878" xlink:href="#md0f392aaf5" y="115.776"/>
     <use style="fill:#008000;stroke:#000000;stroke-width:0.5;" x="109.483969466" xlink:href="#md0f392aaf5" y="115.776"/>
     <use style="fill:#008000;stroke:#000000;stroke-width:0.5;" x="112.891603053" xlink:href="#md0f392aaf5" y="115.776"/>
     <use style="fill:#008000;stroke:#000000;stroke-width:0.5;" x="116.299236641" xlink:href="#md0f392aaf5" y="115.776"/>
     <use style="fill:#008000;stroke:#000000;stroke-width:0.5;" x="119.706870229" xlink:href="#md0f392aaf5" y="115.776"/>
     <use style="fill:#008000;stroke:#000000;stroke-width:0.5;" x="123.114503817" xlink:href="#md0f392aaf5" y="103.68"/>
     <use style="fill:#008000;stroke:#000000;stroke-width:0.5;" x="126.522137405" xlink:href="#md0f392aaf5" y="115.776"/>
     <use style="fill:#008000;stroke:#000000;stroke-width:0.5;" x="129.929770992" xlink:href="#md0f392aaf5" y="115.776"/>
     <use style="fill:#008000;stroke:#000000;stroke-width:0.5;" x="133.33740458" xlink:href="#md0f392aaf5" y="127.872"/>
     <use style="fill:#008000;stroke:#000000;stroke-width:0.5;" x="136.745038168" xlink:href="#md0f392aaf5" y="139.968"/>
     <use style="fill:#008000;stroke:#000000;stroke-width:0.5;" x="140.152671756" xlink:href="#md0f392aaf5" y="139.968"/>
     <use style="fill:#008000;stroke:#000000;stroke-width:0.5;" x="143.560305344" xlink:href="#md0f392aaf5" y="139.968"/>
     <use style="fill:#008000;stroke:#000000;stroke-width:0.5;" x="146.967938931" xlink:href="#md0f392aaf5" y="127.872"/>
     <use style="fill:#008000;stroke:#000000;stroke-width:0.5;" x="150.375572519" xlink:href="#md0f392aaf5" y="127.872"/>
     <use style="fill:#008000;stroke:#000000;stroke-width:0.5;" x="153.783206107" xlink:href="#md0f392aaf5" y="127.872"/>
     <use style="fill:#008000;stroke:#000000;stroke-width:0.5;" x="157.190839695" xlink:href="#md0f392aaf5" y="127.872"/>
     <use style="fill:#008000;stroke:#000000;stroke-width:0.5;" x="160.598473282" xlink:href="#md0f392aaf5" y="127.872"/>
     <use style="fill:#008000;stroke:#000000;stroke-width:0.5;" x="164.00610687" xlink:href="#md0f392aaf5" y="139.968"/>
     <use style="fill:#008000;stroke:#000000;stroke-width:0.5;" x="167.413740458" xlink:href="#md0f392aaf5" y="139.968"/>
     <use style="fill:#008000;stroke:#000000;stroke-width:0.5;" x="170.821374046" xlink:href="#md0f392aaf5" y="127.872"/>
     <use style="fill:#008000;stroke:#000000;stroke-width:0.5;" x="174.229007634" xlink:href="#md0f392aaf5" y="127.872"/>
     <use style="fill:#008000;stroke:#000000;stroke-width:0.5;" x="181.044274809" xlink:href="#md0f392aaf5" y="127.872"/>
     <use style="fill:#008000;stroke:#000000;stroke-width:0.5;" x="184.451908397" xlink:href="#md0f392aaf5" y="139.968"/>
     <use style="fill:#008000;stroke:#000000;stroke-width:0.5;" x="187.859541985" xlink:href="#md0f392aaf5" y="152.064"/>
     <use style="fill:#008000;stroke:#000000;stroke-width:0.5;" x="191.267175573" xlink:href="#md0f392aaf5" y="139.968"/>
     <use style="fill:#008000;stroke:#000000;stroke-width:0.5;" x="194.67480916" xlink:href="#md0f392aaf5" y="139.968"/>
     <use style="fill:#008000;stroke:#000000;stroke-width:0.5;" x="198.082442748" xlink:href="#md0f392aaf5" y="139.968"/>
     <use style="fill:#008000;stroke:#000000;stroke-width:0.5;" x="201.490076336" xlink:href="#md0f392aaf5" y="115.776"/>
     <use style="fill:#008000;stroke:#000000;stroke-width:0.5;" x="204.897709924" xlink:href="#md0f392aaf5" y="139.968"/>
     <use style="fill:#008000;stroke:#000000;stroke-width:0.5;" x="211.712977099" xlink:href="#md0f392aaf5" y="115.776"/>
     <use style="fill:#008000;stroke:#000000;stroke-width:0.5;" x="215.120610687" xlink:href="#md0f392aaf5" y="103.68"/>
     <use style="fill:#008000;stroke:#000000;stroke-width:0.5;" x="218.528244275" xlink:href="#md0f392aaf5" y="79.488"/>
     <use style="fill:#008000;stroke:#000000;stroke-width:0.5;" x="221.935877863" xlink:href="#md0f392aaf5" y="79.488"/>
     <use style="fill:#008000;stroke:#000000;stroke-width:0.5;" x="225.34351145" xlink:href="#md0f392aaf5" y="79.488"/>
     <use style="fill:#008000;stroke:#000000;stroke-width:0.5;" x="228.751145038" xlink:href="#md0f392aaf5" y="79.488"/>
     <use style="fill:#008000;stroke:#000000;stroke-width:0.5;" x="232.158778626" xlink:href="#md0f392aaf5" y="91.584"/>
     <use style="fill:#008000;stroke:#000000;stroke-width:0.5;" x="235.566412214" xlink:href="#md0f392aaf5" y="115.776"/>
     <use style="fill:#008000;stroke:#000000;stroke-width:0.5;" x="238.974045802" xlink:href="#md0f392aaf5" y="127.872"/>
     <use style="fill:#008000;stroke:#000000;stroke-width:0.5;" x="242.381679389" xlink:href="#md0f392aaf5" y="115.776"/>
     <use style="fill:#008000;stroke:#000000;stroke-width:0.5;" x="245.789312977" xlink:href="#md0f392aaf5" y="103.68"/>
     <use style="fill:#008000;stroke:#000000;stroke-width:0.5;" x="249.196946565" xlink:href="#md0f392aaf5" y="115.776"/>
     <use style="fill:#008000;stroke:#000000;stroke-width:0.5;" x="252.604580153" xlink:href="#md0f392aaf5" y="91.584"/>
     <use style="fill:#008000;stroke:#000000;stroke-width:0.5;" x="256.01221374" xlink:href="#md0f392aaf5" y="79.488"/>
     <use style="fill:#008000;stroke:#000000;stroke-width:0.5;" x="259.419847328" xlink:href="#md0f392aaf5" y="79.488"/>
     <use style="fill:#008000;stroke:#000000;stroke-width:0.5;" x="262.827480916" xlink:href="#md0f392aaf5" y="79.488"/>
     <use style="fill:#008000;stroke:#000000;stroke-width:0.5;" x="266.235114504" xlink:href="#md0f392aaf5" y="79.488"/>
     <use style="fill:#008000;stroke:#000000;stroke-width:0.5;" x="269.642748092" xlink:href="#md0f392aaf5" y="55.296"/>
     <use style="fill:#008000;stroke:#000000;stroke-width:0.5;" x="273.050381679" xlink:href="#md0f392aaf5" y="67.392"/>
     <use style="fill:#008000;stroke:#000000;stroke-width:0.5;" x="276.458015267" xlink:href="#md0f392aaf5" y="67.392"/>
     <use style="fill:#008000;stroke:#000000;stroke-width:0.5;" x="279.865648855" xlink:href="#md0f392aaf5" y="79.488"/>
     <use style="fill:#008000;stroke:#000000;stroke-width:0.5;" x="283.273282443" xlink:href="#md0f392aaf5" y="67.392"/>
     <use style="fill:#008000;stroke:#000000;stroke-width:0.5;" x="286.680916031" xlink:href="#md0f392aaf5" y="91.584"/>
     <use style="fill:#008000;stroke:#000000;stroke-width:0.5;" x="290.088549618" xlink:href="#md0f392aaf5" y="79.488"/>
     <use style="fill:#008000;stroke:#000000;stroke-width:0.5;" x="293.496183206" xlink:href="#md0f392aaf5" y="67.392"/>
     <use style="fill:#008000;stroke:#000000;stroke-width:0.5;" x="296.903816794" xlink:href="#md0f392aaf5" y="79.488"/>
     <use style="fill:#008000;stroke:#000000;stroke-width:0.5;" x="300.311450382" xlink:href="#md0f392aaf5" y="79.488"/>
     <use style="fill:#008000;stroke:#000000;stroke-width:0.5;" x="307.126717557" xlink:href="#md0f392aaf5" y="79.488"/>
     <use style="fill:#008000;stroke:#000000;stroke-width:0.5;" x="310.534351145" xlink:href="#md0f392aaf5" y="79.488"/>
     <use style="fill:#008000;stroke:#000000;stroke-width:0.5;" x="313.941984733" xlink:href="#md0f392aaf5" y="91.584"/>
     <use style="fill:#008000;stroke:#000000;stroke-width:0.5;" x="317.349618321" xlink:href="#md0f392aaf5" y="103.68"/>
     <use style="fill:#008000;stroke:#000000;stroke-width:0.5;" x="320.757251908" xlink:href="#md0f392aaf5" y="139.968"/>
     <use style="fill:#008000;stroke:#000000;stroke-width:0.5;" x="324.164885496" xlink:href="#md0f392aaf5" y="273.024"/>
     <use style="fill:#008000;stroke:#000000;stroke-width:0.5;" x="327.572519084" xlink:href="#md0f392aaf5" y="273.024"/>
     <use style="fill:#008000;stroke:#000000;stroke-width:0.5;" x="330.980152672" xlink:href="#md0f392aaf5" y="273.024"/>
     <use style="fill:#008000;stroke:#000000;stroke-width:0.5;" x="334.38778626" xlink:href="#md0f392aaf5" y="273.024"/>
     <use style="fill:#008000;stroke:#000000;stroke-width:0.5;" x="337.795419847" xlink:href="#md0f392aaf5" y="248.832"/>
     <use style="fill:#008000;stroke:#000000;stroke-width:0.5;" x="341.203053435" xlink:href="#md0f392aaf5" y="285.12"/>
     <use style="fill:#008000;stroke:#000000;stroke-width:0.5;" x="344.610687023" xlink:href="#md0f392aaf5" y="285.12"/>
     <use style="fill:#008000;stroke:#000000;stroke-width:0.5;" x="348.018320611" xlink:href="#md0f392aaf5" y="285.12"/>
     <use style="fill:#008000;stroke:#000000;stroke-width:0.5;" x="351.425954198" xlink:href="#md0f392aaf5" y="285.12"/>
     <use style="fill:#008000;stroke:#000000;stroke-width:0.5;" x="354.833587786" xlink:href="#md0f392aaf5" y="285.12"/>
     <use style="fill:#008000;stroke:#000000;stroke-width:0.5;" x="358.241221374" xlink:href="#md0f392aaf5" y="285.12"/>
     <use style="fill:#008000;stroke:#000000;stroke-width:0.5;" x="361.648854962" xlink:href="#md0f392aaf5" y="297.216"/>
     <use style="fill:#008000;stroke:#000000;stroke-width:0.5;" x="365.05648855" xlink:href="#md0f392aaf5" y="273.024"/>
     <use style="fill:#008000;stroke:#000000;stroke-width:0.5;" x="368.464122137" xlink:href="#md0f392aaf5" y="285.12"/>
     <use style="fill:#008000;stroke:#000000;stroke-width:0.5;" x="371.871755725" xlink:href="#md0f392aaf5" y="297.216"/>
     <use style="fill:#008000;stroke:#000000;stroke-width:0.5;" x="375.279389313" xlink:href="#md0f392aaf5" y="309.312"/>
     <use style="fill:#008000;stroke:#000000;stroke-width:0.5;" x="382.094656489" xlink:href="#md0f392aaf5" y="285.12"/>
     <use style="fill:#008000;stroke:#000000;stroke-width:0.5;" x="388.909923664" xlink:href="#md0f392aaf5" y="297.216"/>
     <use style="fill:#008000;stroke:#000000;stroke-width:0.5;" x="392.317557252" xlink:href="#md0f392aaf5" y="297.216"/>
     <use style="fill:#008000;stroke:#000000;stroke-width:0.5;" x="395.72519084" xlink:href="#md0f392aaf5" y="285.12"/>
     <use style="fill:#008000;stroke:#000000;stroke-width:0.5;" x="399.132824428" xlink:href="#md0f392aaf5" y="285.12"/>
     <use style="fill:#008000;stroke:#000000;stroke-width:0.5;" x="402.540458015" xlink:href="#md0f392aaf5" y="285.12"/>
     <use style="fill:#008000;stroke:#000000;stroke-width:0.5;" x="402.540458015" xlink:href="#md0f392aaf5" y="285.12"/>
     <use style="fill:#008000;stroke:#000000;stroke-width:0.5;" x="409.355725191" xlink:href="#md0f392aaf5" y="297.216"/>
     <use style="fill:#008000;stroke:#000000;stroke-width:0.5;" x="412.763358779" xlink:href="#md0f392aaf5" y="321.408"/>
     <use style="fill:#008000;stroke:#000000;stroke-width:0.5;" x="416.170992366" xlink:href="#md0f392aaf5" y="297.216"/>
     <use style="fill:#008000;stroke:#000000;stroke-width:0.5;" x="419.578625954" xlink:href="#md0f392aaf5" y="345.6"/>
     <use style="fill:#008000;stroke:#000000;stroke-width:0.5;" x="422.986259542" xlink:href="#md0f392aaf5" y="321.408"/>
     <use style="fill:#008000;stroke:#000000;stroke-width:0.5;" x="426.39389313" xlink:href="#md0f392aaf5" y="285.12"/>
     <use style="fill:#008000;stroke:#000000;stroke-width:0.5;" x="429.801526718" xlink:href="#md0f392aaf5" y="273.024"/>
     <use style="fill:#008000;stroke:#000000;stroke-width:0.5;" x="433.209160305" xlink:href="#md0f392aaf5" y="260.928"/>
     <use style="fill:#008000;stroke:#000000;stroke-width:0.5;" x="436.616793893" xlink:href="#md0f392aaf5" y="309.312"/>
     <use style="fill:#008000;stroke:#000000;stroke-width:0.5;" x="440.024427481" xlink:href="#md0f392aaf5" y="297.216"/>
     <use style="fill:#008000;stroke:#000000;stroke-width:0.5;" x="443.432061069" xlink:href="#md0f392aaf5" y="297.216"/>
     <use style="fill:#008000;stroke:#000000;stroke-width:0.5;" x="446.839694656" xlink:href="#md0f392aaf5" y="321.408"/>
     <use style="fill:#008000;stroke:#000000;stroke-width:0.5;" x="450.247328244" xlink:href="#md0f392aaf5" y="297.216"/>
     <use style="fill:#008000;stroke:#000000;stroke-width:0.5;" x="453.654961832" xlink:href="#md0f392aaf5" y="309.312"/>
     <use style="fill:#008000;stroke:#000000;stroke-width:0.5;" x="457.06259542" xlink:href="#md0f392aaf5" y="309.312"/>
     <use style="fill:#008000;stroke:#000000;stroke-width:0.5;" x="460.470229008" xlink:href="#md0f392aaf5" y="321.408"/>
     <use style="fill:#008000;stroke:#000000;stroke-width:0.5;" x="463.877862595" xlink:href="#md0f392aaf5" y="297.216"/>
     <use style="fill:#008000;stroke:#000000;stroke-width:0.5;" x="467.285496183" xlink:href="#md0f392aaf5" y="309.312"/>
     <use style="fill:#008000;stroke:#000000;stroke-width:0.5;" x="470.693129771" xlink:href="#md0f392aaf5" y="297.216"/>
     <use style="fill:#008000;stroke:#000000;stroke-width:0.5;" x="474.100763359" xlink:href="#md0f392aaf5" y="309.312"/>
     <use style="fill:#008000;stroke:#000000;stroke-width:0.5;" x="477.508396947" xlink:href="#md0f392aaf5" y="297.216"/>
     <use style="fill:#008000;stroke:#000000;stroke-width:0.5;" x="480.916030534" xlink:href="#md0f392aaf5" y="309.312"/>
     <use style="fill:#008000;stroke:#000000;stroke-width:0.5;" x="484.323664122" xlink:href="#md0f392aaf5" y="297.216"/>
     <use style="fill:#008000;stroke:#000000;stroke-width:0.5;" x="487.73129771" xlink:href="#md0f392aaf5" y="285.12"/>
     <use style="fill:#008000;stroke:#000000;stroke-width:0.5;" x="491.138931298" xlink:href="#md0f392aaf5" y="309.312"/>
     <use style="fill:#008000;stroke:#000000;stroke-width:0.5;" x="494.546564886" xlink:href="#md0f392aaf5" y="309.312"/>
     <use style="fill:#008000;stroke:#000000;stroke-width:0.5;" x="497.954198473" xlink:href="#md0f392aaf5" y="333.504"/>
     <use style="fill:#008000;stroke:#000000;stroke-width:0.5;" x="501.361832061" xlink:href="#md0f392aaf5" y="321.408"/>
     <use style="fill:#008000;stroke:#000000;stroke-width:0.5;" x="504.769465649" xlink:href="#md0f392aaf5" y="321.408"/>
     <use style="fill:#008000;stroke:#000000;stroke-width:0.5;" x="508.177099237" xlink:href="#md0f392aaf5" y="309.312"/>
     <use style="fill:#008000;stroke:#000000;stroke-width:0.5;" x="511.584732824" xlink:href="#md0f392aaf5" y="297.216"/>
     <use style="fill:#008000;stroke:#000000;stroke-width:0.5;" x="514.992366412" xlink:href="#md0f392aaf5" y="309.312"/>
     <use style="fill:#008000;stroke:#000000;stroke-width:0.5;" x="518.4" xlink:href="#md0f392aaf5" y="285.12"/>
    </g>
   </g>
   <g id="matplotlib.axis_1">
    <g id="xtick_1">
     <g id="line2d_3">
      <path clip-path="url(#p15bd90cbfe)" d="M 105.589531 345.6 
L 105.589531 43.2 
" style="fill:none;stroke:#000000;stroke-dasharray:1.000000,3.000000;stroke-dashoffset:0.0;stroke-width:0.5;"/>
     </g>
     <g id="line2d_4">
      <defs>
       <path d="M 0 0 
L 0 -4 
" id="m15060d789d" style="stroke:#000000;stroke-width:0.5;"/>
      </defs>
      <g>
       <use style="stroke:#000000;stroke-width:0.5;" x="105.58953108" xlink:href="#m15060d789d" y="345.6"/>
      </g>
     </g>
     <g id="line2d_5">
      <defs>
       <path d="M 0 0 
L 0 4 
" id="md6bf96b0af" style="stroke:#000000;stroke-width:0.5;"/>
      </defs>
      <g>
       <use style="stroke:#000000;stroke-width:0.5;" x="105.58953108" xlink:href="#md6bf96b0af" y="43.2"/>
      </g>
     </g>
     <g id="text_1">
      <!-- jul 2014 -->
      <defs>
       <path d="M 7.515625 62.015625 
L 7.515625 70.015625 
L 14.5 70.015625 
L 14.5 62.015625 
z
M 14.015625 -5.328125 
Q 14.015625 -8.34375 12.859375 -11 
Q 11.71875 -13.671875 9.71875 -15.671875 
Q 7.71875 -17.671875 5.03125 -18.84375 
Q 2.34375 -20.015625 -0.6875 -20.015625 
L -0.6875 -14.3125 
Q 1.125 -14.3125 2.703125 -13.625 
Q 4.296875 -12.9375 5.46875 -11.765625 
Q 6.640625 -10.59375 7.328125 -9 
Q 8.015625 -7.421875 8.015625 -5.609375 
L 8.015625 50 
L 14.015625 50 
L 14.015625 -5.328125 
z
" id="Abel-Regular-6a"/>
       <path d="M 44.390625 16.21875 
Q 44.390625 12.640625 43.046875 9.515625 
Q 41.703125 6.390625 39.359375 4.046875 
Q 37.015625 1.703125 33.890625 0.359375 
Q 30.765625 -0.984375 27.203125 -0.984375 
L 24.21875 -0.984375 
Q 20.65625 -0.984375 17.5 0.359375 
Q 14.359375 1.703125 12.015625 4.046875 
Q 9.671875 6.390625 8.328125 9.515625 
Q 6.984375 12.640625 6.984375 16.21875 
L 6.984375 53.8125 
Q 6.984375 57.375 8.328125 60.5 
Q 9.671875 63.625 12.015625 65.96875 
Q 14.359375 68.3125 17.5 69.65625 
Q 20.65625 71 24.21875 71 
L 27.203125 71 
Q 30.765625 71 33.890625 69.65625 
Q 37.015625 68.3125 39.359375 65.96875 
Q 41.703125 63.625 43.046875 60.5 
Q 44.390625 57.375 44.390625 53.8125 
L 44.390625 16.21875 
z
M 38.09375 53.8125 
Q 38.09375 56.15625 37.203125 58.171875 
Q 36.328125 60.203125 34.8125 61.71875 
Q 33.296875 63.234375 31.265625 64.109375 
Q 29.25 64.984375 26.90625 64.984375 
L 24.515625 64.984375 
Q 22.171875 64.984375 20.140625 64.109375 
Q 18.109375 63.234375 16.578125 61.71875 
Q 15.046875 60.203125 14.15625 58.171875 
Q 13.28125 56.15625 13.28125 53.8125 
L 13.28125 16.21875 
Q 13.28125 13.875 14.15625 11.84375 
Q 15.046875 9.8125 16.578125 8.265625 
Q 18.109375 6.734375 20.140625 5.859375 
Q 22.171875 4.984375 24.515625 4.984375 
L 26.90625 4.984375 
Q 29.25 4.984375 31.265625 5.859375 
Q 33.296875 6.734375 34.8125 8.265625 
Q 36.328125 9.8125 37.203125 11.84375 
Q 38.09375 13.875 38.09375 16.21875 
z
" id="Abel-Regular-30"/>
       <path d="M 37.40625 12.109375 
L 37.40625 0 
L 31.109375 0 
L 31.109375 12.109375 
L 2.984375 12.109375 
L 2.984375 15.09375 
L 34.078125 70.015625 
L 37.40625 70.015625 
L 37.40625 18.109375 
L 43.40625 18.109375 
L 43.40625 12.109375 
z
M 31.109375 52.78125 
L 11.8125 18.109375 
L 31.109375 18.109375 
z
" id="Abel-Regular-34"/>
       <path d="M 23 64.984375 
Q 20.65625 64.984375 18.625 64.109375 
Q 16.609375 63.234375 15.09375 61.71875 
Q 13.578125 60.203125 12.6875 58.171875 
Q 11.8125 56.15625 11.8125 53.8125 
L 11.8125 50.984375 
L 5.515625 52 
L 5.515625 53.8125 
Q 5.515625 57.375 6.859375 60.5 
Q 8.203125 63.625 10.546875 65.96875 
Q 12.890625 68.3125 16.015625 69.65625 
Q 19.140625 71 22.703125 71 
L 25.6875 71 
Q 29.25 71 32.390625 69.71875 
Q 35.546875 68.453125 37.890625 66.0625 
Q 40.234375 63.671875 41.578125 60.328125 
Q 42.921875 56.984375 42.921875 52.78125 
Q 42.921875 48.640625 41.671875 44.4375 
Q 40.4375 40.234375 38.40625 36.171875 
Q 36.375 32.125 33.765625 28.3125 
Q 31.15625 24.515625 28.421875 21.140625 
Q 22.015625 13.28125 13.921875 6 
L 43.40625 6 
L 43.40625 0 
L 4 0 
L 4 4.984375 
Q 13.140625 12.5 20.3125 20.5625 
Q 23.390625 24.03125 26.3125 27.9375 
Q 29.25 31.84375 31.546875 35.96875 
Q 33.84375 40.09375 35.234375 44.359375 
Q 36.625 48.640625 36.625 52.78125 
Q 36.625 55.859375 35.6875 58.15625 
Q 34.765625 60.453125 33.203125 61.96875 
Q 31.640625 63.484375 29.609375 64.234375 
Q 27.59375 64.984375 25.390625 64.984375 
z
" id="Abel-Regular-32"/>
       <path d="M 8.015625 0 
L 8.015625 6 
L 24.703125 6 
L 24.703125 64.015625 
L 8.015625 56.984375 
L 8.015625 62.984375 
L 24.703125 70.015625 
L 31 70.015625 
L 31 6 
L 47.703125 6 
L 47.703125 0 
z
" id="Abel-Regular-31"/>
       <path id="Abel-Regular-20"/>
       <path d="M 37.40625 0 
L 34.078125 5.078125 
Q 32.03125 2.296875 28.953125 0.65625 
Q 25.875 -0.984375 22.21875 -0.984375 
L 20.703125 -0.984375 
Q 17.671875 -0.984375 14.984375 0.15625 
Q 12.3125 1.3125 10.296875 3.3125 
Q 8.296875 5.328125 7.140625 8 
Q 6 10.6875 6 13.71875 
L 6 50 
L 12.015625 50 
L 12.015625 13.375 
Q 12.015625 11.578125 12.6875 9.984375 
Q 13.375 8.40625 14.546875 7.234375 
Q 15.71875 6.0625 17.296875 5.375 
Q 18.890625 4.6875 20.703125 4.6875 
L 24.703125 4.6875 
Q 26.515625 4.6875 28.09375 5.375 
Q 29.6875 6.0625 30.859375 7.234375 
Q 32.03125 8.40625 32.71875 9.984375 
Q 33.40625 11.578125 33.40625 13.375 
L 33.40625 50 
L 39.40625 50 
L 39.40625 0 
z
" id="Abel-Regular-75"/>
       <path d="M 8.015625 0 
L 8.015625 70.015625 
L 14.015625 70.015625 
L 14.015625 0 
z
" id="Abel-Regular-6c"/>
      </defs>
      <g transform="translate(71.615485971 375.90009894)rotate(-30.0)scale(0.12 -0.12)">
       <use xlink:href="#Abel-Regular-6a"/>
       <use x="22.021484375" xlink:href="#Abel-Regular-75"/>
       <use x="67.431640625" xlink:href="#Abel-Regular-6c"/>
       <use x="89.453125" xlink:href="#Abel-Regular-20"/>
       <use x="112.451171875" xlink:href="#Abel-Regular-32"/>
       <use x="161.865234375" xlink:href="#Abel-Regular-30"/>
       <use x="213.28125" xlink:href="#Abel-Regular-31"/>
       <use x="264.974609375" xlink:href="#Abel-Regular-34"/>
      </g>
     </g>
    </g>
    <g id="xtick_2">
     <g id="line2d_6">
      <path clip-path="url(#p15bd90cbfe)" d="M 150.375573 345.6 
L 150.375573 43.2 
" style="fill:none;stroke:#000000;stroke-dasharray:1.000000,3.000000;stroke-dashoffset:0.0;stroke-width:0.5;"/>
     </g>
     <g id="line2d_7">
      <g>
       <use style="stroke:#000000;stroke-width:0.5;" x="150.375572519" xlink:href="#m15060d789d" y="345.6"/>
      </g>
     </g>
     <g id="line2d_8">
      <g>
       <use style="stroke:#000000;stroke-width:0.5;" x="150.375572519" xlink:href="#md6bf96b0af" y="43.2"/>
      </g>
     </g>
     <g id="text_2">
      <!-- oct 2014 -->
      <defs>
       <path d="M 39.40625 13.71875 
Q 39.40625 10.6875 38.25 8 
Q 37.109375 5.328125 35.109375 3.3125 
Q 33.109375 1.3125 30.421875 0.15625 
Q 27.734375 -0.984375 24.703125 -0.984375 
L 20.703125 -0.984375 
Q 17.671875 -0.984375 14.984375 0.15625 
Q 12.3125 1.3125 10.296875 3.3125 
Q 8.296875 5.328125 7.140625 8 
Q 6 10.6875 6 13.71875 
L 6 36.28125 
Q 6 39.3125 7.140625 41.984375 
Q 8.296875 44.671875 10.296875 46.671875 
Q 12.3125 48.6875 14.984375 49.828125 
Q 17.671875 50.984375 20.703125 50.984375 
L 24.703125 50.984375 
Q 27.734375 50.984375 30.421875 49.828125 
Q 33.109375 48.6875 35.109375 46.671875 
Q 37.109375 44.671875 38.25 41.984375 
Q 39.40625 39.3125 39.40625 36.28125 
L 39.40625 13.71875 
z
M 33.40625 36.625 
Q 33.40625 38.421875 32.71875 40.015625 
Q 32.03125 41.609375 30.859375 42.78125 
Q 29.6875 43.953125 28.09375 44.625 
Q 26.515625 45.3125 24.703125 45.3125 
L 20.703125 45.3125 
Q 18.890625 45.3125 17.296875 44.625 
Q 15.71875 43.953125 14.546875 42.78125 
Q 13.375 41.609375 12.6875 40.015625 
Q 12.015625 38.421875 12.015625 36.625 
L 12.015625 13.375 
Q 12.015625 11.578125 12.6875 9.984375 
Q 13.375 8.40625 14.546875 7.234375 
Q 15.71875 6.0625 17.296875 5.375 
Q 18.890625 4.6875 20.703125 4.6875 
L 24.703125 4.6875 
Q 26.515625 4.6875 28.09375 5.375 
Q 29.6875 6.0625 30.859375 7.234375 
Q 32.03125 8.40625 32.71875 9.984375 
Q 33.40625 11.578125 33.40625 13.375 
z
" id="Abel-Regular-6f"/>
       <path d="M 39.40625 13.71875 
Q 39.40625 10.6875 38.25 8 
Q 37.109375 5.328125 35.109375 3.3125 
Q 33.109375 1.3125 30.421875 0.15625 
Q 27.734375 -0.984375 24.703125 -0.984375 
L 20.703125 -0.984375 
Q 17.671875 -0.984375 14.984375 0.15625 
Q 12.3125 1.3125 10.296875 3.3125 
Q 8.296875 5.328125 7.140625 8 
Q 6 10.6875 6 13.71875 
L 6 36.28125 
Q 6 39.3125 7.140625 41.984375 
Q 8.296875 44.671875 10.296875 46.671875 
Q 12.3125 48.6875 14.984375 49.828125 
Q 17.671875 50.984375 20.703125 50.984375 
L 24.703125 50.984375 
Q 27.734375 50.984375 30.421875 49.828125 
Q 33.109375 48.6875 35.109375 46.671875 
Q 37.109375 44.671875 38.25 41.984375 
Q 39.40625 39.3125 39.40625 36.28125 
L 39.40625 34.28125 
L 33.40625 33.296875 
L 33.40625 36.625 
Q 33.40625 38.421875 32.71875 40.015625 
Q 32.03125 41.609375 30.859375 42.78125 
Q 29.6875 43.953125 28.09375 44.625 
Q 26.515625 45.3125 24.703125 45.3125 
L 20.703125 45.3125 
Q 18.890625 45.3125 17.296875 44.625 
Q 15.71875 43.953125 14.546875 42.78125 
Q 13.375 41.609375 12.6875 40.015625 
Q 12.015625 38.421875 12.015625 36.625 
L 12.015625 13.375 
Q 12.015625 11.578125 12.6875 9.984375 
Q 13.375 8.40625 14.546875 7.234375 
Q 15.71875 6.0625 17.296875 5.375 
Q 18.890625 4.6875 20.703125 4.6875 
L 24.703125 4.6875 
Q 26.515625 4.6875 28.09375 5.375 
Q 29.6875 6.0625 30.859375 7.234375 
Q 32.03125 8.40625 32.71875 9.984375 
Q 33.40625 11.578125 33.40625 13.375 
L 33.40625 16.703125 
L 39.40625 15.71875 
L 39.40625 13.71875 
z
" id="Abel-Regular-63"/>
       <path d="M 24.21875 0 
Q 21.484375 0 19.0625 1.015625 
Q 16.65625 2.046875 14.875 3.859375 
Q 13.09375 5.671875 12.03125 8.0625 
Q 10.984375 10.453125 10.984375 13.1875 
L 10.984375 44.28125 
L 2 44.28125 
L 2 50 
L 10.984375 50 
L 10.984375 62.015625 
L 17 62.984375 
L 17 50 
L 29.6875 50 
L 29.6875 44.28125 
L 17 44.28125 
L 17 12.890625 
Q 17 11.375 17.546875 10.078125 
Q 18.109375 8.796875 19.078125 7.8125 
Q 20.0625 6.84375 21.375 6.28125 
Q 22.703125 5.71875 24.21875 5.71875 
L 29.6875 5.71875 
L 29.6875 0 
z
" id="Abel-Regular-74"/>
      </defs>
      <g transform="translate(112.65055488 377.963424689)rotate(-30.0)scale(0.12 -0.12)">
       <use xlink:href="#Abel-Regular-6f"/>
       <use x="45.41015625" xlink:href="#Abel-Regular-63"/>
       <use x="90.8203125" xlink:href="#Abel-Regular-74"/>
       <use x="125.537109375" xlink:href="#Abel-Regular-20"/>
       <use x="148.53515625" xlink:href="#Abel-Regular-32"/>
       <use x="197.94921875" xlink:href="#Abel-Regular-30"/>
       <use x="249.365234375" xlink:href="#Abel-Regular-31"/>
       <use x="301.05859375" xlink:href="#Abel-Regular-34"/>
      </g>
     </g>
    </g>
    <g id="xtick_3">
     <g id="line2d_9">
      <path clip-path="url(#p15bd90cbfe)" d="M 195.161614 345.6 
L 195.161614 43.2 
" style="fill:none;stroke:#000000;stroke-dasharray:1.000000,3.000000;stroke-dashoffset:0.0;stroke-width:0.5;"/>
     </g>
     <g id="line2d_10">
      <g>
       <use style="stroke:#000000;stroke-width:0.5;" x="195.161613959" xlink:href="#m15060d789d" y="345.6"/>
      </g>
     </g>
     <g id="line2d_11">
      <g>
       <use style="stroke:#000000;stroke-width:0.5;" x="195.161613959" xlink:href="#md6bf96b0af" y="43.2"/>
      </g>
     </g>
     <g id="text_3">
      <!-- ene 2015 -->
      <defs>
       <path d="M 33.40625 0 
L 33.40625 36.625 
Q 33.40625 38.421875 32.71875 40.015625 
Q 32.03125 41.609375 30.859375 42.78125 
Q 29.6875 43.953125 28.09375 44.625 
Q 26.515625 45.3125 24.703125 45.3125 
L 20.703125 45.3125 
Q 18.890625 45.3125 17.296875 44.625 
Q 15.71875 43.953125 14.546875 42.78125 
Q 13.375 41.609375 12.6875 40.015625 
Q 12.015625 38.421875 12.015625 36.625 
L 12.015625 0 
L 6 0 
L 6 50 
L 8.015625 50 
L 11.28125 44.921875 
Q 13.328125 47.703125 16.421875 49.34375 
Q 19.53125 50.984375 23.1875 50.984375 
L 24.703125 50.984375 
Q 27.734375 50.984375 30.421875 49.828125 
Q 33.109375 48.6875 35.109375 46.671875 
Q 37.109375 44.671875 38.25 41.984375 
Q 39.40625 39.3125 39.40625 36.28125 
L 39.40625 0 
z
" id="Abel-Regular-6e"/>
       <path d="M 39.40625 13.71875 
Q 39.40625 10.6875 38.25 8 
Q 37.109375 5.328125 35.109375 3.3125 
Q 33.109375 1.3125 30.421875 0.15625 
Q 27.734375 -0.984375 24.703125 -0.984375 
L 20.703125 -0.984375 
Q 17.671875 -0.984375 14.984375 0.15625 
Q 12.3125 1.3125 10.296875 3.3125 
Q 8.296875 5.328125 7.140625 8 
Q 6 10.6875 6 13.71875 
L 6 36.28125 
Q 6 39.3125 7.140625 41.984375 
Q 8.296875 44.671875 10.296875 46.671875 
Q 12.3125 48.6875 14.984375 49.828125 
Q 17.671875 50.984375 20.703125 50.984375 
L 24.703125 50.984375 
Q 27.734375 50.984375 30.421875 49.828125 
Q 33.109375 48.6875 35.109375 46.671875 
Q 37.109375 44.671875 38.25 41.984375 
Q 39.40625 39.3125 39.40625 36.28125 
L 39.40625 24.515625 
L 12.015625 24.515625 
L 12.015625 13.375 
Q 12.015625 11.578125 12.6875 9.984375 
Q 13.375 8.40625 14.546875 7.234375 
Q 15.71875 6.0625 17.296875 5.375 
Q 18.890625 4.6875 20.703125 4.6875 
L 24.703125 4.6875 
Q 26.515625 4.6875 28.09375 5.375 
Q 29.6875 6.0625 30.859375 7.234375 
Q 32.03125 8.40625 32.71875 9.984375 
Q 33.40625 11.578125 33.40625 13.375 
L 33.40625 16.703125 
L 39.40625 15.71875 
L 39.40625 13.71875 
z
M 33.40625 36.625 
Q 33.40625 38.421875 32.71875 40.015625 
Q 32.03125 41.609375 30.859375 42.78125 
Q 29.6875 43.953125 28.09375 44.625 
Q 26.515625 45.3125 24.703125 45.3125 
L 20.703125 45.3125 
Q 18.890625 45.3125 17.296875 44.625 
Q 15.71875 43.953125 14.546875 42.78125 
Q 13.375 41.609375 12.6875 40.015625 
Q 12.015625 38.421875 12.015625 36.625 
L 12.015625 29.203125 
L 33.40625 29.203125 
z
" id="Abel-Regular-65"/>
       <path d="M 44.390625 16.21875 
Q 44.390625 12.640625 43.046875 9.515625 
Q 41.703125 6.390625 39.359375 4.046875 
Q 37.015625 1.703125 33.890625 0.359375 
Q 30.765625 -0.984375 27.203125 -0.984375 
L 24.21875 -0.984375 
Q 20.65625 -0.984375 17.5 0.359375 
Q 14.359375 1.703125 12.015625 4.046875 
Q 9.671875 6.390625 8.328125 9.515625 
Q 6.984375 12.640625 6.984375 16.21875 
L 6.984375 17.28125 
L 13.28125 17.28125 
L 13.28125 16.21875 
Q 13.28125 13.875 14.15625 11.84375 
Q 15.046875 9.8125 16.578125 8.265625 
Q 18.109375 6.734375 20.140625 5.859375 
Q 22.171875 4.984375 24.515625 4.984375 
L 26.90625 4.984375 
Q 29.25 4.984375 31.265625 5.859375 
Q 33.296875 6.734375 34.8125 8.265625 
Q 36.328125 9.8125 37.203125 11.84375 
Q 38.09375 13.875 38.09375 16.21875 
L 38.09375 29.78125 
Q 38.09375 32.125 37.203125 34.15625 
Q 36.328125 36.1875 34.8125 37.71875 
Q 33.296875 39.265625 31.265625 40.140625 
Q 29.25 41.015625 26.90625 41.015625 
L 24.515625 41.015625 
Q 22.171875 41.015625 20.140625 40.140625 
Q 18.109375 39.265625 16.578125 37.71875 
Q 15.046875 36.1875 14.15625 34.15625 
Q 13.28125 32.125 13.28125 29.78125 
L 6.984375 29.78125 
L 10.984375 70.015625 
L 40.921875 70.015625 
L 40.921875 64.015625 
L 16.890625 64.015625 
L 14.59375 42.484375 
Q 16.84375 44.625 19.8125 45.8125 
Q 22.796875 47.015625 26.21875 47.015625 
L 27.203125 47.015625 
Q 30.765625 47.015625 33.890625 45.671875 
Q 37.015625 44.34375 39.359375 42 
Q 41.703125 39.65625 43.046875 36.5 
Q 44.390625 33.34375 44.390625 29.78125 
L 44.390625 16.21875 
z
" id="Abel-Regular-35"/>
      </defs>
      <g transform="translate(156.217124298 378.667487189)rotate(-30.0)scale(0.12 -0.12)">
       <use xlink:href="#Abel-Regular-65"/>
       <use x="45.41015625" xlink:href="#Abel-Regular-6e"/>
       <use x="90.8203125" xlink:href="#Abel-Regular-65"/>
       <use x="136.23046875" xlink:href="#Abel-Regular-20"/>
       <use x="159.228515625" xlink:href="#Abel-Regular-32"/>
       <use x="208.642578125" xlink:href="#Abel-Regular-30"/>
       <use x="260.05859375" xlink:href="#Abel-Regular-31"/>
       <use x="311.767578125" xlink:href="#Abel-Regular-35"/>
      </g>
     </g>
    </g>
    <g id="xtick_4">
     <g id="line2d_12">
      <path clip-path="url(#p15bd90cbfe)" d="M 238.974046 345.6 
L 238.974046 43.2 
" style="fill:none;stroke:#000000;stroke-dasharray:1.000000,3.000000;stroke-dashoffset:0.0;stroke-width:0.5;"/>
     </g>
     <g id="line2d_13">
      <g>
       <use style="stroke:#000000;stroke-width:0.5;" x="238.974045802" xlink:href="#m15060d789d" y="345.6"/>
      </g>
     </g>
     <g id="line2d_14">
      <g>
       <use style="stroke:#000000;stroke-width:0.5;" x="238.974045802" xlink:href="#md6bf96b0af" y="43.2"/>
      </g>
     </g>
     <g id="text_4">
      <!-- abr 2015 -->
      <defs>
       <path d="M 37.40625 0 
L 34.078125 4.984375 
Q 32.03125 2.296875 28.953125 0.65625 
Q 25.875 -0.984375 22.21875 -0.984375 
L 20.703125 -0.984375 
Q 17.671875 -0.984375 14.984375 0.15625 
Q 12.3125 1.3125 10.296875 3.3125 
Q 8.296875 5.328125 7.140625 8 
Q 6 10.6875 6 13.71875 
L 6 14.203125 
Q 6 17.234375 7.140625 19.921875 
Q 8.296875 22.609375 10.296875 24.609375 
Q 12.3125 26.609375 14.984375 27.75 
Q 17.671875 28.90625 20.703125 28.90625 
L 33.40625 28.90625 
L 33.40625 36.625 
Q 33.40625 38.421875 32.71875 40.015625 
Q 32.03125 41.609375 30.859375 42.78125 
Q 29.6875 43.953125 28.09375 44.625 
Q 26.515625 45.3125 24.703125 45.3125 
L 21.1875 45.3125 
Q 19.390625 45.3125 17.796875 44.625 
Q 16.21875 43.953125 15.046875 42.78125 
Q 13.875 41.609375 13.1875 40.015625 
Q 12.5 38.421875 12.5 36.625 
L 12.5 34.8125 
L 6.5 35.796875 
L 6.5 36.28125 
Q 6.5 39.3125 7.640625 41.984375 
Q 8.796875 44.671875 10.796875 46.671875 
Q 12.796875 48.6875 15.484375 49.828125 
Q 18.171875 50.984375 21.1875 50.984375 
L 24.703125 50.984375 
Q 27.734375 50.984375 30.421875 49.828125 
Q 33.109375 48.6875 35.109375 46.671875 
Q 37.109375 44.671875 38.25 41.984375 
Q 39.40625 39.3125 39.40625 36.28125 
L 39.40625 0 
z
M 33.40625 24.21875 
L 20.703125 24.21875 
Q 18.890625 24.21875 17.296875 23.53125 
Q 15.71875 22.859375 14.546875 21.65625 
Q 13.375 20.453125 12.6875 18.859375 
Q 12.015625 17.28125 12.015625 15.484375 
L 12.015625 13.375 
Q 12.015625 11.578125 12.6875 9.984375 
Q 13.375 8.40625 14.546875 7.234375 
Q 15.71875 6.0625 17.296875 5.375 
Q 18.890625 4.6875 20.703125 4.6875 
L 24.703125 4.6875 
Q 26.515625 4.6875 28.09375 5.375 
Q 29.6875 6.0625 30.859375 7.234375 
Q 32.03125 8.40625 32.71875 9.984375 
Q 33.40625 11.578125 33.40625 13.375 
z
" id="Abel-Regular-61"/>
       <path d="M 20.703125 44.28125 
Q 18.890625 44.28125 17.296875 43.59375 
Q 15.71875 42.921875 14.546875 41.75 
Q 13.375 40.578125 12.6875 38.984375 
Q 12.015625 37.40625 12.015625 35.59375 
L 12.015625 0 
L 6 0 
L 6 50 
L 8.015625 50 
L 11.28125 44.921875 
Q 13.328125 47.703125 16.421875 49.34375 
Q 19.53125 50.984375 23.1875 50.984375 
L 26.703125 50.984375 
L 26.703125 44.28125 
z
" id="Abel-Regular-72"/>
       <path d="M 39.40625 13.71875 
Q 39.40625 10.6875 38.25 8 
Q 37.109375 5.328125 35.109375 3.3125 
Q 33.109375 1.3125 30.421875 0.15625 
Q 27.734375 -0.984375 24.703125 -0.984375 
L 20.703125 -0.984375 
Q 17.671875 -0.984375 14.984375 0.15625 
Q 12.3125 1.3125 10.296875 3.3125 
Q 8.296875 5.328125 7.140625 8 
Q 6 10.6875 6 13.71875 
L 6 70.015625 
L 12.015625 70.015625 
L 12.015625 45.796875 
Q 14.0625 48.25 16.9375 49.609375 
Q 19.828125 50.984375 23.1875 50.984375 
L 24.703125 50.984375 
Q 27.734375 50.984375 30.421875 49.828125 
Q 33.109375 48.6875 35.109375 46.671875 
Q 37.109375 44.671875 38.25 41.984375 
Q 39.40625 39.3125 39.40625 36.28125 
L 39.40625 13.71875 
z
M 33.40625 36.625 
Q 33.40625 38.421875 32.71875 40.015625 
Q 32.03125 41.609375 30.859375 42.78125 
Q 29.6875 43.953125 28.09375 44.625 
Q 26.515625 45.3125 24.703125 45.3125 
L 20.703125 45.3125 
Q 18.890625 45.3125 17.296875 44.625 
Q 15.71875 43.953125 14.546875 42.78125 
Q 13.375 41.609375 12.6875 40.015625 
Q 12.015625 38.421875 12.015625 36.625 
L 12.015625 13.375 
Q 12.015625 11.578125 12.6875 9.984375 
Q 13.375 8.40625 14.546875 7.234375 
Q 15.71875 6.0625 17.296875 5.375 
Q 18.890625 4.6875 20.703125 4.6875 
L 24.703125 4.6875 
Q 26.515625 4.6875 28.09375 5.375 
Q 29.6875 6.0625 30.859375 7.234375 
Q 32.03125 8.40625 32.71875 9.984375 
Q 33.40625 11.578125 33.40625 13.375 
z
" id="Abel-Regular-62"/>
      </defs>
      <g transform="translate(201.763772012 377.666237189)rotate(-30.0)scale(0.12 -0.12)">
       <use xlink:href="#Abel-Regular-61"/>
       <use x="45.41015625" xlink:href="#Abel-Regular-62"/>
       <use x="90.8203125" xlink:href="#Abel-Regular-72"/>
       <use x="119.53125" xlink:href="#Abel-Regular-20"/>
       <use x="142.529296875" xlink:href="#Abel-Regular-32"/>
       <use x="191.943359375" xlink:href="#Abel-Regular-30"/>
       <use x="243.359375" xlink:href="#Abel-Regular-31"/>
       <use x="295.068359375" xlink:href="#Abel-Regular-35"/>
      </g>
     </g>
    </g>
    <g id="xtick_5">
     <g id="line2d_15">
      <path clip-path="url(#p15bd90cbfe)" d="M 283.273282 345.6 
L 283.273282 43.2 
" style="fill:none;stroke:#000000;stroke-dasharray:1.000000,3.000000;stroke-dashoffset:0.0;stroke-width:0.5;"/>
     </g>
     <g id="line2d_16">
      <g>
       <use style="stroke:#000000;stroke-width:0.5;" x="283.273282443" xlink:href="#m15060d789d" y="345.6"/>
      </g>
     </g>
     <g id="line2d_17">
      <g>
       <use style="stroke:#000000;stroke-width:0.5;" x="283.273282443" xlink:href="#md6bf96b0af" y="43.2"/>
      </g>
     </g>
     <g id="text_5">
      <!-- jul 2015 -->
      <g transform="translate(249.190442893 375.96291144)rotate(-30.0)scale(0.12 -0.12)">
       <use xlink:href="#Abel-Regular-6a"/>
       <use x="22.021484375" xlink:href="#Abel-Regular-75"/>
       <use x="67.431640625" xlink:href="#Abel-Regular-6c"/>
       <use x="89.453125" xlink:href="#Abel-Regular-20"/>
       <use x="112.451171875" xlink:href="#Abel-Regular-32"/>
       <use x="161.865234375" xlink:href="#Abel-Regular-30"/>
       <use x="213.28125" xlink:href="#Abel-Regular-31"/>
       <use x="264.990234375" xlink:href="#Abel-Regular-35"/>
      </g>
     </g>
    </g>
    <g id="xtick_6">
     <g id="line2d_18">
      <path clip-path="url(#p15bd90cbfe)" d="M 328.059324 345.6 
L 328.059324 43.2 
" style="fill:none;stroke:#000000;stroke-dasharray:1.000000,3.000000;stroke-dashoffset:0.0;stroke-width:0.5;"/>
     </g>
     <g id="line2d_19">
      <g>
       <use style="stroke:#000000;stroke-width:0.5;" x="328.059323882" xlink:href="#m15060d789d" y="345.6"/>
      </g>
     </g>
     <g id="line2d_20">
      <g>
       <use style="stroke:#000000;stroke-width:0.5;" x="328.059323882" xlink:href="#md6bf96b0af" y="43.2"/>
      </g>
     </g>
     <g id="text_6">
      <!-- oct 2015 -->
      <g transform="translate(290.225511802 378.026237189)rotate(-30.0)scale(0.12 -0.12)">
       <use xlink:href="#Abel-Regular-6f"/>
       <use x="45.41015625" xlink:href="#Abel-Regular-63"/>
       <use x="90.8203125" xlink:href="#Abel-Regular-74"/>
       <use x="125.537109375" xlink:href="#Abel-Regular-20"/>
       <use x="148.53515625" xlink:href="#Abel-Regular-32"/>
       <use x="197.94921875" xlink:href="#Abel-Regular-30"/>
       <use x="249.365234375" xlink:href="#Abel-Regular-31"/>
       <use x="301.07421875" xlink:href="#Abel-Regular-35"/>
      </g>
     </g>
    </g>
    <g id="xtick_7">
     <g id="line2d_21">
      <path clip-path="url(#p15bd90cbfe)" d="M 372.845365 345.6 
L 372.845365 43.2 
" style="fill:none;stroke:#000000;stroke-dasharray:1.000000,3.000000;stroke-dashoffset:0.0;stroke-width:0.5;"/>
     </g>
     <g id="line2d_22">
      <g>
       <use style="stroke:#000000;stroke-width:0.5;" x="372.845365322" xlink:href="#m15060d789d" y="345.6"/>
      </g>
     </g>
     <g id="line2d_23">
      <g>
       <use style="stroke:#000000;stroke-width:0.5;" x="372.845365322" xlink:href="#md6bf96b0af" y="43.2"/>
      </g>
     </g>
     <g id="text_7">
      <!-- ene 2016 -->
      <defs>
       <path d="M 45.40625 16.21875 
Q 45.40625 12.640625 44.0625 9.515625 
Q 42.71875 6.390625 40.375 4.046875 
Q 38.03125 1.703125 34.90625 0.359375 
Q 31.78125 -0.984375 28.21875 -0.984375 
L 25.203125 -0.984375 
Q 21.625 -0.984375 18.5 0.359375 
Q 15.375 1.703125 13.03125 4.046875 
Q 10.6875 6.390625 9.34375 9.515625 
Q 8.015625 12.640625 8.015625 16.21875 
L 8.015625 53.8125 
Q 8.015625 57.375 9.34375 60.5 
Q 10.6875 63.625 13.03125 65.96875 
Q 15.375 68.3125 18.5 69.65625 
Q 21.625 71 25.203125 71 
L 28.21875 71 
Q 31.78125 71 34.90625 69.65625 
Q 38.03125 68.3125 40.375 65.96875 
Q 42.71875 63.625 44.0625 60.5 
Q 45.40625 57.375 45.40625 53.8125 
L 45.40625 52 
L 39.109375 50.984375 
L 39.109375 53.8125 
Q 39.109375 56.15625 38.234375 58.171875 
Q 37.359375 60.203125 35.8125 61.71875 
Q 34.28125 63.234375 32.25 64.109375 
Q 30.21875 64.984375 27.875 64.984375 
L 25.484375 64.984375 
Q 23.140625 64.984375 21.109375 64.109375 
Q 19.09375 63.234375 17.578125 61.71875 
Q 16.0625 60.203125 15.1875 58.171875 
Q 14.3125 56.15625 14.3125 53.8125 
L 14.3125 36.375 
Q 16.703125 39.015625 20.046875 40.59375 
Q 23.390625 42.1875 27.203125 42.1875 
L 28.21875 42.1875 
Q 31.78125 42.1875 34.90625 40.84375 
Q 38.03125 39.5 40.375 37.15625 
Q 42.71875 34.8125 44.0625 31.6875 
Q 45.40625 28.5625 45.40625 25 
L 45.40625 16.21875 
z
M 39.109375 25 
Q 39.109375 27.34375 38.234375 29.359375 
Q 37.359375 31.390625 35.8125 32.90625 
Q 34.28125 34.421875 32.25 35.296875 
Q 30.21875 36.1875 27.875 36.1875 
L 25.484375 36.1875 
Q 23.140625 36.1875 21.109375 35.296875 
Q 19.09375 34.421875 17.578125 32.90625 
Q 16.0625 31.390625 15.1875 29.359375 
Q 14.3125 27.34375 14.3125 25 
L 14.3125 16.21875 
Q 14.3125 13.875 15.1875 11.84375 
Q 16.0625 9.8125 17.578125 8.265625 
Q 19.09375 6.734375 21.109375 5.859375 
Q 23.140625 4.984375 25.484375 4.984375 
L 27.875 4.984375 
Q 30.21875 4.984375 32.25 5.859375 
Q 34.28125 6.734375 35.8125 8.265625 
Q 37.359375 9.8125 38.234375 11.84375 
Q 39.109375 13.875 39.109375 16.21875 
z
" id="Abel-Regular-36"/>
      </defs>
      <g transform="translate(333.902499459 378.666549689)rotate(-30.0)scale(0.12 -0.12)">
       <use xlink:href="#Abel-Regular-65"/>
       <use x="45.41015625" xlink:href="#Abel-Regular-6e"/>
       <use x="90.8203125" xlink:href="#Abel-Regular-65"/>
       <use x="136.23046875" xlink:href="#Abel-Regular-20"/>
       <use x="159.228515625" xlink:href="#Abel-Regular-32"/>
       <use x="208.642578125" xlink:href="#Abel-Regular-30"/>
       <use x="260.05859375" xlink:href="#Abel-Regular-31"/>
       <use x="311.751953125" xlink:href="#Abel-Regular-36"/>
      </g>
     </g>
    </g>
    <g id="xtick_8">
     <g id="line2d_24">
      <path clip-path="url(#p15bd90cbfe)" d="M 417.144602 345.6 
L 417.144602 43.2 
" style="fill:none;stroke:#000000;stroke-dasharray:1.000000,3.000000;stroke-dashoffset:0.0;stroke-width:0.5;"/>
     </g>
     <g id="line2d_25">
      <g>
       <use style="stroke:#000000;stroke-width:0.5;" x="417.144601963" xlink:href="#m15060d789d" y="345.6"/>
      </g>
     </g>
     <g id="line2d_26">
      <g>
       <use style="stroke:#000000;stroke-width:0.5;" x="417.144601963" xlink:href="#md6bf96b0af" y="43.2"/>
      </g>
     </g>
     <g id="text_8">
      <!-- abr 2016 -->
      <g transform="translate(379.935951971 377.665299689)rotate(-30.0)scale(0.12 -0.12)">
       <use xlink:href="#Abel-Regular-61"/>
       <use x="45.41015625" xlink:href="#Abel-Regular-62"/>
       <use x="90.8203125" xlink:href="#Abel-Regular-72"/>
       <use x="119.53125" xlink:href="#Abel-Regular-20"/>
       <use x="142.529296875" xlink:href="#Abel-Regular-32"/>
       <use x="191.943359375" xlink:href="#Abel-Regular-30"/>
       <use x="243.359375" xlink:href="#Abel-Regular-31"/>
       <use x="295.052734375" xlink:href="#Abel-Regular-36"/>
      </g>
     </g>
    </g>
    <g id="xtick_9">
     <g id="line2d_27">
      <path clip-path="url(#p15bd90cbfe)" d="M 461.443839 345.6 
L 461.443839 43.2 
" style="fill:none;stroke:#000000;stroke-dasharray:1.000000,3.000000;stroke-dashoffset:0.0;stroke-width:0.5;"/>
     </g>
     <g id="line2d_28">
      <g>
       <use style="stroke:#000000;stroke-width:0.5;" x="461.443838604" xlink:href="#m15060d789d" y="345.6"/>
      </g>
     </g>
     <g id="line2d_29">
      <g>
       <use style="stroke:#000000;stroke-width:0.5;" x="461.443838604" xlink:href="#md6bf96b0af" y="43.2"/>
      </g>
     </g>
     <g id="text_9">
      <!-- jul 2016 -->
      <g transform="translate(427.362622852 375.96197394)rotate(-30.0)scale(0.12 -0.12)">
       <use xlink:href="#Abel-Regular-6a"/>
       <use x="22.021484375" xlink:href="#Abel-Regular-75"/>
       <use x="67.431640625" xlink:href="#Abel-Regular-6c"/>
       <use x="89.453125" xlink:href="#Abel-Regular-20"/>
       <use x="112.451171875" xlink:href="#Abel-Regular-32"/>
       <use x="161.865234375" xlink:href="#Abel-Regular-30"/>
       <use x="213.28125" xlink:href="#Abel-Regular-31"/>
       <use x="264.974609375" xlink:href="#Abel-Regular-36"/>
      </g>
     </g>
    </g>
    <g id="xtick_10">
     <g id="line2d_30">
      <path clip-path="url(#p15bd90cbfe)" d="M 506.22988 345.6 
L 506.22988 43.2 
" style="fill:none;stroke:#000000;stroke-dasharray:1.000000,3.000000;stroke-dashoffset:0.0;stroke-width:0.5;"/>
     </g>
     <g id="line2d_31">
      <g>
       <use style="stroke:#000000;stroke-width:0.5;" x="506.229880044" xlink:href="#m15060d789d" y="345.6"/>
      </g>
     </g>
     <g id="line2d_32">
      <g>
       <use style="stroke:#000000;stroke-width:0.5;" x="506.229880044" xlink:href="#md6bf96b0af" y="43.2"/>
      </g>
     </g>
     <g id="text_10">
      <!-- oct 2016 -->
      <g transform="translate(468.397691761 378.025299689)rotate(-30.0)scale(0.12 -0.12)">
       <use xlink:href="#Abel-Regular-6f"/>
       <use x="45.41015625" xlink:href="#Abel-Regular-63"/>
       <use x="90.8203125" xlink:href="#Abel-Regular-74"/>
       <use x="125.537109375" xlink:href="#Abel-Regular-20"/>
       <use x="148.53515625" xlink:href="#Abel-Regular-32"/>
       <use x="197.94921875" xlink:href="#Abel-Regular-30"/>
       <use x="249.365234375" xlink:href="#Abel-Regular-31"/>
       <use x="301.05859375" xlink:href="#Abel-Regular-36"/>
      </g>
     </g>
    </g>
   </g>
   <g id="matplotlib.axis_2">
    <g id="ytick_1">
     <g id="line2d_33">
      <path clip-path="url(#p15bd90cbfe)" d="M 72 345.6 
L 518.4 345.6 
" style="fill:none;stroke:#000000;stroke-dasharray:1.000000,3.000000;stroke-dashoffset:0.0;stroke-width:0.5;"/>
     </g>
     <g id="line2d_34">
      <defs>
       <path d="M 0 0 
L 4 0 
" id="m09e2593c14" style="stroke:#000000;stroke-width:0.5;"/>
      </defs>
      <g>
       <use style="stroke:#000000;stroke-width:0.5;" x="72.0" xlink:href="#m09e2593c14" y="345.6"/>
      </g>
     </g>
     <g id="line2d_35">
      <defs>
       <path d="M 0 0 
L -4 0 
" id="meb106ced07" style="stroke:#000000;stroke-width:0.5;"/>
      </defs>
      <g>
       <use style="stroke:#000000;stroke-width:0.5;" x="518.4" xlink:href="#meb106ced07" y="345.6"/>
      </g>
     </g>
     <g id="text_11">
      <!-- −0.015 -->
      <defs>
       <path d="M 6.984375 0 
L 6.984375 7.515625 
L 14.5 7.515625 
L 14.5 0 
z
" id="Abel-Regular-2e"/>
       <path d="M 54 38.1875 
L 54 31.890625 
L 4 31.890625 
L 4 38.1875 
z
" id="Abel-Regular-2212"/>
      </defs>
      <g transform="translate(33.75125 348.6)scale(0.12 -0.12)">
       <use xlink:href="#Abel-Regular-2212"/>
       <use x="58.0078125" xlink:href="#Abel-Regular-30"/>
       <use x="109.392578125" xlink:href="#Abel-Regular-2e"/>
       <use x="130.845703125" xlink:href="#Abel-Regular-30"/>
       <use x="182.26171875" xlink:href="#Abel-Regular-31"/>
       <use x="233.970703125" xlink:href="#Abel-Regular-35"/>
      </g>
     </g>
    </g>
    <g id="ytick_2">
     <g id="line2d_36">
      <path clip-path="url(#p15bd90cbfe)" d="M 72 285.12 
L 518.4 285.12 
" style="fill:none;stroke:#000000;stroke-dasharray:1.000000,3.000000;stroke-dashoffset:0.0;stroke-width:0.5;"/>
     </g>
     <g id="line2d_37">
      <g>
       <use style="stroke:#000000;stroke-width:0.5;" x="72.0" xlink:href="#m09e2593c14" y="285.12"/>
      </g>
     </g>
     <g id="line2d_38">
      <g>
       <use style="stroke:#000000;stroke-width:0.5;" x="518.4" xlink:href="#meb106ced07" y="285.12"/>
      </g>
     </g>
     <g id="text_12">
      <!-- −0.010 -->
      <g transform="translate(33.75125 288.12)scale(0.12 -0.12)">
       <use xlink:href="#Abel-Regular-2212"/>
       <use x="58.0078125" xlink:href="#Abel-Regular-30"/>
       <use x="109.392578125" xlink:href="#Abel-Regular-2e"/>
       <use x="130.845703125" xlink:href="#Abel-Regular-30"/>
       <use x="182.26171875" xlink:href="#Abel-Regular-31"/>
       <use x="233.970703125" xlink:href="#Abel-Regular-30"/>
      </g>
     </g>
    </g>
    <g id="ytick_3">
     <g id="line2d_39">
      <path clip-path="url(#p15bd90cbfe)" d="M 72 224.64 
L 518.4 224.64 
" style="fill:none;stroke:#000000;stroke-dasharray:1.000000,3.000000;stroke-dashoffset:0.0;stroke-width:0.5;"/>
     </g>
     <g id="line2d_40">
      <g>
       <use style="stroke:#000000;stroke-width:0.5;" x="72.0" xlink:href="#m09e2593c14" y="224.64"/>
      </g>
     </g>
     <g id="line2d_41">
      <g>
       <use style="stroke:#000000;stroke-width:0.5;" x="518.4" xlink:href="#meb106ced07" y="224.64"/>
      </g>
     </g>
     <g id="text_13">
      <!-- −0.005 -->
      <g transform="translate(33.786875 227.64)scale(0.12 -0.12)">
       <use xlink:href="#Abel-Regular-2212"/>
       <use x="58.0078125" xlink:href="#Abel-Regular-30"/>
       <use x="109.392578125" xlink:href="#Abel-Regular-2e"/>
       <use x="130.845703125" xlink:href="#Abel-Regular-30"/>
       <use x="182.26171875" xlink:href="#Abel-Regular-30"/>
       <use x="233.662109375" xlink:href="#Abel-Regular-35"/>
      </g>
     </g>
    </g>
    <g id="ytick_4">
     <g id="line2d_42">
      <path clip-path="url(#p15bd90cbfe)" d="M 72 164.16 
L 518.4 164.16 
" style="fill:none;stroke:#000000;stroke-dasharray:1.000000,3.000000;stroke-dashoffset:0.0;stroke-width:0.5;"/>
     </g>
     <g id="line2d_43">
      <g>
       <use style="stroke:#000000;stroke-width:0.5;" x="72.0" xlink:href="#m09e2593c14" y="164.16"/>
      </g>
     </g>
     <g id="line2d_44">
      <g>
       <use style="stroke:#000000;stroke-width:0.5;" x="518.4" xlink:href="#meb106ced07" y="164.16"/>
      </g>
     </g>
     <g id="text_14">
      <!-- 0.000 -->
      <g transform="translate(40.746875 167.16)scale(0.12 -0.12)">
       <use xlink:href="#Abel-Regular-30"/>
       <use x="51.384765625" xlink:href="#Abel-Regular-2e"/>
       <use x="72.837890625" xlink:href="#Abel-Regular-30"/>
       <use x="124.25390625" xlink:href="#Abel-Regular-30"/>
       <use x="175.669921875" xlink:href="#Abel-Regular-30"/>
      </g>
     </g>
    </g>
    <g id="ytick_5">
     <g id="line2d_45">
      <path clip-path="url(#p15bd90cbfe)" d="M 72 103.68 
L 518.4 103.68 
" style="fill:none;stroke:#000000;stroke-dasharray:1.000000,3.000000;stroke-dashoffset:0.0;stroke-width:0.5;"/>
     </g>
     <g id="line2d_46">
      <g>
       <use style="stroke:#000000;stroke-width:0.5;" x="72.0" xlink:href="#m09e2593c14" y="103.68"/>
      </g>
     </g>
     <g id="line2d_47">
      <g>
       <use style="stroke:#000000;stroke-width:0.5;" x="518.4" xlink:href="#meb106ced07" y="103.68"/>
      </g>
     </g>
     <g id="text_15">
      <!-- 0.005 -->
      <g transform="translate(40.74875 106.68)scale(0.12 -0.12)">
       <use xlink:href="#Abel-Regular-30"/>
       <use x="51.384765625" xlink:href="#Abel-Regular-2e"/>
       <use x="72.837890625" xlink:href="#Abel-Regular-30"/>
       <use x="124.25390625" xlink:href="#Abel-Regular-30"/>
       <use x="175.654296875" xlink:href="#Abel-Regular-35"/>
      </g>
     </g>
    </g>
    <g id="ytick_6">
     <g id="line2d_48">
      <path clip-path="url(#p15bd90cbfe)" d="M 72 43.2 
L 518.4 43.2 
" style="fill:none;stroke:#000000;stroke-dasharray:1.000000,3.000000;stroke-dashoffset:0.0;stroke-width:0.5;"/>
     </g>
     <g id="line2d_49">
      <g>
       <use style="stroke:#000000;stroke-width:0.5;" x="72.0" xlink:href="#m09e2593c14" y="43.2"/>
      </g>
     </g>
     <g id="line2d_50">
      <g>
       <use style="stroke:#000000;stroke-width:0.5;" x="518.4" xlink:href="#meb106ced07" y="43.2"/>
      </g>
     </g>
     <g id="text_16">
      <!-- 0.010 -->
      <g transform="translate(40.713125 46.2)scale(0.12 -0.12)">
       <use xlink:href="#Abel-Regular-30"/>
       <use x="51.384765625" xlink:href="#Abel-Regular-2e"/>
       <use x="72.837890625" xlink:href="#Abel-Regular-30"/>
       <use x="124.25390625" xlink:href="#Abel-Regular-31"/>
       <use x="175.962890625" xlink:href="#Abel-Regular-30"/>
      </g>
     </g>
    </g>
   </g>
   <g id="text_17">
    <!-- CORD: Componente ESTE [m] -->
    <defs>
     <path d="M 46.390625 16.21875 
Q 46.390625 12.640625 45.046875 9.515625 
Q 43.703125 6.390625 41.359375 4.046875 
Q 39.015625 1.703125 35.890625 0.359375 
Q 32.765625 -0.984375 29.203125 -0.984375 
L 24.21875 -0.984375 
Q 20.65625 -0.984375 17.5 0.359375 
Q 14.359375 1.703125 12.015625 4.046875 
Q 9.671875 6.390625 8.328125 9.515625 
Q 6.984375 12.640625 6.984375 16.21875 
L 6.984375 53.8125 
Q 6.984375 57.375 8.328125 60.5 
Q 9.671875 63.625 12.015625 65.96875 
Q 14.359375 68.3125 17.5 69.65625 
Q 20.65625 71 24.21875 71 
L 29.203125 71 
Q 32.765625 71 35.890625 69.65625 
Q 39.015625 68.3125 41.359375 65.96875 
Q 43.703125 63.625 45.046875 60.5 
Q 46.390625 57.375 46.390625 53.8125 
L 46.390625 16.21875 
z
M 40.09375 53.8125 
Q 40.09375 56.15625 39.203125 58.171875 
Q 38.328125 60.203125 36.8125 61.71875 
Q 35.296875 63.234375 33.265625 64.109375 
Q 31.25 64.984375 28.90625 64.984375 
L 24.515625 64.984375 
Q 22.171875 64.984375 20.140625 64.109375 
Q 18.109375 63.234375 16.578125 61.71875 
Q 15.046875 60.203125 14.15625 58.171875 
Q 13.28125 56.15625 13.28125 53.8125 
L 13.28125 16.21875 
Q 13.28125 13.875 14.15625 11.84375 
Q 15.046875 9.8125 16.578125 8.265625 
Q 18.109375 6.734375 20.140625 5.859375 
Q 22.171875 4.984375 24.515625 4.984375 
L 28.90625 4.984375 
Q 31.25 4.984375 33.265625 5.859375 
Q 35.296875 6.734375 36.8125 8.265625 
Q 38.328125 9.8125 39.203125 11.84375 
Q 40.09375 13.875 40.09375 16.21875 
z
" id="Abel-Regular-4f"/>
     <path d="M 25.875 -20.015625 
L 8.015625 -20.015625 
L 8.015625 78.421875 
L 25.875 78.421875 
L 25.875 73 
L 14.015625 73 
L 14.015625 -14.59375 
L 25.875 -14.59375 
z
" id="Abel-Regular-5b"/>
     <path d="M 25 64.015625 
L 25 0 
L 18.703125 0 
L 18.703125 64.015625 
L 2 64.015625 
L 2 70.015625 
L 41.703125 70.015625 
L 41.703125 64.015625 
z
" id="Abel-Regular-54"/>
     <path d="M 46.390625 16.21875 
Q 46.390625 12.640625 45.046875 9.515625 
Q 43.703125 6.390625 41.359375 4.046875 
Q 39.015625 1.703125 35.890625 0.359375 
Q 32.765625 -0.984375 29.203125 -0.984375 
L 24.21875 -0.984375 
Q 20.65625 -0.984375 17.5 0.359375 
Q 14.359375 1.703125 12.015625 4.046875 
Q 9.671875 6.390625 8.328125 9.515625 
Q 6.984375 12.640625 6.984375 16.21875 
L 6.984375 53.8125 
Q 6.984375 57.375 8.328125 60.5 
Q 9.671875 63.625 12.015625 65.96875 
Q 14.359375 68.3125 17.5 69.65625 
Q 20.65625 71 24.21875 71 
L 29.203125 71 
Q 32.765625 71 35.890625 69.65625 
Q 39.015625 68.3125 41.359375 65.96875 
Q 43.703125 63.625 45.046875 60.5 
Q 46.390625 57.375 46.390625 53.8125 
L 46.390625 50.984375 
L 40.09375 50 
L 40.09375 53.8125 
Q 40.09375 56.15625 39.203125 58.171875 
Q 38.328125 60.203125 36.8125 61.71875 
Q 35.296875 63.234375 33.265625 64.109375 
Q 31.25 64.984375 28.90625 64.984375 
L 24.515625 64.984375 
Q 22.171875 64.984375 20.140625 64.109375 
Q 18.109375 63.234375 16.578125 61.71875 
Q 15.046875 60.203125 14.15625 58.171875 
Q 13.28125 56.15625 13.28125 53.8125 
L 13.28125 16.21875 
Q 13.28125 13.875 14.15625 11.84375 
Q 15.046875 9.8125 16.578125 8.265625 
Q 18.109375 6.734375 20.140625 5.859375 
Q 22.171875 4.984375 24.515625 4.984375 
L 28.90625 4.984375 
Q 31.25 4.984375 33.265625 5.859375 
Q 35.296875 6.734375 36.8125 8.265625 
Q 38.328125 9.8125 39.203125 11.84375 
Q 40.09375 13.875 40.09375 16.21875 
L 40.09375 20.015625 
L 46.390625 19 
L 46.390625 16.21875 
z
" id="Abel-Regular-43"/>
     <path d="M 8.015625 0 
L 8.015625 70.015625 
L 47.40625 70.015625 
L 47.40625 64.015625 
L 14.3125 64.015625 
L 14.3125 37.984375 
L 41.109375 37.984375 
L 41.109375 31.984375 
L 14.3125 31.984375 
L 14.3125 6 
L 47.40625 6 
L 47.40625 0 
z
" id="Abel-Regular-45"/>
     <path d="M 6.984375 42.484375 
L 6.984375 50 
L 14.5 50 
L 14.5 42.484375 
z
M 6.984375 0 
L 6.984375 7.515625 
L 14.5 7.515625 
L 14.5 0 
z
" id="Abel-Regular-3a"/>
     <path d="M 46.390625 16.21875 
Q 46.390625 12.640625 44.9375 9.515625 
Q 43.5 6.390625 41.078125 4.046875 
Q 38.671875 1.703125 35.46875 0.359375 
Q 32.28125 -0.984375 28.71875 -0.984375 
L 23.6875 -0.984375 
Q 20.125 -0.984375 16.921875 0.359375 
Q 13.71875 1.703125 11.296875 4.046875 
Q 8.890625 6.390625 7.4375 9.515625 
Q 6 12.640625 6 16.21875 
L 6 19 
L 12.3125 20.015625 
L 12.3125 16.21875 
Q 12.3125 13.875 13.25 11.84375 
Q 14.203125 9.8125 15.8125 8.265625 
Q 17.4375 6.734375 19.5625 5.859375 
Q 21.6875 4.984375 24.03125 4.984375 
L 28.421875 4.984375 
Q 30.765625 4.984375 32.859375 5.859375 
Q 34.96875 6.734375 36.578125 8.265625 
Q 38.1875 9.8125 39.140625 11.84375 
Q 40.09375 13.875 40.09375 16.21875 
L 40.09375 18.3125 
Q 40.09375 21.921875 38.671875 24.3125 
Q 37.25 26.703125 34.90625 28.390625 
Q 32.5625 30.078125 29.609375 31.25 
Q 26.65625 32.421875 23.53125 33.59375 
Q 20.40625 34.765625 17.453125 36.171875 
Q 14.5 37.59375 12.15625 39.71875 
Q 9.8125 41.84375 8.390625 44.921875 
Q 6.984375 48 6.984375 52.484375 
L 6.984375 53.8125 
Q 6.984375 57.375 8.328125 60.5 
Q 9.671875 63.625 12.015625 65.96875 
Q 14.359375 68.3125 17.5 69.65625 
Q 20.65625 71 24.21875 71 
L 28.71875 71 
Q 32.28125 71 35.40625 69.65625 
Q 38.53125 68.3125 40.875 65.96875 
Q 43.21875 63.625 44.5625 60.5 
Q 45.90625 57.375 45.90625 53.8125 
L 45.90625 52 
L 39.59375 50.984375 
L 39.59375 53.8125 
Q 39.59375 56.15625 38.71875 58.171875 
Q 37.84375 60.203125 36.328125 61.71875 
Q 34.8125 63.234375 32.78125 64.109375 
Q 30.765625 64.984375 28.421875 64.984375 
L 24.515625 64.984375 
Q 22.171875 64.984375 20.140625 64.109375 
Q 18.109375 63.234375 16.578125 61.71875 
Q 15.046875 60.203125 14.15625 58.171875 
Q 13.28125 56.15625 13.28125 53.8125 
L 13.28125 52.484375 
Q 13.28125 49.125 14.6875 46.828125 
Q 16.109375 44.53125 18.453125 42.890625 
Q 20.796875 41.265625 23.75 40.0625 
Q 26.703125 38.875 29.828125 37.625 
Q 32.953125 36.375 35.90625 34.890625 
Q 38.875 33.40625 41.21875 31.21875 
Q 43.5625 29.046875 44.96875 25.921875 
Q 46.390625 22.796875 46.390625 18.3125 
z
" id="Abel-Regular-53"/>
     <path d="M 4.984375 -14.59375 
L 16.890625 -14.59375 
L 16.890625 73 
L 4.984375 73 
L 4.984375 78.421875 
L 22.90625 78.421875 
L 22.90625 -20.015625 
L 4.984375 -20.015625 
z
" id="Abel-Regular-5d"/>
     <path d="M 39.40625 13.71875 
Q 39.40625 10.6875 38.25 8 
Q 37.109375 5.328125 35.109375 3.3125 
Q 33.109375 1.3125 30.421875 0.15625 
Q 27.734375 -0.984375 24.703125 -0.984375 
L 23.1875 -0.984375 
Q 19.828125 -0.984375 16.9375 0.390625 
Q 14.0625 1.765625 12.015625 4.203125 
L 12.015625 -20.015625 
L 6 -20.015625 
L 6 50 
L 8.015625 50 
L 11.28125 44.921875 
Q 13.328125 47.703125 16.421875 49.34375 
Q 19.53125 50.984375 23.1875 50.984375 
L 24.703125 50.984375 
Q 27.734375 50.984375 30.421875 49.828125 
Q 33.109375 48.6875 35.109375 46.671875 
Q 37.109375 44.671875 38.25 41.984375 
Q 39.40625 39.3125 39.40625 36.28125 
L 39.40625 13.71875 
z
M 33.40625 36.625 
Q 33.40625 38.421875 32.71875 40.015625 
Q 32.03125 41.609375 30.859375 42.78125 
Q 29.6875 43.953125 28.09375 44.625 
Q 26.515625 45.3125 24.703125 45.3125 
L 20.703125 45.3125 
Q 18.890625 45.3125 17.296875 44.625 
Q 15.71875 43.953125 14.546875 42.78125 
Q 13.375 41.609375 12.6875 40.015625 
Q 12.015625 38.421875 12.015625 36.625 
L 12.015625 13.375 
Q 12.015625 11.578125 12.6875 9.984375 
Q 13.375 8.40625 14.546875 7.234375 
Q 15.71875 6.0625 17.296875 5.375 
Q 18.890625 4.6875 20.703125 4.6875 
L 24.703125 4.6875 
Q 26.515625 4.6875 28.09375 5.375 
Q 29.6875 6.0625 30.859375 7.234375 
Q 32.03125 8.40625 32.71875 9.984375 
Q 33.40625 11.578125 33.40625 13.375 
z
" id="Abel-Regular-70"/>
     <path d="M 40.921875 0 
L 21.921875 29.890625 
L 13.28125 29.890625 
L 13.28125 0 
L 6.984375 0 
L 6.984375 70.015625 
L 29.203125 70.015625 
Q 32.765625 70.015625 35.890625 68.671875 
Q 39.015625 67.328125 41.359375 64.984375 
Q 43.703125 62.640625 45.046875 59.484375 
Q 46.390625 56.34375 46.390625 52.78125 
L 46.390625 47.125 
Q 46.390625 43.5625 45.046875 40.40625 
Q 43.703125 37.25 41.359375 34.90625 
Q 39.015625 32.5625 35.890625 31.21875 
Q 32.765625 29.890625 29.203125 29.890625 
L 48.1875 0 
z
M 40.09375 52.78125 
Q 40.09375 55.125 39.203125 57.15625 
Q 38.328125 59.1875 36.8125 60.71875 
Q 35.296875 62.25 33.265625 63.125 
Q 31.25 64.015625 28.90625 64.015625 
L 13.28125 64.015625 
L 13.28125 35.890625 
L 28.90625 35.890625 
Q 31.25 35.890625 33.265625 36.765625 
Q 35.296875 37.640625 36.8125 39.171875 
Q 38.328125 40.71875 39.203125 42.75 
Q 40.09375 44.78125 40.09375 47.125 
z
" id="Abel-Regular-52"/>
     <path d="M 58.796875 0 
L 58.796875 36.625 
Q 58.796875 38.421875 58.109375 40.015625 
Q 57.421875 41.609375 56.25 42.78125 
Q 55.078125 43.953125 53.484375 44.625 
Q 51.90625 45.3125 50.09375 45.3125 
L 47.125 45.3125 
Q 45.3125 45.3125 43.71875 44.625 
Q 42.140625 43.953125 40.9375 42.78125 
Q 39.75 41.609375 39.0625 40.015625 
Q 38.375 38.421875 38.375 36.625 
L 38.375 0 
L 32.421875 0 
L 32.421875 36.625 
Q 32.421875 38.421875 31.734375 40.015625 
Q 31.0625 41.609375 29.859375 42.78125 
Q 28.65625 43.953125 27.0625 44.625 
Q 25.484375 45.3125 23.6875 45.3125 
L 20.703125 45.3125 
Q 18.890625 45.3125 17.296875 44.625 
Q 15.71875 43.953125 14.546875 42.78125 
Q 13.375 41.609375 12.6875 40.015625 
Q 12.015625 38.421875 12.015625 36.625 
L 12.015625 0 
L 6 0 
L 6 50 
L 8.015625 50 
L 11.28125 44.921875 
Q 13.328125 47.703125 16.421875 49.34375 
Q 19.53125 50.984375 23.1875 50.984375 
L 23.6875 50.984375 
Q 27.9375 50.984375 31.34375 48.875 
Q 34.765625 46.78125 36.625 43.3125 
Q 37.546875 45.015625 38.90625 46.4375 
Q 40.28125 47.859375 41.9375 48.859375 
Q 43.609375 49.859375 45.5625 50.421875 
Q 47.515625 50.984375 49.609375 50.984375 
L 50.09375 50.984375 
Q 53.125 50.984375 55.8125 49.828125 
Q 58.5 48.6875 60.5 46.671875 
Q 62.5 44.671875 63.640625 41.984375 
Q 64.796875 39.3125 64.796875 36.28125 
L 64.796875 0 
z
" id="Abel-Regular-6d"/>
     <path d="M 47.40625 17.1875 
Q 47.40625 13.625 46.0625 10.5 
Q 44.734375 7.375 42.390625 5.03125 
Q 40.046875 2.6875 36.890625 1.34375 
Q 33.734375 0 30.171875 0 
L 8.015625 0 
L 8.015625 70.015625 
L 30.171875 70.015625 
Q 33.734375 70.015625 36.890625 68.671875 
Q 40.046875 67.328125 42.390625 64.984375 
Q 44.734375 62.640625 46.0625 59.484375 
Q 47.40625 56.34375 47.40625 52.78125 
L 47.40625 17.1875 
z
M 41.109375 52.78125 
Q 41.109375 55.125 40.234375 57.15625 
Q 39.359375 59.1875 37.8125 60.71875 
Q 36.28125 62.25 34.25 63.125 
Q 32.234375 64.015625 29.890625 64.015625 
L 14.3125 64.015625 
L 14.3125 6 
L 29.890625 6 
Q 32.234375 6 34.25 6.875 
Q 36.28125 7.765625 37.8125 9.28125 
Q 39.359375 10.796875 40.234375 12.8125 
Q 41.109375 14.84375 41.109375 17.1875 
z
" id="Abel-Regular-44"/>
    </defs>
    <g transform="translate(215.301375 38.2)scale(0.144 -0.144)">
     <use xlink:href="#Abel-Regular-43"/>
     <use x="52.392578125" xlink:href="#Abel-Regular-4f"/>
     <use x="105.810546875" xlink:href="#Abel-Regular-52"/>
     <use x="158.0078125" xlink:href="#Abel-Regular-44"/>
     <use x="212.40234375" xlink:href="#Abel-Regular-3a"/>
     <use x="233.88671875" xlink:href="#Abel-Regular-20"/>
     <use x="256.884765625" xlink:href="#Abel-Regular-43"/>
     <use x="309.27734375" xlink:href="#Abel-Regular-6f"/>
     <use x="354.6875" xlink:href="#Abel-Regular-6d"/>
     <use x="425.48828125" xlink:href="#Abel-Regular-70"/>
     <use x="470.8984375" xlink:href="#Abel-Regular-6f"/>
     <use x="516.30859375" xlink:href="#Abel-Regular-6e"/>
     <use x="561.71875" xlink:href="#Abel-Regular-65"/>
     <use x="607.12890625" xlink:href="#Abel-Regular-6e"/>
     <use x="652.5390625" xlink:href="#Abel-Regular-74"/>
     <use x="687.255859375" xlink:href="#Abel-Regular-65"/>
     <use x="732.666015625" xlink:href="#Abel-Regular-20"/>
     <use x="755.6640625" xlink:href="#Abel-Regular-45"/>
     <use x="807.080078125" xlink:href="#Abel-Regular-53"/>
     <use x="858.984375" xlink:href="#Abel-Regular-54"/>
     <use x="902.685546875" xlink:href="#Abel-Regular-45"/>
     <use x="954.1015625" xlink:href="#Abel-Regular-20"/>
     <use x="977.099609375" xlink:href="#Abel-Regular-5b"/>
     <use x="1008.0078125" xlink:href="#Abel-Regular-6d"/>
     <use x="1078.80859375" xlink:href="#Abel-Regular-5d"/>
    </g>
   </g>
  </g>
 </g>
 <defs>
  <clipPath id="p15bd90cbfe">
   <rect height="302.4" width="446.4" x="72.0" y="43.2"/>
  </clipPath>
 </defs>
</svg>
