<?xml version="1.0" encoding="utf-8" standalone="no"?>
<!DOCTYPE svg PUBLIC "-//W3C//DTD SVG 1.1//EN"
  "http://www.w3.org/Graphics/SVG/1.1/DTD/svg11.dtd">
<!-- Created with matplotlib (http://matplotlib.org/) -->
<svg height="432pt" version="1.1" viewBox="0 0 576 432" width="576pt" xmlns="http://www.w3.org/2000/svg" xmlns:xlink="http://www.w3.org/1999/xlink">
 <defs>
  <style type="text/css">
*{stroke-linecap:butt;stroke-linejoin:round;stroke-miterlimit:100000;}
  </style>
 </defs>
 <g id="figure_1">
  <g id="patch_1">
   <path d="M 0 432 
L 576 432 
L 576 0 
L 0 0 
z
" style="fill:#ffffff;"/>
  </g>
  <g id="axes_1">
   <g id="line2d_1">
    <path clip-path="url(#p888e1c1dd2)" d="M 72 285.12 
L 518.4 285.12 
" style="fill:none;stroke:#000000;stroke-linecap:square;"/>
   </g>
   <g id="line2d_2">
    <defs>
     <path d="M 0 3 
C 0.795609 3 1.55874 2.683901 2.12132 2.12132 
C 2.683901 1.55874 3 0.795609 3 0 
C 3 -0.795609 2.683901 -1.55874 2.12132 -2.12132 
C 1.55874 -2.683901 0.795609 -3 0 -3 
C -0.795609 -3 -1.55874 -2.683901 -2.12132 -2.12132 
C -2.683901 -1.55874 -3 -0.795609 -3 0 
C -3 0.795609 -2.683901 1.55874 -2.12132 2.12132 
C -1.55874 2.683901 -0.795609 3 0 3 
z
" id="m45230514e4" style="stroke:#000000;stroke-width:0.5;"/>
    </defs>
    <g clip-path="url(#p888e1c1dd2)">
     <use style="fill:#008000;stroke:#000000;stroke-width:0.5;" x="72.0" xlink:href="#m45230514e4" y="297.216"/>
     <use style="fill:#008000;stroke:#000000;stroke-width:0.5;" x="73.6115523466" xlink:href="#m45230514e4" y="273.024"/>
     <use style="fill:#008000;stroke:#000000;stroke-width:0.5;" x="75.2231046931" xlink:href="#m45230514e4" y="260.928"/>
     <use style="fill:#008000;stroke:#000000;stroke-width:0.5;" x="76.8346570397" xlink:href="#m45230514e4" y="248.832"/>
     <use style="fill:#008000;stroke:#000000;stroke-width:0.5;" x="78.4462093863" xlink:href="#m45230514e4" y="285.12"/>
     <use style="fill:#008000;stroke:#000000;stroke-width:0.5;" x="80.0577617328" xlink:href="#m45230514e4" y="248.832"/>
     <use style="fill:#008000;stroke:#000000;stroke-width:0.5;" x="81.6693140794" xlink:href="#m45230514e4" y="260.928"/>
     <use style="fill:#008000;stroke:#000000;stroke-width:0.5;" x="83.280866426" xlink:href="#m45230514e4" y="212.544"/>
     <use style="fill:#008000;stroke:#000000;stroke-width:0.5;" x="84.8924187725" xlink:href="#m45230514e4" y="260.928"/>
     <use style="fill:#008000;stroke:#000000;stroke-width:0.5;" x="86.5039711191" xlink:href="#m45230514e4" y="248.832"/>
     <use style="fill:#008000;stroke:#000000;stroke-width:0.5;" x="88.1155234657" xlink:href="#m45230514e4" y="236.736"/>
     <use style="fill:#008000;stroke:#000000;stroke-width:0.5;" x="89.7270758123" xlink:href="#m45230514e4" y="248.832"/>
     <use style="fill:#008000;stroke:#000000;stroke-width:0.5;" x="91.3386281588" xlink:href="#m45230514e4" y="248.832"/>
     <use style="fill:#008000;stroke:#000000;stroke-width:0.5;" x="92.9501805054" xlink:href="#m45230514e4" y="236.736"/>
     <use style="fill:#008000;stroke:#000000;stroke-width:0.5;" x="94.561732852" xlink:href="#m45230514e4" y="224.64"/>
     <use style="fill:#008000;stroke:#000000;stroke-width:0.5;" x="96.1732851985" xlink:href="#m45230514e4" y="260.928"/>
     <use style="fill:#008000;stroke:#000000;stroke-width:0.5;" x="97.7848375451" xlink:href="#m45230514e4" y="260.928"/>
     <use style="fill:#008000;stroke:#000000;stroke-width:0.5;" x="99.3963898917" xlink:href="#m45230514e4" y="273.024"/>
     <use style="fill:#008000;stroke:#000000;stroke-width:0.5;" x="101.007942238" xlink:href="#m45230514e4" y="285.12"/>
     <use style="fill:#008000;stroke:#000000;stroke-width:0.5;" x="102.619494585" xlink:href="#m45230514e4" y="273.024"/>
     <use style="fill:#008000;stroke:#000000;stroke-width:0.5;" x="104.231046931" xlink:href="#m45230514e4" y="285.12"/>
     <use style="fill:#008000;stroke:#000000;stroke-width:0.5;" x="105.842599278" xlink:href="#m45230514e4" y="285.12"/>
     <use style="fill:#008000;stroke:#000000;stroke-width:0.5;" x="107.454151625" xlink:href="#m45230514e4" y="273.024"/>
     <use style="fill:#008000;stroke:#000000;stroke-width:0.5;" x="109.065703971" xlink:href="#m45230514e4" y="273.024"/>
     <use style="fill:#008000;stroke:#000000;stroke-width:0.5;" x="110.677256318" xlink:href="#m45230514e4" y="273.024"/>
     <use style="fill:#008000;stroke:#000000;stroke-width:0.5;" x="112.288808664" xlink:href="#m45230514e4" y="260.928"/>
     <use style="fill:#008000;stroke:#000000;stroke-width:0.5;" x="113.900361011" xlink:href="#m45230514e4" y="260.928"/>
     <use style="fill:#008000;stroke:#000000;stroke-width:0.5;" x="115.511913357" xlink:href="#m45230514e4" y="285.12"/>
     <use style="fill:#008000;stroke:#000000;stroke-width:0.5;" x="117.123465704" xlink:href="#m45230514e4" y="260.928"/>
     <use style="fill:#008000;stroke:#000000;stroke-width:0.5;" x="120.346570397" xlink:href="#m45230514e4" y="285.12"/>
     <use style="fill:#008000;stroke:#000000;stroke-width:0.5;" x="121.958122744" xlink:href="#m45230514e4" y="285.12"/>
     <use style="fill:#008000;stroke:#000000;stroke-width:0.5;" x="123.56967509" xlink:href="#m45230514e4" y="285.12"/>
     <use style="fill:#008000;stroke:#000000;stroke-width:0.5;" x="125.181227437" xlink:href="#m45230514e4" y="297.216"/>
     <use style="fill:#008000;stroke:#000000;stroke-width:0.5;" x="126.792779783" xlink:href="#m45230514e4" y="273.024"/>
     <use style="fill:#008000;stroke:#000000;stroke-width:0.5;" x="128.40433213" xlink:href="#m45230514e4" y="260.928"/>
     <use style="fill:#008000;stroke:#000000;stroke-width:0.5;" x="130.015884477" xlink:href="#m45230514e4" y="273.024"/>
     <use style="fill:#008000;stroke:#000000;stroke-width:0.5;" x="131.627436823" xlink:href="#m45230514e4" y="273.024"/>
     <use style="fill:#008000;stroke:#000000;stroke-width:0.5;" x="133.23898917" xlink:href="#m45230514e4" y="285.12"/>
     <use style="fill:#008000;stroke:#000000;stroke-width:0.5;" x="134.850541516" xlink:href="#m45230514e4" y="248.832"/>
     <use style="fill:#008000;stroke:#000000;stroke-width:0.5;" x="136.462093863" xlink:href="#m45230514e4" y="248.832"/>
     <use style="fill:#008000;stroke:#000000;stroke-width:0.5;" x="138.073646209" xlink:href="#m45230514e4" y="248.832"/>
     <use style="fill:#008000;stroke:#000000;stroke-width:0.5;" x="139.685198556" xlink:href="#m45230514e4" y="285.12"/>
     <use style="fill:#008000;stroke:#000000;stroke-width:0.5;" x="141.296750903" xlink:href="#m45230514e4" y="273.024"/>
     <use style="fill:#008000;stroke:#000000;stroke-width:0.5;" x="142.908303249" xlink:href="#m45230514e4" y="260.928"/>
     <use style="fill:#008000;stroke:#000000;stroke-width:0.5;" x="144.519855596" xlink:href="#m45230514e4" y="236.736"/>
     <use style="fill:#008000;stroke:#000000;stroke-width:0.5;" x="146.131407942" xlink:href="#m45230514e4" y="224.64"/>
     <use style="fill:#008000;stroke:#000000;stroke-width:0.5;" x="147.742960289" xlink:href="#m45230514e4" y="260.928"/>
     <use style="fill:#008000;stroke:#000000;stroke-width:0.5;" x="149.354512635" xlink:href="#m45230514e4" y="248.832"/>
     <use style="fill:#008000;stroke:#000000;stroke-width:0.5;" x="150.966064982" xlink:href="#m45230514e4" y="260.928"/>
     <use style="fill:#008000;stroke:#000000;stroke-width:0.5;" x="152.577617328" xlink:href="#m45230514e4" y="273.024"/>
     <use style="fill:#008000;stroke:#000000;stroke-width:0.5;" x="154.189169675" xlink:href="#m45230514e4" y="236.736"/>
     <use style="fill:#008000;stroke:#000000;stroke-width:0.5;" x="155.800722022" xlink:href="#m45230514e4" y="248.832"/>
     <use style="fill:#008000;stroke:#000000;stroke-width:0.5;" x="157.412274368" xlink:href="#m45230514e4" y="236.736"/>
     <use style="fill:#008000;stroke:#000000;stroke-width:0.5;" x="159.023826715" xlink:href="#m45230514e4" y="236.736"/>
     <use style="fill:#008000;stroke:#000000;stroke-width:0.5;" x="160.635379061" xlink:href="#m45230514e4" y="212.544"/>
     <use style="fill:#008000;stroke:#000000;stroke-width:0.5;" x="162.246931408" xlink:href="#m45230514e4" y="212.544"/>
     <use style="fill:#008000;stroke:#000000;stroke-width:0.5;" x="163.858483754" xlink:href="#m45230514e4" y="212.544"/>
     <use style="fill:#008000;stroke:#000000;stroke-width:0.5;" x="165.470036101" xlink:href="#m45230514e4" y="212.544"/>
     <use style="fill:#008000;stroke:#000000;stroke-width:0.5;" x="167.081588448" xlink:href="#m45230514e4" y="200.448"/>
     <use style="fill:#008000;stroke:#000000;stroke-width:0.5;" x="168.693140794" xlink:href="#m45230514e4" y="200.448"/>
     <use style="fill:#008000;stroke:#000000;stroke-width:0.5;" x="170.304693141" xlink:href="#m45230514e4" y="224.64"/>
     <use style="fill:#008000;stroke:#000000;stroke-width:0.5;" x="171.916245487" xlink:href="#m45230514e4" y="236.736"/>
     <use style="fill:#008000;stroke:#000000;stroke-width:0.5;" x="173.527797834" xlink:href="#m45230514e4" y="212.544"/>
     <use style="fill:#008000;stroke:#000000;stroke-width:0.5;" x="175.13935018" xlink:href="#m45230514e4" y="224.64"/>
     <use style="fill:#008000;stroke:#000000;stroke-width:0.5;" x="176.750902527" xlink:href="#m45230514e4" y="224.64"/>
     <use style="fill:#008000;stroke:#000000;stroke-width:0.5;" x="178.362454874" xlink:href="#m45230514e4" y="212.544"/>
     <use style="fill:#008000;stroke:#000000;stroke-width:0.5;" x="179.97400722" xlink:href="#m45230514e4" y="224.64"/>
     <use style="fill:#008000;stroke:#000000;stroke-width:0.5;" x="181.585559567" xlink:href="#m45230514e4" y="236.736"/>
     <use style="fill:#008000;stroke:#000000;stroke-width:0.5;" x="183.197111913" xlink:href="#m45230514e4" y="224.64"/>
     <use style="fill:#008000;stroke:#000000;stroke-width:0.5;" x="184.80866426" xlink:href="#m45230514e4" y="260.928"/>
     <use style="fill:#008000;stroke:#000000;stroke-width:0.5;" x="186.420216606" xlink:href="#m45230514e4" y="273.024"/>
     <use style="fill:#008000;stroke:#000000;stroke-width:0.5;" x="188.031768953" xlink:href="#m45230514e4" y="273.024"/>
     <use style="fill:#008000;stroke:#000000;stroke-width:0.5;" x="189.6433213" xlink:href="#m45230514e4" y="285.12"/>
     <use style="fill:#008000;stroke:#000000;stroke-width:0.5;" x="191.254873646" xlink:href="#m45230514e4" y="224.64"/>
     <use style="fill:#008000;stroke:#000000;stroke-width:0.5;" x="192.866425993" xlink:href="#m45230514e4" y="260.928"/>
     <use style="fill:#008000;stroke:#000000;stroke-width:0.5;" x="194.477978339" xlink:href="#m45230514e4" y="260.928"/>
     <use style="fill:#008000;stroke:#000000;stroke-width:0.5;" x="196.089530686" xlink:href="#m45230514e4" y="285.12"/>
     <use style="fill:#008000;stroke:#000000;stroke-width:0.5;" x="197.701083032" xlink:href="#m45230514e4" y="260.928"/>
     <use style="fill:#008000;stroke:#000000;stroke-width:0.5;" x="199.312635379" xlink:href="#m45230514e4" y="248.832"/>
     <use style="fill:#008000;stroke:#000000;stroke-width:0.5;" x="200.924187726" xlink:href="#m45230514e4" y="260.928"/>
     <use style="fill:#008000;stroke:#000000;stroke-width:0.5;" x="202.535740072" xlink:href="#m45230514e4" y="273.024"/>
     <use style="fill:#008000;stroke:#000000;stroke-width:0.5;" x="204.147292419" xlink:href="#m45230514e4" y="236.736"/>
     <use style="fill:#008000;stroke:#000000;stroke-width:0.5;" x="205.758844765" xlink:href="#m45230514e4" y="224.64"/>
     <use style="fill:#008000;stroke:#000000;stroke-width:0.5;" x="207.370397112" xlink:href="#m45230514e4" y="248.832"/>
     <use style="fill:#008000;stroke:#000000;stroke-width:0.5;" x="208.981949458" xlink:href="#m45230514e4" y="273.024"/>
     <use style="fill:#008000;stroke:#000000;stroke-width:0.5;" x="210.593501805" xlink:href="#m45230514e4" y="212.544"/>
     <use style="fill:#008000;stroke:#000000;stroke-width:0.5;" x="212.205054152" xlink:href="#m45230514e4" y="260.928"/>
     <use style="fill:#008000;stroke:#000000;stroke-width:0.5;" x="213.816606498" xlink:href="#m45230514e4" y="212.544"/>
     <use style="fill:#008000;stroke:#000000;stroke-width:0.5;" x="215.428158845" xlink:href="#m45230514e4" y="236.736"/>
     <use style="fill:#008000;stroke:#000000;stroke-width:0.5;" x="217.039711191" xlink:href="#m45230514e4" y="224.64"/>
     <use style="fill:#008000;stroke:#000000;stroke-width:0.5;" x="218.651263538" xlink:href="#m45230514e4" y="236.736"/>
     <use style="fill:#008000;stroke:#000000;stroke-width:0.5;" x="220.262815884" xlink:href="#m45230514e4" y="212.544"/>
     <use style="fill:#008000;stroke:#000000;stroke-width:0.5;" x="221.874368231" xlink:href="#m45230514e4" y="212.544"/>
     <use style="fill:#008000;stroke:#000000;stroke-width:0.5;" x="223.485920578" xlink:href="#m45230514e4" y="224.64"/>
     <use style="fill:#008000;stroke:#000000;stroke-width:0.5;" x="225.097472924" xlink:href="#m45230514e4" y="212.544"/>
     <use style="fill:#008000;stroke:#000000;stroke-width:0.5;" x="226.709025271" xlink:href="#m45230514e4" y="200.448"/>
     <use style="fill:#008000;stroke:#000000;stroke-width:0.5;" x="228.320577617" xlink:href="#m45230514e4" y="224.64"/>
     <use style="fill:#008000;stroke:#000000;stroke-width:0.5;" x="229.932129964" xlink:href="#m45230514e4" y="212.544"/>
     <use style="fill:#008000;stroke:#000000;stroke-width:0.5;" x="231.54368231" xlink:href="#m45230514e4" y="200.448"/>
     <use style="fill:#008000;stroke:#000000;stroke-width:0.5;" x="233.155234657" xlink:href="#m45230514e4" y="224.64"/>
     <use style="fill:#008000;stroke:#000000;stroke-width:0.5;" x="234.766787004" xlink:href="#m45230514e4" y="212.544"/>
     <use style="fill:#008000;stroke:#000000;stroke-width:0.5;" x="236.37833935" xlink:href="#m45230514e4" y="236.736"/>
     <use style="fill:#008000;stroke:#000000;stroke-width:0.5;" x="237.989891697" xlink:href="#m45230514e4" y="224.64"/>
     <use style="fill:#008000;stroke:#000000;stroke-width:0.5;" x="239.601444043" xlink:href="#m45230514e4" y="212.544"/>
     <use style="fill:#008000;stroke:#000000;stroke-width:0.5;" x="241.21299639" xlink:href="#m45230514e4" y="200.448"/>
     <use style="fill:#008000;stroke:#000000;stroke-width:0.5;" x="242.824548736" xlink:href="#m45230514e4" y="176.256"/>
     <use style="fill:#008000;stroke:#000000;stroke-width:0.5;" x="244.436101083" xlink:href="#m45230514e4" y="188.352"/>
     <use style="fill:#008000;stroke:#000000;stroke-width:0.5;" x="246.04765343" xlink:href="#m45230514e4" y="176.256"/>
     <use style="fill:#008000;stroke:#000000;stroke-width:0.5;" x="247.659205776" xlink:href="#m45230514e4" y="164.16"/>
     <use style="fill:#008000;stroke:#000000;stroke-width:0.5;" x="249.270758123" xlink:href="#m45230514e4" y="139.968"/>
     <use style="fill:#008000;stroke:#000000;stroke-width:0.5;" x="250.882310469" xlink:href="#m45230514e4" y="176.256"/>
     <use style="fill:#008000;stroke:#000000;stroke-width:0.5;" x="252.493862816" xlink:href="#m45230514e4" y="176.256"/>
     <use style="fill:#008000;stroke:#000000;stroke-width:0.5;" x="254.105415162" xlink:href="#m45230514e4" y="164.16"/>
     <use style="fill:#008000;stroke:#000000;stroke-width:0.5;" x="255.716967509" xlink:href="#m45230514e4" y="188.352"/>
     <use style="fill:#008000;stroke:#000000;stroke-width:0.5;" x="257.328519856" xlink:href="#m45230514e4" y="164.16"/>
     <use style="fill:#008000;stroke:#000000;stroke-width:0.5;" x="258.940072202" xlink:href="#m45230514e4" y="200.448"/>
     <use style="fill:#008000;stroke:#000000;stroke-width:0.5;" x="260.551624549" xlink:href="#m45230514e4" y="212.544"/>
     <use style="fill:#008000;stroke:#000000;stroke-width:0.5;" x="262.163176895" xlink:href="#m45230514e4" y="164.16"/>
     <use style="fill:#008000;stroke:#000000;stroke-width:0.5;" x="263.774729242" xlink:href="#m45230514e4" y="176.256"/>
     <use style="fill:#008000;stroke:#000000;stroke-width:0.5;" x="265.386281588" xlink:href="#m45230514e4" y="188.352"/>
     <use style="fill:#008000;stroke:#000000;stroke-width:0.5;" x="266.997833935" xlink:href="#m45230514e4" y="200.448"/>
     <use style="fill:#008000;stroke:#000000;stroke-width:0.5;" x="268.609386282" xlink:href="#m45230514e4" y="200.448"/>
     <use style="fill:#008000;stroke:#000000;stroke-width:0.5;" x="270.220938628" xlink:href="#m45230514e4" y="212.544"/>
     <use style="fill:#008000;stroke:#000000;stroke-width:0.5;" x="271.832490975" xlink:href="#m45230514e4" y="212.544"/>
     <use style="fill:#008000;stroke:#000000;stroke-width:0.5;" x="273.444043321" xlink:href="#m45230514e4" y="200.448"/>
     <use style="fill:#008000;stroke:#000000;stroke-width:0.5;" x="275.055595668" xlink:href="#m45230514e4" y="212.544"/>
     <use style="fill:#008000;stroke:#000000;stroke-width:0.5;" x="276.667148014" xlink:href="#m45230514e4" y="212.544"/>
     <use style="fill:#008000;stroke:#000000;stroke-width:0.5;" x="318.567509025" xlink:href="#m45230514e4" y="139.968"/>
     <use style="fill:#008000;stroke:#000000;stroke-width:0.5;" x="320.179061372" xlink:href="#m45230514e4" y="164.16"/>
     <use style="fill:#008000;stroke:#000000;stroke-width:0.5;" x="321.790613718" xlink:href="#m45230514e4" y="152.064"/>
     <use style="fill:#008000;stroke:#000000;stroke-width:0.5;" x="323.402166065" xlink:href="#m45230514e4" y="152.064"/>
     <use style="fill:#008000;stroke:#000000;stroke-width:0.5;" x="325.013718412" xlink:href="#m45230514e4" y="127.872"/>
     <use style="fill:#008000;stroke:#000000;stroke-width:0.5;" x="326.625270758" xlink:href="#m45230514e4" y="139.968"/>
     <use style="fill:#008000;stroke:#000000;stroke-width:0.5;" x="328.236823105" xlink:href="#m45230514e4" y="127.872"/>
     <use style="fill:#008000;stroke:#000000;stroke-width:0.5;" x="329.848375451" xlink:href="#m45230514e4" y="127.872"/>
     <use style="fill:#008000;stroke:#000000;stroke-width:0.5;" x="331.459927798" xlink:href="#m45230514e4" y="139.968"/>
     <use style="fill:#008000;stroke:#000000;stroke-width:0.5;" x="333.071480144" xlink:href="#m45230514e4" y="139.968"/>
     <use style="fill:#008000;stroke:#000000;stroke-width:0.5;" x="334.683032491" xlink:href="#m45230514e4" y="139.968"/>
     <use style="fill:#008000;stroke:#000000;stroke-width:0.5;" x="336.294584838" xlink:href="#m45230514e4" y="139.968"/>
     <use style="fill:#008000;stroke:#000000;stroke-width:0.5;" x="337.906137184" xlink:href="#m45230514e4" y="127.872"/>
     <use style="fill:#008000;stroke:#000000;stroke-width:0.5;" x="339.517689531" xlink:href="#m45230514e4" y="176.256"/>
     <use style="fill:#008000;stroke:#000000;stroke-width:0.5;" x="341.129241877" xlink:href="#m45230514e4" y="152.064"/>
     <use style="fill:#008000;stroke:#000000;stroke-width:0.5;" x="342.740794224" xlink:href="#m45230514e4" y="200.448"/>
     <use style="fill:#008000;stroke:#000000;stroke-width:0.5;" x="344.35234657" xlink:href="#m45230514e4" y="176.256"/>
     <use style="fill:#008000;stroke:#000000;stroke-width:0.5;" x="345.963898917" xlink:href="#m45230514e4" y="152.064"/>
     <use style="fill:#008000;stroke:#000000;stroke-width:0.5;" x="347.575451264" xlink:href="#m45230514e4" y="164.16"/>
     <use style="fill:#008000;stroke:#000000;stroke-width:0.5;" x="349.18700361" xlink:href="#m45230514e4" y="152.064"/>
     <use style="fill:#008000;stroke:#000000;stroke-width:0.5;" x="350.798555957" xlink:href="#m45230514e4" y="164.16"/>
     <use style="fill:#008000;stroke:#000000;stroke-width:0.5;" x="352.410108303" xlink:href="#m45230514e4" y="188.352"/>
     <use style="fill:#008000;stroke:#000000;stroke-width:0.5;" x="354.02166065" xlink:href="#m45230514e4" y="176.256"/>
     <use style="fill:#008000;stroke:#000000;stroke-width:0.5;" x="355.633212996" xlink:href="#m45230514e4" y="224.64"/>
     <use style="fill:#008000;stroke:#000000;stroke-width:0.5;" x="357.244765343" xlink:href="#m45230514e4" y="164.16"/>
     <use style="fill:#008000;stroke:#000000;stroke-width:0.5;" x="358.856317689" xlink:href="#m45230514e4" y="176.256"/>
     <use style="fill:#008000;stroke:#000000;stroke-width:0.5;" x="360.467870036" xlink:href="#m45230514e4" y="200.448"/>
     <use style="fill:#008000;stroke:#000000;stroke-width:0.5;" x="362.079422383" xlink:href="#m45230514e4" y="176.256"/>
     <use style="fill:#008000;stroke:#000000;stroke-width:0.5;" x="363.690974729" xlink:href="#m45230514e4" y="188.352"/>
     <use style="fill:#008000;stroke:#000000;stroke-width:0.5;" x="365.302527076" xlink:href="#m45230514e4" y="200.448"/>
     <use style="fill:#008000;stroke:#000000;stroke-width:0.5;" x="366.914079422" xlink:href="#m45230514e4" y="188.352"/>
     <use style="fill:#008000;stroke:#000000;stroke-width:0.5;" x="368.525631769" xlink:href="#m45230514e4" y="188.352"/>
     <use style="fill:#008000;stroke:#000000;stroke-width:0.5;" x="370.137184116" xlink:href="#m45230514e4" y="224.64"/>
     <use style="fill:#008000;stroke:#000000;stroke-width:0.5;" x="371.748736462" xlink:href="#m45230514e4" y="200.448"/>
     <use style="fill:#008000;stroke:#000000;stroke-width:0.5;" x="373.360288809" xlink:href="#m45230514e4" y="176.256"/>
     <use style="fill:#008000;stroke:#000000;stroke-width:0.5;" x="374.971841155" xlink:href="#m45230514e4" y="200.448"/>
     <use style="fill:#008000;stroke:#000000;stroke-width:0.5;" x="378.194945848" xlink:href="#m45230514e4" y="200.448"/>
     <use style="fill:#008000;stroke:#000000;stroke-width:0.5;" x="379.806498195" xlink:href="#m45230514e4" y="212.544"/>
     <use style="fill:#008000;stroke:#000000;stroke-width:0.5;" x="381.418050541" xlink:href="#m45230514e4" y="139.968"/>
     <use style="fill:#008000;stroke:#000000;stroke-width:0.5;" x="383.029602888" xlink:href="#m45230514e4" y="164.16"/>
     <use style="fill:#008000;stroke:#000000;stroke-width:0.5;" x="384.641155235" xlink:href="#m45230514e4" y="152.064"/>
     <use style="fill:#008000;stroke:#000000;stroke-width:0.5;" x="386.252707581" xlink:href="#m45230514e4" y="176.256"/>
     <use style="fill:#008000;stroke:#000000;stroke-width:0.5;" x="387.864259928" xlink:href="#m45230514e4" y="176.256"/>
     <use style="fill:#008000;stroke:#000000;stroke-width:0.5;" x="389.475812274" xlink:href="#m45230514e4" y="127.872"/>
     <use style="fill:#008000;stroke:#000000;stroke-width:0.5;" x="391.087364621" xlink:href="#m45230514e4" y="176.256"/>
     <use style="fill:#008000;stroke:#000000;stroke-width:0.5;" x="392.698916967" xlink:href="#m45230514e4" y="152.064"/>
     <use style="fill:#008000;stroke:#000000;stroke-width:0.5;" x="394.310469314" xlink:href="#m45230514e4" y="139.968"/>
     <use style="fill:#008000;stroke:#000000;stroke-width:0.5;" x="395.922021661" xlink:href="#m45230514e4" y="127.872"/>
     <use style="fill:#008000;stroke:#000000;stroke-width:0.5;" x="397.533574007" xlink:href="#m45230514e4" y="115.776"/>
     <use style="fill:#008000;stroke:#000000;stroke-width:0.5;" x="399.145126354" xlink:href="#m45230514e4" y="103.68"/>
     <use style="fill:#008000;stroke:#000000;stroke-width:0.5;" x="400.7566787" xlink:href="#m45230514e4" y="115.776"/>
     <use style="fill:#008000;stroke:#000000;stroke-width:0.5;" x="402.368231047" xlink:href="#m45230514e4" y="115.776"/>
     <use style="fill:#008000;stroke:#000000;stroke-width:0.5;" x="403.979783393" xlink:href="#m45230514e4" y="67.392"/>
     <use style="fill:#008000;stroke:#000000;stroke-width:0.5;" x="405.59133574" xlink:href="#m45230514e4" y="91.584"/>
     <use style="fill:#008000;stroke:#000000;stroke-width:0.5;" x="407.202888087" xlink:href="#m45230514e4" y="91.584"/>
     <use style="fill:#008000;stroke:#000000;stroke-width:0.5;" x="408.814440433" xlink:href="#m45230514e4" y="79.488"/>
     <use style="fill:#008000;stroke:#000000;stroke-width:0.5;" x="410.42599278" xlink:href="#m45230514e4" y="79.488"/>
     <use style="fill:#008000;stroke:#000000;stroke-width:0.5;" x="412.037545126" xlink:href="#m45230514e4" y="91.584"/>
     <use style="fill:#008000;stroke:#000000;stroke-width:0.5;" x="413.649097473" xlink:href="#m45230514e4" y="79.488"/>
     <use style="fill:#008000;stroke:#000000;stroke-width:0.5;" x="415.260649819" xlink:href="#m45230514e4" y="103.68"/>
     <use style="fill:#008000;stroke:#000000;stroke-width:0.5;" x="416.872202166" xlink:href="#m45230514e4" y="91.584"/>
     <use style="fill:#008000;stroke:#000000;stroke-width:0.5;" x="418.483754513" xlink:href="#m45230514e4" y="127.872"/>
     <use style="fill:#008000;stroke:#000000;stroke-width:0.5;" x="420.095306859" xlink:href="#m45230514e4" y="139.968"/>
     <use style="fill:#008000;stroke:#000000;stroke-width:0.5;" x="423.318411552" xlink:href="#m45230514e4" y="115.776"/>
     <use style="fill:#008000;stroke:#000000;stroke-width:0.5;" x="424.929963899" xlink:href="#m45230514e4" y="139.968"/>
     <use style="fill:#008000;stroke:#000000;stroke-width:0.5;" x="426.541516245" xlink:href="#m45230514e4" y="152.064"/>
     <use style="fill:#008000;stroke:#000000;stroke-width:0.5;" x="428.153068592" xlink:href="#m45230514e4" y="139.968"/>
     <use style="fill:#008000;stroke:#000000;stroke-width:0.5;" x="429.764620939" xlink:href="#m45230514e4" y="164.16"/>
     <use style="fill:#008000;stroke:#000000;stroke-width:0.5;" x="431.376173285" xlink:href="#m45230514e4" y="188.352"/>
     <use style="fill:#008000;stroke:#000000;stroke-width:0.5;" x="432.987725632" xlink:href="#m45230514e4" y="212.544"/>
     <use style="fill:#008000;stroke:#000000;stroke-width:0.5;" x="434.599277978" xlink:href="#m45230514e4" y="224.64"/>
     <use style="fill:#008000;stroke:#000000;stroke-width:0.5;" x="436.210830325" xlink:href="#m45230514e4" y="200.448"/>
     <use style="fill:#008000;stroke:#000000;stroke-width:0.5;" x="437.822382671" xlink:href="#m45230514e4" y="212.544"/>
     <use style="fill:#008000;stroke:#000000;stroke-width:0.5;" x="439.433935018" xlink:href="#m45230514e4" y="224.64"/>
     <use style="fill:#008000;stroke:#000000;stroke-width:0.5;" x="441.045487365" xlink:href="#m45230514e4" y="200.448"/>
     <use style="fill:#008000;stroke:#000000;stroke-width:0.5;" x="442.657039711" xlink:href="#m45230514e4" y="236.736"/>
     <use style="fill:#008000;stroke:#000000;stroke-width:0.5;" x="444.268592058" xlink:href="#m45230514e4" y="236.736"/>
     <use style="fill:#008000;stroke:#000000;stroke-width:0.5;" x="445.880144404" xlink:href="#m45230514e4" y="236.736"/>
     <use style="fill:#008000;stroke:#000000;stroke-width:0.5;" x="447.491696751" xlink:href="#m45230514e4" y="212.544"/>
     <use style="fill:#008000;stroke:#000000;stroke-width:0.5;" x="449.103249097" xlink:href="#m45230514e4" y="248.832"/>
     <use style="fill:#008000;stroke:#000000;stroke-width:0.5;" x="450.714801444" xlink:href="#m45230514e4" y="224.64"/>
     <use style="fill:#008000;stroke:#000000;stroke-width:0.5;" x="452.326353791" xlink:href="#m45230514e4" y="224.64"/>
     <use style="fill:#008000;stroke:#000000;stroke-width:0.5;" x="453.937906137" xlink:href="#m45230514e4" y="248.832"/>
     <use style="fill:#008000;stroke:#000000;stroke-width:0.5;" x="505.507581227" xlink:href="#m45230514e4" y="260.928"/>
     <use style="fill:#008000;stroke:#000000;stroke-width:0.5;" x="507.119133574" xlink:href="#m45230514e4" y="260.928"/>
     <use style="fill:#008000;stroke:#000000;stroke-width:0.5;" x="508.730685921" xlink:href="#m45230514e4" y="212.544"/>
     <use style="fill:#008000;stroke:#000000;stroke-width:0.5;" x="510.342238267" xlink:href="#m45230514e4" y="212.544"/>
     <use style="fill:#008000;stroke:#000000;stroke-width:0.5;" x="511.953790614" xlink:href="#m45230514e4" y="200.448"/>
     <use style="fill:#008000;stroke:#000000;stroke-width:0.5;" x="513.56534296" xlink:href="#m45230514e4" y="273.024"/>
     <use style="fill:#008000;stroke:#000000;stroke-width:0.5;" x="515.176895307" xlink:href="#m45230514e4" y="248.832"/>
     <use style="fill:#008000;stroke:#000000;stroke-width:0.5;" x="516.788447653" xlink:href="#m45230514e4" y="248.832"/>
     <use style="fill:#008000;stroke:#000000;stroke-width:0.5;" x="518.4" xlink:href="#m45230514e4" y="224.64"/>
    </g>
   </g>
   <g id="matplotlib.axis_1">
    <g id="xtick_1">
     <g id="line2d_3">
      <path clip-path="url(#p888e1c1dd2)" d="M 118.044353 345.6 
L 118.044353 43.2 
" style="fill:none;stroke:#000000;stroke-dasharray:1.000000,3.000000;stroke-dashoffset:0.0;stroke-width:0.5;"/>
     </g>
     <g id="line2d_4">
      <defs>
       <path d="M 0 0 
L 0 -4 
" id="mb1c66627f1" style="stroke:#000000;stroke-width:0.5;"/>
      </defs>
      <g>
       <use style="stroke:#000000;stroke-width:0.5;" x="118.044352759" xlink:href="#mb1c66627f1" y="345.6"/>
      </g>
     </g>
     <g id="line2d_5">
      <defs>
       <path d="M 0 0 
L 0 4 
" id="me57cfb858f" style="stroke:#000000;stroke-width:0.5;"/>
      </defs>
      <g>
       <use style="stroke:#000000;stroke-width:0.5;" x="118.044352759" xlink:href="#me57cfb858f" y="43.2"/>
      </g>
     </g>
     <g id="text_1">
      <!-- 2012 -->
      <defs>
       <path d="M 44.390625 16.21875 
Q 44.390625 12.640625 43.046875 9.515625 
Q 41.703125 6.390625 39.359375 4.046875 
Q 37.015625 1.703125 33.890625 0.359375 
Q 30.765625 -0.984375 27.203125 -0.984375 
L 24.21875 -0.984375 
Q 20.65625 -0.984375 17.5 0.359375 
Q 14.359375 1.703125 12.015625 4.046875 
Q 9.671875 6.390625 8.328125 9.515625 
Q 6.984375 12.640625 6.984375 16.21875 
L 6.984375 53.8125 
Q 6.984375 57.375 8.328125 60.5 
Q 9.671875 63.625 12.015625 65.96875 
Q 14.359375 68.3125 17.5 69.65625 
Q 20.65625 71 24.21875 71 
L 27.203125 71 
Q 30.765625 71 33.890625 69.65625 
Q 37.015625 68.3125 39.359375 65.96875 
Q 41.703125 63.625 43.046875 60.5 
Q 44.390625 57.375 44.390625 53.8125 
L 44.390625 16.21875 
z
M 38.09375 53.8125 
Q 38.09375 56.15625 37.203125 58.171875 
Q 36.328125 60.203125 34.8125 61.71875 
Q 33.296875 63.234375 31.265625 64.109375 
Q 29.25 64.984375 26.90625 64.984375 
L 24.515625 64.984375 
Q 22.171875 64.984375 20.140625 64.109375 
Q 18.109375 63.234375 16.578125 61.71875 
Q 15.046875 60.203125 14.15625 58.171875 
Q 13.28125 56.15625 13.28125 53.8125 
L 13.28125 16.21875 
Q 13.28125 13.875 14.15625 11.84375 
Q 15.046875 9.8125 16.578125 8.265625 
Q 18.109375 6.734375 20.140625 5.859375 
Q 22.171875 4.984375 24.515625 4.984375 
L 26.90625 4.984375 
Q 29.25 4.984375 31.265625 5.859375 
Q 33.296875 6.734375 34.8125 8.265625 
Q 36.328125 9.8125 37.203125 11.84375 
Q 38.09375 13.875 38.09375 16.21875 
z
" id="Abel-Regular-30"/>
       <path d="M 23 64.984375 
Q 20.65625 64.984375 18.625 64.109375 
Q 16.609375 63.234375 15.09375 61.71875 
Q 13.578125 60.203125 12.6875 58.171875 
Q 11.8125 56.15625 11.8125 53.8125 
L 11.8125 50.984375 
L 5.515625 52 
L 5.515625 53.8125 
Q 5.515625 57.375 6.859375 60.5 
Q 8.203125 63.625 10.546875 65.96875 
Q 12.890625 68.3125 16.015625 69.65625 
Q 19.140625 71 22.703125 71 
L 25.6875 71 
Q 29.25 71 32.390625 69.71875 
Q 35.546875 68.453125 37.890625 66.0625 
Q 40.234375 63.671875 41.578125 60.328125 
Q 42.921875 56.984375 42.921875 52.78125 
Q 42.921875 48.640625 41.671875 44.4375 
Q 40.4375 40.234375 38.40625 36.171875 
Q 36.375 32.125 33.765625 28.3125 
Q 31.15625 24.515625 28.421875 21.140625 
Q 22.015625 13.28125 13.921875 6 
L 43.40625 6 
L 43.40625 0 
L 4 0 
L 4 4.984375 
Q 13.140625 12.5 20.3125 20.5625 
Q 23.390625 24.03125 26.3125 27.9375 
Q 29.25 31.84375 31.546875 35.96875 
Q 33.84375 40.09375 35.234375 44.359375 
Q 36.625 48.640625 36.625 52.78125 
Q 36.625 55.859375 35.6875 58.15625 
Q 34.765625 60.453125 33.203125 61.96875 
Q 31.640625 63.484375 29.609375 64.234375 
Q 27.59375 64.984375 25.390625 64.984375 
z
" id="Abel-Regular-32"/>
       <path d="M 8.015625 0 
L 8.015625 6 
L 24.703125 6 
L 24.703125 64.015625 
L 8.015625 56.984375 
L 8.015625 62.984375 
L 24.703125 70.015625 
L 31 70.015625 
L 31 6 
L 47.703125 6 
L 47.703125 0 
z
" id="Abel-Regular-31"/>
      </defs>
      <g transform="translate(95.8542070667 368.994362189)rotate(-30.0)scale(0.12 -0.12)">
       <use xlink:href="#Abel-Regular-32"/>
       <use x="49.4140625" xlink:href="#Abel-Regular-30"/>
       <use x="100.830078125" xlink:href="#Abel-Regular-31"/>
       <use x="152.5390625" xlink:href="#Abel-Regular-32"/>
      </g>
     </g>
    </g>
    <g id="xtick_2">
     <g id="line2d_6">
      <path clip-path="url(#p888e1c1dd2)" d="M 202.305518 345.6 
L 202.305518 43.2 
" style="fill:none;stroke:#000000;stroke-dasharray:1.000000,3.000000;stroke-dashoffset:0.0;stroke-width:0.5;"/>
     </g>
     <g id="line2d_7">
      <g>
       <use style="stroke:#000000;stroke-width:0.5;" x="202.305518308" xlink:href="#mb1c66627f1" y="345.6"/>
      </g>
     </g>
     <g id="line2d_8">
      <g>
       <use style="stroke:#000000;stroke-width:0.5;" x="202.305518308" xlink:href="#me57cfb858f" y="43.2"/>
      </g>
     </g>
     <g id="text_2">
      <!-- 2013 -->
      <defs>
       <path d="M 44.390625 16.21875 
Q 44.390625 12.640625 43.046875 9.515625 
Q 41.703125 6.390625 39.359375 4.046875 
Q 37.015625 1.703125 33.890625 0.359375 
Q 30.765625 -0.984375 27.203125 -0.984375 
L 24.21875 -0.984375 
Q 20.65625 -0.984375 17.5 0.359375 
Q 14.359375 1.703125 12.015625 4.046875 
Q 9.671875 6.390625 8.328125 9.515625 
Q 6.984375 12.640625 6.984375 16.21875 
L 6.984375 18.015625 
L 13.28125 19 
L 13.28125 16.21875 
Q 13.28125 13.875 14.15625 11.84375 
Q 15.046875 9.8125 16.578125 8.265625 
Q 18.109375 6.734375 20.140625 5.859375 
Q 22.171875 4.984375 24.515625 4.984375 
L 26.90625 4.984375 
Q 29.25 4.984375 31.265625 5.859375 
Q 33.296875 6.734375 34.8125 8.265625 
Q 36.328125 9.8125 37.203125 11.84375 
Q 38.09375 13.875 38.09375 16.21875 
L 38.09375 22.015625 
Q 38.09375 24.359375 37.203125 26.390625 
Q 36.328125 28.421875 34.8125 29.9375 
Q 33.296875 31.453125 31.265625 32.328125 
Q 29.25 33.203125 26.90625 33.203125 
L 22.21875 33.203125 
L 22.21875 39.203125 
L 26.90625 39.203125 
Q 29.25 39.203125 31.265625 40.078125 
Q 33.296875 40.96875 34.8125 42.484375 
Q 36.328125 44 37.203125 46.015625 
Q 38.09375 48.046875 38.09375 50.390625 
L 38.09375 53.8125 
Q 38.09375 56.15625 37.203125 58.171875 
Q 36.328125 60.203125 34.8125 61.71875 
Q 33.296875 63.234375 31.265625 64.109375 
Q 29.25 64.984375 26.90625 64.984375 
L 24.515625 64.984375 
Q 22.171875 64.984375 20.140625 64.109375 
Q 18.109375 63.234375 16.578125 61.71875 
Q 15.046875 60.203125 14.15625 58.171875 
Q 13.28125 56.15625 13.28125 53.8125 
L 13.28125 50.984375 
L 6.984375 52 
L 6.984375 53.8125 
Q 6.984375 57.375 8.328125 60.5 
Q 9.671875 63.625 12.015625 65.96875 
Q 14.359375 68.3125 17.5 69.65625 
Q 20.65625 71 24.21875 71 
L 27.203125 71 
Q 30.765625 71 33.890625 69.65625 
Q 37.015625 68.3125 39.359375 65.96875 
Q 41.703125 63.625 43.046875 60.5 
Q 44.390625 57.375 44.390625 53.8125 
L 44.390625 51.421875 
Q 44.390625 48.921875 43.71875 46.65625 
Q 43.0625 44.390625 41.859375 42.4375 
Q 40.671875 40.484375 39.015625 38.890625 
Q 37.359375 37.3125 35.296875 36.1875 
Q 37.359375 35.109375 39.015625 33.515625 
Q 40.671875 31.9375 41.859375 29.984375 
Q 43.0625 28.03125 43.71875 25.75 
Q 44.390625 23.484375 44.390625 21 
L 44.390625 16.21875 
z
" id="Abel-Regular-33"/>
      </defs>
      <g transform="translate(179.907526519 369.114362189)rotate(-30.0)scale(0.12 -0.12)">
       <use xlink:href="#Abel-Regular-32"/>
       <use x="49.4140625" xlink:href="#Abel-Regular-30"/>
       <use x="100.830078125" xlink:href="#Abel-Regular-31"/>
       <use x="152.5390625" xlink:href="#Abel-Regular-33"/>
      </g>
     </g>
    </g>
    <g id="xtick_3">
     <g id="line2d_9">
      <path clip-path="url(#p888e1c1dd2)" d="M 286.336462 345.6 
L 286.336462 43.2 
" style="fill:none;stroke:#000000;stroke-dasharray:1.000000,3.000000;stroke-dashoffset:0.0;stroke-width:0.5;"/>
     </g>
     <g id="line2d_10">
      <g>
       <use style="stroke:#000000;stroke-width:0.5;" x="286.336462094" xlink:href="#mb1c66627f1" y="345.6"/>
      </g>
     </g>
     <g id="line2d_11">
      <g>
       <use style="stroke:#000000;stroke-width:0.5;" x="286.336462094" xlink:href="#me57cfb858f" y="43.2"/>
      </g>
     </g>
     <g id="text_3">
      <!-- 2014 -->
      <defs>
       <path d="M 37.40625 12.109375 
L 37.40625 0 
L 31.109375 0 
L 31.109375 12.109375 
L 2.984375 12.109375 
L 2.984375 15.09375 
L 34.078125 70.015625 
L 37.40625 70.015625 
L 37.40625 18.109375 
L 43.40625 18.109375 
L 43.40625 12.109375 
z
M 31.109375 52.78125 
L 11.8125 18.109375 
L 31.109375 18.109375 
z
" id="Abel-Regular-34"/>
      </defs>
      <g transform="translate(264.047264746 369.051549689)rotate(-30.0)scale(0.12 -0.12)">
       <use xlink:href="#Abel-Regular-32"/>
       <use x="49.4140625" xlink:href="#Abel-Regular-30"/>
       <use x="100.830078125" xlink:href="#Abel-Regular-31"/>
       <use x="152.5234375" xlink:href="#Abel-Regular-34"/>
      </g>
     </g>
    </g>
    <g id="xtick_4">
     <g id="line2d_12">
      <path clip-path="url(#p888e1c1dd2)" d="M 370.367406 345.6 
L 370.367406 43.2 
" style="fill:none;stroke:#000000;stroke-dasharray:1.000000,3.000000;stroke-dashoffset:0.0;stroke-width:0.5;"/>
     </g>
     <g id="line2d_13">
      <g>
       <use style="stroke:#000000;stroke-width:0.5;" x="370.367405879" xlink:href="#mb1c66627f1" y="345.6"/>
      </g>
     </g>
     <g id="line2d_14">
      <g>
       <use style="stroke:#000000;stroke-width:0.5;" x="370.367405879" xlink:href="#me57cfb858f" y="43.2"/>
      </g>
     </g>
     <g id="text_4">
      <!-- 2015 -->
      <defs>
       <path d="M 44.390625 16.21875 
Q 44.390625 12.640625 43.046875 9.515625 
Q 41.703125 6.390625 39.359375 4.046875 
Q 37.015625 1.703125 33.890625 0.359375 
Q 30.765625 -0.984375 27.203125 -0.984375 
L 24.21875 -0.984375 
Q 20.65625 -0.984375 17.5 0.359375 
Q 14.359375 1.703125 12.015625 4.046875 
Q 9.671875 6.390625 8.328125 9.515625 
Q 6.984375 12.640625 6.984375 16.21875 
L 6.984375 17.28125 
L 13.28125 17.28125 
L 13.28125 16.21875 
Q 13.28125 13.875 14.15625 11.84375 
Q 15.046875 9.8125 16.578125 8.265625 
Q 18.109375 6.734375 20.140625 5.859375 
Q 22.171875 4.984375 24.515625 4.984375 
L 26.90625 4.984375 
Q 29.25 4.984375 31.265625 5.859375 
Q 33.296875 6.734375 34.8125 8.265625 
Q 36.328125 9.8125 37.203125 11.84375 
Q 38.09375 13.875 38.09375 16.21875 
L 38.09375 29.78125 
Q 38.09375 32.125 37.203125 34.15625 
Q 36.328125 36.1875 34.8125 37.71875 
Q 33.296875 39.265625 31.265625 40.140625 
Q 29.25 41.015625 26.90625 41.015625 
L 24.515625 41.015625 
Q 22.171875 41.015625 20.140625 40.140625 
Q 18.109375 39.265625 16.578125 37.71875 
Q 15.046875 36.1875 14.15625 34.15625 
Q 13.28125 32.125 13.28125 29.78125 
L 6.984375 29.78125 
L 10.984375 70.015625 
L 40.921875 70.015625 
L 40.921875 64.015625 
L 16.890625 64.015625 
L 14.59375 42.484375 
Q 16.84375 44.625 19.8125 45.8125 
Q 22.796875 47.015625 26.21875 47.015625 
L 27.203125 47.015625 
Q 30.765625 47.015625 33.890625 45.671875 
Q 37.015625 44.34375 39.359375 42 
Q 41.703125 39.65625 43.046875 36.5 
Q 44.390625 33.34375 44.390625 29.78125 
L 44.390625 16.21875 
z
" id="Abel-Regular-35"/>
      </defs>
      <g transform="translate(347.96941409 369.114362189)rotate(-30.0)scale(0.12 -0.12)">
       <use xlink:href="#Abel-Regular-32"/>
       <use x="49.4140625" xlink:href="#Abel-Regular-30"/>
       <use x="100.830078125" xlink:href="#Abel-Regular-31"/>
       <use x="152.5390625" xlink:href="#Abel-Regular-35"/>
      </g>
     </g>
    </g>
    <g id="xtick_5">
     <g id="line2d_15">
      <path clip-path="url(#p888e1c1dd2)" d="M 454.39835 345.6 
L 454.39835 43.2 
" style="fill:none;stroke:#000000;stroke-dasharray:1.000000,3.000000;stroke-dashoffset:0.0;stroke-width:0.5;"/>
     </g>
     <g id="line2d_16">
      <g>
       <use style="stroke:#000000;stroke-width:0.5;" x="454.398349665" xlink:href="#mb1c66627f1" y="345.6"/>
      </g>
     </g>
     <g id="line2d_17">
      <g>
       <use style="stroke:#000000;stroke-width:0.5;" x="454.398349665" xlink:href="#me57cfb858f" y="43.2"/>
      </g>
     </g>
     <g id="text_5">
      <!-- 2016 -->
      <defs>
       <path d="M 45.40625 16.21875 
Q 45.40625 12.640625 44.0625 9.515625 
Q 42.71875 6.390625 40.375 4.046875 
Q 38.03125 1.703125 34.90625 0.359375 
Q 31.78125 -0.984375 28.21875 -0.984375 
L 25.203125 -0.984375 
Q 21.625 -0.984375 18.5 0.359375 
Q 15.375 1.703125 13.03125 4.046875 
Q 10.6875 6.390625 9.34375 9.515625 
Q 8.015625 12.640625 8.015625 16.21875 
L 8.015625 53.8125 
Q 8.015625 57.375 9.34375 60.5 
Q 10.6875 63.625 13.03125 65.96875 
Q 15.375 68.3125 18.5 69.65625 
Q 21.625 71 25.203125 71 
L 28.21875 71 
Q 31.78125 71 34.90625 69.65625 
Q 38.03125 68.3125 40.375 65.96875 
Q 42.71875 63.625 44.0625 60.5 
Q 45.40625 57.375 45.40625 53.8125 
L 45.40625 52 
L 39.109375 50.984375 
L 39.109375 53.8125 
Q 39.109375 56.15625 38.234375 58.171875 
Q 37.359375 60.203125 35.8125 61.71875 
Q 34.28125 63.234375 32.25 64.109375 
Q 30.21875 64.984375 27.875 64.984375 
L 25.484375 64.984375 
Q 23.140625 64.984375 21.109375 64.109375 
Q 19.09375 63.234375 17.578125 61.71875 
Q 16.0625 60.203125 15.1875 58.171875 
Q 14.3125 56.15625 14.3125 53.8125 
L 14.3125 36.375 
Q 16.703125 39.015625 20.046875 40.59375 
Q 23.390625 42.1875 27.203125 42.1875 
L 28.21875 42.1875 
Q 31.78125 42.1875 34.90625 40.84375 
Q 38.03125 39.5 40.375 37.15625 
Q 42.71875 34.8125 44.0625 31.6875 
Q 45.40625 28.5625 45.40625 25 
L 45.40625 16.21875 
z
M 39.109375 25 
Q 39.109375 27.34375 38.234375 29.359375 
Q 37.359375 31.390625 35.8125 32.90625 
Q 34.28125 34.421875 32.25 35.296875 
Q 30.21875 36.1875 27.875 36.1875 
L 25.484375 36.1875 
Q 23.140625 36.1875 21.109375 35.296875 
Q 19.09375 34.421875 17.578125 32.90625 
Q 16.0625 31.390625 15.1875 29.359375 
Q 14.3125 27.34375 14.3125 25 
L 14.3125 16.21875 
Q 14.3125 13.875 15.1875 11.84375 
Q 16.0625 9.8125 17.578125 8.265625 
Q 19.09375 6.734375 21.109375 5.859375 
Q 23.140625 4.984375 25.484375 4.984375 
L 27.875 4.984375 
Q 30.21875 4.984375 32.25 5.859375 
Q 34.28125 6.734375 35.8125 8.265625 
Q 37.359375 9.8125 38.234375 11.84375 
Q 39.109375 13.875 39.109375 16.21875 
z
" id="Abel-Regular-36"/>
      </defs>
      <g transform="translate(432.001981673 369.113424689)rotate(-30.0)scale(0.12 -0.12)">
       <use xlink:href="#Abel-Regular-32"/>
       <use x="49.4140625" xlink:href="#Abel-Regular-30"/>
       <use x="100.830078125" xlink:href="#Abel-Regular-31"/>
       <use x="152.5234375" xlink:href="#Abel-Regular-36"/>
      </g>
     </g>
    </g>
   </g>
   <g id="matplotlib.axis_2">
    <g id="ytick_1">
     <g id="line2d_18">
      <path clip-path="url(#p888e1c1dd2)" d="M 72 345.6 
L 518.4 345.6 
" style="fill:none;stroke:#000000;stroke-dasharray:1.000000,3.000000;stroke-dashoffset:0.0;stroke-width:0.5;"/>
     </g>
     <g id="line2d_19">
      <defs>
       <path d="M 0 0 
L 4 0 
" id="m20b0d445f5" style="stroke:#000000;stroke-width:0.5;"/>
      </defs>
      <g>
       <use style="stroke:#000000;stroke-width:0.5;" x="72.0" xlink:href="#m20b0d445f5" y="345.6"/>
      </g>
     </g>
     <g id="line2d_20">
      <defs>
       <path d="M 0 0 
L -4 0 
" id="m7048ba3870" style="stroke:#000000;stroke-width:0.5;"/>
      </defs>
      <g>
       <use style="stroke:#000000;stroke-width:0.5;" x="518.4" xlink:href="#m7048ba3870" y="345.6"/>
      </g>
     </g>
     <g id="text_6">
      <!-- −0.005 -->
      <defs>
       <path d="M 6.984375 0 
L 6.984375 7.515625 
L 14.5 7.515625 
L 14.5 0 
z
" id="Abel-Regular-2e"/>
       <path d="M 54 38.1875 
L 54 31.890625 
L 4 31.890625 
L 4 38.1875 
z
" id="Abel-Regular-2212"/>
      </defs>
      <g transform="translate(33.786875 348.6)scale(0.12 -0.12)">
       <use xlink:href="#Abel-Regular-2212"/>
       <use x="58.0078125" xlink:href="#Abel-Regular-30"/>
       <use x="109.392578125" xlink:href="#Abel-Regular-2e"/>
       <use x="130.845703125" xlink:href="#Abel-Regular-30"/>
       <use x="182.26171875" xlink:href="#Abel-Regular-30"/>
       <use x="233.662109375" xlink:href="#Abel-Regular-35"/>
      </g>
     </g>
    </g>
    <g id="ytick_2">
     <g id="line2d_21">
      <path clip-path="url(#p888e1c1dd2)" d="M 72 285.12 
L 518.4 285.12 
" style="fill:none;stroke:#000000;stroke-dasharray:1.000000,3.000000;stroke-dashoffset:0.0;stroke-width:0.5;"/>
     </g>
     <g id="line2d_22">
      <g>
       <use style="stroke:#000000;stroke-width:0.5;" x="72.0" xlink:href="#m20b0d445f5" y="285.12"/>
      </g>
     </g>
     <g id="line2d_23">
      <g>
       <use style="stroke:#000000;stroke-width:0.5;" x="518.4" xlink:href="#m7048ba3870" y="285.12"/>
      </g>
     </g>
     <g id="text_7">
      <!-- 0.000 -->
      <g transform="translate(40.746875 288.12)scale(0.12 -0.12)">
       <use xlink:href="#Abel-Regular-30"/>
       <use x="51.384765625" xlink:href="#Abel-Regular-2e"/>
       <use x="72.837890625" xlink:href="#Abel-Regular-30"/>
       <use x="124.25390625" xlink:href="#Abel-Regular-30"/>
       <use x="175.669921875" xlink:href="#Abel-Regular-30"/>
      </g>
     </g>
    </g>
    <g id="ytick_3">
     <g id="line2d_24">
      <path clip-path="url(#p888e1c1dd2)" d="M 72 224.64 
L 518.4 224.64 
" style="fill:none;stroke:#000000;stroke-dasharray:1.000000,3.000000;stroke-dashoffset:0.0;stroke-width:0.5;"/>
     </g>
     <g id="line2d_25">
      <g>
       <use style="stroke:#000000;stroke-width:0.5;" x="72.0" xlink:href="#m20b0d445f5" y="224.64"/>
      </g>
     </g>
     <g id="line2d_26">
      <g>
       <use style="stroke:#000000;stroke-width:0.5;" x="518.4" xlink:href="#m7048ba3870" y="224.64"/>
      </g>
     </g>
     <g id="text_8">
      <!-- 0.005 -->
      <g transform="translate(40.74875 227.64)scale(0.12 -0.12)">
       <use xlink:href="#Abel-Regular-30"/>
       <use x="51.384765625" xlink:href="#Abel-Regular-2e"/>
       <use x="72.837890625" xlink:href="#Abel-Regular-30"/>
       <use x="124.25390625" xlink:href="#Abel-Regular-30"/>
       <use x="175.654296875" xlink:href="#Abel-Regular-35"/>
      </g>
     </g>
    </g>
    <g id="ytick_4">
     <g id="line2d_27">
      <path clip-path="url(#p888e1c1dd2)" d="M 72 164.16 
L 518.4 164.16 
" style="fill:none;stroke:#000000;stroke-dasharray:1.000000,3.000000;stroke-dashoffset:0.0;stroke-width:0.5;"/>
     </g>
     <g id="line2d_28">
      <g>
       <use style="stroke:#000000;stroke-width:0.5;" x="72.0" xlink:href="#m20b0d445f5" y="164.16"/>
      </g>
     </g>
     <g id="line2d_29">
      <g>
       <use style="stroke:#000000;stroke-width:0.5;" x="518.4" xlink:href="#m7048ba3870" y="164.16"/>
      </g>
     </g>
     <g id="text_9">
      <!-- 0.010 -->
      <g transform="translate(40.713125 167.16)scale(0.12 -0.12)">
       <use xlink:href="#Abel-Regular-30"/>
       <use x="51.384765625" xlink:href="#Abel-Regular-2e"/>
       <use x="72.837890625" xlink:href="#Abel-Regular-30"/>
       <use x="124.25390625" xlink:href="#Abel-Regular-31"/>
       <use x="175.962890625" xlink:href="#Abel-Regular-30"/>
      </g>
     </g>
    </g>
    <g id="ytick_5">
     <g id="line2d_30">
      <path clip-path="url(#p888e1c1dd2)" d="M 72 103.68 
L 518.4 103.68 
" style="fill:none;stroke:#000000;stroke-dasharray:1.000000,3.000000;stroke-dashoffset:0.0;stroke-width:0.5;"/>
     </g>
     <g id="line2d_31">
      <g>
       <use style="stroke:#000000;stroke-width:0.5;" x="72.0" xlink:href="#m20b0d445f5" y="103.68"/>
      </g>
     </g>
     <g id="line2d_32">
      <g>
       <use style="stroke:#000000;stroke-width:0.5;" x="518.4" xlink:href="#m7048ba3870" y="103.68"/>
      </g>
     </g>
     <g id="text_10">
      <!-- 0.015 -->
      <g transform="translate(40.713125 106.68)scale(0.12 -0.12)">
       <use xlink:href="#Abel-Regular-30"/>
       <use x="51.384765625" xlink:href="#Abel-Regular-2e"/>
       <use x="72.837890625" xlink:href="#Abel-Regular-30"/>
       <use x="124.25390625" xlink:href="#Abel-Regular-31"/>
       <use x="175.962890625" xlink:href="#Abel-Regular-35"/>
      </g>
     </g>
    </g>
    <g id="ytick_6">
     <g id="line2d_33">
      <path clip-path="url(#p888e1c1dd2)" d="M 72 43.2 
L 518.4 43.2 
" style="fill:none;stroke:#000000;stroke-dasharray:1.000000,3.000000;stroke-dashoffset:0.0;stroke-width:0.5;"/>
     </g>
     <g id="line2d_34">
      <g>
       <use style="stroke:#000000;stroke-width:0.5;" x="72.0" xlink:href="#m20b0d445f5" y="43.2"/>
      </g>
     </g>
     <g id="line2d_35">
      <g>
       <use style="stroke:#000000;stroke-width:0.5;" x="518.4" xlink:href="#m7048ba3870" y="43.2"/>
      </g>
     </g>
     <g id="text_11">
      <!-- 0.020 -->
      <g transform="translate(40.986875 46.2)scale(0.12 -0.12)">
       <use xlink:href="#Abel-Regular-30"/>
       <use x="51.384765625" xlink:href="#Abel-Regular-2e"/>
       <use x="72.837890625" xlink:href="#Abel-Regular-30"/>
       <use x="124.25390625" xlink:href="#Abel-Regular-32"/>
       <use x="173.66796875" xlink:href="#Abel-Regular-30"/>
      </g>
     </g>
    </g>
   </g>
   <g id="text_12">
    <!-- TUCU: Componente ESTE [m] -->
    <defs>
     <path d="M 25.875 -20.015625 
L 8.015625 -20.015625 
L 8.015625 78.421875 
L 25.875 78.421875 
L 25.875 73 
L 14.015625 73 
L 14.015625 -14.59375 
L 25.875 -14.59375 
z
" id="Abel-Regular-5b"/>
     <path d="M 4.984375 -14.59375 
L 16.890625 -14.59375 
L 16.890625 73 
L 4.984375 73 
L 4.984375 78.421875 
L 22.90625 78.421875 
L 22.90625 -20.015625 
L 4.984375 -20.015625 
z
" id="Abel-Regular-5d"/>
     <path d="M 25 64.015625 
L 25 0 
L 18.703125 0 
L 18.703125 64.015625 
L 2 64.015625 
L 2 70.015625 
L 41.703125 70.015625 
L 41.703125 64.015625 
z
" id="Abel-Regular-54"/>
     <path d="M 39.40625 13.71875 
Q 39.40625 10.6875 38.25 8 
Q 37.109375 5.328125 35.109375 3.3125 
Q 33.109375 1.3125 30.421875 0.15625 
Q 27.734375 -0.984375 24.703125 -0.984375 
L 20.703125 -0.984375 
Q 17.671875 -0.984375 14.984375 0.15625 
Q 12.3125 1.3125 10.296875 3.3125 
Q 8.296875 5.328125 7.140625 8 
Q 6 10.6875 6 13.71875 
L 6 36.28125 
Q 6 39.3125 7.140625 41.984375 
Q 8.296875 44.671875 10.296875 46.671875 
Q 12.3125 48.6875 14.984375 49.828125 
Q 17.671875 50.984375 20.703125 50.984375 
L 24.703125 50.984375 
Q 27.734375 50.984375 30.421875 49.828125 
Q 33.109375 48.6875 35.109375 46.671875 
Q 37.109375 44.671875 38.25 41.984375 
Q 39.40625 39.3125 39.40625 36.28125 
L 39.40625 24.515625 
L 12.015625 24.515625 
L 12.015625 13.375 
Q 12.015625 11.578125 12.6875 9.984375 
Q 13.375 8.40625 14.546875 7.234375 
Q 15.71875 6.0625 17.296875 5.375 
Q 18.890625 4.6875 20.703125 4.6875 
L 24.703125 4.6875 
Q 26.515625 4.6875 28.09375 5.375 
Q 29.6875 6.0625 30.859375 7.234375 
Q 32.03125 8.40625 32.71875 9.984375 
Q 33.40625 11.578125 33.40625 13.375 
L 33.40625 16.703125 
L 39.40625 15.71875 
L 39.40625 13.71875 
z
M 33.40625 36.625 
Q 33.40625 38.421875 32.71875 40.015625 
Q 32.03125 41.609375 30.859375 42.78125 
Q 29.6875 43.953125 28.09375 44.625 
Q 26.515625 45.3125 24.703125 45.3125 
L 20.703125 45.3125 
Q 18.890625 45.3125 17.296875 44.625 
Q 15.71875 43.953125 14.546875 42.78125 
Q 13.375 41.609375 12.6875 40.015625 
Q 12.015625 38.421875 12.015625 36.625 
L 12.015625 29.203125 
L 33.40625 29.203125 
z
" id="Abel-Regular-65"/>
     <path id="Abel-Regular-20"/>
     <path d="M 46.390625 16.21875 
Q 46.390625 12.640625 45.046875 9.515625 
Q 43.703125 6.390625 41.359375 4.046875 
Q 39.015625 1.703125 35.890625 0.359375 
Q 32.765625 -0.984375 29.203125 -0.984375 
L 24.21875 -0.984375 
Q 20.65625 -0.984375 17.5 0.359375 
Q 14.359375 1.703125 12.015625 4.046875 
Q 9.671875 6.390625 8.328125 9.515625 
Q 6.984375 12.640625 6.984375 16.21875 
L 6.984375 53.8125 
Q 6.984375 57.375 8.328125 60.5 
Q 9.671875 63.625 12.015625 65.96875 
Q 14.359375 68.3125 17.5 69.65625 
Q 20.65625 71 24.21875 71 
L 29.203125 71 
Q 32.765625 71 35.890625 69.65625 
Q 39.015625 68.3125 41.359375 65.96875 
Q 43.703125 63.625 45.046875 60.5 
Q 46.390625 57.375 46.390625 53.8125 
L 46.390625 50.984375 
L 40.09375 50 
L 40.09375 53.8125 
Q 40.09375 56.15625 39.203125 58.171875 
Q 38.328125 60.203125 36.8125 61.71875 
Q 35.296875 63.234375 33.265625 64.109375 
Q 31.25 64.984375 28.90625 64.984375 
L 24.515625 64.984375 
Q 22.171875 64.984375 20.140625 64.109375 
Q 18.109375 63.234375 16.578125 61.71875 
Q 15.046875 60.203125 14.15625 58.171875 
Q 13.28125 56.15625 13.28125 53.8125 
L 13.28125 16.21875 
Q 13.28125 13.875 14.15625 11.84375 
Q 15.046875 9.8125 16.578125 8.265625 
Q 18.109375 6.734375 20.140625 5.859375 
Q 22.171875 4.984375 24.515625 4.984375 
L 28.90625 4.984375 
Q 31.25 4.984375 33.265625 5.859375 
Q 35.296875 6.734375 36.8125 8.265625 
Q 38.328125 9.8125 39.203125 11.84375 
Q 40.09375 13.875 40.09375 16.21875 
L 40.09375 20.015625 
L 46.390625 19 
L 46.390625 16.21875 
z
" id="Abel-Regular-43"/>
     <path d="M 58.796875 0 
L 58.796875 36.625 
Q 58.796875 38.421875 58.109375 40.015625 
Q 57.421875 41.609375 56.25 42.78125 
Q 55.078125 43.953125 53.484375 44.625 
Q 51.90625 45.3125 50.09375 45.3125 
L 47.125 45.3125 
Q 45.3125 45.3125 43.71875 44.625 
Q 42.140625 43.953125 40.9375 42.78125 
Q 39.75 41.609375 39.0625 40.015625 
Q 38.375 38.421875 38.375 36.625 
L 38.375 0 
L 32.421875 0 
L 32.421875 36.625 
Q 32.421875 38.421875 31.734375 40.015625 
Q 31.0625 41.609375 29.859375 42.78125 
Q 28.65625 43.953125 27.0625 44.625 
Q 25.484375 45.3125 23.6875 45.3125 
L 20.703125 45.3125 
Q 18.890625 45.3125 17.296875 44.625 
Q 15.71875 43.953125 14.546875 42.78125 
Q 13.375 41.609375 12.6875 40.015625 
Q 12.015625 38.421875 12.015625 36.625 
L 12.015625 0 
L 6 0 
L 6 50 
L 8.015625 50 
L 11.28125 44.921875 
Q 13.328125 47.703125 16.421875 49.34375 
Q 19.53125 50.984375 23.1875 50.984375 
L 23.6875 50.984375 
Q 27.9375 50.984375 31.34375 48.875 
Q 34.765625 46.78125 36.625 43.3125 
Q 37.546875 45.015625 38.90625 46.4375 
Q 40.28125 47.859375 41.9375 48.859375 
Q 43.609375 49.859375 45.5625 50.421875 
Q 47.515625 50.984375 49.609375 50.984375 
L 50.09375 50.984375 
Q 53.125 50.984375 55.8125 49.828125 
Q 58.5 48.6875 60.5 46.671875 
Q 62.5 44.671875 63.640625 41.984375 
Q 64.796875 39.3125 64.796875 36.28125 
L 64.796875 0 
z
" id="Abel-Regular-6d"/>
     <path d="M 6.984375 42.484375 
L 6.984375 50 
L 14.5 50 
L 14.5 42.484375 
z
M 6.984375 0 
L 6.984375 7.515625 
L 14.5 7.515625 
L 14.5 0 
z
" id="Abel-Regular-3a"/>
     <path d="M 46.390625 16.21875 
Q 46.390625 12.640625 44.9375 9.515625 
Q 43.5 6.390625 41.078125 4.046875 
Q 38.671875 1.703125 35.46875 0.359375 
Q 32.28125 -0.984375 28.71875 -0.984375 
L 23.6875 -0.984375 
Q 20.125 -0.984375 16.921875 0.359375 
Q 13.71875 1.703125 11.296875 4.046875 
Q 8.890625 6.390625 7.4375 9.515625 
Q 6 12.640625 6 16.21875 
L 6 19 
L 12.3125 20.015625 
L 12.3125 16.21875 
Q 12.3125 13.875 13.25 11.84375 
Q 14.203125 9.8125 15.8125 8.265625 
Q 17.4375 6.734375 19.5625 5.859375 
Q 21.6875 4.984375 24.03125 4.984375 
L 28.421875 4.984375 
Q 30.765625 4.984375 32.859375 5.859375 
Q 34.96875 6.734375 36.578125 8.265625 
Q 38.1875 9.8125 39.140625 11.84375 
Q 40.09375 13.875 40.09375 16.21875 
L 40.09375 18.3125 
Q 40.09375 21.921875 38.671875 24.3125 
Q 37.25 26.703125 34.90625 28.390625 
Q 32.5625 30.078125 29.609375 31.25 
Q 26.65625 32.421875 23.53125 33.59375 
Q 20.40625 34.765625 17.453125 36.171875 
Q 14.5 37.59375 12.15625 39.71875 
Q 9.8125 41.84375 8.390625 44.921875 
Q 6.984375 48 6.984375 52.484375 
L 6.984375 53.8125 
Q 6.984375 57.375 8.328125 60.5 
Q 9.671875 63.625 12.015625 65.96875 
Q 14.359375 68.3125 17.5 69.65625 
Q 20.65625 71 24.21875 71 
L 28.71875 71 
Q 32.28125 71 35.40625 69.65625 
Q 38.53125 68.3125 40.875 65.96875 
Q 43.21875 63.625 44.5625 60.5 
Q 45.90625 57.375 45.90625 53.8125 
L 45.90625 52 
L 39.59375 50.984375 
L 39.59375 53.8125 
Q 39.59375 56.15625 38.71875 58.171875 
Q 37.84375 60.203125 36.328125 61.71875 
Q 34.8125 63.234375 32.78125 64.109375 
Q 30.765625 64.984375 28.421875 64.984375 
L 24.515625 64.984375 
Q 22.171875 64.984375 20.140625 64.109375 
Q 18.109375 63.234375 16.578125 61.71875 
Q 15.046875 60.203125 14.15625 58.171875 
Q 13.28125 56.15625 13.28125 53.8125 
L 13.28125 52.484375 
Q 13.28125 49.125 14.6875 46.828125 
Q 16.109375 44.53125 18.453125 42.890625 
Q 20.796875 41.265625 23.75 40.0625 
Q 26.703125 38.875 29.828125 37.625 
Q 32.953125 36.375 35.90625 34.890625 
Q 38.875 33.40625 41.21875 31.21875 
Q 43.5625 29.046875 44.96875 25.921875 
Q 46.390625 22.796875 46.390625 18.3125 
z
" id="Abel-Regular-53"/>
     <path d="M 33.40625 0 
L 33.40625 36.625 
Q 33.40625 38.421875 32.71875 40.015625 
Q 32.03125 41.609375 30.859375 42.78125 
Q 29.6875 43.953125 28.09375 44.625 
Q 26.515625 45.3125 24.703125 45.3125 
L 20.703125 45.3125 
Q 18.890625 45.3125 17.296875 44.625 
Q 15.71875 43.953125 14.546875 42.78125 
Q 13.375 41.609375 12.6875 40.015625 
Q 12.015625 38.421875 12.015625 36.625 
L 12.015625 0 
L 6 0 
L 6 50 
L 8.015625 50 
L 11.28125 44.921875 
Q 13.328125 47.703125 16.421875 49.34375 
Q 19.53125 50.984375 23.1875 50.984375 
L 24.703125 50.984375 
Q 27.734375 50.984375 30.421875 49.828125 
Q 33.109375 48.6875 35.109375 46.671875 
Q 37.109375 44.671875 38.25 41.984375 
Q 39.40625 39.3125 39.40625 36.28125 
L 39.40625 0 
z
" id="Abel-Regular-6e"/>
     <path d="M 39.40625 13.71875 
Q 39.40625 10.6875 38.25 8 
Q 37.109375 5.328125 35.109375 3.3125 
Q 33.109375 1.3125 30.421875 0.15625 
Q 27.734375 -0.984375 24.703125 -0.984375 
L 23.1875 -0.984375 
Q 19.828125 -0.984375 16.9375 0.390625 
Q 14.0625 1.765625 12.015625 4.203125 
L 12.015625 -20.015625 
L 6 -20.015625 
L 6 50 
L 8.015625 50 
L 11.28125 44.921875 
Q 13.328125 47.703125 16.421875 49.34375 
Q 19.53125 50.984375 23.1875 50.984375 
L 24.703125 50.984375 
Q 27.734375 50.984375 30.421875 49.828125 
Q 33.109375 48.6875 35.109375 46.671875 
Q 37.109375 44.671875 38.25 41.984375 
Q 39.40625 39.3125 39.40625 36.28125 
L 39.40625 13.71875 
z
M 33.40625 36.625 
Q 33.40625 38.421875 32.71875 40.015625 
Q 32.03125 41.609375 30.859375 42.78125 
Q 29.6875 43.953125 28.09375 44.625 
Q 26.515625 45.3125 24.703125 45.3125 
L 20.703125 45.3125 
Q 18.890625 45.3125 17.296875 44.625 
Q 15.71875 43.953125 14.546875 42.78125 
Q 13.375 41.609375 12.6875 40.015625 
Q 12.015625 38.421875 12.015625 36.625 
L 12.015625 13.375 
Q 12.015625 11.578125 12.6875 9.984375 
Q 13.375 8.40625 14.546875 7.234375 
Q 15.71875 6.0625 17.296875 5.375 
Q 18.890625 4.6875 20.703125 4.6875 
L 24.703125 4.6875 
Q 26.515625 4.6875 28.09375 5.375 
Q 29.6875 6.0625 30.859375 7.234375 
Q 32.03125 8.40625 32.71875 9.984375 
Q 33.40625 11.578125 33.40625 13.375 
z
" id="Abel-Regular-70"/>
     <path d="M 8.015625 0 
L 8.015625 70.015625 
L 47.40625 70.015625 
L 47.40625 64.015625 
L 14.3125 64.015625 
L 14.3125 37.984375 
L 41.109375 37.984375 
L 41.109375 31.984375 
L 14.3125 31.984375 
L 14.3125 6 
L 47.40625 6 
L 47.40625 0 
z
" id="Abel-Regular-45"/>
     <path d="M 24.21875 0 
Q 21.484375 0 19.0625 1.015625 
Q 16.65625 2.046875 14.875 3.859375 
Q 13.09375 5.671875 12.03125 8.0625 
Q 10.984375 10.453125 10.984375 13.1875 
L 10.984375 44.28125 
L 2 44.28125 
L 2 50 
L 10.984375 50 
L 10.984375 62.015625 
L 17 62.984375 
L 17 50 
L 29.6875 50 
L 29.6875 44.28125 
L 17 44.28125 
L 17 12.890625 
Q 17 11.375 17.546875 10.078125 
Q 18.109375 8.796875 19.078125 7.8125 
Q 20.0625 6.84375 21.375 6.28125 
Q 22.703125 5.71875 24.21875 5.71875 
L 29.6875 5.71875 
L 29.6875 0 
z
" id="Abel-Regular-74"/>
     <path d="M 39.40625 13.71875 
Q 39.40625 10.6875 38.25 8 
Q 37.109375 5.328125 35.109375 3.3125 
Q 33.109375 1.3125 30.421875 0.15625 
Q 27.734375 -0.984375 24.703125 -0.984375 
L 20.703125 -0.984375 
Q 17.671875 -0.984375 14.984375 0.15625 
Q 12.3125 1.3125 10.296875 3.3125 
Q 8.296875 5.328125 7.140625 8 
Q 6 10.6875 6 13.71875 
L 6 36.28125 
Q 6 39.3125 7.140625 41.984375 
Q 8.296875 44.671875 10.296875 46.671875 
Q 12.3125 48.6875 14.984375 49.828125 
Q 17.671875 50.984375 20.703125 50.984375 
L 24.703125 50.984375 
Q 27.734375 50.984375 30.421875 49.828125 
Q 33.109375 48.6875 35.109375 46.671875 
Q 37.109375 44.671875 38.25 41.984375 
Q 39.40625 39.3125 39.40625 36.28125 
L 39.40625 13.71875 
z
M 33.40625 36.625 
Q 33.40625 38.421875 32.71875 40.015625 
Q 32.03125 41.609375 30.859375 42.78125 
Q 29.6875 43.953125 28.09375 44.625 
Q 26.515625 45.3125 24.703125 45.3125 
L 20.703125 45.3125 
Q 18.890625 45.3125 17.296875 44.625 
Q 15.71875 43.953125 14.546875 42.78125 
Q 13.375 41.609375 12.6875 40.015625 
Q 12.015625 38.421875 12.015625 36.625 
L 12.015625 13.375 
Q 12.015625 11.578125 12.6875 9.984375 
Q 13.375 8.40625 14.546875 7.234375 
Q 15.71875 6.0625 17.296875 5.375 
Q 18.890625 4.6875 20.703125 4.6875 
L 24.703125 4.6875 
Q 26.515625 4.6875 28.09375 5.375 
Q 29.6875 6.0625 30.859375 7.234375 
Q 32.03125 8.40625 32.71875 9.984375 
Q 33.40625 11.578125 33.40625 13.375 
z
" id="Abel-Regular-6f"/>
     <path d="M 46.390625 16.21875 
Q 46.390625 12.640625 45.046875 9.515625 
Q 43.703125 6.390625 41.359375 4.046875 
Q 39.015625 1.703125 35.890625 0.359375 
Q 32.765625 -0.984375 29.203125 -0.984375 
L 24.21875 -0.984375 
Q 20.65625 -0.984375 17.5 0.359375 
Q 14.359375 1.703125 12.015625 4.046875 
Q 9.671875 6.390625 8.328125 9.515625 
Q 6.984375 12.640625 6.984375 16.21875 
L 6.984375 70.015625 
L 13.28125 70.015625 
L 13.28125 16.21875 
Q 13.28125 13.875 14.15625 11.84375 
Q 15.046875 9.8125 16.578125 8.265625 
Q 18.109375 6.734375 20.140625 5.859375 
Q 22.171875 4.984375 24.515625 4.984375 
L 28.90625 4.984375 
Q 31.25 4.984375 33.265625 5.859375 
Q 35.296875 6.734375 36.8125 8.265625 
Q 38.328125 9.8125 39.203125 11.84375 
Q 40.09375 13.875 40.09375 16.21875 
L 40.09375 70.015625 
L 46.390625 70.015625 
L 46.390625 16.21875 
z
" id="Abel-Regular-55"/>
    </defs>
    <g transform="translate(215.983125 38.2)scale(0.144 -0.144)">
     <use xlink:href="#Abel-Regular-54"/>
     <use x="43.701171875" xlink:href="#Abel-Regular-55"/>
     <use x="97.119140625" xlink:href="#Abel-Regular-43"/>
     <use x="149.51171875" xlink:href="#Abel-Regular-55"/>
     <use x="202.9296875" xlink:href="#Abel-Regular-3a"/>
     <use x="224.4140625" xlink:href="#Abel-Regular-20"/>
     <use x="247.412109375" xlink:href="#Abel-Regular-43"/>
     <use x="299.8046875" xlink:href="#Abel-Regular-6f"/>
     <use x="345.21484375" xlink:href="#Abel-Regular-6d"/>
     <use x="416.015625" xlink:href="#Abel-Regular-70"/>
     <use x="461.42578125" xlink:href="#Abel-Regular-6f"/>
     <use x="506.8359375" xlink:href="#Abel-Regular-6e"/>
     <use x="552.24609375" xlink:href="#Abel-Regular-65"/>
     <use x="597.65625" xlink:href="#Abel-Regular-6e"/>
     <use x="643.06640625" xlink:href="#Abel-Regular-74"/>
     <use x="677.783203125" xlink:href="#Abel-Regular-65"/>
     <use x="723.193359375" xlink:href="#Abel-Regular-20"/>
     <use x="746.19140625" xlink:href="#Abel-Regular-45"/>
     <use x="797.607421875" xlink:href="#Abel-Regular-53"/>
     <use x="849.51171875" xlink:href="#Abel-Regular-54"/>
     <use x="893.212890625" xlink:href="#Abel-Regular-45"/>
     <use x="944.62890625" xlink:href="#Abel-Regular-20"/>
     <use x="967.626953125" xlink:href="#Abel-Regular-5b"/>
     <use x="998.53515625" xlink:href="#Abel-Regular-6d"/>
     <use x="1069.3359375" xlink:href="#Abel-Regular-5d"/>
    </g>
   </g>
  </g>
 </g>
 <defs>
  <clipPath id="p888e1c1dd2">
   <rect height="302.4" width="446.4" x="72.0" y="43.2"/>
  </clipPath>
 </defs>
</svg>
