<?xml version="1.0" encoding="utf-8" standalone="no"?>
<!DOCTYPE svg PUBLIC "-//W3C//DTD SVG 1.1//EN"
  "http://www.w3.org/Graphics/SVG/1.1/DTD/svg11.dtd">
<!-- Created with matplotlib (http://matplotlib.org/) -->
<svg height="432pt" version="1.1" viewBox="0 0 576 432" width="576pt" xmlns="http://www.w3.org/2000/svg" xmlns:xlink="http://www.w3.org/1999/xlink">
 <defs>
  <style type="text/css">
*{stroke-linecap:butt;stroke-linejoin:round;stroke-miterlimit:100000;}
  </style>
 </defs>
 <g id="figure_1">
  <g id="patch_1">
   <path d="M 0 432 
L 576 432 
L 576 0 
L 0 0 
z
" style="fill:#ffffff;"/>
  </g>
  <g id="axes_1">
   <g id="line2d_1">
    <defs>
     <path d="M 0 3 
C 0.795609 3 1.55874 2.683901 2.12132 2.12132 
C 2.683901 1.55874 3 0.795609 3 0 
C 3 -0.795609 2.683901 -1.55874 2.12132 -2.12132 
C 1.55874 -2.683901 0.795609 -3 0 -3 
C -0.795609 -3 -1.55874 -2.683901 -2.12132 -2.12132 
C -2.683901 -1.55874 -3 -0.795609 -3 0 
C -3 0.795609 -2.683901 1.55874 -2.12132 2.12132 
C -1.55874 2.683901 -0.795609 3 0 3 
z
" id="m4aed910ff7" style="stroke:#000000;stroke-width:0.5;"/>
    </defs>
    <g clip-path="url(#pd5d822164e)">
     <use style="fill:#0000ff;stroke:#000000;stroke-width:0.5;" x="262.346913472" xlink:href="#m4aed910ff7" y="359.737624331"/>
    </g>
   </g>
   <g id="line2d_2">
    <defs>
     <path d="M 0 3 
C 0.795609 3 1.55874 2.683901 2.12132 2.12132 
C 2.683901 1.55874 3 0.795609 3 0 
C 3 -0.795609 2.683901 -1.55874 2.12132 -2.12132 
C 1.55874 -2.683901 0.795609 -3 0 -3 
C -0.795609 -3 -1.55874 -2.683901 -2.12132 -2.12132 
C -2.683901 -1.55874 -3 -0.795609 -3 0 
C -3 0.795609 -2.683901 1.55874 -2.12132 2.12132 
C -1.55874 2.683901 -0.795609 3 0 3 
z
" id="mff6912ae7b" style="stroke:#000000;stroke-width:0.5;"/>
    </defs>
    <g clip-path="url(#pd5d822164e)">
     <use style="fill:#008000;stroke:#000000;stroke-width:0.5;" x="328.16546893" xlink:href="#mff6912ae7b" y="275.062638474"/>
    </g>
   </g>
   <g id="line2d_3">
    <defs>
     <path d="M 0 3 
C 0.795609 3 1.55874 2.683901 2.12132 2.12132 
C 2.683901 1.55874 3 0.795609 3 0 
C 3 -0.795609 2.683901 -1.55874 2.12132 -2.12132 
C 1.55874 -2.683901 0.795609 -3 0 -3 
C -0.795609 -3 -1.55874 -2.683901 -2.12132 -2.12132 
C -2.683901 -1.55874 -3 -0.795609 -3 0 
C -3 0.795609 -2.683901 1.55874 -2.12132 2.12132 
C -1.55874 2.683901 -0.795609 3 0 3 
z
" id="m3dfa5612a0" style="stroke:#000000;stroke-width:0.5;"/>
    </defs>
    <g clip-path="url(#pd5d822164e)">
     <use style="fill:#ff0000;stroke:#000000;stroke-width:0.5;" x="385.719685976" xlink:href="#m3dfa5612a0" y="246.880831768"/>
    </g>
   </g>
   <g id="line2d_4">
    <defs>
     <path d="M 0 3 
C 0.795609 3 1.55874 2.683901 2.12132 2.12132 
C 2.683901 1.55874 3 0.795609 3 0 
C 3 -0.795609 2.683901 -1.55874 2.12132 -2.12132 
C 1.55874 -2.683901 0.795609 -3 0 -3 
C -0.795609 -3 -1.55874 -2.683901 -2.12132 -2.12132 
C -2.683901 -1.55874 -3 -0.795609 -3 0 
C -3 0.795609 -2.683901 1.55874 -2.12132 2.12132 
C -1.55874 2.683901 -0.795609 3 0 3 
z
" id="ma3be119c80" style="stroke:#000000;stroke-width:0.5;"/>
    </defs>
    <g clip-path="url(#pd5d822164e)">
     <use style="fill:#00bfbf;stroke:#000000;stroke-width:0.5;" x="267.480756039" xlink:href="#ma3be119c80" y="203.645213059"/>
    </g>
   </g>
   <g id="line2d_5">
    <defs>
     <path d="M 0 3 
C 0.795609 3 1.55874 2.683901 2.12132 2.12132 
C 2.683901 1.55874 3 0.795609 3 0 
C 3 -0.795609 2.683901 -1.55874 2.12132 -2.12132 
C 1.55874 -2.683901 0.795609 -3 0 -3 
C -0.795609 -3 -1.55874 -2.683901 -2.12132 -2.12132 
C -2.683901 -1.55874 -3 -0.795609 -3 0 
C -3 0.795609 -2.683901 1.55874 -2.12132 2.12132 
C -1.55874 2.683901 -0.795609 3 0 3 
z
" id="mf88b3f7ccf" style="stroke:#000000;stroke-width:0.5;"/>
    </defs>
    <g clip-path="url(#pd5d822164e)">
     <use style="fill:#bf00bf;stroke:#000000;stroke-width:0.5;" x="320.281298981" xlink:href="#mf88b3f7ccf" y="304.051748452"/>
    </g>
   </g>
   <g id="line2d_6">
    <defs>
     <path d="M 0 3 
C 0.795609 3 1.55874 2.683901 2.12132 2.12132 
C 2.683901 1.55874 3 0.795609 3 0 
C 3 -0.795609 2.683901 -1.55874 2.12132 -2.12132 
C 1.55874 -2.683901 0.795609 -3 0 -3 
C -0.795609 -3 -1.55874 -2.683901 -2.12132 -2.12132 
C -2.683901 -1.55874 -3 -0.795609 -3 0 
C -3 0.795609 -2.683901 1.55874 -2.12132 2.12132 
C -1.55874 2.683901 -0.795609 3 0 3 
z
" id="m01402198e9" style="stroke:#000000;stroke-width:0.5;"/>
    </defs>
    <g clip-path="url(#pd5d822164e)">
     <use style="fill:#bfbf00;stroke:#000000;stroke-width:0.5;" x="294.140420748" xlink:href="#m01402198e9" y="252.340924884"/>
    </g>
   </g>
   <g id="line2d_7">
    <defs>
     <path d="M 0 3 
C 0.795609 3 1.55874 2.683901 2.12132 2.12132 
C 2.683901 1.55874 3 0.795609 3 0 
C 3 -0.795609 2.683901 -1.55874 2.12132 -2.12132 
C 1.55874 -2.683901 0.795609 -3 0 -3 
C -0.795609 -3 -1.55874 -2.683901 -2.12132 -2.12132 
C -2.683901 -1.55874 -3 -0.795609 -3 0 
C -3 0.795609 -2.683901 1.55874 -2.12132 2.12132 
C -1.55874 2.683901 -0.795609 3 0 3 
z
" id="m6266571c69" style="stroke:#000000;stroke-width:0.5;"/>
    </defs>
    <g clip-path="url(#pd5d822164e)">
     <use style="stroke:#000000;stroke-width:0.5;" x="300.65607354" xlink:href="#m6266571c69" y="301.871116333"/>
    </g>
   </g>
   <g id="line2d_8">
    <g clip-path="url(#pd5d822164e)">
     <use style="fill:#0000ff;stroke:#000000;stroke-width:0.5;" x="212.709627945" xlink:href="#m4aed910ff7" y="115.230614067"/>
    </g>
   </g>
   <g id="line2d_9">
    <g clip-path="url(#pd5d822164e)">
     <use style="fill:#008000;stroke:#000000;stroke-width:0.5;" x="285.161886966" xlink:href="#mff6912ae7b" y="151.581352245"/>
    </g>
   </g>
   <g id="line2d_10">
    <g clip-path="url(#pd5d822164e)">
     <use style="fill:#ff0000;stroke:#000000;stroke-width:0.5;" x="315.08288423" xlink:href="#m3dfa5612a0" y="305.117570903"/>
    </g>
   </g>
   <g id="line2d_11">
    <g clip-path="url(#pd5d822164e)">
     <use style="fill:#00bfbf;stroke:#000000;stroke-width:0.5;" x="262.092449289" xlink:href="#ma3be119c80" y="316.125497016"/>
    </g>
   </g>
   <g id="line2d_12">
    <g clip-path="url(#pd5d822164e)">
     <use style="fill:#bf00bf;stroke:#000000;stroke-width:0.5;" x="257.034810474" xlink:href="#mf88b3f7ccf" y="263.878924832"/>
    </g>
   </g>
   <g id="line2d_13">
    <g clip-path="url(#pd5d822164e)">
     <use style="fill:#bfbf00;stroke:#000000;stroke-width:0.5;" x="336.36434181" xlink:href="#m01402198e9" y="192.305684673"/>
    </g>
   </g>
   <g id="line2d_14">
    <g clip-path="url(#pd5d822164e)">
     <use style="stroke:#000000;stroke-width:0.5;" x="248.376194692" xlink:href="#m6266571c69" y="57.9497978451"/>
    </g>
   </g>
   <g id="line2d_15">
    <g clip-path="url(#pd5d822164e)">
     <use style="fill:#0000ff;stroke:#000000;stroke-width:0.5;" x="294.263223194" xlink:href="#m4aed910ff7" y="336.807575272"/>
    </g>
   </g>
   <g id="line2d_16">
    <g clip-path="url(#pd5d822164e)">
     <use style="fill:#008000;stroke:#000000;stroke-width:0.5;" x="283.914264915" xlink:href="#mff6912ae7b" y="233.392900041"/>
    </g>
   </g>
   <g id="line2d_17">
    <g clip-path="url(#pd5d822164e)">
     <use style="fill:#ff0000;stroke:#000000;stroke-width:0.5;" x="346.309933659" xlink:href="#m3dfa5612a0" y="219.358684299"/>
    </g>
   </g>
   <g id="line2d_18">
    <g clip-path="url(#pd5d822164e)">
     <use style="fill:#00bfbf;stroke:#000000;stroke-width:0.5;" x="242.650355833" xlink:href="#ma3be119c80" y="363.87383607"/>
    </g>
   </g>
   <g id="line2d_19">
    <g clip-path="url(#pd5d822164e)">
     <use style="fill:#bf00bf;stroke:#000000;stroke-width:0.5;" x="291.155036611" xlink:href="#mf88b3f7ccf" y="200.258405978"/>
    </g>
   </g>
   <g id="line2d_20">
    <g clip-path="url(#pd5d822164e)">
     <use style="fill:#bfbf00;stroke:#000000;stroke-width:0.5;" x="221.140388532" xlink:href="#m01402198e9" y="368.742220319"/>
    </g>
   </g>
   <g id="line2d_21">
    <g clip-path="url(#pd5d822164e)">
     <use style="stroke:#000000;stroke-width:0.5;" x="316.150780422" xlink:href="#m6266571c69" y="371.726065335"/>
    </g>
   </g>
   <g id="matplotlib.axis_1">
    <g id="xtick_1">
     <g id="line2d_22">
      <path clip-path="url(#pd5d822164e)" d="M 187.2 388.8 
L 187.2 43.2 
" style="fill:none;stroke:#000000;stroke-dasharray:1.000000,3.000000;stroke-dashoffset:0.0;stroke-width:0.5;"/>
     </g>
     <g id="line2d_23">
      <defs>
       <path d="M 0 0 
L 0 -4 
" id="m543aae322d" style="stroke:#000000;stroke-width:0.5;"/>
      </defs>
      <g>
       <use style="stroke:#000000;stroke-width:0.5;" x="187.2" xlink:href="#m543aae322d" y="388.8"/>
      </g>
     </g>
     <g id="line2d_24">
      <defs>
       <path d="M 0 0 
L 0 4 
" id="m08ab11391e" style="stroke:#000000;stroke-width:0.5;"/>
      </defs>
      <g>
       <use style="stroke:#000000;stroke-width:0.5;" x="187.2" xlink:href="#m08ab11391e" y="43.2"/>
      </g>
     </g>
     <g id="text_1">
      <!-- 0.005 -->
      <defs>
       <path d="M 44.390625 16.21875 
Q 44.390625 12.640625 43.046875 9.515625 
Q 41.703125 6.390625 39.359375 4.046875 
Q 37.015625 1.703125 33.890625 0.359375 
Q 30.765625 -0.984375 27.203125 -0.984375 
L 24.21875 -0.984375 
Q 20.65625 -0.984375 17.5 0.359375 
Q 14.359375 1.703125 12.015625 4.046875 
Q 9.671875 6.390625 8.328125 9.515625 
Q 6.984375 12.640625 6.984375 16.21875 
L 6.984375 53.8125 
Q 6.984375 57.375 8.328125 60.5 
Q 9.671875 63.625 12.015625 65.96875 
Q 14.359375 68.3125 17.5 69.65625 
Q 20.65625 71 24.21875 71 
L 27.203125 71 
Q 30.765625 71 33.890625 69.65625 
Q 37.015625 68.3125 39.359375 65.96875 
Q 41.703125 63.625 43.046875 60.5 
Q 44.390625 57.375 44.390625 53.8125 
L 44.390625 16.21875 
z
M 38.09375 53.8125 
Q 38.09375 56.15625 37.203125 58.171875 
Q 36.328125 60.203125 34.8125 61.71875 
Q 33.296875 63.234375 31.265625 64.109375 
Q 29.25 64.984375 26.90625 64.984375 
L 24.515625 64.984375 
Q 22.171875 64.984375 20.140625 64.109375 
Q 18.109375 63.234375 16.578125 61.71875 
Q 15.046875 60.203125 14.15625 58.171875 
Q 13.28125 56.15625 13.28125 53.8125 
L 13.28125 16.21875 
Q 13.28125 13.875 14.15625 11.84375 
Q 15.046875 9.8125 16.578125 8.265625 
Q 18.109375 6.734375 20.140625 5.859375 
Q 22.171875 4.984375 24.515625 4.984375 
L 26.90625 4.984375 
Q 29.25 4.984375 31.265625 5.859375 
Q 33.296875 6.734375 34.8125 8.265625 
Q 36.328125 9.8125 37.203125 11.84375 
Q 38.09375 13.875 38.09375 16.21875 
z
" id="Abel-Regular-30"/>
       <path d="M 44.390625 16.21875 
Q 44.390625 12.640625 43.046875 9.515625 
Q 41.703125 6.390625 39.359375 4.046875 
Q 37.015625 1.703125 33.890625 0.359375 
Q 30.765625 -0.984375 27.203125 -0.984375 
L 24.21875 -0.984375 
Q 20.65625 -0.984375 17.5 0.359375 
Q 14.359375 1.703125 12.015625 4.046875 
Q 9.671875 6.390625 8.328125 9.515625 
Q 6.984375 12.640625 6.984375 16.21875 
L 6.984375 17.28125 
L 13.28125 17.28125 
L 13.28125 16.21875 
Q 13.28125 13.875 14.15625 11.84375 
Q 15.046875 9.8125 16.578125 8.265625 
Q 18.109375 6.734375 20.140625 5.859375 
Q 22.171875 4.984375 24.515625 4.984375 
L 26.90625 4.984375 
Q 29.25 4.984375 31.265625 5.859375 
Q 33.296875 6.734375 34.8125 8.265625 
Q 36.328125 9.8125 37.203125 11.84375 
Q 38.09375 13.875 38.09375 16.21875 
L 38.09375 29.78125 
Q 38.09375 32.125 37.203125 34.15625 
Q 36.328125 36.1875 34.8125 37.71875 
Q 33.296875 39.265625 31.265625 40.140625 
Q 29.25 41.015625 26.90625 41.015625 
L 24.515625 41.015625 
Q 22.171875 41.015625 20.140625 40.140625 
Q 18.109375 39.265625 16.578125 37.71875 
Q 15.046875 36.1875 14.15625 34.15625 
Q 13.28125 32.125 13.28125 29.78125 
L 6.984375 29.78125 
L 10.984375 70.015625 
L 40.921875 70.015625 
L 40.921875 64.015625 
L 16.890625 64.015625 
L 14.59375 42.484375 
Q 16.84375 44.625 19.8125 45.8125 
Q 22.796875 47.015625 26.21875 47.015625 
L 27.203125 47.015625 
Q 30.765625 47.015625 33.890625 45.671875 
Q 37.015625 44.34375 39.359375 42 
Q 41.703125 39.65625 43.046875 36.5 
Q 44.390625 33.34375 44.390625 29.78125 
L 44.390625 16.21875 
z
" id="Abel-Regular-35"/>
       <path d="M 6.984375 0 
L 6.984375 7.515625 
L 14.5 7.515625 
L 14.5 0 
z
" id="Abel-Regular-2e"/>
      </defs>
      <g transform="translate(173.574375 401.201875)scale(0.12 -0.12)">
       <use xlink:href="#Abel-Regular-30"/>
       <use x="51.384765625" xlink:href="#Abel-Regular-2e"/>
       <use x="72.837890625" xlink:href="#Abel-Regular-30"/>
       <use x="124.25390625" xlink:href="#Abel-Regular-30"/>
       <use x="175.654296875" xlink:href="#Abel-Regular-35"/>
      </g>
     </g>
    </g>
    <g id="xtick_2">
     <g id="line2d_25">
      <path clip-path="url(#pd5d822164e)" d="M 230.4 388.8 
L 230.4 43.2 
" style="fill:none;stroke:#000000;stroke-dasharray:1.000000,3.000000;stroke-dashoffset:0.0;stroke-width:0.5;"/>
     </g>
     <g id="line2d_26">
      <g>
       <use style="stroke:#000000;stroke-width:0.5;" x="230.4" xlink:href="#m543aae322d" y="388.8"/>
      </g>
     </g>
     <g id="line2d_27">
      <g>
       <use style="stroke:#000000;stroke-width:0.5;" x="230.4" xlink:href="#m08ab11391e" y="43.2"/>
      </g>
     </g>
     <g id="text_2">
      <!-- 0.010 -->
      <defs>
       <path d="M 8.015625 0 
L 8.015625 6 
L 24.703125 6 
L 24.703125 64.015625 
L 8.015625 56.984375 
L 8.015625 62.984375 
L 24.703125 70.015625 
L 31 70.015625 
L 31 6 
L 47.703125 6 
L 47.703125 0 
z
" id="Abel-Regular-31"/>
      </defs>
      <g transform="translate(216.7565625 401.201875)scale(0.12 -0.12)">
       <use xlink:href="#Abel-Regular-30"/>
       <use x="51.384765625" xlink:href="#Abel-Regular-2e"/>
       <use x="72.837890625" xlink:href="#Abel-Regular-30"/>
       <use x="124.25390625" xlink:href="#Abel-Regular-31"/>
       <use x="175.962890625" xlink:href="#Abel-Regular-30"/>
      </g>
     </g>
    </g>
    <g id="xtick_3">
     <g id="line2d_28">
      <path clip-path="url(#pd5d822164e)" d="M 273.6 388.8 
L 273.6 43.2 
" style="fill:none;stroke:#000000;stroke-dasharray:1.000000,3.000000;stroke-dashoffset:0.0;stroke-width:0.5;"/>
     </g>
     <g id="line2d_29">
      <g>
       <use style="stroke:#000000;stroke-width:0.5;" x="273.6" xlink:href="#m543aae322d" y="388.8"/>
      </g>
     </g>
     <g id="line2d_30">
      <g>
       <use style="stroke:#000000;stroke-width:0.5;" x="273.6" xlink:href="#m08ab11391e" y="43.2"/>
      </g>
     </g>
     <g id="text_3">
      <!-- 0.015 -->
      <g transform="translate(259.9565625 401.201875)scale(0.12 -0.12)">
       <use xlink:href="#Abel-Regular-30"/>
       <use x="51.384765625" xlink:href="#Abel-Regular-2e"/>
       <use x="72.837890625" xlink:href="#Abel-Regular-30"/>
       <use x="124.25390625" xlink:href="#Abel-Regular-31"/>
       <use x="175.962890625" xlink:href="#Abel-Regular-35"/>
      </g>
     </g>
    </g>
    <g id="xtick_4">
     <g id="line2d_31">
      <path clip-path="url(#pd5d822164e)" d="M 316.8 388.8 
L 316.8 43.2 
" style="fill:none;stroke:#000000;stroke-dasharray:1.000000,3.000000;stroke-dashoffset:0.0;stroke-width:0.5;"/>
     </g>
     <g id="line2d_32">
      <g>
       <use style="stroke:#000000;stroke-width:0.5;" x="316.8" xlink:href="#m543aae322d" y="388.8"/>
      </g>
     </g>
     <g id="line2d_33">
      <g>
       <use style="stroke:#000000;stroke-width:0.5;" x="316.8" xlink:href="#m08ab11391e" y="43.2"/>
      </g>
     </g>
     <g id="text_4">
      <!-- 0.020 -->
      <defs>
       <path d="M 23 64.984375 
Q 20.65625 64.984375 18.625 64.109375 
Q 16.609375 63.234375 15.09375 61.71875 
Q 13.578125 60.203125 12.6875 58.171875 
Q 11.8125 56.15625 11.8125 53.8125 
L 11.8125 50.984375 
L 5.515625 52 
L 5.515625 53.8125 
Q 5.515625 57.375 6.859375 60.5 
Q 8.203125 63.625 10.546875 65.96875 
Q 12.890625 68.3125 16.015625 69.65625 
Q 19.140625 71 22.703125 71 
L 25.6875 71 
Q 29.25 71 32.390625 69.71875 
Q 35.546875 68.453125 37.890625 66.0625 
Q 40.234375 63.671875 41.578125 60.328125 
Q 42.921875 56.984375 42.921875 52.78125 
Q 42.921875 48.640625 41.671875 44.4375 
Q 40.4375 40.234375 38.40625 36.171875 
Q 36.375 32.125 33.765625 28.3125 
Q 31.15625 24.515625 28.421875 21.140625 
Q 22.015625 13.28125 13.921875 6 
L 43.40625 6 
L 43.40625 0 
L 4 0 
L 4 4.984375 
Q 13.140625 12.5 20.3125 20.5625 
Q 23.390625 24.03125 26.3125 27.9375 
Q 29.25 31.84375 31.546875 35.96875 
Q 33.84375 40.09375 35.234375 44.359375 
Q 36.625 48.640625 36.625 52.78125 
Q 36.625 55.859375 35.6875 58.15625 
Q 34.765625 60.453125 33.203125 61.96875 
Q 31.640625 63.484375 29.609375 64.234375 
Q 27.59375 64.984375 25.390625 64.984375 
z
" id="Abel-Regular-32"/>
      </defs>
      <g transform="translate(303.2934375 401.201875)scale(0.12 -0.12)">
       <use xlink:href="#Abel-Regular-30"/>
       <use x="51.384765625" xlink:href="#Abel-Regular-2e"/>
       <use x="72.837890625" xlink:href="#Abel-Regular-30"/>
       <use x="124.25390625" xlink:href="#Abel-Regular-32"/>
       <use x="173.66796875" xlink:href="#Abel-Regular-30"/>
      </g>
     </g>
    </g>
    <g id="xtick_5">
     <g id="line2d_34">
      <path clip-path="url(#pd5d822164e)" d="M 360 388.8 
L 360 43.2 
" style="fill:none;stroke:#000000;stroke-dasharray:1.000000,3.000000;stroke-dashoffset:0.0;stroke-width:0.5;"/>
     </g>
     <g id="line2d_35">
      <g>
       <use style="stroke:#000000;stroke-width:0.5;" x="360.0" xlink:href="#m543aae322d" y="388.8"/>
      </g>
     </g>
     <g id="line2d_36">
      <g>
       <use style="stroke:#000000;stroke-width:0.5;" x="360.0" xlink:href="#m08ab11391e" y="43.2"/>
      </g>
     </g>
     <g id="text_5">
      <!-- 0.025 -->
      <g transform="translate(346.494375 401.201875)scale(0.12 -0.12)">
       <use xlink:href="#Abel-Regular-30"/>
       <use x="51.384765625" xlink:href="#Abel-Regular-2e"/>
       <use x="72.837890625" xlink:href="#Abel-Regular-30"/>
       <use x="124.25390625" xlink:href="#Abel-Regular-32"/>
       <use x="173.65234375" xlink:href="#Abel-Regular-35"/>
      </g>
     </g>
    </g>
    <g id="xtick_6">
     <g id="line2d_37">
      <path clip-path="url(#pd5d822164e)" d="M 403.2 388.8 
L 403.2 43.2 
" style="fill:none;stroke:#000000;stroke-dasharray:1.000000,3.000000;stroke-dashoffset:0.0;stroke-width:0.5;"/>
     </g>
     <g id="line2d_38">
      <g>
       <use style="stroke:#000000;stroke-width:0.5;" x="403.2" xlink:href="#m543aae322d" y="388.8"/>
      </g>
     </g>
     <g id="line2d_39">
      <g>
       <use style="stroke:#000000;stroke-width:0.5;" x="403.2" xlink:href="#m08ab11391e" y="43.2"/>
      </g>
     </g>
     <g id="text_6">
      <!-- 0.030 -->
      <defs>
       <path d="M 44.390625 16.21875 
Q 44.390625 12.640625 43.046875 9.515625 
Q 41.703125 6.390625 39.359375 4.046875 
Q 37.015625 1.703125 33.890625 0.359375 
Q 30.765625 -0.984375 27.203125 -0.984375 
L 24.21875 -0.984375 
Q 20.65625 -0.984375 17.5 0.359375 
Q 14.359375 1.703125 12.015625 4.046875 
Q 9.671875 6.390625 8.328125 9.515625 
Q 6.984375 12.640625 6.984375 16.21875 
L 6.984375 18.015625 
L 13.28125 19 
L 13.28125 16.21875 
Q 13.28125 13.875 14.15625 11.84375 
Q 15.046875 9.8125 16.578125 8.265625 
Q 18.109375 6.734375 20.140625 5.859375 
Q 22.171875 4.984375 24.515625 4.984375 
L 26.90625 4.984375 
Q 29.25 4.984375 31.265625 5.859375 
Q 33.296875 6.734375 34.8125 8.265625 
Q 36.328125 9.8125 37.203125 11.84375 
Q 38.09375 13.875 38.09375 16.21875 
L 38.09375 22.015625 
Q 38.09375 24.359375 37.203125 26.390625 
Q 36.328125 28.421875 34.8125 29.9375 
Q 33.296875 31.453125 31.265625 32.328125 
Q 29.25 33.203125 26.90625 33.203125 
L 22.21875 33.203125 
L 22.21875 39.203125 
L 26.90625 39.203125 
Q 29.25 39.203125 31.265625 40.078125 
Q 33.296875 40.96875 34.8125 42.484375 
Q 36.328125 44 37.203125 46.015625 
Q 38.09375 48.046875 38.09375 50.390625 
L 38.09375 53.8125 
Q 38.09375 56.15625 37.203125 58.171875 
Q 36.328125 60.203125 34.8125 61.71875 
Q 33.296875 63.234375 31.265625 64.109375 
Q 29.25 64.984375 26.90625 64.984375 
L 24.515625 64.984375 
Q 22.171875 64.984375 20.140625 64.109375 
Q 18.109375 63.234375 16.578125 61.71875 
Q 15.046875 60.203125 14.15625 58.171875 
Q 13.28125 56.15625 13.28125 53.8125 
L 13.28125 50.984375 
L 6.984375 52 
L 6.984375 53.8125 
Q 6.984375 57.375 8.328125 60.5 
Q 9.671875 63.625 12.015625 65.96875 
Q 14.359375 68.3125 17.5 69.65625 
Q 20.65625 71 24.21875 71 
L 27.203125 71 
Q 30.765625 71 33.890625 69.65625 
Q 37.015625 68.3125 39.359375 65.96875 
Q 41.703125 63.625 43.046875 60.5 
Q 44.390625 57.375 44.390625 53.8125 
L 44.390625 51.421875 
Q 44.390625 48.921875 43.71875 46.65625 
Q 43.0625 44.390625 41.859375 42.4375 
Q 40.671875 40.484375 39.015625 38.890625 
Q 37.359375 37.3125 35.296875 36.1875 
Q 37.359375 35.109375 39.015625 33.515625 
Q 40.671875 31.9375 41.859375 29.984375 
Q 43.0625 28.03125 43.71875 25.75 
Q 44.390625 23.484375 44.390625 21 
L 44.390625 16.21875 
z
" id="Abel-Regular-33"/>
      </defs>
      <g transform="translate(389.574375 401.201875)scale(0.12 -0.12)">
       <use xlink:href="#Abel-Regular-30"/>
       <use x="51.384765625" xlink:href="#Abel-Regular-2e"/>
       <use x="72.837890625" xlink:href="#Abel-Regular-30"/>
       <use x="124.25390625" xlink:href="#Abel-Regular-33"/>
       <use x="175.654296875" xlink:href="#Abel-Regular-30"/>
      </g>
     </g>
    </g>
    <g id="text_7">
     <!-- diferencia en longitud [m] -->
     <defs>
      <path d="M 39.40625 13.71875 
Q 39.40625 10.6875 38.25 8 
Q 37.109375 5.328125 35.109375 3.3125 
Q 33.109375 1.3125 30.421875 0.15625 
Q 27.734375 -0.984375 24.703125 -0.984375 
L 20.703125 -0.984375 
Q 17.671875 -0.984375 14.984375 0.15625 
Q 12.3125 1.3125 10.296875 3.3125 
Q 8.296875 5.328125 7.140625 8 
Q 6 10.6875 6 13.71875 
L 6 36.28125 
Q 6 39.3125 7.140625 41.984375 
Q 8.296875 44.671875 10.296875 46.671875 
Q 12.3125 48.6875 14.984375 49.828125 
Q 17.671875 50.984375 20.703125 50.984375 
L 24.703125 50.984375 
Q 27.734375 50.984375 30.421875 49.828125 
Q 33.109375 48.6875 35.109375 46.671875 
Q 37.109375 44.671875 38.25 41.984375 
Q 39.40625 39.3125 39.40625 36.28125 
L 39.40625 34.28125 
L 33.40625 33.296875 
L 33.40625 36.625 
Q 33.40625 38.421875 32.71875 40.015625 
Q 32.03125 41.609375 30.859375 42.78125 
Q 29.6875 43.953125 28.09375 44.625 
Q 26.515625 45.3125 24.703125 45.3125 
L 20.703125 45.3125 
Q 18.890625 45.3125 17.296875 44.625 
Q 15.71875 43.953125 14.546875 42.78125 
Q 13.375 41.609375 12.6875 40.015625 
Q 12.015625 38.421875 12.015625 36.625 
L 12.015625 13.375 
Q 12.015625 11.578125 12.6875 9.984375 
Q 13.375 8.40625 14.546875 7.234375 
Q 15.71875 6.0625 17.296875 5.375 
Q 18.890625 4.6875 20.703125 4.6875 
L 24.703125 4.6875 
Q 26.515625 4.6875 28.09375 5.375 
Q 29.6875 6.0625 30.859375 7.234375 
Q 32.03125 8.40625 32.71875 9.984375 
Q 33.40625 11.578125 33.40625 13.375 
L 33.40625 16.703125 
L 39.40625 15.71875 
L 39.40625 13.71875 
z
" id="Abel-Regular-63"/>
      <path d="M 39.890625 -6.296875 
Q 39.890625 -9.328125 38.734375 -11.859375 
Q 37.59375 -14.40625 35.59375 -16.203125 
Q 33.59375 -18.015625 30.90625 -19.015625 
Q 28.21875 -20.015625 25.203125 -20.015625 
L 22.703125 -20.015625 
Q 19.671875 -20.015625 16.984375 -19.015625 
Q 14.3125 -18.015625 12.296875 -16.203125 
Q 10.296875 -14.40625 9.15625 -11.859375 
Q 8.015625 -9.328125 8.015625 -6.296875 
L 8.015625 -6.109375 
Q 8.015625 -3.171875 9.078125 -0.734375 
Q 10.15625 1.703125 12.015625 3.515625 
Q 9.671875 4.9375 8.28125 7.34375 
Q 6.890625 9.765625 6.890625 12.703125 
Q 6.890625 15.328125 8 17.59375 
Q 9.125 19.875 11.078125 21.296875 
Q 8.734375 23.34375 7.359375 26.21875 
Q 6 29.109375 6 32.515625 
L 6 36.28125 
Q 6 39.3125 7.140625 41.984375 
Q 8.296875 44.671875 10.296875 46.671875 
Q 12.3125 48.6875 14.984375 49.828125 
Q 17.671875 50.984375 20.703125 50.984375 
L 23.1875 50.984375 
Q 26.859375 50.984375 29.953125 49.34375 
Q 33.0625 47.703125 35.109375 44.921875 
L 38.375 50 
L 40.375 50 
L 40.375 32.515625 
Q 40.375 29.5 39.234375 26.8125 
Q 38.09375 24.125 36.078125 22.125 
Q 34.078125 20.125 31.390625 18.96875 
Q 28.71875 17.828125 25.6875 17.828125 
L 17 17.828125 
Q 15.96875 17.828125 15.03125 17.40625 
Q 14.109375 17 13.40625 16.3125 
Q 12.703125 15.625 12.3125 14.671875 
Q 11.921875 13.71875 11.921875 12.703125 
Q 11.921875 11.671875 12.3125 10.734375 
Q 12.703125 9.8125 13.40625 9.109375 
Q 14.109375 8.40625 15.03125 8.015625 
Q 15.96875 7.625 17 7.625 
L 25.203125 7.625 
Q 28.21875 7.625 30.90625 6.609375 
Q 33.59375 5.609375 35.59375 3.796875 
Q 37.59375 2 38.734375 -0.53125 
Q 39.890625 -3.078125 39.890625 -6.109375 
L 39.890625 -6.296875 
z
M 34.421875 36.625 
Q 34.421875 38.421875 33.734375 40.015625 
Q 33.0625 41.609375 31.859375 42.78125 
Q 30.671875 43.953125 29.078125 44.625 
Q 27.484375 45.3125 25.6875 45.3125 
L 20.703125 45.3125 
Q 18.890625 45.3125 17.296875 44.625 
Q 15.71875 43.953125 14.546875 42.78125 
Q 13.375 41.609375 12.6875 40.015625 
Q 12.015625 38.421875 12.015625 36.625 
L 12.015625 32.171875 
Q 12.015625 30.375 12.6875 28.78125 
Q 13.375 27.203125 14.546875 26.03125 
Q 15.71875 24.859375 17.296875 24.171875 
Q 18.890625 23.484375 20.703125 23.484375 
L 25.6875 23.484375 
Q 27.484375 23.484375 29.078125 24.171875 
Q 30.671875 24.859375 31.859375 26.03125 
Q 33.0625 27.203125 33.734375 28.78125 
Q 34.421875 30.375 34.421875 32.171875 
z
M 34.1875 -5.8125 
Q 34.1875 -4 33.5 -2.5625 
Q 32.8125 -1.125 31.640625 -0.140625 
Q 30.46875 0.828125 28.875 1.359375 
Q 27.296875 1.90625 25.484375 1.90625 
L 22.40625 1.90625 
Q 20.609375 1.90625 19.015625 1.359375 
Q 17.4375 0.828125 16.265625 -0.140625 
Q 15.09375 -1.125 14.40625 -2.5625 
Q 13.71875 -4 13.71875 -5.8125 
L 13.71875 -6.59375 
Q 13.71875 -8.40625 14.40625 -9.8125 
Q 15.09375 -11.234375 16.265625 -12.234375 
Q 17.4375 -13.234375 19.015625 -13.765625 
Q 20.609375 -14.3125 22.40625 -14.3125 
L 25.484375 -14.3125 
Q 27.296875 -14.3125 28.875 -13.765625 
Q 30.46875 -13.234375 31.640625 -12.234375 
Q 32.8125 -11.234375 33.5 -9.8125 
Q 34.1875 -8.40625 34.1875 -6.59375 
z
" id="Abel-Regular-67"/>
      <path d="M 58.796875 0 
L 58.796875 36.625 
Q 58.796875 38.421875 58.109375 40.015625 
Q 57.421875 41.609375 56.25 42.78125 
Q 55.078125 43.953125 53.484375 44.625 
Q 51.90625 45.3125 50.09375 45.3125 
L 47.125 45.3125 
Q 45.3125 45.3125 43.71875 44.625 
Q 42.140625 43.953125 40.9375 42.78125 
Q 39.75 41.609375 39.0625 40.015625 
Q 38.375 38.421875 38.375 36.625 
L 38.375 0 
L 32.421875 0 
L 32.421875 36.625 
Q 32.421875 38.421875 31.734375 40.015625 
Q 31.0625 41.609375 29.859375 42.78125 
Q 28.65625 43.953125 27.0625 44.625 
Q 25.484375 45.3125 23.6875 45.3125 
L 20.703125 45.3125 
Q 18.890625 45.3125 17.296875 44.625 
Q 15.71875 43.953125 14.546875 42.78125 
Q 13.375 41.609375 12.6875 40.015625 
Q 12.015625 38.421875 12.015625 36.625 
L 12.015625 0 
L 6 0 
L 6 50 
L 8.015625 50 
L 11.28125 44.921875 
Q 13.328125 47.703125 16.421875 49.34375 
Q 19.53125 50.984375 23.1875 50.984375 
L 23.6875 50.984375 
Q 27.9375 50.984375 31.34375 48.875 
Q 34.765625 46.78125 36.625 43.3125 
Q 37.546875 45.015625 38.90625 46.4375 
Q 40.28125 47.859375 41.9375 48.859375 
Q 43.609375 49.859375 45.5625 50.421875 
Q 47.515625 50.984375 49.609375 50.984375 
L 50.09375 50.984375 
Q 53.125 50.984375 55.8125 49.828125 
Q 58.5 48.6875 60.5 46.671875 
Q 62.5 44.671875 63.640625 41.984375 
Q 64.796875 39.3125 64.796875 36.28125 
L 64.796875 0 
z
" id="Abel-Regular-6d"/>
      <path d="M 37.40625 0 
L 34.078125 4.984375 
Q 32.03125 2.296875 28.953125 0.65625 
Q 25.875 -0.984375 22.21875 -0.984375 
L 20.703125 -0.984375 
Q 17.671875 -0.984375 14.984375 0.15625 
Q 12.3125 1.3125 10.296875 3.3125 
Q 8.296875 5.328125 7.140625 8 
Q 6 10.6875 6 13.71875 
L 6 14.203125 
Q 6 17.234375 7.140625 19.921875 
Q 8.296875 22.609375 10.296875 24.609375 
Q 12.3125 26.609375 14.984375 27.75 
Q 17.671875 28.90625 20.703125 28.90625 
L 33.40625 28.90625 
L 33.40625 36.625 
Q 33.40625 38.421875 32.71875 40.015625 
Q 32.03125 41.609375 30.859375 42.78125 
Q 29.6875 43.953125 28.09375 44.625 
Q 26.515625 45.3125 24.703125 45.3125 
L 21.1875 45.3125 
Q 19.390625 45.3125 17.796875 44.625 
Q 16.21875 43.953125 15.046875 42.78125 
Q 13.875 41.609375 13.1875 40.015625 
Q 12.5 38.421875 12.5 36.625 
L 12.5 34.8125 
L 6.5 35.796875 
L 6.5 36.28125 
Q 6.5 39.3125 7.640625 41.984375 
Q 8.796875 44.671875 10.796875 46.671875 
Q 12.796875 48.6875 15.484375 49.828125 
Q 18.171875 50.984375 21.1875 50.984375 
L 24.703125 50.984375 
Q 27.734375 50.984375 30.421875 49.828125 
Q 33.109375 48.6875 35.109375 46.671875 
Q 37.109375 44.671875 38.25 41.984375 
Q 39.40625 39.3125 39.40625 36.28125 
L 39.40625 0 
z
M 33.40625 24.21875 
L 20.703125 24.21875 
Q 18.890625 24.21875 17.296875 23.53125 
Q 15.71875 22.859375 14.546875 21.65625 
Q 13.375 20.453125 12.6875 18.859375 
Q 12.015625 17.28125 12.015625 15.484375 
L 12.015625 13.375 
Q 12.015625 11.578125 12.6875 9.984375 
Q 13.375 8.40625 14.546875 7.234375 
Q 15.71875 6.0625 17.296875 5.375 
Q 18.890625 4.6875 20.703125 4.6875 
L 24.703125 4.6875 
Q 26.515625 4.6875 28.09375 5.375 
Q 29.6875 6.0625 30.859375 7.234375 
Q 32.03125 8.40625 32.71875 9.984375 
Q 33.40625 11.578125 33.40625 13.375 
z
" id="Abel-Regular-61"/>
      <path d="M 8.015625 0 
L 8.015625 70.015625 
L 14.015625 70.015625 
L 14.015625 0 
z
" id="Abel-Regular-6c"/>
      <path d="M 23.1875 64.3125 
Q 21.6875 64.3125 20.390625 63.75 
Q 19.09375 63.1875 18.109375 62.203125 
Q 17.140625 61.234375 16.578125 59.90625 
Q 16.015625 58.59375 16.015625 57.078125 
L 16.015625 50 
L 27.6875 50 
L 27.6875 44.28125 
L 16.015625 44.28125 
L 16.015625 0 
L 10.015625 0 
L 10.015625 44.28125 
L 0.984375 44.28125 
L 0.984375 50 
L 10.015625 50 
L 10.015625 56.78125 
Q 10.015625 59.515625 11.03125 61.9375 
Q 12.0625 64.359375 13.859375 66.15625 
Q 15.671875 67.96875 18.0625 68.984375 
Q 20.453125 70.015625 23.1875 70.015625 
L 28.71875 70.015625 
L 28.71875 64.3125 
z
" id="Abel-Regular-66"/>
      <path id="Abel-Regular-20"/>
      <path d="M 37.40625 0 
L 34.078125 5.078125 
Q 32.03125 2.296875 28.953125 0.65625 
Q 25.875 -0.984375 22.21875 -0.984375 
L 20.703125 -0.984375 
Q 17.671875 -0.984375 14.984375 0.15625 
Q 12.3125 1.3125 10.296875 3.3125 
Q 8.296875 5.328125 7.140625 8 
Q 6 10.6875 6 13.71875 
L 6 50 
L 12.015625 50 
L 12.015625 13.375 
Q 12.015625 11.578125 12.6875 9.984375 
Q 13.375 8.40625 14.546875 7.234375 
Q 15.71875 6.0625 17.296875 5.375 
Q 18.890625 4.6875 20.703125 4.6875 
L 24.703125 4.6875 
Q 26.515625 4.6875 28.09375 5.375 
Q 29.6875 6.0625 30.859375 7.234375 
Q 32.03125 8.40625 32.71875 9.984375 
Q 33.40625 11.578125 33.40625 13.375 
L 33.40625 50 
L 39.40625 50 
L 39.40625 0 
z
" id="Abel-Regular-75"/>
      <path d="M 37.40625 0 
L 34.078125 5.078125 
Q 32.03125 2.296875 28.953125 0.65625 
Q 25.875 -0.984375 22.21875 -0.984375 
L 20.703125 -0.984375 
Q 17.671875 -0.984375 14.984375 0.15625 
Q 12.3125 1.3125 10.296875 3.3125 
Q 8.296875 5.328125 7.140625 8 
Q 6 10.6875 6 13.71875 
L 6 36.28125 
Q 6 39.3125 7.140625 41.984375 
Q 8.296875 44.671875 10.296875 46.671875 
Q 12.3125 48.6875 14.984375 49.828125 
Q 17.671875 50.984375 20.703125 50.984375 
L 22.21875 50.984375 
Q 25.59375 50.984375 28.46875 49.609375 
Q 31.34375 48.25 33.40625 45.796875 
L 33.40625 70.015625 
L 39.40625 70.015625 
L 39.40625 0 
z
M 33.40625 36.625 
Q 33.40625 38.421875 32.71875 40.015625 
Q 32.03125 41.609375 30.859375 42.78125 
Q 29.6875 43.953125 28.09375 44.625 
Q 26.515625 45.3125 24.703125 45.3125 
L 20.703125 45.3125 
Q 18.890625 45.3125 17.296875 44.625 
Q 15.71875 43.953125 14.546875 42.78125 
Q 13.375 41.609375 12.6875 40.015625 
Q 12.015625 38.421875 12.015625 36.625 
L 12.015625 13.375 
Q 12.015625 11.578125 12.6875 9.984375 
Q 13.375 8.40625 14.546875 7.234375 
Q 15.71875 6.0625 17.296875 5.375 
Q 18.890625 4.6875 20.703125 4.6875 
L 24.703125 4.6875 
Q 26.515625 4.6875 28.09375 5.375 
Q 29.6875 6.0625 30.859375 7.234375 
Q 32.03125 8.40625 32.71875 9.984375 
Q 33.40625 11.578125 33.40625 13.375 
z
" id="Abel-Regular-64"/>
      <path d="M 20.703125 44.28125 
Q 18.890625 44.28125 17.296875 43.59375 
Q 15.71875 42.921875 14.546875 41.75 
Q 13.375 40.578125 12.6875 38.984375 
Q 12.015625 37.40625 12.015625 35.59375 
L 12.015625 0 
L 6 0 
L 6 50 
L 8.015625 50 
L 11.28125 44.921875 
Q 13.328125 47.703125 16.421875 49.34375 
Q 19.53125 50.984375 23.1875 50.984375 
L 26.703125 50.984375 
L 26.703125 44.28125 
z
" id="Abel-Regular-72"/>
      <path d="M 33.40625 0 
L 33.40625 36.625 
Q 33.40625 38.421875 32.71875 40.015625 
Q 32.03125 41.609375 30.859375 42.78125 
Q 29.6875 43.953125 28.09375 44.625 
Q 26.515625 45.3125 24.703125 45.3125 
L 20.703125 45.3125 
Q 18.890625 45.3125 17.296875 44.625 
Q 15.71875 43.953125 14.546875 42.78125 
Q 13.375 41.609375 12.6875 40.015625 
Q 12.015625 38.421875 12.015625 36.625 
L 12.015625 0 
L 6 0 
L 6 50 
L 8.015625 50 
L 11.28125 44.921875 
Q 13.328125 47.703125 16.421875 49.34375 
Q 19.53125 50.984375 23.1875 50.984375 
L 24.703125 50.984375 
Q 27.734375 50.984375 30.421875 49.828125 
Q 33.109375 48.6875 35.109375 46.671875 
Q 37.109375 44.671875 38.25 41.984375 
Q 39.40625 39.3125 39.40625 36.28125 
L 39.40625 0 
z
" id="Abel-Regular-6e"/>
      <path d="M 39.40625 13.71875 
Q 39.40625 10.6875 38.25 8 
Q 37.109375 5.328125 35.109375 3.3125 
Q 33.109375 1.3125 30.421875 0.15625 
Q 27.734375 -0.984375 24.703125 -0.984375 
L 20.703125 -0.984375 
Q 17.671875 -0.984375 14.984375 0.15625 
Q 12.3125 1.3125 10.296875 3.3125 
Q 8.296875 5.328125 7.140625 8 
Q 6 10.6875 6 13.71875 
L 6 36.28125 
Q 6 39.3125 7.140625 41.984375 
Q 8.296875 44.671875 10.296875 46.671875 
Q 12.3125 48.6875 14.984375 49.828125 
Q 17.671875 50.984375 20.703125 50.984375 
L 24.703125 50.984375 
Q 27.734375 50.984375 30.421875 49.828125 
Q 33.109375 48.6875 35.109375 46.671875 
Q 37.109375 44.671875 38.25 41.984375 
Q 39.40625 39.3125 39.40625 36.28125 
L 39.40625 13.71875 
z
M 33.40625 36.625 
Q 33.40625 38.421875 32.71875 40.015625 
Q 32.03125 41.609375 30.859375 42.78125 
Q 29.6875 43.953125 28.09375 44.625 
Q 26.515625 45.3125 24.703125 45.3125 
L 20.703125 45.3125 
Q 18.890625 45.3125 17.296875 44.625 
Q 15.71875 43.953125 14.546875 42.78125 
Q 13.375 41.609375 12.6875 40.015625 
Q 12.015625 38.421875 12.015625 36.625 
L 12.015625 13.375 
Q 12.015625 11.578125 12.6875 9.984375 
Q 13.375 8.40625 14.546875 7.234375 
Q 15.71875 6.0625 17.296875 5.375 
Q 18.890625 4.6875 20.703125 4.6875 
L 24.703125 4.6875 
Q 26.515625 4.6875 28.09375 5.375 
Q 29.6875 6.0625 30.859375 7.234375 
Q 32.03125 8.40625 32.71875 9.984375 
Q 33.40625 11.578125 33.40625 13.375 
z
" id="Abel-Regular-6f"/>
      <path d="M 4.984375 -14.59375 
L 16.890625 -14.59375 
L 16.890625 73 
L 4.984375 73 
L 4.984375 78.421875 
L 22.90625 78.421875 
L 22.90625 -20.015625 
L 4.984375 -20.015625 
z
" id="Abel-Regular-5d"/>
      <path d="M 39.40625 13.71875 
Q 39.40625 10.6875 38.25 8 
Q 37.109375 5.328125 35.109375 3.3125 
Q 33.109375 1.3125 30.421875 0.15625 
Q 27.734375 -0.984375 24.703125 -0.984375 
L 20.703125 -0.984375 
Q 17.671875 -0.984375 14.984375 0.15625 
Q 12.3125 1.3125 10.296875 3.3125 
Q 8.296875 5.328125 7.140625 8 
Q 6 10.6875 6 13.71875 
L 6 36.28125 
Q 6 39.3125 7.140625 41.984375 
Q 8.296875 44.671875 10.296875 46.671875 
Q 12.3125 48.6875 14.984375 49.828125 
Q 17.671875 50.984375 20.703125 50.984375 
L 24.703125 50.984375 
Q 27.734375 50.984375 30.421875 49.828125 
Q 33.109375 48.6875 35.109375 46.671875 
Q 37.109375 44.671875 38.25 41.984375 
Q 39.40625 39.3125 39.40625 36.28125 
L 39.40625 24.515625 
L 12.015625 24.515625 
L 12.015625 13.375 
Q 12.015625 11.578125 12.6875 9.984375 
Q 13.375 8.40625 14.546875 7.234375 
Q 15.71875 6.0625 17.296875 5.375 
Q 18.890625 4.6875 20.703125 4.6875 
L 24.703125 4.6875 
Q 26.515625 4.6875 28.09375 5.375 
Q 29.6875 6.0625 30.859375 7.234375 
Q 32.03125 8.40625 32.71875 9.984375 
Q 33.40625 11.578125 33.40625 13.375 
L 33.40625 16.703125 
L 39.40625 15.71875 
L 39.40625 13.71875 
z
M 33.40625 36.625 
Q 33.40625 38.421875 32.71875 40.015625 
Q 32.03125 41.609375 30.859375 42.78125 
Q 29.6875 43.953125 28.09375 44.625 
Q 26.515625 45.3125 24.703125 45.3125 
L 20.703125 45.3125 
Q 18.890625 45.3125 17.296875 44.625 
Q 15.71875 43.953125 14.546875 42.78125 
Q 13.375 41.609375 12.6875 40.015625 
Q 12.015625 38.421875 12.015625 36.625 
L 12.015625 29.203125 
L 33.40625 29.203125 
z
" id="Abel-Regular-65"/>
      <path d="M 7.515625 62.015625 
L 7.515625 70.015625 
L 14.5 70.015625 
L 14.5 62.015625 
z
M 8.015625 0 
L 8.015625 50 
L 14.015625 50 
L 14.015625 0 
z
" id="Abel-Regular-69"/>
      <path d="M 24.21875 0 
Q 21.484375 0 19.0625 1.015625 
Q 16.65625 2.046875 14.875 3.859375 
Q 13.09375 5.671875 12.03125 8.0625 
Q 10.984375 10.453125 10.984375 13.1875 
L 10.984375 44.28125 
L 2 44.28125 
L 2 50 
L 10.984375 50 
L 10.984375 62.015625 
L 17 62.984375 
L 17 50 
L 29.6875 50 
L 29.6875 44.28125 
L 17 44.28125 
L 17 12.890625 
Q 17 11.375 17.546875 10.078125 
Q 18.109375 8.796875 19.078125 7.8125 
Q 20.0625 6.84375 21.375 6.28125 
Q 22.703125 5.71875 24.21875 5.71875 
L 29.6875 5.71875 
L 29.6875 0 
z
" id="Abel-Regular-74"/>
      <path d="M 25.875 -20.015625 
L 8.015625 -20.015625 
L 8.015625 78.421875 
L 25.875 78.421875 
L 25.875 73 
L 14.015625 73 
L 14.015625 -14.59375 
L 25.875 -14.59375 
z
" id="Abel-Regular-5b"/>
     </defs>
     <g transform="translate(236.874375 418.014375)scale(0.12 -0.12)">
      <use xlink:href="#Abel-Regular-64"/>
      <use x="45.41015625" xlink:href="#Abel-Regular-69"/>
      <use x="67.431640625" xlink:href="#Abel-Regular-66"/>
      <use x="96.142578125" xlink:href="#Abel-Regular-65"/>
      <use x="141.552734375" xlink:href="#Abel-Regular-72"/>
      <use x="170.263671875" xlink:href="#Abel-Regular-65"/>
      <use x="215.673828125" xlink:href="#Abel-Regular-6e"/>
      <use x="261.083984375" xlink:href="#Abel-Regular-63"/>
      <use x="306.494140625" xlink:href="#Abel-Regular-69"/>
      <use x="328.515625" xlink:href="#Abel-Regular-61"/>
      <use x="373.92578125" xlink:href="#Abel-Regular-20"/>
      <use x="396.923828125" xlink:href="#Abel-Regular-65"/>
      <use x="442.333984375" xlink:href="#Abel-Regular-6e"/>
      <use x="487.744140625" xlink:href="#Abel-Regular-20"/>
      <use x="510.7421875" xlink:href="#Abel-Regular-6c"/>
      <use x="532.748046875" xlink:href="#Abel-Regular-6f"/>
      <use x="578.158203125" xlink:href="#Abel-Regular-6e"/>
      <use x="623.568359375" xlink:href="#Abel-Regular-67"/>
      <use x="668.978515625" xlink:href="#Abel-Regular-69"/>
      <use x="691.0" xlink:href="#Abel-Regular-74"/>
      <use x="725.716796875" xlink:href="#Abel-Regular-75"/>
      <use x="771.126953125" xlink:href="#Abel-Regular-64"/>
      <use x="816.537109375" xlink:href="#Abel-Regular-20"/>
      <use x="839.53515625" xlink:href="#Abel-Regular-5b"/>
      <use x="870.443359375" xlink:href="#Abel-Regular-6d"/>
      <use x="941.244140625" xlink:href="#Abel-Regular-5d"/>
     </g>
    </g>
   </g>
   <g id="matplotlib.axis_2">
    <g id="ytick_1">
     <g id="line2d_40">
      <path clip-path="url(#pd5d822164e)" d="M 187.2 388.8 
L 403.2 388.8 
" style="fill:none;stroke:#000000;stroke-dasharray:1.000000,3.000000;stroke-dashoffset:0.0;stroke-width:0.5;"/>
     </g>
     <g id="line2d_41">
      <defs>
       <path d="M 0 0 
L 4 0 
" id="maa21a71a70" style="stroke:#000000;stroke-width:0.5;"/>
      </defs>
      <g>
       <use style="stroke:#000000;stroke-width:0.5;" x="187.2" xlink:href="#maa21a71a70" y="388.8"/>
      </g>
     </g>
     <g id="line2d_42">
      <defs>
       <path d="M 0 0 
L -4 0 
" id="m56b574ca32" style="stroke:#000000;stroke-width:0.5;"/>
      </defs>
      <g>
       <use style="stroke:#000000;stroke-width:0.5;" x="403.2" xlink:href="#m56b574ca32" y="388.8"/>
      </g>
     </g>
     <g id="text_8">
      <!-- 0.005 -->
      <g transform="translate(155.94875 391.8)scale(0.12 -0.12)">
       <use xlink:href="#Abel-Regular-30"/>
       <use x="51.384765625" xlink:href="#Abel-Regular-2e"/>
       <use x="72.837890625" xlink:href="#Abel-Regular-30"/>
       <use x="124.25390625" xlink:href="#Abel-Regular-30"/>
       <use x="175.654296875" xlink:href="#Abel-Regular-35"/>
      </g>
     </g>
    </g>
    <g id="ytick_2">
     <g id="line2d_43">
      <path clip-path="url(#pd5d822164e)" d="M 187.2 345.6 
L 403.2 345.6 
" style="fill:none;stroke:#000000;stroke-dasharray:1.000000,3.000000;stroke-dashoffset:0.0;stroke-width:0.5;"/>
     </g>
     <g id="line2d_44">
      <g>
       <use style="stroke:#000000;stroke-width:0.5;" x="187.2" xlink:href="#maa21a71a70" y="345.6"/>
      </g>
     </g>
     <g id="line2d_45">
      <g>
       <use style="stroke:#000000;stroke-width:0.5;" x="403.2" xlink:href="#m56b574ca32" y="345.6"/>
      </g>
     </g>
     <g id="text_9">
      <!-- 0.010 -->
      <g transform="translate(155.913125 348.6)scale(0.12 -0.12)">
       <use xlink:href="#Abel-Regular-30"/>
       <use x="51.384765625" xlink:href="#Abel-Regular-2e"/>
       <use x="72.837890625" xlink:href="#Abel-Regular-30"/>
       <use x="124.25390625" xlink:href="#Abel-Regular-31"/>
       <use x="175.962890625" xlink:href="#Abel-Regular-30"/>
      </g>
     </g>
    </g>
    <g id="ytick_3">
     <g id="line2d_46">
      <path clip-path="url(#pd5d822164e)" d="M 187.2 302.4 
L 403.2 302.4 
" style="fill:none;stroke:#000000;stroke-dasharray:1.000000,3.000000;stroke-dashoffset:0.0;stroke-width:0.5;"/>
     </g>
     <g id="line2d_47">
      <g>
       <use style="stroke:#000000;stroke-width:0.5;" x="187.2" xlink:href="#maa21a71a70" y="302.4"/>
      </g>
     </g>
     <g id="line2d_48">
      <g>
       <use style="stroke:#000000;stroke-width:0.5;" x="403.2" xlink:href="#m56b574ca32" y="302.4"/>
      </g>
     </g>
     <g id="text_10">
      <!-- 0.015 -->
      <g transform="translate(155.913125 305.4)scale(0.12 -0.12)">
       <use xlink:href="#Abel-Regular-30"/>
       <use x="51.384765625" xlink:href="#Abel-Regular-2e"/>
       <use x="72.837890625" xlink:href="#Abel-Regular-30"/>
       <use x="124.25390625" xlink:href="#Abel-Regular-31"/>
       <use x="175.962890625" xlink:href="#Abel-Regular-35"/>
      </g>
     </g>
    </g>
    <g id="ytick_4">
     <g id="line2d_49">
      <path clip-path="url(#pd5d822164e)" d="M 187.2 259.2 
L 403.2 259.2 
" style="fill:none;stroke:#000000;stroke-dasharray:1.000000,3.000000;stroke-dashoffset:0.0;stroke-width:0.5;"/>
     </g>
     <g id="line2d_50">
      <g>
       <use style="stroke:#000000;stroke-width:0.5;" x="187.2" xlink:href="#maa21a71a70" y="259.2"/>
      </g>
     </g>
     <g id="line2d_51">
      <g>
       <use style="stroke:#000000;stroke-width:0.5;" x="403.2" xlink:href="#m56b574ca32" y="259.2"/>
      </g>
     </g>
     <g id="text_11">
      <!-- 0.020 -->
      <g transform="translate(156.186875 262.2)scale(0.12 -0.12)">
       <use xlink:href="#Abel-Regular-30"/>
       <use x="51.384765625" xlink:href="#Abel-Regular-2e"/>
       <use x="72.837890625" xlink:href="#Abel-Regular-30"/>
       <use x="124.25390625" xlink:href="#Abel-Regular-32"/>
       <use x="173.66796875" xlink:href="#Abel-Regular-30"/>
      </g>
     </g>
    </g>
    <g id="ytick_5">
     <g id="line2d_52">
      <path clip-path="url(#pd5d822164e)" d="M 187.2 216 
L 403.2 216 
" style="fill:none;stroke:#000000;stroke-dasharray:1.000000,3.000000;stroke-dashoffset:0.0;stroke-width:0.5;"/>
     </g>
     <g id="line2d_53">
      <g>
       <use style="stroke:#000000;stroke-width:0.5;" x="187.2" xlink:href="#maa21a71a70" y="216.0"/>
      </g>
     </g>
     <g id="line2d_54">
      <g>
       <use style="stroke:#000000;stroke-width:0.5;" x="403.2" xlink:href="#m56b574ca32" y="216.0"/>
      </g>
     </g>
     <g id="text_12">
      <!-- 0.025 -->
      <g transform="translate(156.18875 219.0)scale(0.12 -0.12)">
       <use xlink:href="#Abel-Regular-30"/>
       <use x="51.384765625" xlink:href="#Abel-Regular-2e"/>
       <use x="72.837890625" xlink:href="#Abel-Regular-30"/>
       <use x="124.25390625" xlink:href="#Abel-Regular-32"/>
       <use x="173.65234375" xlink:href="#Abel-Regular-35"/>
      </g>
     </g>
    </g>
    <g id="ytick_6">
     <g id="line2d_55">
      <path clip-path="url(#pd5d822164e)" d="M 187.2 172.8 
L 403.2 172.8 
" style="fill:none;stroke:#000000;stroke-dasharray:1.000000,3.000000;stroke-dashoffset:0.0;stroke-width:0.5;"/>
     </g>
     <g id="line2d_56">
      <g>
       <use style="stroke:#000000;stroke-width:0.5;" x="187.2" xlink:href="#maa21a71a70" y="172.8"/>
      </g>
     </g>
     <g id="line2d_57">
      <g>
       <use style="stroke:#000000;stroke-width:0.5;" x="403.2" xlink:href="#m56b574ca32" y="172.8"/>
      </g>
     </g>
     <g id="text_13">
      <!-- 0.030 -->
      <g transform="translate(155.94875 175.8)scale(0.12 -0.12)">
       <use xlink:href="#Abel-Regular-30"/>
       <use x="51.384765625" xlink:href="#Abel-Regular-2e"/>
       <use x="72.837890625" xlink:href="#Abel-Regular-30"/>
       <use x="124.25390625" xlink:href="#Abel-Regular-33"/>
       <use x="175.654296875" xlink:href="#Abel-Regular-30"/>
      </g>
     </g>
    </g>
    <g id="ytick_7">
     <g id="line2d_58">
      <path clip-path="url(#pd5d822164e)" d="M 187.2 129.6 
L 403.2 129.6 
" style="fill:none;stroke:#000000;stroke-dasharray:1.000000,3.000000;stroke-dashoffset:0.0;stroke-width:0.5;"/>
     </g>
     <g id="line2d_59">
      <g>
       <use style="stroke:#000000;stroke-width:0.5;" x="187.2" xlink:href="#maa21a71a70" y="129.6"/>
      </g>
     </g>
     <g id="line2d_60">
      <g>
       <use style="stroke:#000000;stroke-width:0.5;" x="403.2" xlink:href="#m56b574ca32" y="129.6"/>
      </g>
     </g>
     <g id="text_14">
      <!-- 0.035 -->
      <g transform="translate(155.94875 132.6)scale(0.12 -0.12)">
       <use xlink:href="#Abel-Regular-30"/>
       <use x="51.384765625" xlink:href="#Abel-Regular-2e"/>
       <use x="72.837890625" xlink:href="#Abel-Regular-30"/>
       <use x="124.25390625" xlink:href="#Abel-Regular-33"/>
       <use x="175.654296875" xlink:href="#Abel-Regular-35"/>
      </g>
     </g>
    </g>
    <g id="ytick_8">
     <g id="line2d_61">
      <path clip-path="url(#pd5d822164e)" d="M 187.2 86.4 
L 403.2 86.4 
" style="fill:none;stroke:#000000;stroke-dasharray:1.000000,3.000000;stroke-dashoffset:0.0;stroke-width:0.5;"/>
     </g>
     <g id="line2d_62">
      <g>
       <use style="stroke:#000000;stroke-width:0.5;" x="187.2" xlink:href="#maa21a71a70" y="86.4"/>
      </g>
     </g>
     <g id="line2d_63">
      <g>
       <use style="stroke:#000000;stroke-width:0.5;" x="403.2" xlink:href="#m56b574ca32" y="86.4"/>
      </g>
     </g>
     <g id="text_15">
      <!-- 0.040 -->
      <defs>
       <path d="M 37.40625 12.109375 
L 37.40625 0 
L 31.109375 0 
L 31.109375 12.109375 
L 2.984375 12.109375 
L 2.984375 15.09375 
L 34.078125 70.015625 
L 37.40625 70.015625 
L 37.40625 18.109375 
L 43.40625 18.109375 
L 43.40625 12.109375 
z
M 31.109375 52.78125 
L 11.8125 18.109375 
L 31.109375 18.109375 
z
" id="Abel-Regular-34"/>
      </defs>
      <g transform="translate(156.0725 89.4)scale(0.12 -0.12)">
       <use xlink:href="#Abel-Regular-30"/>
       <use x="51.384765625" xlink:href="#Abel-Regular-2e"/>
       <use x="72.837890625" xlink:href="#Abel-Regular-30"/>
       <use x="124.25390625" xlink:href="#Abel-Regular-34"/>
       <use x="174.62890625" xlink:href="#Abel-Regular-30"/>
      </g>
     </g>
    </g>
    <g id="ytick_9">
     <g id="line2d_64">
      <path clip-path="url(#pd5d822164e)" d="M 187.2 43.2 
L 403.2 43.2 
" style="fill:none;stroke:#000000;stroke-dasharray:1.000000,3.000000;stroke-dashoffset:0.0;stroke-width:0.5;"/>
     </g>
     <g id="line2d_65">
      <g>
       <use style="stroke:#000000;stroke-width:0.5;" x="187.2" xlink:href="#maa21a71a70" y="43.2"/>
      </g>
     </g>
     <g id="line2d_66">
      <g>
       <use style="stroke:#000000;stroke-width:0.5;" x="403.2" xlink:href="#m56b574ca32" y="43.2"/>
      </g>
     </g>
     <g id="text_16">
      <!-- 0.045 -->
      <g transform="translate(156.0725 46.2)scale(0.12 -0.12)">
       <use xlink:href="#Abel-Regular-30"/>
       <use x="51.384765625" xlink:href="#Abel-Regular-2e"/>
       <use x="72.837890625" xlink:href="#Abel-Regular-30"/>
       <use x="124.25390625" xlink:href="#Abel-Regular-34"/>
       <use x="174.62890625" xlink:href="#Abel-Regular-35"/>
      </g>
     </g>
    </g>
    <g id="text_17">
     <!-- diferencia en latitud [m] -->
     <g transform="translate(148.51125 270.9609375)rotate(-90.0)scale(0.12 -0.12)">
      <use xlink:href="#Abel-Regular-64"/>
      <use x="45.41015625" xlink:href="#Abel-Regular-69"/>
      <use x="67.431640625" xlink:href="#Abel-Regular-66"/>
      <use x="96.142578125" xlink:href="#Abel-Regular-65"/>
      <use x="141.552734375" xlink:href="#Abel-Regular-72"/>
      <use x="170.263671875" xlink:href="#Abel-Regular-65"/>
      <use x="215.673828125" xlink:href="#Abel-Regular-6e"/>
      <use x="261.083984375" xlink:href="#Abel-Regular-63"/>
      <use x="306.494140625" xlink:href="#Abel-Regular-69"/>
      <use x="328.515625" xlink:href="#Abel-Regular-61"/>
      <use x="373.92578125" xlink:href="#Abel-Regular-20"/>
      <use x="396.923828125" xlink:href="#Abel-Regular-65"/>
      <use x="442.333984375" xlink:href="#Abel-Regular-6e"/>
      <use x="487.744140625" xlink:href="#Abel-Regular-20"/>
      <use x="510.7421875" xlink:href="#Abel-Regular-6c"/>
      <use x="532.763671875" xlink:href="#Abel-Regular-61"/>
      <use x="578.173828125" xlink:href="#Abel-Regular-74"/>
      <use x="612.890625" xlink:href="#Abel-Regular-69"/>
      <use x="634.912109375" xlink:href="#Abel-Regular-74"/>
      <use x="669.62890625" xlink:href="#Abel-Regular-75"/>
      <use x="715.0390625" xlink:href="#Abel-Regular-64"/>
      <use x="760.44921875" xlink:href="#Abel-Regular-20"/>
      <use x="783.447265625" xlink:href="#Abel-Regular-5b"/>
      <use x="814.35546875" xlink:href="#Abel-Regular-6d"/>
      <use x="885.15625" xlink:href="#Abel-Regular-5d"/>
     </g>
    </g>
   </g>
   <g id="text_18">
    <!-- UYTA -->
    <defs>
     <path d="M 46.390625 16.21875 
Q 46.390625 12.640625 45.046875 9.515625 
Q 43.703125 6.390625 41.359375 4.046875 
Q 39.015625 1.703125 35.890625 0.359375 
Q 32.765625 -0.984375 29.203125 -0.984375 
L 24.21875 -0.984375 
Q 20.65625 -0.984375 17.5 0.359375 
Q 14.359375 1.703125 12.015625 4.046875 
Q 9.671875 6.390625 8.328125 9.515625 
Q 6.984375 12.640625 6.984375 16.21875 
L 6.984375 70.015625 
L 13.28125 70.015625 
L 13.28125 16.21875 
Q 13.28125 13.875 14.15625 11.84375 
Q 15.046875 9.8125 16.578125 8.265625 
Q 18.109375 6.734375 20.140625 5.859375 
Q 22.171875 4.984375 24.515625 4.984375 
L 28.90625 4.984375 
Q 31.25 4.984375 33.265625 5.859375 
Q 35.296875 6.734375 36.8125 8.265625 
Q 38.328125 9.8125 39.203125 11.84375 
Q 40.09375 13.875 40.09375 16.21875 
L 40.09375 70.015625 
L 46.390625 70.015625 
L 46.390625 16.21875 
z
" id="Abel-Regular-55"/>
     <path d="M 34.28125 16.3125 
L 12.109375 16.3125 
L 7.515625 0 
L 0.984375 0 
L 21.484375 70.015625 
L 24.8125 70.015625 
L 45.40625 0 
L 38.921875 0 
z
M 13.8125 22.3125 
L 32.625 22.3125 
L 23.390625 54.59375 
L 23.1875 57.171875 
L 23 54.59375 
z
" id="Abel-Regular-41"/>
     <path d="M 25 64.015625 
L 25 0 
L 18.703125 0 
L 18.703125 64.015625 
L 2 64.015625 
L 2 70.015625 
L 41.703125 70.015625 
L 41.703125 64.015625 
z
" id="Abel-Regular-54"/>
     <path d="M 26.421875 33.5 
L 26.421875 0 
L 20.125 0 
L 20.125 33.40625 
L 2 70.015625 
L 8.796875 70.015625 
L 23.1875 40.921875 
L 37.59375 70.015625 
L 44.390625 70.015625 
z
" id="Abel-Regular-59"/>
    </defs>
    <g transform="translate(269.623150661 357.987451859)rotate(-60.0)scale(0.12 -0.12)">
     <use xlink:href="#Abel-Regular-55"/>
     <use x="53.41796875" xlink:href="#Abel-Regular-59"/>
     <use x="99.8046875" xlink:href="#Abel-Regular-54"/>
     <use x="143.458984375" xlink:href="#Abel-Regular-41"/>
    </g>
   </g>
   <g id="text_19">
    <!-- UYPA -->
    <defs>
     <path d="M 47.40625 44.09375 
Q 47.40625 40.53125 46.0625 37.40625 
Q 44.734375 34.28125 42.390625 31.9375 
Q 40.046875 29.59375 36.890625 28.25 
Q 33.734375 26.90625 30.171875 26.90625 
L 14.3125 26.90625 
L 14.3125 0 
L 8.015625 0 
L 8.015625 70.015625 
L 30.171875 70.015625 
Q 33.734375 70.015625 36.890625 68.671875 
Q 40.046875 67.328125 42.390625 64.984375 
Q 44.734375 62.640625 46.0625 59.484375 
Q 47.40625 56.34375 47.40625 52.78125 
L 47.40625 44.09375 
z
M 41.109375 52.78125 
Q 41.109375 55.125 40.234375 57.15625 
Q 39.359375 59.1875 37.8125 60.71875 
Q 36.28125 62.25 34.25 63.125 
Q 32.234375 64.015625 29.890625 64.015625 
L 14.3125 64.015625 
L 14.3125 32.90625 
L 29.890625 32.90625 
Q 32.234375 32.90625 34.25 33.78125 
Q 36.28125 34.671875 37.8125 36.1875 
Q 39.359375 37.703125 40.234375 39.71875 
Q 41.109375 41.75 41.109375 44.09375 
z
" id="Abel-Regular-50"/>
    </defs>
    <g transform="translate(335.441706119 274.119493425)rotate(-60.0)scale(0.12 -0.12)">
     <use xlink:href="#Abel-Regular-55"/>
     <use x="53.41796875" xlink:href="#Abel-Regular-59"/>
     <use x="99.8046875" xlink:href="#Abel-Regular-50"/>
     <use x="151.220703125" xlink:href="#Abel-Regular-41"/>
    </g>
   </g>
   <g id="text_20">
    <!-- CATA -->
    <defs>
     <path d="M 46.390625 16.21875 
Q 46.390625 12.640625 45.046875 9.515625 
Q 43.703125 6.390625 41.359375 4.046875 
Q 39.015625 1.703125 35.890625 0.359375 
Q 32.765625 -0.984375 29.203125 -0.984375 
L 24.21875 -0.984375 
Q 20.65625 -0.984375 17.5 0.359375 
Q 14.359375 1.703125 12.015625 4.046875 
Q 9.671875 6.390625 8.328125 9.515625 
Q 6.984375 12.640625 6.984375 16.21875 
L 6.984375 53.8125 
Q 6.984375 57.375 8.328125 60.5 
Q 9.671875 63.625 12.015625 65.96875 
Q 14.359375 68.3125 17.5 69.65625 
Q 20.65625 71 24.21875 71 
L 29.203125 71 
Q 32.765625 71 35.890625 69.65625 
Q 39.015625 68.3125 41.359375 65.96875 
Q 43.703125 63.625 45.046875 60.5 
Q 46.390625 57.375 46.390625 53.8125 
L 46.390625 50.984375 
L 40.09375 50 
L 40.09375 53.8125 
Q 40.09375 56.15625 39.203125 58.171875 
Q 38.328125 60.203125 36.8125 61.71875 
Q 35.296875 63.234375 33.265625 64.109375 
Q 31.25 64.984375 28.90625 64.984375 
L 24.515625 64.984375 
Q 22.171875 64.984375 20.140625 64.109375 
Q 18.109375 63.234375 16.578125 61.71875 
Q 15.046875 60.203125 14.15625 58.171875 
Q 13.28125 56.15625 13.28125 53.8125 
L 13.28125 16.21875 
Q 13.28125 13.875 14.15625 11.84375 
Q 15.046875 9.8125 16.578125 8.265625 
Q 18.109375 6.734375 20.140625 5.859375 
Q 22.171875 4.984375 24.515625 4.984375 
L 28.90625 4.984375 
Q 31.25 4.984375 33.265625 5.859375 
Q 35.296875 6.734375 36.8125 8.265625 
Q 38.328125 9.8125 39.203125 11.84375 
Q 40.09375 13.875 40.09375 16.21875 
L 40.09375 20.015625 
L 46.390625 19 
L 46.390625 16.21875 
z
" id="Abel-Regular-43"/>
    </defs>
    <g transform="translate(392.995923165 245.018617259)rotate(-60.0)scale(0.12 -0.12)">
     <use xlink:href="#Abel-Regular-43"/>
     <use x="52.392578125" xlink:href="#Abel-Regular-41"/>
     <use x="98.732421875" xlink:href="#Abel-Regular-54"/>
     <use x="142.38671875" xlink:href="#Abel-Regular-41"/>
    </g>
   </g>
   <g id="text_21">
    <!-- GUAY -->
    <defs>
     <path d="M 46.390625 0 
L 44.390625 0 
L 40.71875 5.609375 
Q 38.421875 2.59375 35.15625 0.796875 
Q 31.890625 -0.984375 27.875 -0.984375 
L 24.21875 -0.984375 
Q 20.65625 -0.984375 17.5 0.359375 
Q 14.359375 1.703125 12.015625 4.046875 
Q 9.671875 6.390625 8.328125 9.515625 
Q 6.984375 12.640625 6.984375 16.21875 
L 6.984375 53.8125 
Q 6.984375 57.375 8.328125 60.5 
Q 9.671875 63.625 12.015625 65.96875 
Q 14.359375 68.3125 17.5 69.65625 
Q 20.65625 71 24.21875 71 
L 29.203125 71 
Q 32.765625 71 35.890625 69.65625 
Q 39.015625 68.3125 41.359375 65.96875 
Q 43.703125 63.625 45.046875 60.5 
Q 46.390625 57.375 46.390625 53.8125 
L 46.390625 50.984375 
L 40.09375 50 
L 40.09375 53.8125 
Q 40.09375 56.15625 39.203125 58.171875 
Q 38.328125 60.203125 36.8125 61.71875 
Q 35.296875 63.234375 33.265625 64.109375 
Q 31.25 64.984375 28.90625 64.984375 
L 24.515625 64.984375 
Q 22.171875 64.984375 20.140625 64.109375 
Q 18.109375 63.234375 16.578125 61.71875 
Q 15.046875 60.203125 14.15625 58.171875 
Q 13.28125 56.15625 13.28125 53.8125 
L 13.28125 16.21875 
Q 13.28125 13.875 14.15625 11.84375 
Q 15.046875 9.8125 16.578125 8.265625 
Q 18.109375 6.734375 20.140625 5.859375 
Q 22.171875 4.984375 24.515625 4.984375 
L 28.90625 4.984375 
Q 31.25 4.984375 33.265625 5.859375 
Q 35.296875 6.734375 36.8125 8.265625 
Q 38.328125 9.8125 39.203125 11.84375 
Q 40.09375 13.875 40.09375 16.21875 
L 40.09375 30.8125 
L 28.90625 30.8125 
L 28.90625 36.8125 
L 46.390625 36.8125 
z
" id="Abel-Regular-47"/>
    </defs>
    <g transform="translate(274.756993228 202.901795119)rotate(-60.0)scale(0.12 -0.12)">
     <use xlink:href="#Abel-Regular-47"/>
     <use x="53.41796875" xlink:href="#Abel-Regular-55"/>
     <use x="106.8359375" xlink:href="#Abel-Regular-41"/>
     <use x="153.14453125" xlink:href="#Abel-Regular-59"/>
    </g>
   </g>
   <g id="text_22">
    <!-- ALUM -->
    <defs>
     <path d="M 51.125 0 
L 51.125 48 
L 50.6875 45.015625 
L 34.421875 0 
L 31.109375 0 
L 14.703125 45.015625 
L 14.3125 48 
L 14.3125 0 
L 8.015625 0 
L 8.015625 70.015625 
L 11.28125 70.015625 
L 32.515625 12.59375 
L 32.71875 10.015625 
L 32.90625 12.59375 
L 54.109375 70.015625 
L 57.421875 70.015625 
L 57.421875 0 
z
" id="Abel-Regular-4d"/>
     <path d="M 6.984375 0 
L 6.984375 70.015625 
L 13.28125 70.015625 
L 13.28125 6 
L 40.09375 6 
L 40.09375 0 
z
" id="Abel-Regular-4c"/>
    </defs>
    <g transform="translate(327.55753617 304.112110339)rotate(-60.0)scale(0.12 -0.12)">
     <use xlink:href="#Abel-Regular-41"/>
     <use x="46.38671875" xlink:href="#Abel-Regular-4c"/>
     <use x="88.4765625" xlink:href="#Abel-Regular-55"/>
     <use x="141.89453125" xlink:href="#Abel-Regular-4d"/>
    </g>
   </g>
   <g id="text_23">
    <!-- ESQU -->
    <defs>
     <path d="M 46.390625 16.21875 
Q 46.390625 12.640625 44.9375 9.515625 
Q 43.5 6.390625 41.078125 4.046875 
Q 38.671875 1.703125 35.46875 0.359375 
Q 32.28125 -0.984375 28.71875 -0.984375 
L 23.6875 -0.984375 
Q 20.125 -0.984375 16.921875 0.359375 
Q 13.71875 1.703125 11.296875 4.046875 
Q 8.890625 6.390625 7.4375 9.515625 
Q 6 12.640625 6 16.21875 
L 6 19 
L 12.3125 20.015625 
L 12.3125 16.21875 
Q 12.3125 13.875 13.25 11.84375 
Q 14.203125 9.8125 15.8125 8.265625 
Q 17.4375 6.734375 19.5625 5.859375 
Q 21.6875 4.984375 24.03125 4.984375 
L 28.421875 4.984375 
Q 30.765625 4.984375 32.859375 5.859375 
Q 34.96875 6.734375 36.578125 8.265625 
Q 38.1875 9.8125 39.140625 11.84375 
Q 40.09375 13.875 40.09375 16.21875 
L 40.09375 18.3125 
Q 40.09375 21.921875 38.671875 24.3125 
Q 37.25 26.703125 34.90625 28.390625 
Q 32.5625 30.078125 29.609375 31.25 
Q 26.65625 32.421875 23.53125 33.59375 
Q 20.40625 34.765625 17.453125 36.171875 
Q 14.5 37.59375 12.15625 39.71875 
Q 9.8125 41.84375 8.390625 44.921875 
Q 6.984375 48 6.984375 52.484375 
L 6.984375 53.8125 
Q 6.984375 57.375 8.328125 60.5 
Q 9.671875 63.625 12.015625 65.96875 
Q 14.359375 68.3125 17.5 69.65625 
Q 20.65625 71 24.21875 71 
L 28.71875 71 
Q 32.28125 71 35.40625 69.65625 
Q 38.53125 68.3125 40.875 65.96875 
Q 43.21875 63.625 44.5625 60.5 
Q 45.90625 57.375 45.90625 53.8125 
L 45.90625 52 
L 39.59375 50.984375 
L 39.59375 53.8125 
Q 39.59375 56.15625 38.71875 58.171875 
Q 37.84375 60.203125 36.328125 61.71875 
Q 34.8125 63.234375 32.78125 64.109375 
Q 30.765625 64.984375 28.421875 64.984375 
L 24.515625 64.984375 
Q 22.171875 64.984375 20.140625 64.109375 
Q 18.109375 63.234375 16.578125 61.71875 
Q 15.046875 60.203125 14.15625 58.171875 
Q 13.28125 56.15625 13.28125 53.8125 
L 13.28125 52.484375 
Q 13.28125 49.125 14.6875 46.828125 
Q 16.109375 44.53125 18.453125 42.890625 
Q 20.796875 41.265625 23.75 40.0625 
Q 26.703125 38.875 29.828125 37.625 
Q 32.953125 36.375 35.90625 34.890625 
Q 38.875 33.40625 41.21875 31.21875 
Q 43.5625 29.046875 44.96875 25.921875 
Q 46.390625 22.796875 46.390625 18.3125 
z
" id="Abel-Regular-53"/>
     <path d="M 46.390625 16.21875 
Q 46.390625 12.796875 45.171875 9.765625 
Q 43.953125 6.734375 41.796875 4.4375 
Q 39.65625 2.15625 36.75 0.703125 
Q 33.84375 -0.734375 30.515625 -0.984375 
L 36.921875 -15.375 
L 30.609375 -15.375 
L 24.21875 -0.984375 
Q 20.65625 -0.984375 17.5 0.359375 
Q 14.359375 1.703125 12.015625 4.046875 
Q 9.671875 6.390625 8.328125 9.515625 
Q 6.984375 12.640625 6.984375 16.21875 
L 6.984375 53.8125 
Q 6.984375 57.375 8.328125 60.5 
Q 9.671875 63.625 12.015625 65.96875 
Q 14.359375 68.3125 17.5 69.65625 
Q 20.65625 71 24.21875 71 
L 29.203125 71 
Q 32.765625 71 35.890625 69.65625 
Q 39.015625 68.3125 41.359375 65.96875 
Q 43.703125 63.625 45.046875 60.5 
Q 46.390625 57.375 46.390625 53.8125 
L 46.390625 16.21875 
z
M 40.09375 53.8125 
Q 40.09375 56.15625 39.203125 58.171875 
Q 38.328125 60.203125 36.8125 61.71875 
Q 35.296875 63.234375 33.265625 64.109375 
Q 31.25 64.984375 28.90625 64.984375 
L 24.515625 64.984375 
Q 22.171875 64.984375 20.140625 64.109375 
Q 18.109375 63.234375 16.578125 61.71875 
Q 15.046875 60.203125 14.15625 58.171875 
Q 13.28125 56.15625 13.28125 53.8125 
L 13.28125 16.21875 
Q 13.28125 13.875 14.15625 11.84375 
Q 15.046875 9.8125 16.578125 8.265625 
Q 18.109375 6.734375 20.140625 5.859375 
Q 22.171875 4.984375 24.515625 4.984375 
L 28.90625 4.984375 
Q 31.25 4.984375 33.265625 5.859375 
Q 35.296875 6.734375 36.8125 8.265625 
Q 38.328125 9.8125 39.203125 11.84375 
Q 40.09375 13.875 40.09375 16.21875 
z
" id="Abel-Regular-51"/>
     <path d="M 8.015625 0 
L 8.015625 70.015625 
L 47.40625 70.015625 
L 47.40625 64.015625 
L 14.3125 64.015625 
L 14.3125 37.984375 
L 41.109375 37.984375 
L 41.109375 31.984375 
L 14.3125 31.984375 
L 14.3125 6 
L 47.40625 6 
L 47.40625 0 
z
" id="Abel-Regular-45"/>
    </defs>
    <g transform="translate(301.416657938 252.701689333)rotate(-60.0)scale(0.12 -0.12)">
     <use xlink:href="#Abel-Regular-45"/>
     <use x="51.416015625" xlink:href="#Abel-Regular-53"/>
     <use x="103.3203125" xlink:href="#Abel-Regular-51"/>
     <use x="156.73828125" xlink:href="#Abel-Regular-55"/>
    </g>
   </g>
   <g id="text_24">
    <!-- BCAR -->
    <defs>
     <path d="M 40.921875 0 
L 21.921875 29.890625 
L 13.28125 29.890625 
L 13.28125 0 
L 6.984375 0 
L 6.984375 70.015625 
L 29.203125 70.015625 
Q 32.765625 70.015625 35.890625 68.671875 
Q 39.015625 67.328125 41.359375 64.984375 
Q 43.703125 62.640625 45.046875 59.484375 
Q 46.390625 56.34375 46.390625 52.78125 
L 46.390625 47.125 
Q 46.390625 43.5625 45.046875 40.40625 
Q 43.703125 37.25 41.359375 34.90625 
Q 39.015625 32.5625 35.890625 31.21875 
Q 32.765625 29.890625 29.203125 29.890625 
L 48.1875 0 
z
M 40.09375 52.78125 
Q 40.09375 55.125 39.203125 57.15625 
Q 38.328125 59.1875 36.8125 60.71875 
Q 35.296875 62.25 33.265625 63.125 
Q 31.25 64.015625 28.90625 64.015625 
L 13.28125 64.015625 
L 13.28125 35.890625 
L 28.90625 35.890625 
Q 31.25 35.890625 33.265625 36.765625 
Q 35.296875 37.640625 36.8125 39.171875 
Q 38.328125 40.71875 39.203125 42.75 
Q 40.09375 44.78125 40.09375 47.125 
z
" id="Abel-Regular-52"/>
     <path d="M 47.40625 17.1875 
Q 47.40625 13.625 46.0625 10.5 
Q 44.734375 7.375 42.390625 5.03125 
Q 40.046875 2.6875 36.890625 1.34375 
Q 33.734375 0 30.171875 0 
L 8.015625 0 
L 8.015625 70.015625 
L 30.171875 70.015625 
Q 33.734375 70.015625 36.890625 68.671875 
Q 40.046875 67.328125 42.390625 64.984375 
Q 44.734375 62.640625 46.0625 59.484375 
Q 47.40625 56.34375 47.40625 52.78125 
L 47.40625 52.09375 
Q 47.40625 49.609375 46.75 47.328125 
Q 46.09375 45.0625 44.875 43.109375 
Q 43.65625 41.15625 41.984375 39.5625 
Q 40.328125 37.984375 38.28125 36.921875 
Q 40.328125 35.84375 41.984375 34.25 
Q 43.65625 32.671875 44.875 30.6875 
Q 46.09375 28.71875 46.75 26.4375 
Q 47.40625 24.171875 47.40625 21.6875 
L 47.40625 17.1875 
z
M 41.109375 22.703125 
Q 41.109375 25.046875 40.234375 27.078125 
Q 39.359375 29.109375 37.8125 30.609375 
Q 36.28125 32.125 34.25 33 
Q 32.234375 33.890625 29.890625 33.890625 
L 14.3125 33.890625 
L 14.3125 6 
L 29.890625 6 
Q 32.234375 6 34.25 6.875 
Q 36.28125 7.765625 37.8125 9.28125 
Q 39.359375 10.796875 40.234375 12.8125 
Q 41.109375 14.84375 41.109375 17.1875 
z
M 41.109375 52.78125 
Q 41.109375 55.125 40.234375 57.15625 
Q 39.359375 59.1875 37.8125 60.71875 
Q 36.28125 62.25 34.25 63.125 
Q 32.234375 64.015625 29.890625 64.015625 
L 14.3125 64.015625 
L 14.3125 39.890625 
L 29.890625 39.890625 
Q 32.234375 39.890625 34.25 40.765625 
Q 36.28125 41.65625 37.8125 43.1875 
Q 39.359375 44.734375 40.234375 46.75 
Q 41.109375 48.78125 41.109375 51.125 
z
" id="Abel-Regular-42"/>
    </defs>
    <g transform="translate(307.932310729 301.42485336)rotate(-60.0)scale(0.12 -0.12)">
     <use xlink:href="#Abel-Regular-42"/>
     <use x="51.416015625" xlink:href="#Abel-Regular-43"/>
     <use x="103.80859375" xlink:href="#Abel-Regular-41"/>
     <use x="150.1953125" xlink:href="#Abel-Regular-52"/>
    </g>
   </g>
   <g id="text_25">
    <!-- UCOR -->
    <defs>
     <path d="M 46.390625 16.21875 
Q 46.390625 12.640625 45.046875 9.515625 
Q 43.703125 6.390625 41.359375 4.046875 
Q 39.015625 1.703125 35.890625 0.359375 
Q 32.765625 -0.984375 29.203125 -0.984375 
L 24.21875 -0.984375 
Q 20.65625 -0.984375 17.5 0.359375 
Q 14.359375 1.703125 12.015625 4.046875 
Q 9.671875 6.390625 8.328125 9.515625 
Q 6.984375 12.640625 6.984375 16.21875 
L 6.984375 53.8125 
Q 6.984375 57.375 8.328125 60.5 
Q 9.671875 63.625 12.015625 65.96875 
Q 14.359375 68.3125 17.5 69.65625 
Q 20.65625 71 24.21875 71 
L 29.203125 71 
Q 32.765625 71 35.890625 69.65625 
Q 39.015625 68.3125 41.359375 65.96875 
Q 43.703125 63.625 45.046875 60.5 
Q 46.390625 57.375 46.390625 53.8125 
L 46.390625 16.21875 
z
M 40.09375 53.8125 
Q 40.09375 56.15625 39.203125 58.171875 
Q 38.328125 60.203125 36.8125 61.71875 
Q 35.296875 63.234375 33.265625 64.109375 
Q 31.25 64.984375 28.90625 64.984375 
L 24.515625 64.984375 
Q 22.171875 64.984375 20.140625 64.109375 
Q 18.109375 63.234375 16.578125 61.71875 
Q 15.046875 60.203125 14.15625 58.171875 
Q 13.28125 56.15625 13.28125 53.8125 
L 13.28125 16.21875 
Q 13.28125 13.875 14.15625 11.84375 
Q 15.046875 9.8125 16.578125 8.265625 
Q 18.109375 6.734375 20.140625 5.859375 
Q 22.171875 4.984375 24.515625 4.984375 
L 28.90625 4.984375 
Q 31.25 4.984375 33.265625 5.859375 
Q 35.296875 6.734375 36.8125 8.265625 
Q 38.328125 9.8125 39.203125 11.84375 
Q 40.09375 13.875 40.09375 16.21875 
z
" id="Abel-Regular-4f"/>
    </defs>
    <g transform="translate(219.985865134 115.722906124)rotate(-60.0)scale(0.12 -0.12)">
     <use xlink:href="#Abel-Regular-55"/>
     <use x="53.41796875" xlink:href="#Abel-Regular-43"/>
     <use x="105.810546875" xlink:href="#Abel-Regular-4f"/>
     <use x="159.228515625" xlink:href="#Abel-Regular-52"/>
    </g>
   </g>
   <g id="text_26">
    <!-- UYTD -->
    <defs>
     <path d="M 47.40625 17.1875 
Q 47.40625 13.625 46.0625 10.5 
Q 44.734375 7.375 42.390625 5.03125 
Q 40.046875 2.6875 36.890625 1.34375 
Q 33.734375 0 30.171875 0 
L 8.015625 0 
L 8.015625 70.015625 
L 30.171875 70.015625 
Q 33.734375 70.015625 36.890625 68.671875 
Q 40.046875 67.328125 42.390625 64.984375 
Q 44.734375 62.640625 46.0625 59.484375 
Q 47.40625 56.34375 47.40625 52.78125 
L 47.40625 17.1875 
z
M 41.109375 52.78125 
Q 41.109375 55.125 40.234375 57.15625 
Q 39.359375 59.1875 37.8125 60.71875 
Q 36.28125 62.25 34.25 63.125 
Q 32.234375 64.015625 29.890625 64.015625 
L 14.3125 64.015625 
L 14.3125 6 
L 29.890625 6 
Q 32.234375 6 34.25 6.875 
Q 36.28125 7.765625 37.8125 9.28125 
Q 39.359375 10.796875 40.234375 12.8125 
Q 41.109375 14.84375 41.109375 17.1875 
z
" id="Abel-Regular-44"/>
    </defs>
    <g transform="translate(292.438124156 150.667435554)rotate(-60.0)scale(0.12 -0.12)">
     <use xlink:href="#Abel-Regular-55"/>
     <use x="53.41796875" xlink:href="#Abel-Regular-59"/>
     <use x="99.8046875" xlink:href="#Abel-Regular-54"/>
     <use x="143.505859375" xlink:href="#Abel-Regular-44"/>
    </g>
   </g>
   <g id="text_27">
    <!-- AZUL -->
    <defs>
     <path d="M 4 0 
L 4 2.984375 
L 35.203125 64.015625 
L 4.984375 64.015625 
L 4.984375 70.015625 
L 43.40625 70.015625 
L 43.40625 67 
L 12.203125 6 
L 43.40625 6 
L 43.40625 0 
z
" id="Abel-Regular-5a"/>
    </defs>
    <g transform="translate(322.359121419 303.310565514)rotate(-60.0)scale(0.12 -0.12)">
     <use xlink:href="#Abel-Regular-41"/>
     <use x="46.38671875" xlink:href="#Abel-Regular-5a"/>
     <use x="93.798828125" xlink:href="#Abel-Regular-55"/>
     <use x="147.216796875" xlink:href="#Abel-Regular-4c"/>
    </g>
   </g>
   <g id="text_28">
    <!-- UYSO -->
    <g transform="translate(269.368686479 315.963398628)rotate(-60.0)scale(0.12 -0.12)">
     <use xlink:href="#Abel-Regular-55"/>
     <use x="53.41796875" xlink:href="#Abel-Regular-59"/>
     <use x="99.8046875" xlink:href="#Abel-Regular-53"/>
     <use x="151.708984375" xlink:href="#Abel-Regular-4f"/>
    </g>
   </g>
   <g id="text_29">
    <!-- MPL2 -->
    <g transform="translate(264.311047664 264.046457363)rotate(-60.0)scale(0.12 -0.12)">
     <use xlink:href="#Abel-Regular-4d"/>
     <use x="65.380859375" xlink:href="#Abel-Regular-50"/>
     <use x="116.796875" xlink:href="#Abel-Regular-4c"/>
     <use x="158.88671875" xlink:href="#Abel-Regular-32"/>
    </g>
   </g>
   <g id="text_30">
    <!-- RECO -->
    <g transform="translate(343.640578999 192.590130634)rotate(-60.0)scale(0.12 -0.12)">
     <use xlink:href="#Abel-Regular-52"/>
     <use x="52.197265625" xlink:href="#Abel-Regular-45"/>
     <use x="103.61328125" xlink:href="#Abel-Regular-43"/>
     <use x="156.005859375" xlink:href="#Abel-Regular-4f"/>
    </g>
   </g>
   <g id="text_31">
    <!-- EBYP -->
    <g transform="translate(301.539460383 336.179446963)rotate(-60.0)scale(0.12 -0.12)">
     <use xlink:href="#Abel-Regular-45"/>
     <use x="51.416015625" xlink:href="#Abel-Regular-42"/>
     <use x="102.83203125" xlink:href="#Abel-Regular-59"/>
     <use x="149.21875" xlink:href="#Abel-Regular-50"/>
    </g>
   </g>
   <g id="text_32">
    <!-- TUCU -->
    <g transform="translate(291.190502104 233.001846187)rotate(-60.0)scale(0.12 -0.12)">
     <use xlink:href="#Abel-Regular-54"/>
     <use x="43.701171875" xlink:href="#Abel-Regular-55"/>
     <use x="97.119140625" xlink:href="#Abel-Regular-43"/>
     <use x="149.51171875" xlink:href="#Abel-Regular-55"/>
    </g>
   </g>
   <g id="text_33">
    <!-- CORD -->
    <g transform="translate(353.586170849 219.95165181)rotate(-60.0)scale(0.12 -0.12)">
     <use xlink:href="#Abel-Regular-43"/>
     <use x="52.392578125" xlink:href="#Abel-Regular-4f"/>
     <use x="105.810546875" xlink:href="#Abel-Regular-52"/>
     <use x="158.0078125" xlink:href="#Abel-Regular-44"/>
    </g>
   </g>
   <g id="text_34">
    <!-- UNRO -->
    <defs>
     <path d="M 44.09375 0 
L 14.890625 50.984375 
L 14.3125 54 
L 14.3125 0 
L 8.015625 0 
L 8.015625 70.015625 
L 11.28125 70.015625 
L 40.484375 19 
L 41.109375 16.015625 
L 41.109375 70.015625 
L 47.40625 70.015625 
L 47.40625 0 
z
" id="Abel-Regular-4e"/>
    </defs>
    <g transform="translate(249.926593022 364.681144869)rotate(-60.0)scale(0.12 -0.12)">
     <use xlink:href="#Abel-Regular-55"/>
     <use x="53.41796875" xlink:href="#Abel-Regular-4e"/>
     <use x="108.837890625" xlink:href="#Abel-Regular-52"/>
     <use x="161.03515625" xlink:href="#Abel-Regular-4f"/>
    </g>
   </g>
   <g id="text_35">
    <!-- PEJO -->
    <defs>
     <path d="M 39.40625 16.21875 
Q 39.40625 12.640625 38.0625 9.515625 
Q 36.71875 6.390625 34.375 4.046875 
Q 32.03125 1.703125 28.90625 0.359375 
Q 25.78125 -0.984375 22.21875 -0.984375 
L 20.21875 -0.984375 
Q 16.65625 -0.984375 13.5 0.359375 
Q 10.359375 1.703125 8.015625 4.046875 
Q 5.671875 6.390625 4.328125 9.515625 
Q 2.984375 12.640625 2.984375 16.21875 
L 2.984375 19 
L 9.28125 20.015625 
L 9.28125 16.21875 
Q 9.28125 13.875 10.15625 11.84375 
Q 11.03125 9.8125 12.5625 8.265625 
Q 14.109375 6.734375 16.140625 5.859375 
Q 18.171875 4.984375 20.515625 4.984375 
L 21.921875 4.984375 
Q 24.21875 4.984375 26.265625 5.859375 
Q 28.328125 6.734375 29.828125 8.265625 
Q 31.34375 9.8125 32.21875 11.84375 
Q 33.109375 13.875 33.109375 16.21875 
L 33.109375 70.015625 
L 39.40625 70.015625 
L 39.40625 16.21875 
z
" id="Abel-Regular-4a"/>
    </defs>
    <g transform="translate(298.4312738 199.735824515)rotate(-60.0)scale(0.12 -0.12)">
     <use xlink:href="#Abel-Regular-50"/>
     <use x="51.416015625" xlink:href="#Abel-Regular-45"/>
     <use x="102.83203125" xlink:href="#Abel-Regular-4a"/>
     <use x="148.2421875" xlink:href="#Abel-Regular-4f"/>
    </g>
   </g>
   <g id="text_36">
    <!-- IGM1 -->
    <defs>
     <path d="M 8.015625 0 
L 8.015625 70.015625 
L 14.3125 70.015625 
L 14.3125 0 
z
" id="Abel-Regular-49"/>
    </defs>
    <g transform="translate(228.416625721 367.2989456)rotate(-60.0)scale(0.12 -0.12)">
     <use xlink:href="#Abel-Regular-49"/>
     <use x="22.314453125" xlink:href="#Abel-Regular-47"/>
     <use x="75.732421875" xlink:href="#Abel-Regular-4d"/>
     <use x="141.11328125" xlink:href="#Abel-Regular-31"/>
    </g>
   </g>
   <g id="text_37">
    <!-- LPGS -->
    <g transform="translate(323.427017612 370.909576501)rotate(-60.0)scale(0.12 -0.12)">
     <use xlink:href="#Abel-Regular-4c"/>
     <use x="42.08984375" xlink:href="#Abel-Regular-50"/>
     <use x="93.505859375" xlink:href="#Abel-Regular-47"/>
     <use x="146.923828125" xlink:href="#Abel-Regular-53"/>
    </g>
   </g>
  </g>
 </g>
 <defs>
  <clipPath id="pd5d822164e">
   <rect height="345.6" width="216.0" x="187.2" y="43.2"/>
  </clipPath>
 </defs>
</svg>
